<?xml version="1.0" encoding="UTF-8"?>
<svg version="1.1" xmlns="http://www.w3.org/2000/svg" width="200" height="200">
<path d="M0 0 C66 0 132 0 200 0 C200 66 200 132 200 200 C134 200 68 200 0 200 C0 134 0 68 0 0 Z " fill="#C31400" transform="translate(0,0)"/>
<path d="M0 0 C66 0 132 0 200 0 C200 8.25 200 16.5 200 25 C134 25 68 25 0 25 C0 16.75 0 8.5 0 0 Z " fill="#FFFEFD" transform="translate(0,175)"/>
<path d="M0 0 C66 0 132 0 200 0 C200 8.25 200 16.5 200 25 C134 25 68 25 0 25 C0 16.75 0 8.5 0 0 Z " fill="#FEFDFD" transform="translate(0,0)"/>
<path d="M0 0 C16.66666667 0 33.33333333 0 50 0 C50 2.97 50 5.94 50 9 C47.69 9 45.38 9 43 9 C43.00523682 10.06436279 43.01047363 11.12872559 43.01586914 12.2253418 C43.0340105 16.18561966 43.04546537 20.14589386 43.05493164 24.10620117 C43.05995099 25.81812152 43.06676785 27.53003761 43.07543945 29.24194336 C43.08761021 31.70687922 43.09325238 34.17175825 43.09765625 36.63671875 C43.10281754 37.39836838 43.10797882 38.16001801 43.11329651 38.94474792 C43.11369818 42.77565136 42.83317987 46.26696363 42 50 C41.9252794 51.40072998 41.89163626 52.80435061 41.90234375 54.20703125 C41.90556641 54.95791016 41.90878906 55.70878906 41.91210938 56.48242188 C41.92048828 57.25134766 41.92886719 58.02027344 41.9375 58.8125 C41.94201172 59.60076172 41.94652344 60.38902344 41.95117188 61.20117188 C41.96288688 63.13414761 41.98082002 65.06708393 42 67 C38.37 67 34.74 67 31 67 C30.67 64.03 30.34 61.06 30 58 C29.67 58.66 29.34 59.32 29 60 C28.34 60 27.68 60 27 60 C26.79375 60.598125 26.5875 61.19625 26.375 61.8125 C25 64 25 64 19 67 C12.73 67 6.46 67 0 67 C0 49.51 0 32.02 0 14 C7 20 7 20 10 23 C10 24.32 10 25.64 10 27 C10.68964844 27.02835938 11.37929687 27.05671875 12.08984375 27.0859375 C17.03187986 28.63820119 19.87024923 32.75288714 23.27148438 36.515625 C23.82255859 37.10085937 24.37363281 37.68609375 24.94140625 38.2890625 C25.67919312 39.10431396 25.67919312 39.10431396 26.43188477 39.93603516 C26.94936279 40.28714355 27.46684082 40.63825195 28 41 C30.07031604 40.61585952 30.07031604 40.61585952 32 40 C33.75 41.4375 33.75 41.4375 35 43 C34.34 41.68 33.68 40.36 33 39 C33.66 38.67 34.32 38.34 35 38 C34.51104248 37.62834717 34.02208496 37.25669434 33.51831055 36.8737793 C31.37492109 34.22857684 31.65769075 32.39113178 31.70703125 29.01953125 C31.71669922 27.85615234 31.72636719 26.69277344 31.73632812 25.49414062 C31.76146484 24.27919922 31.78660156 23.06425781 31.8125 21.8125 C31.83280273 19.97268555 31.83280273 19.97268555 31.85351562 18.09570312 C31.88891259 15.06336336 31.9382924 12.03190004 32 9 C30.68 9 29.36 9 28 9 C28.02320312 9.95261719 28.04640625 10.90523437 28.0703125 11.88671875 C28.09738281 13.76810547 28.09738281 13.76810547 28.125 15.6875 C28.14820312 16.92886719 28.17140625 18.17023438 28.1953125 19.44921875 C28.01032021 22.81237857 27.45767895 24.9985587 26 28 C24.85373678 27.02133662 23.70800212 26.04205413 22.5625 25.0625 C21.92441406 24.51722656 21.28632812 23.97195312 20.62890625 23.41015625 C17.63692905 20.81997935 17.76106896 19.45899997 17.4375 15.4375 C17.31181641 13.91962891 17.31181641 13.91962891 17.18359375 12.37109375 C17.12300781 11.58863281 17.06242187 10.80617188 17 10 C14.69 9.34 12.38 8.68 10 8 C9.67 9.32 9.34 10.64 9 12 C7.49105554 10.57189185 5.99307655 9.13218981 4.5 7.6875 C3.6646875 6.88699219 2.829375 6.08648437 1.96875 5.26171875 C0 3 0 3 0 0 Z " fill="#FDF8F6" transform="translate(77,61)"/>
<path d="M0 0 C16.66666667 0 33.33333333 0 50 0 C50 2.97 50 5.94 50 9 C47.36 9 44.72 9 42 9 C42 20.55 42 32.1 42 44 C32.05993384 35.47994329 32.05993384 35.47994329 31.65942383 32.27270508 C31.67513428 31.19915771 31.69084473 30.12561035 31.70703125 29.01953125 C31.71669922 27.85615234 31.72636719 26.69277344 31.73632812 25.49414062 C31.76146484 24.27919922 31.78660156 23.06425781 31.8125 21.8125 C31.83280273 19.97268555 31.83280273 19.97268555 31.85351562 18.09570312 C31.88891259 15.06336336 31.9382924 12.03190004 32 9 C30.68 9 29.36 9 28 9 C28.02320312 9.95261719 28.04640625 10.90523437 28.0703125 11.88671875 C28.09738281 13.76810547 28.09738281 13.76810547 28.125 15.6875 C28.14820312 16.92886719 28.17140625 18.17023438 28.1953125 19.44921875 C28.01032021 22.81237857 27.45767895 24.9985587 26 28 C24.85373678 27.02133662 23.70800212 26.04205413 22.5625 25.0625 C21.92441406 24.51722656 21.28632812 23.97195312 20.62890625 23.41015625 C17.63692905 20.81997935 17.76106896 19.45899997 17.4375 15.4375 C17.31181641 13.91962891 17.31181641 13.91962891 17.18359375 12.37109375 C17.12300781 11.58863281 17.06242187 10.80617188 17 10 C14.69 9.34 12.38 8.68 10 8 C9.67 9.32 9.34 10.64 9 12 C7.49105554 10.57189185 5.99307655 9.13218981 4.5 7.6875 C3.6646875 6.88699219 2.829375 6.08648437 1.96875 5.26171875 C0 3 0 3 0 0 Z " fill="#FDF9F7" transform="translate(77,61)"/>
<path d="M0 0 C0.9075 -0.01224609 1.815 -0.02449219 2.75 -0.03710938 C7.34527504 -0.04718673 11.08880494 -0.02422763 15.25 2.1875 C14.92 2.8475 14.59 3.5075 14.25 4.1875 C13.26 3.8575 12.27 3.5275 11.25 3.1875 C9.69733347 3.0410286 8.14004338 2.94055926 6.58203125 2.87109375 C5.24301758 2.80825195 5.24301758 2.80825195 3.87695312 2.74414062 C2.94818359 2.70482422 2.01941406 2.66550781 1.0625 2.625 C0.12212891 2.58181641 -0.81824219 2.53863281 -1.78710938 2.49414062 C-4.10792854 2.38811335 -6.42885325 2.28604971 -8.75 2.1875 C-6.95500231 5.35165508 -5.1936606 7.98577987 -2.5625 10.5 C-1.634375 11.386875 -0.70625 12.27375 0.25 13.1875 C0.58 12.1975 0.91 11.2075 1.25 10.1875 C4.125 10.0625 4.125 10.0625 7.25 10.1875 C9.82970759 12.76720759 9.44144381 13.86557228 9.5 17.4375 C9.78290422 21.65887475 10.25575619 23.88984269 13.3125 26.875 C14.281875 27.638125 15.25125 28.40125 16.25 29.1875 C18.51849666 25.53577367 18.6395951 22.1747882 18.875 17.9375 C18.94976562 16.67421875 19.02453125 15.4109375 19.1015625 14.109375 C19.15054688 13.14515625 19.19953125 12.1809375 19.25 11.1875 C20.57 11.1875 21.89 11.1875 23.25 11.1875 C23.26458252 11.95416992 23.27916504 12.72083984 23.29418945 13.51074219 C23.3686922 16.98683493 23.46534646 20.46196968 23.5625 23.9375 C23.59633789 25.74734375 23.59633789 25.74734375 23.63085938 27.59375 C23.66630859 28.75390625 23.70175781 29.9140625 23.73828125 31.109375 C23.76446533 32.17768555 23.79064941 33.24599609 23.81762695 34.34667969 C24.29277175 37.46852318 25.15416047 38.87451295 27.25 41.1875 C26.26 41.6825 26.26 41.6825 25.25 42.1875 C25.58 43.1775 25.91 44.1675 26.25 45.1875 C25.26 44.8575 24.27 44.5275 23.25 44.1875 C23.25 43.5275 23.25 42.8675 23.25 42.1875 C22.26 42.1875 21.27 42.1875 20.25 42.1875 C19.92 42.8475 19.59 43.5075 19.25 44.1875 C18.8468457 43.76863525 18.44369141 43.34977051 18.02832031 42.91821289 C16.19348823 41.02093749 14.34697482 39.13545346 12.5 37.25 C11.86578125 36.59064453 11.2315625 35.93128906 10.578125 35.25195312 C9.959375 34.62353516 9.340625 33.99511719 8.703125 33.34765625 C8.13754883 32.76636963 7.57197266 32.18508301 6.98925781 31.58618164 C5.06536779 30.03902191 3.61437664 29.74839456 1.25 29.1875 C0.981875 28.48625 0.71375 27.785 0.4375 27.0625 C-1.01328536 23.02913321 -1.01328536 23.02913321 -7.75 17.1875 C-8.08 34.3475 -8.41 51.5075 -8.75 69.1875 C-9.08 69.1875 -9.41 69.1875 -9.75 69.1875 C-9.75 51.3675 -9.75 33.5475 -9.75 15.1875 C-9.09 14.8575 -8.43 14.5275 -7.75 14.1875 C-7.75 12.5375 -7.75 10.8875 -7.75 9.1875 C-8.41 8.8575 -9.07 8.5275 -9.75 8.1875 C-10.75 7.1875 -10.75 7.1875 -10.875 4.1875 C-10.61870042 -1.96369003 -4.9790898 0.00347702 0 0 Z " fill="#B62111" transform="translate(85.75,58.8125)"/>
<path d="M0 0 C0.33 0 0.66 0 1 0 C1.02477487 5.03539677 1.04289549 10.07075781 1.05493164 15.10620117 C1.05995099 16.81812152 1.06676785 18.53003761 1.07543945 20.24194336 C1.08761021 22.70687922 1.09325238 25.17175825 1.09765625 27.63671875 C1.10281754 28.39836838 1.10797882 29.16001801 1.11329651 29.94474792 C1.11369818 33.77565136 0.83317987 37.26696363 0 41 C-0.0747206 42.40072998 -0.10836374 43.80435061 -0.09765625 45.20703125 C-0.09443359 45.95791016 -0.09121094 46.70878906 -0.08789062 47.48242188 C-0.07951172 48.25134766 -0.07113281 49.02027344 -0.0625 49.8125 C-0.05798828 50.60076172 -0.05347656 51.38902344 -0.04882812 52.20117188 C-0.03711312 54.13414761 -0.01917998 56.06708393 0 58 C-3.63 58 -7.26 58 -11 58 C-11.33 55.03 -11.66 52.06 -12 49 C-12.66 49.66 -13.32 50.32 -14 51 C-13.67 44.4 -13.34 37.8 -13 31 C-10 31 -10 31 -8.3125 32.5 C-7.879375 32.995 -7.44625 33.49 -7 34 C-7.66 32.68 -8.32 31.36 -9 30 C-4.91927658 30.55144911 -4.08669204 30.91330796 -1 34 C-0.67 22.78 -0.34 11.56 0 0 Z " fill="#BC3E2E" transform="translate(119,70)"/>
<path d="M0 0 C0.66 0 1.32 0 2 0 C2 0.66 2 1.32 2 2 C3.32 2.66 4.64 3.32 6 4 C6 4.99 6 5.98 6 7 C6.99 7 7.98 7 9 7 C9 7.66 9 8.32 9 9 C11.475 9.99 11.475 9.99 14 11 C14 11.99 14 12.98 14 14 C14.66 14 15.32 14 16 14 C16 14.66 16 15.32 16 16 C16.99 16.33 17.98 16.66 19 17 C19 17.66 19 18.32 19 19 C19.99 19.33 20.98 19.66 22 20 C23.2065625 21.5159375 23.2065625 21.5159375 24.4375 23.0625 C25.283125 24.031875 26.12875 25.00125 27 26 C28.32 26 29.64 26 31 26 C33.25 28 33.25 28 35 30 C34.01 30.495 34.01 30.495 33 31 C33.495 32.485 33.495 32.485 34 34 C33.01 33.67 32.02 33.34 31 33 C31 32.34 31 31.68 31 31 C30.01 31 29.02 31 28 31 C27.67 31.66 27.34 32.32 27 33 C26.5968457 32.58113525 26.19369141 32.16227051 25.77832031 31.73071289 C23.94348823 29.83343749 22.09697482 27.94795346 20.25 26.0625 C19.61578125 25.40314453 18.9815625 24.74378906 18.328125 24.06445312 C17.709375 23.43603516 17.090625 22.80761719 16.453125 22.16015625 C15.88754883 21.57886963 15.32197266 20.99758301 14.73925781 20.39868164 C12.81536779 18.85152191 11.36437664 18.56089456 9 18 C8.731875 17.29875 8.46375 16.5975 8.1875 15.875 C6.73671464 11.84163321 6.73671464 11.84163321 0 6 C-0.33 23.16 -0.66 40.32 -1 58 C-1.33 58 -1.66 58 -2 58 C-2 40.18 -2 22.36 -2 4 C-1.34 3.67 -0.68 3.34 0 3 C0 2.01 0 1.02 0 0 Z " fill="#CB3929" transform="translate(78,70)"/>
<path d="M0 0 C2.31 0 4.62 0 7 0 C9.71382083 4.07073125 9.33127641 7.22328112 9.3125 12 C9.32861328 12.81984375 9.34472656 13.6396875 9.36132812 14.484375 C9.36197266 15.27328125 9.36261719 16.0621875 9.36328125 16.875 C9.36775269 17.95394531 9.36775269 17.95394531 9.37231445 19.0546875 C9 21 9 21 7.85229492 22.7578125 C6 24 6 24 0 24 C0 16.08 0 8.16 0 0 Z " fill="#C11603" transform="translate(87,96)"/>
<path d="M0 0 C9.95291902 8.53107345 9.95291902 8.53107345 10.29296875 11.91796875 C10.25816406 12.99691406 10.22335938 14.07585937 10.1875 15.1875 C10.16042969 16.27417969 10.13335937 17.36085938 10.10546875 18.48046875 C10.07066406 19.31191406 10.03585938 20.14335938 10 21 C6.7 21 3.4 21 0 21 C0 14.07 0 7.14 0 0 Z " fill="#FEECE9" transform="translate(109,107)"/>
<path d="M0 0 C0.66 0 1.32 0 2 0 C2 0.66 2 1.32 2 2 C3.32 2.66 4.64 3.32 6 4 C6 4.99 6 5.98 6 7 C6.99 7 7.98 7 9 7 C9 7.66 9 8.32 9 9 C11.475 9.99 11.475 9.99 14 11 C14 11.99 14 12.98 14 14 C12 13 10 12 8 11 C7.67 11.66 7.34 12.32 7 13 C4.69 10.69 2.38 8.38 0 6 C-0.33 23.16 -0.66 40.32 -1 58 C-1.33 58 -1.66 58 -2 58 C-2 40.18 -2 22.36 -2 4 C-1.34 3.67 -0.68 3.34 0 3 C0 2.01 0 1.02 0 0 Z " fill="#B84437" transform="translate(78,70)"/>
<path d="M0 0 C1.65 1.65 3.3 3.3 5 5 C4.01 5.495 4.01 5.495 3 6 C3 5.34 3 4.68 3 4 C2.34 4 1.68 4 1 4 C1 19.84 1 35.68 1 52 C6.94 52 12.88 52 19 52 C19 52.33 19 52.66 19 53 C12.73 53 6.46 53 0 53 C0 35.51 0 18.02 0 0 Z " fill="#FEECE5" transform="translate(77,75)"/>
<path d="M0 0 C1.32 0 2.64 0 4 0 C4 8.58 4 17.16 4 26 C3.67 26 3.34 26 3 26 C2.67 22.7 2.34 19.4 2 16 C0.68 16.99 -0.64 17.98 -2 19 C-1.84660156 18.32582031 -1.69320312 17.65164062 -1.53515625 16.95703125 C-0.91516143 13.53122048 -0.6647426 10.16106553 -0.4375 6.6875 C-0.35371094 5.43324219 -0.26992187 4.17898437 -0.18359375 2.88671875 C-0.12300781 1.93410156 -0.06242187 0.98148437 0 0 Z " fill="#AA281D" transform="translate(105,70)"/>
<path d="M0 0 C2.31 0 4.62 0 7 0 C9.71382083 4.07073125 9.33127641 7.22328112 9.3125 12 C9.32861328 12.81984375 9.34472656 13.6396875 9.36132812 14.484375 C9.36197266 15.27328125 9.36261719 16.0621875 9.36328125 16.875 C9.36775269 17.95394531 9.36775269 17.95394531 9.37231445 19.0546875 C9 21 9 21 7.85229492 22.7578125 C6 24 6 24 0 24 C0 16.08 0 8.16 0 0 Z M1 1 C1 8.26 1 15.52 1 23 C2.65 23 4.3 23 6 23 C8.44989101 19.25764681 8.23086143 15.55774581 8.125 11.25 C8.11597656 10.55261719 8.10695313 9.85523437 8.09765625 9.13671875 C8.07419888 7.42433042 8.03833104 5.71211996 8 4 C7.34 4 6.68 4 6 4 C6 3.01 6 2.02 6 1 C4.35 1 2.7 1 1 1 Z " fill="#A5291E" transform="translate(87,96)"/>
<path d="M0 0 C1.65 0.33 3.3 0.66 5 1 C5 10.24 5 19.48 5 29 C4.67 29 4.34 29 4 29 C4 20.42 4 11.84 4 3 C2.68 3 1.36 3 0 3 C0 7.62 0 12.24 0 17 C-0.33 17 -0.66 17 -1 17 C-1.02684679 14.35409986 -1.04676357 11.70846904 -1.0625 9.0625 C-1.07087891 8.30775391 -1.07925781 7.55300781 -1.08789062 6.77539062 C-1.09652441 4.85005687 -1.05224333 2.92464419 -1 1 C-0.67 0.67 -0.34 0.34 0 0 Z " fill="#FDCCC2" transform="translate(105,67)"/>
<path d="M0 0 C0.33 0 0.66 0 1 0 C1 11.55 1 23.1 1 35 C-1.31 33.02 -3.62 31.04 -6 29 C-5.01 28.67 -4.02 28.34 -3 28 C-2.34 28.33 -1.68 28.66 -1 29 C-0.67 19.43 -0.34 9.86 0 0 Z " fill="#FEF5EF" transform="translate(118,70)"/>
<path d="M0 0 C1.65 0 3.3 0 5 0 C5 4.29 5 8.58 5 13 C4.67 12.01 4.34 11.02 4 10 C3.01 9.67 2.02 9.34 1 9 C1 7.02 1 5.04 1 3 C0.34 2.67 -0.32 2.34 -1 2 C-0.67 1.34 -0.34 0.68 0 0 Z " fill="#C11502" transform="translate(88,71)"/>
<path d="M0 0 C2.86697492 1.28519565 4.97607712 2.57129254 7 5 C7 5.66 7 6.32 7 7 C7.66 7.33 8.32 7.66 9 8 C5.88742431 8 3.89234315 7.82638376 1 7 C0.67 4.69 0.34 2.38 0 0 Z " fill="#B51D0F" transform="translate(86,81)"/>
<path d="M0 0 C3.27075883 -0.0580476 6.54138524 -0.09361165 9.8125 -0.125 C10.74126953 -0.14175781 11.67003906 -0.15851562 12.62695312 -0.17578125 C13.51962891 -0.18222656 14.41230469 -0.18867187 15.33203125 -0.1953125 C16.15421143 -0.20578613 16.9763916 -0.21625977 17.82348633 -0.22705078 C20 0 20 0 23 2 C22.01 2.33 21.02 2.66 20 3 C19.67 2.67 19.34 2.34 19 2 C16.30345146 1.92680379 13.63308542 1.90757463 10.9375 1.9375 C9.79958008 1.94426758 9.79958008 1.94426758 8.63867188 1.95117188 C6.75908129 1.9629932 4.87953101 1.98092922 3 2 C2.67 2.99 2.34 3.98 2 5 C1.34 4.34 0.68 3.68 0 3 C0 2.01 0 1.02 0 0 Z " fill="#FEE6DC" transform="translate(77,61)"/>
<path d="M0 0 C1.65 1.65 3.3 3.3 5 5 C4.01 5.495 4.01 5.495 3 6 C2.53045739 9.04581269 2.53045739 9.04581269 2.375 12.5625 C2.30023438 13.76003906 2.22546875 14.95757812 2.1484375 16.19140625 C2.09945312 17.11824219 2.05046875 18.04507813 2 19 C1.67 19 1.34 19 1 19 C0.93941406 18.10796875 0.87882812 17.2159375 0.81640625 16.296875 C0.73261719 15.12640625 0.64882812 13.9559375 0.5625 12.75 C0.48128906 11.58984375 0.40007812 10.4296875 0.31640625 9.234375 C0.09788188 6.13050083 0.09788188 6.13050083 -0.59765625 3.703125 C-1 2 -1 2 0 0 Z " fill="#FEDED8" transform="translate(95,93)"/>
<path d="M0 0 C2.97 0.495 2.97 0.495 6 1 C6.77842938 4.40562852 7.09978121 7.50765756 7 11 C3.79197492 9.39598746 3.36998331 6.19662773 2 3 C1.34 2.67 0.68 2.34 0 2 C0 1.34 0 0.68 0 0 Z " fill="#CF3527" transform="translate(112,105)"/>
<path d="M0 0 C0.66 0 1.32 0 2 0 C2 3.63 2 7.26 2 11 C1.34 11 0.68 11 0 11 C-0.33 11.99 -0.66 12.98 -1 14 C-0.67 9.38 -0.34 4.76 0 0 Z " fill="#B21D0D" transform="translate(106,71)"/>
<path d="M0 0 C4.35535069 1.16142685 6.64619703 2.07699505 9 6 C8.01 6.33 7.02 6.66 6 7 C2.76985216 4.84656811 1.24313463 3.72940389 0 0 Z " fill="#B71F0E" transform="translate(93,83)"/>
<path d="M0 0 C2.38672669 2.96283313 4.7353371 5.94270509 7 9 C4.69 8.34 2.38 7.68 0 7 C-0.38133299 5.0085944 -0.71325582 3.00720923 -1 1 C-0.67 0.67 -0.34 0.34 0 0 Z " fill="#BB231B" transform="translate(76,61)"/>
<path d="M0 0 C0.33 0.66 0.66 1.32 1 2 C2.64363134 2.72159424 4.31050386 3.39351421 6 4 C6 4.99 6 5.98 6 7 C4 6 2 5 0 4 C-0.33 4.66 -0.66 5.32 -1 6 C-1.625 4.125 -1.625 4.125 -2 2 C-1.34 1.34 -0.68 0.68 0 0 Z " fill="#D84333" transform="translate(86,77)"/>
<path d="M0 0 C1.21236328 0.01353516 1.21236328 0.01353516 2.44921875 0.02734375 C3.37154297 0.04474609 3.37154297 0.04474609 4.3125 0.0625 C3.9825 1.0525 3.6525 2.0425 3.3125 3.0625 C0.3425 2.5675 0.3425 2.5675 -2.6875 2.0625 C-3.0175 3.3825 -3.3475 4.7025 -3.6875 6.0625 C-5.0075 4.4125 -6.3275 2.7625 -7.6875 1.0625 C-4.80538698 0.10179566 -2.98899956 -0.04331883 0 0 Z " fill="#FEE0D7" transform="translate(89.6875,66.9375)"/>
<path d="M0 0 C2.38564077 0.57584432 4.66682784 1.22227595 7 2 C7 3.65 7 5.3 7 7 C5.83040013 6.02433888 4.66438823 5.044375 3.5 4.0625 C2.8503125 3.51722656 2.200625 2.97195312 1.53125 2.41015625 C1.0259375 1.94480469 0.520625 1.47945313 0 1 C0 0.67 0 0.34 0 0 Z " fill="#FFE4E0" transform="translate(112,98)"/>
<path d="M0 0 C0.66 0 1.32 0 2 0 C2 0.66 2 1.32 2 2 C2.99 2.33 3.98 2.66 5 3 C4.67 4.32 4.34 5.64 4 7 C2.35 5.02 0.7 3.04 -1 1 C-0.67 0.67 -0.34 0.34 0 0 Z " fill="#AD200F" transform="translate(100,95)"/>
<path d="M0 0 C0.66 0 1.32 0 2 0 C2 0.66 2 1.32 2 2 C3.32 2.66 4.64 3.32 6 4 C5.67 4.99 5.34 5.98 5 7 C4.67 6.01 4.34 5.02 4 4 C1.98491642 3.26676204 1.98491642 3.26676204 0 3 C0 2.01 0 1.02 0 0 Z " fill="#DF5841" transform="translate(78,70)"/>
</svg>
