<?xml version="1.0" encoding="UTF-8"?>
<svg version="1.1" xmlns="http://www.w3.org/2000/svg" width="1200" height="242">
<path d="M0 0 C12.07673141 9.14962636 18.25155997 21.96966704 20.43359375 36.84375 C21.40629105 52.55046343 20.80790772 67.70578847 16.43359375 82.84375 C16.22992188 83.57287598 16.02625 84.30200195 15.81640625 85.05322266 C8.86876973 109.38603298 -3.8369223 132.11812689 -19.56640625 151.84375 C-20.27152344 152.7409375 -20.97664062 153.638125 -21.703125 154.5625 C-27.64166581 161.9830106 -34.03808676 168.94480607 -40.56640625 175.84375 C-41.20449219 176.524375 -41.84257812 177.205 -42.5 177.90625 C-47.44782935 183.03205882 -52.98947702 187.42566321 -58.56640625 191.84375 C-59.57960937 192.65070313 -60.5928125 193.45765625 -61.63671875 194.2890625 C-89.14671792 215.97381615 -118.15224298 230.7578551 -154.16748047 226.5390625 C-162.83786065 225.09675865 -170.48682336 222.08448019 -177.56640625 216.84375 C-178.53126953 216.14958984 -178.53126953 216.14958984 -179.515625 215.44140625 C-189.41374453 207.69038423 -195.76888933 194.11997351 -197.56640625 181.84375 C-201.22435415 151.41947178 -191.75224781 122.42001622 -177.56640625 95.84375 C-176.95023438 94.68230469 -176.3340625 93.52085938 -175.69921875 92.32421875 C-165.86217256 74.46651042 -153.3529133 57.90503327 -138.56640625 43.84375 C-137.78265625 43.06 -136.99890625 42.27625 -136.19140625 41.46875 C-135.32515625 40.6025 -134.45890625 39.73625 -133.56640625 38.84375 C-132.71949219 37.92722656 -132.71949219 37.92722656 -131.85546875 36.9921875 C-102.27331052 5.82324683 -40.95716559 -28.05773898 0 0 Z " fill="#AE282E" transform="translate(199.56640625,11.15625)"/>
<path d="M0 0 C10.38833778 -0.06972357 20.77661924 -0.12292438 31.16514397 -0.15543652 C35.98973777 -0.17104617 40.81417066 -0.19219796 45.63867188 -0.22631836 C50.30062553 -0.25908023 54.96242506 -0.27688831 59.62448502 -0.28463173 C61.39695789 -0.29014517 63.16942299 -0.30091111 64.94182968 -0.31719017 C88.43535404 -0.52425416 88.43535404 -0.52425416 97.4375 8.1875 C101.25548716 12.61636511 101.44785258 17.65956475 101.3125 23.28515625 C100.25344379 32.48570704 95.94471352 40.56889216 89.08203125 46.71875 C83.83620729 50.85858787 78.84073202 54 72 54 C72 54.66 72 55.32 72 56 C72.825 56.061875 73.65 56.12375 74.5 56.1875 C79.69655287 57.39384263 83.90808192 59.52826439 87.3984375 63.65234375 C91.41228387 70.38478819 91.04506966 78.54377599 89.3046875 85.96484375 C85.10946255 98.53289161 77.76335113 106.50684434 66.1875 112.75 C52.16020994 119.35107768 37.00774317 119.1526889 21.83203125 119.09765625 C20.30075629 119.09578675 18.76948073 119.09436537 17.23820496 119.09336853 C13.24508965 119.08958518 9.25201182 119.07979158 5.25891113 119.06866455 C1.16935737 119.05835955 -2.92020257 119.05385161 -7.00976562 119.04882812 C-15.00652745 119.03816475 -23.00325904 119.0211398 -31 119 C-30.40742417 113.46033802 -29.43143409 108.25787325 -27.97802734 102.88525391 C-27.77454681 102.11630295 -27.57106628 101.34735199 -27.36141968 100.55509949 C-26.69124432 98.02756526 -26.01365347 95.50208429 -25.3359375 92.9765625 C-24.86044358 91.18952117 -24.38540544 89.40235852 -23.91079712 87.61508179 C-22.65885855 82.90564846 -21.40057663 78.19793251 -20.14099121 73.49053955 C-18.88561297 68.79422455 -17.63647565 64.09625088 -16.38671875 59.3984375 C-14.02249708 50.51551418 -11.64943792 41.63497812 -9.27233887 32.75549316 C-8.27570407 29.03212342 -7.28178124 25.30803907 -6.28930473 21.58355904 C-5.47843699 18.54222716 -4.66483587 15.50162682 -3.8515625 12.4609375 C-3.56977142 11.40129791 -3.28798035 10.34165833 -2.99765015 9.24990845 C-2.74399689 8.30425018 -2.49034363 7.35859192 -2.22900391 6.38427734 C-2.01337799 5.57679047 -1.79775208 4.76930359 -1.57559204 3.93734741 C-1 2 -1 2 0 0 Z M22 18 C20.82452599 21.91407837 19.66115777 25.83165293 18.5 29.75 C18.16613281 30.86117187 17.83226562 31.97234375 17.48828125 33.1171875 C17.01455078 34.72207031 17.01455078 34.72207031 16.53125 36.359375 C16.23798828 37.34389648 15.94472656 38.32841797 15.64257812 39.34277344 C14.8433014 42.1923529 14.8433014 42.1923529 15 46 C19.9255044 46.07491408 24.85066732 46.12895771 29.77661133 46.16479492 C31.44756864 46.17975584 33.11848755 46.20013204 34.78930664 46.22631836 C50.95674784 46.82396635 50.95674784 46.82396635 65.5 40.6875 C69.17047658 36.74173768 70.78954206 33.74379438 71.4375 28.375 C71.27301438 24.98501885 71.27301438 24.98501885 69.3125 22.6875 C60.31148661 16.11919293 47.58372496 17.87309526 36.9375 17.9375 C35.48502759 17.94252586 34.03255349 17.94708684 32.58007812 17.95117188 C29.05334985 17.96208958 25.52668598 17.97929414 22 18 Z M9 66 C7.35854171 70.84695587 5.74475143 75.68321161 4.39453125 80.62109375 C4.13349609 81.57564453 3.87246094 82.53019531 3.60351562 83.51367188 C3.34248047 84.47853516 3.08144531 85.44339844 2.8125 86.4375 C2.53986328 87.42943359 2.26722656 88.42136719 1.98632812 89.44335938 C1.72916016 90.38888672 1.47199219 91.33441406 1.20703125 92.30859375 C0.85862183 93.58947876 0.85862183 93.58947876 0.50317383 94.89624023 C-0.0775391 96.96367327 -0.0775391 96.96367327 0 99 C4.60406987 99.05013226 9.20797445 99.0860587 13.81225586 99.10986328 C15.37250543 99.11980628 16.93273696 99.13336547 18.49291992 99.15087891 C37.94626474 99.89440991 37.94626474 99.89440991 55 92 C59.29283865 87.59419191 61.01430409 83.02237097 61.4375 76.9375 C61.31976415 72.95040069 61.31976415 72.95040069 58.9375 70.125 C52.90092999 65.75811957 46.75312247 65.71624755 39.56640625 65.8046875 C38.68846909 65.8075174 37.81053192 65.81034729 36.9059906 65.81326294 C34.12468355 65.82438402 31.34370836 65.84947328 28.5625 65.875 C26.66732239 65.88504025 24.77213968 65.89416427 22.87695312 65.90234375 C18.25117583 65.92429685 13.62564402 65.9587704 9 66 Z " fill="#01497D" transform="translate(767,119)"/>
<path d="M0 0 C2.05799447 0.00316016 4.11454493 -0.02040349 6.17236328 -0.0456543 C20.40928023 -0.11455187 35.53113956 1.74440873 46.64501953 11.46020508 C53.45856513 18.65364261 54.42194952 24.87310704 54.35986328 34.54614258 C54.19189453 37.31567383 54.19189453 37.31567383 53.19189453 41.31567383 C39.66189453 41.31567383 26.13189453 41.31567383 12.19189453 41.31567383 C11.53189453 38.01567383 10.87189453 34.71567383 10.19189453 31.31567383 C7.6834328 27.85572661 5.18106763 26.66620469 1.19189453 25.31567383 C-9.23561118 24.12632968 -18.39241447 26.03199712 -27.05810547 32.00317383 C-37.46903078 40.51926815 -43.50926029 53.2122563 -45.80810547 66.31567383 C-46.55880054 74.05149497 -46.63004813 80.91276636 -41.80810547 87.31567383 C-36.91792174 92.47753443 -30.74834244 93.38209777 -23.93310547 93.62817383 C-15.122374 93.39844617 -6.99017048 90.79875038 -0.80810547 84.31567383 C-0.16933575 82.59261016 0.46311123 80.86719372 1.09033203 79.13989258 C2.64892578 76.46533203 2.64892578 76.46533203 5.19189453 74.31567383 C12.05738098 72.52624101 19.55456732 73.38598999 26.56689453 73.69067383 C28.5628777 73.7408567 30.55898107 73.78648024 32.55517578 73.82739258 C37.43705221 73.93738322 42.31315994 74.10977995 47.19189453 74.31567383 C46.72625499 75.75478197 46.25695915 77.1927074 45.78613281 78.63012695 C45.52518829 79.43099731 45.26424377 80.23186768 44.99539185 81.05700684 C40.03745413 94.99399214 28.2225758 104.53851083 15.31298828 110.68676758 C-7.95152963 120.90859618 -39.91305875 123.51423918 -64.09716797 114.50317383 C-74.95654005 109.74633073 -82.43453791 103.54324538 -87.08154297 92.49145508 C-92.2840506 76.91190266 -87.63154073 59.60406389 -80.80810547 45.31567383 C-80.14488281 43.90995117 -80.14488281 43.90995117 -79.46826172 42.47583008 C-75.89135751 35.41119656 -71.29553282 29.97854291 -65.80810547 24.31567383 C-65.01339844 23.39334961 -65.01339844 23.39334961 -64.20263672 22.45239258 C-48.56300927 4.96334903 -22.2586514 -0.071156 0 0 Z " fill="#01497E" transform="translate(376.80810546875,118.684326171875)"/>
<path d="M0 0 C2.02054262 0.01611356 4.03908656 0.0000182 6.05957031 -0.01904297 C20.23589604 -0.04296772 36.2275351 1.52371664 47.24707031 11.38330078 C52.20758706 16.79291781 54.17915288 21.46799305 54.70800781 28.82861328 C54.794375 29.92044922 54.88074219 31.01228516 54.96972656 32.13720703 C55.02050781 35.39111328 55.02050781 35.39111328 54.02050781 41.39111328 C40.16050781 41.39111328 26.30050781 41.39111328 12.02050781 41.39111328 C11.52550781 36.93611328 11.52550781 36.93611328 11.02050781 32.39111328 C9.17064808 29.17098707 7.79064993 27.79543789 4.52050781 26.07861328 C-6.13182468 23.98619083 -16.12233109 25.32526968 -25.52246094 30.89892578 C-37.40552172 39.45791428 -42.60514601 53.15391724 -45.49902344 67.03173828 C-46.50785474 74.08535554 -46.06201379 79.96399335 -42.97949219 86.39111328 C-38.76892584 91.09704037 -32.67908572 92.95517392 -26.52636719 93.68017578 C-17.72526037 93.98461658 -9.86415698 91.82314877 -2.91088867 86.34716797 C-0.85003875 84.47890703 -0.85003875 84.47890703 0.18798828 81.88989258 C1.77060583 78.53639641 3.08416512 76.69769704 6.02050781 74.39111328 C12.76309475 72.64506108 20.07316842 73.45810578 26.95800781 73.76611328 C28.90125326 73.81630961 30.84462263 73.86193079 32.78808594 73.90283203 C37.53529661 74.01268706 42.27654098 74.18500551 47.02050781 74.39111328 C44.61825142 87.42009323 34.94177013 98.13283217 24.51269531 105.80126953 C1.57877694 120.4315278 -28.76625539 121.7690189 -54.97949219 117.39111328 C-65.6872995 114.97243717 -76.60629267 109.96896326 -82.76464844 100.50830078 C-83.36599609 99.46029297 -83.36599609 99.46029297 -83.97949219 98.39111328 C-84.39070313 97.73369141 -84.80191406 97.07626953 -85.22558594 96.39892578 C-91.18512068 84.80979594 -89.15546554 68.44073831 -85.31494141 56.43945312 C-78.00732089 35.75182154 -64.49055318 19.19227697 -44.78955078 9.25488281 C-30.59446256 2.48091166 -15.60401116 -0.14720765 0 0 Z " fill="#01497E" transform="translate(583.9794921875,118.60888671875)"/>
<path d="M0 0 C2.69594545 2.44320056 2.9663746 3.51239413 3.21826172 7.16503906 C2.98217459 11.31320089 1.97173251 14.7101394 0.5078125 18.546875 C-0.03357532 20.03003425 -0.57474405 21.51327348 -1.11572266 22.99658203 C-1.4028009 23.7711676 -1.68987915 24.54575317 -1.98565674 25.34381104 C-7.078268 39.12227604 -11.6637701 52.97977472 -15.625 67.125 C-15.82832947 67.85021851 -16.03165894 68.57543701 -16.2411499 69.32263184 C-17.51339746 73.87655377 -18.75983167 78.43722831 -20 83 C-20.29527588 84.07056641 -20.59055176 85.14113281 -20.89477539 86.24414062 C-21.1602417 87.20771484 -21.42570801 88.17128906 -21.69921875 89.1640625 C-21.92440186 89.98084473 -22.14958496 90.79762695 -22.3815918 91.63916016 C-24.68209455 100.42157692 -25.22061082 108.9513708 -25.3125 118 C-25.33014404 119.01610352 -25.34778809 120.03220703 -25.3659668 121.07910156 C-25.36508057 122.04299805 -25.36419434 123.00689453 -25.36328125 124 C-25.36626221 124.86625 -25.36924316 125.7325 -25.37231445 126.625 C-24.92066385 129.50608661 -23.97118466 130.88069164 -22 133 C-19.9683434 133.68850829 -19.9683434 133.68850829 -17.8125 133.75 C-16.554375 133.8325 -15.29625 133.915 -14 134 C-18.07573292 138.5167942 -22.5505784 141.42615614 -27.8125 144.4375 C-28.64982666 144.91832031 -29.48715332 145.39914063 -30.34985352 145.89453125 C-37.98371839 150.17128719 -45.67949616 153.3439434 -54 156 C-55.39412109 156.50660156 -55.39412109 156.50660156 -56.81640625 157.0234375 C-67.3989891 160.38152056 -79.02944092 159.25949285 -90 159 C-87 157 -87 157 -83.3125 155.5 C-68.89452534 148.22511699 -62.45310438 126.87035426 -57.73046875 112.546875 C-50.81212037 90.75941765 -44.06866491 68.10077426 -46 45 C-47.72226496 41.75150023 -47.72226496 41.75150023 -51 41 C-58.29597145 40.19665296 -63.5885824 41.55939013 -70 45 C-72.95664519 46.4783226 -75.74229737 46.06032783 -79 46 C-79.82111971 43.67091201 -80.17138518 42.45421756 -79.28515625 40.10546875 C-75.8550233 34.72465316 -71.96145104 30.97068508 -67 27 C-65.89121546 26.08289092 -64.78320398 25.16484677 -63.67578125 24.24609375 C-18.55943707 -12.86253552 -18.55943707 -12.86253552 0 0 Z " fill="#FEFCFB" transform="translate(140,79)"/>
<path d="M0 0 C1.5631897 0.00785522 1.5631897 0.00785522 3.15795898 0.01586914 C4.28266602 0.0190918 5.40737305 0.02231445 6.56616211 0.02563477 C7.75016602 0.03401367 8.93416992 0.04239258 10.15405273 0.05102539 C11.34192383 0.05553711 12.52979492 0.06004883 13.75366211 0.06469727 C16.69967499 0.07652864 19.64558954 0.09301252 22.59155273 0.11352539 C16.95690845 22.12188335 11.31250295 44.12741147 5.59155273 66.11352539 C6.07285645 65.75750244 6.55416016 65.40147949 7.05004883 65.03466797 C16.14024818 58.31428294 25.24399842 51.61349871 34.40405273 44.98852539 C35.13736816 44.45718994 35.87068359 43.92585449 36.6262207 43.37841797 C37.67060303 42.62467896 37.67060303 42.62467896 38.73608398 41.85571289 C39.33783447 41.4211377 39.93958496 40.9865625 40.55957031 40.53881836 C41.23012451 40.06847168 41.90067871 39.598125 42.59155273 39.11352539 C43.50912354 38.40502441 44.42669434 37.69652344 45.37207031 36.96655273 C49.22545512 34.74867219 51.54061554 34.64987354 55.95874023 34.72290039 C56.63832794 34.72856018 57.31791565 34.73421997 58.01809692 34.74005127 C60.16832822 34.76227188 62.31683347 34.81243341 64.46655273 34.86352539 C65.93267433 34.88360925 67.39882231 34.90185671 68.86499023 34.91821289 C72.44106281 34.96208728 76.01613904 35.03101096 79.59155273 35.11352539 C78.50390354 38.37647296 78.10304057 38.73522457 75.40795898 40.57446289 C74.73651855 41.03949219 74.06507812 41.50452148 73.37329102 41.98364258 C72.27476807 42.72855957 72.27476807 42.72855957 71.15405273 43.48852539 C69.59996449 44.56303042 68.04660308 45.63858729 66.49389648 46.71508789 C65.2832251 47.55088379 65.2832251 47.55088379 64.0480957 48.40356445 C60.06828667 51.17384695 56.1421737 54.01721039 52.21655273 56.86352539 C51.46656006 57.40630127 50.71656738 57.94907715 49.94384766 58.50830078 C44.1531511 62.70094663 38.36837824 66.90178697 32.59155273 71.11352539 C35.23827512 75.16145374 38.00124938 79.03798045 40.96655273 82.86352539 C41.38718994 83.4071875 41.80782715 83.95084961 42.24121094 84.51098633 C43.68892332 86.3803751 45.1400339 88.24709083 46.59155273 90.11352539 C47.15825684 90.84313477 47.72496094 91.57274414 48.30883789 92.32446289 C51.26939535 96.13605028 54.23189145 99.94611903 57.19702148 103.75415039 C57.74664551 104.46249023 58.29626953 105.17083008 58.86254883 105.90063477 C60.09027995 107.47196418 61.32872656 109.0349473 62.57446289 110.59204102 C63.21561035 111.39834961 63.85675781 112.2046582 64.51733398 113.03540039 C65.10554932 113.76855469 65.69376465 114.50170898 66.29980469 115.25708008 C67.59155273 117.11352539 67.59155273 117.11352539 67.59155273 119.11352539 C38.5130547 121.63282212 38.5130547 121.63282212 30.96459961 117.76879883 C27.05083409 114.30752572 24.81577765 109.98808205 22.65551758 105.28979492 C20.98060838 101.86387923 18.70016873 98.95455339 16.40405273 95.92602539 C11.7324226 89.3689085 7.16840456 82.73695212 2.59155273 76.11352539 C2.26356689 77.34506348 1.93558105 78.57660156 1.59765625 79.84545898 C0.38287918 84.40447406 -0.83473693 88.96272681 -2.05322266 93.52075195 C-2.58069378 95.49547909 -3.10738957 97.4704135 -3.63330078 99.44555664 C-4.38835285 102.28073804 -5.14616899 105.11516799 -5.90454102 107.94946289 C-6.1399913 108.83596527 -6.37544159 109.72246765 -6.61802673 110.63583374 C-6.83817947 111.45653351 -7.05833221 112.27723328 -7.28515625 113.12280273 C-7.57494606 114.20868179 -7.57494606 114.20868179 -7.87059021 115.3164978 C-8.40844727 117.11352539 -8.40844727 117.11352539 -9.40844727 119.11352539 C-17.65844727 119.11352539 -25.90844727 119.11352539 -34.40844727 119.11352539 C-31.48047463 106.3860281 -28.25475301 93.76626387 -24.87329102 81.15258789 C-24.34789791 79.18547098 -23.82272015 77.21829654 -23.29774475 75.25106812 C-21.9284555 70.12238587 -20.55613022 64.99452089 -19.1831665 59.86682129 C-17.78946829 54.65922428 -16.39897766 49.45077096 -15.00805664 44.24243164 C-9.63863078 24.14343962 -9.63863078 24.14343962 -6.97105026 14.21497345 C-6.45740822 12.29640553 -5.94960222 10.3762776 -5.44241333 8.45599365 C-5.17540619 7.45272034 -4.90839905 6.44944702 -4.63330078 5.41577148 C-4.41521255 4.5883847 -4.19712433 3.76099792 -3.97242737 2.90853882 C-3.12185597 0.20137401 -2.91565148 0.13743314 0 0 Z " fill="#02497D" transform="translate(1118.408447265625,118.886474609375)"/>
<path d="M0 0 C4.79545902 4.60574856 6.00440871 9.08398175 6.19921875 15.671875 C6.08996813 25.74517507 3.16458678 35.13098243 0.46484375 44.76953125 C-0.29084007 47.52987294 -1.04154028 50.29153793 -1.79196167 53.05331421 C-2.27443736 54.82687383 -2.75903067 56.59985891 -3.24588013 58.3722229 C-5.09167358 65.11613607 -6.71701343 71.87768209 -8.22265625 78.70703125 C-16.47265625 78.70703125 -24.72265625 78.70703125 -33.22265625 78.70703125 C-33.22265625 75.73703125 -33.22265625 72.76703125 -33.22265625 69.70703125 C-33.98835937 70.28710938 -33.98835937 70.28710938 -34.76953125 70.87890625 C-46.52655643 79.30060514 -59.89003505 81.88048471 -74.109375 80.265625 C-81.62791951 78.86738346 -87.84308428 77.25372267 -92.5234375 70.95703125 C-96.13564553 64.80014059 -96.1712824 58.73167591 -94.5625 51.90625 C-91.47131722 42.23124935 -86.68191012 36.74270543 -77.78515625 31.89453125 C-60.19223095 23.35789967 -39.29694397 24.50834075 -20.22265625 24.70703125 C-19.5137806 17.49592089 -19.5137806 17.49592089 -22.09765625 11.08203125 C-27.84131278 7.36554761 -34.60814968 8.222377 -41.22265625 8.70703125 C-44.37213135 9.52598837 -46.8053568 10.51799979 -49.22265625 12.70703125 C-49.68800781 13.73828125 -50.15335938 14.76953125 -50.6328125 15.83203125 C-53.22265625 18.70703125 -53.22265625 18.70703125 -55.88354492 19.19287109 C-59.2643608 19.29867481 -62.59343605 19.22862701 -65.97265625 19.08203125 C-67.14699219 19.05496094 -68.32132813 19.02789062 -69.53125 19 C-72.43023785 18.92929298 -75.32552095 18.83065081 -78.22265625 18.70703125 C-74.9792097 8.35127365 -69.45593652 3.51073898 -59.95703125 -1.484375 C-43.03289539 -9.50262818 -15.42477144 -11.80555133 0 0 Z M-66.22265625 47.70703125 C-68.29396604 52.16715088 -69.84333913 55.9545149 -68.16015625 60.70703125 C-65.30046226 63.65897343 -63.23673509 64.597194 -59.12109375 65.04296875 C-48.31496514 65.16277062 -40.11327731 63.42330045 -32.05078125 55.91796875 C-29.0458645 52.28381729 -24.22265625 45.61407428 -24.22265625 40.70703125 C-28.70169724 40.61918925 -33.18051349 40.56635678 -37.66015625 40.51953125 C-38.92021484 40.49439453 -40.18027344 40.46925781 -41.47851562 40.44335938 C-50.28434415 40.37438422 -60.00881384 40.57938848 -66.22265625 47.70703125 Z " fill="#02497C" transform="translate(955.22265625,159.29296875)"/>
<path d="M0 0 C-0.6875 1.875 -0.6875 1.875 -2 4 C-3.66666667 4.66666667 -5.33333333 5.33333333 -7 6 C-8.10836423 7.88316159 -8.10836423 7.88316159 -9 10 C-11 12.25 -11 12.25 -13 14 C-13.66 14 -14.32 14 -15 14 C-15.2371875 14.54140625 -15.474375 15.0828125 -15.71875 15.640625 C-17.34347757 18.63250137 -19.3501877 21.11159399 -21.5 23.75 C-22.2940625 24.73484375 -23.088125 25.7196875 -23.90625 26.734375 C-24.5971875 27.48203125 -25.288125 28.2296875 -26 29 C-26.66 29 -27.32 29 -28 29 C-28.25652344 29.73089844 -28.51304688 30.46179688 -28.77734375 31.21484375 C-30.41982883 34.9563513 -32.84135128 37.69742139 -35.44140625 40.81640625 C-36.96753725 42.9545196 -37.57554285 44.43581365 -38 47 C-38.66 47 -39.32 47 -40 47 C-40.25910156 47.69351563 -40.51820312 48.38703125 -40.78515625 49.1015625 C-42.61264289 53.46167533 -44.96183315 57.51407382 -47.24609375 61.6484375 C-54.0841779 74.71542236 -58.68207399 88.47544204 -61 103 C-61.18433594 104.1446875 -61.36867188 105.289375 -61.55859375 106.46875 C-63.52970994 122.23767951 -62.47007036 138.81766206 -53 152 C-52.38125 153.0725 -51.7625 154.145 -51.125 155.25 C-44.89860774 163.3076841 -36.40328403 166.01524973 -27 169 C-27 169.66 -27 170.32 -27 171 C-22.05 171 -17.1 171 -12 171 C-15.68610418 183.28701395 -21.3407179 196.88573988 -32.1796875 204.5390625 C-38.73294975 207.97643402 -43.64911373 208.25552108 -50.6875 206.4375 C-51.39575928 206.25622559 -52.10401855 206.07495117 -52.83374023 205.88818359 C-58.90376237 204.2242354 -63.92605585 201.75603658 -69 198 C-69.96486328 197.30583984 -69.96486328 197.30583984 -70.94921875 196.59765625 C-80.84733828 188.84663423 -87.20248308 175.27622351 -89 163 C-92.6579479 132.57572178 -83.18584156 103.57626622 -69 77 C-68.38382813 75.83855469 -67.76765625 74.67710938 -67.1328125 73.48046875 C-57.29576631 55.62276042 -44.78650705 39.06128327 -30 25 C-29.21625 24.21625 -28.4325 23.4325 -27.625 22.625 C-26.75875 21.75875 -25.8925 20.8925 -25 20 C-24.40058594 19.36578125 -23.80117187 18.7315625 -23.18359375 18.078125 C-18.59057398 13.30747463 -13.75106014 9.03810408 -8.5625 4.9375 C-7.63932983 4.20345947 -7.63932983 4.20345947 -6.69750977 3.45458984 C-2.25227457 0 -2.25227457 0 0 0 Z " fill="#EF6322" transform="translate(91,30)"/>
<path d="M0 0 C4.57124844 4.36808184 6.88156368 8.85518742 8 15 C8.00681066 23.86958822 6.22852142 32.15254263 3.83984375 40.64453125 C3.53051407 41.78033127 3.22118439 42.91613129 2.90248108 44.08634949 C1.92519186 47.66486988 0.93167416 51.2386382 -0.0625 54.8125 C-0.73350667 57.25816617 -1.40343837 59.70412754 -2.07226562 62.15039062 C-3.70048504 68.1043875 -5.35064055 74.05166496 -7 80 C-15.25 80 -23.5 80 -32 80 C-30.87508454 71.00067633 -30.87508454 71.00067633 -29.984375 67.68286133 C-29.7874707 66.93881546 -29.59056641 66.19476959 -29.38769531 65.42817688 C-29.17725586 64.65394882 -28.96681641 63.87972076 -28.75 63.08203125 C-28.42273926 61.85162361 -28.42273926 61.85162361 -28.08886719 60.59635925 C-27.39751164 58.0003915 -26.69910703 55.40638985 -26 52.8125 C-25.30220305 50.20756808 -24.60590959 47.60224478 -23.91113281 44.99650574 C-23.48023427 43.382118 -23.04738652 41.76824888 -22.61230469 40.15498352 C-19.5994995 29.49913067 -19.5994995 29.49913067 -21.1875 18.75 C-24.07153905 14.37421661 -26.62110094 13.30382522 -31.6875 12.1875 C-40.95938914 11.38729944 -48.6597046 14.47572924 -56 20 C-63.47854896 26.85266182 -66.49350756 35.80658882 -68.98046875 45.37109375 C-69.36795036 46.81549583 -69.36795036 46.81549583 -69.76325989 48.28907776 C-70.57948245 51.33644997 -71.38412953 54.38671693 -72.1875 57.4375 C-73.0034205 60.51274492 -73.82178828 63.58730163 -74.64387512 66.66090393 C-75.15316327 68.5673388 -75.65855319 70.47482005 -76.15971375 72.38340759 C-76.38697647 73.23842361 -76.6142392 74.09343964 -76.84838867 74.97436523 C-77.04728195 75.72967026 -77.24617523 76.48497528 -77.45109558 77.26316833 C-78 79 -78 79 -79 80 C-80.85369611 80.08737645 -82.71067541 80.10698153 -84.56640625 80.09765625 C-85.69111328 80.09443359 -86.81582031 80.09121094 -87.97460938 80.08789062 C-89.15861328 80.07951172 -90.34261719 80.07113281 -91.5625 80.0625 C-92.75037109 80.05798828 -93.93824219 80.05347656 -95.16210938 80.04882812 C-98.10812226 80.03699675 -101.05403681 80.02051287 -104 80 C-101.86788845 70.62811556 -99.59129858 61.30548312 -97.125 52.015625 C-96.87169922 51.05934204 -96.61839844 50.10305908 -96.35742188 49.11779785 C-95.31257707 45.17851689 -94.26574397 41.23981429 -93.20898438 37.30371094 C-89.53720269 23.60514082 -86.50799326 9.96277018 -84 -4 C-75.42 -4 -66.84 -4 -58 -4 C-58.33 -0.37 -58.66 3.26 -59 7 C-57.618125 5.948125 -56.23625 4.89625 -54.8125 3.8125 C-39.61409292 -6.83070268 -16.27948955 -11.01045833 0 0 Z " fill="#02497C" transform="translate(1071,158)"/>
<path d="M0 0 C13.53 0 27.06 0 41 0 C39.87498934 9.00008532 39.87498934 9.00008532 39.05368042 12.05870056 C38.77650429 13.10642891 38.77650429 13.10642891 38.49372864 14.17532349 C38.29325424 14.91144867 38.09277985 15.64757385 37.88623047 16.40600586 C37.67299637 17.20582382 37.45976227 18.00564178 37.24006653 18.82969666 C36.53755516 21.45947933 35.82747598 24.08715196 35.1171875 26.71484375 C34.61929518 28.57154637 34.12183619 30.42836524 33.62478638 32.28529358 C32.58054793 36.18219766 31.53287918 40.07815643 30.48242188 43.97338867 C29.15673804 48.88924428 27.83670575 53.80659207 26.51891708 58.72456932 C21.12596238 78.84915126 15.67282228 98.9522782 10 119 C-3.86 119 -17.72 119 -32 119 C-29.54346077 108.55970827 -27.05803406 98.19729585 -24.2421875 87.859375 C-23.89339981 86.57065892 -23.54486578 85.28187415 -23.19656372 83.99302673 C-22.28039714 80.60550261 -21.36091004 77.21888912 -20.44061279 73.8324852 C-19.48719639 70.32217642 -18.53668482 66.81108127 -17.5859375 63.30004883 C-16.4499899 59.10578963 -15.3137352 54.91161475 -14.17596436 50.71784973 C-12.00609206 42.71943181 -9.844695 34.71879604 -7.6953125 26.71484375 C-7.22545263 24.96711448 -6.75556473 23.21939274 -6.28564453 21.47167969 C-5.64884822 19.10317972 -5.01259357 16.7345432 -4.37835693 14.36535645 C-3.81664654 12.26779182 -3.25239805 10.17092672 -2.6875 8.07421875 C-2.22923828 6.36625122 -2.22923828 6.36625122 -1.76171875 4.6237793 C-1 2 -1 2 0 0 Z " fill="#01497D" transform="translate(458,118)"/>
<path d="M0 0 C13.53 0 27.06 0 41 0 C39.87497934 9.00016526 39.87497934 9.00016526 38.91960144 12.59501648 C38.70523941 13.41181381 38.49087738 14.22861115 38.27001953 15.07015991 C38.03677979 15.9373465 37.80354004 16.80453308 37.56323242 17.69799805 C37.31591873 18.63413437 37.06860504 19.57027069 36.813797 20.53477478 C35.99946008 23.61180298 35.17762023 26.68677015 34.35546875 29.76171875 C33.78316948 31.91622376 33.21126112 34.07083265 32.63972473 36.22554016 C31.44168877 40.73773739 30.24015048 45.24898197 29.03588867 49.75952148 C27.50080069 55.50958649 25.97251653 61.26143116 24.44665051 67.01394939 C23.26563142 71.46461412 22.08190919 75.91455627 20.89730263 80.36426735 C20.3334091 82.48295989 19.77011214 84.6018113 19.20744896 86.72083092 C18.41585798 89.69959047 17.62086383 92.67742195 16.82495117 95.6550293 C16.59778412 96.51209473 16.37061707 97.36916016 16.13656616 98.25219727 C14.26354492 105.23665204 12.13140974 112.07291834 10 119 C-3.53 119 -17.06 119 -31 119 C-29.81425869 112.4784228 -28.65512143 106.18586414 -26.95629883 99.82006836 C-26.66548935 98.70987587 -26.66548935 98.70987587 -26.36880493 97.57725525 C-25.73552234 95.16371901 -25.09636268 92.75178404 -24.45703125 90.33984375 C-24.00549082 88.62432225 -23.55430079 86.90870849 -23.10343933 85.19300842 C-21.91799056 80.68609193 -20.72744084 76.18053801 -19.53588867 71.67523193 C-18.34800214 67.1795645 -17.1655788 62.68246083 -15.98242188 58.18554688 C-13.33282995 48.12071994 -10.67103646 38.05915638 -8 28 C-7.71331074 26.92004635 -7.71331074 26.92004635 -7.42082977 25.81827545 C-6.24734564 21.39976236 -5.06877034 16.9826369 -3.88671875 12.56640625 C-3.60278763 11.50034653 -3.31885651 10.4342868 -3.02632141 9.33592224 C-2.76973251 8.38145706 -2.51314362 7.42699188 -2.2487793 6.44360352 C-2.02957321 5.62537613 -1.81036713 4.80714874 -1.58451843 3.96412659 C-1 2 -1 2 0 0 Z " fill="#01497D" transform="translate(665,118)"/>
<path d="M0 0 C13.53 0 27.06 0 41 0 C38.75015184 12.37416489 38.75015184 12.37416489 37.07983398 18.50219727 C36.89892715 19.17095383 36.71802032 19.83971039 36.53163147 20.5287323 C35.94071034 22.70913965 35.34341384 24.88774411 34.74609375 27.06640625 C34.32167634 28.62821428 33.89770068 30.19014241 33.47413635 31.75218201 C32.35872936 35.86157028 31.23806528 39.96950526 30.11602783 44.0770874 C28.35100724 50.54226718 26.59424659 57.00970049 24.83656693 63.47687912 C24.40203556 65.07534622 23.96730067 66.673758 23.53236008 68.2721138 C18.93741036 85.15952963 14.46068954 102.07655146 10 119 C-3.86 119 -17.72 119 -32 119 C-29.74994505 107.74972524 -29.74994505 107.74972524 -28.66526794 103.7487793 C-28.41995331 102.83760849 -28.17463867 101.92643768 -27.92189026 100.98765564 C-27.52827553 99.54550438 -27.52827553 99.54550438 -27.12670898 98.07421875 C-26.84516968 97.03233902 -26.56363037 95.99045929 -26.27355957 94.91700745 C-25.35098334 91.50628299 -24.42366611 88.0968688 -23.49609375 84.6875 C-22.85093303 82.30767889 -22.20600349 79.9277951 -21.56129456 77.54785156 C-20.2142468 72.57804652 -18.86493974 67.60886234 -17.51391602 62.64013672 C-15.77947985 56.26088907 -14.0499072 49.88033519 -12.32189846 43.49934387 C-10.99301174 38.59372806 -9.66199466 33.68869236 -8.3302784 28.78384399 C-7.69137226 26.4299754 -7.05303887 24.07595128 -6.4152813 21.72177124 C-5.52692779 18.44414526 -4.6358129 15.16728294 -3.74389648 11.890625 C-3.47946243 10.91299698 -3.21502838 9.93536896 -2.94258118 8.92811584 C-2.70008636 8.03950363 -2.45759155 7.15089142 -2.20774841 6.23535156 C-1.99741187 5.46112854 -1.78707533 4.68690552 -1.57036495 3.88922119 C-1 2 -1 2 0 0 Z " fill="#01497E" transform="translate(251,118)"/>
<path d="M0 0 C0.33 0 0.66 0 1 0 C0.11194936 36.65227197 -24.38316034 73.5849963 -48 100 C-48.47356934 100.52996582 -48.94713867 101.05993164 -49.43505859 101.60595703 C-52.58185139 105.11050831 -55.77510597 108.56721185 -59 112 C-59.61359375 112.65613281 -60.2271875 113.31226563 -60.859375 113.98828125 C-64.93646455 118.21098114 -69.38167944 121.92549599 -73.97265625 125.578125 C-76.10654297 127.28523438 -78.18178283 129.01079462 -80.24609375 130.796875 C-85.77300823 135.47230406 -90.27634375 139.1603565 -97.87890625 138.83984375 C-101.26556496 137.49890154 -102.23595994 136.22680587 -104 133 C-104.48164295 129.04947506 -104.37617399 125.15955427 -104.25 121.1875 C-104.23195313 120.11306641 -104.21390625 119.03863281 -104.1953125 117.93164062 C-104.14829392 115.28684535 -104.0825916 112.64388411 -104 110 C-103.67 110 -103.34 110 -103 110 C-102.67 111.98 -102.34 113.96 -102 116 C-101.00419922 115.60167969 -101.00419922 115.60167969 -99.98828125 115.1953125 C-93.49414062 112.59765625 -93.49414062 112.59765625 -87 110 C-87 109.34 -87 108.68 -87 108 C-84.09399739 106.74335022 -82.20395416 106 -79 106 C-79 105.34 -79 104.68 -79 104 C-77.34765625 102.484375 -77.34765625 102.484375 -75.0625 100.75 C-74.24136719 100.12609375 -73.42023438 99.5021875 -72.57421875 98.859375 C-70.21727308 97.15693776 -67.82291913 95.56734237 -65.375 94 C-61.53764506 91.51344777 -58.49250784 88.68685253 -55.41015625 85.3203125 C-54 84 -54 84 -52 84 C-52 83.34 -52 82.68 -52 82 C-51.01 82 -50.02 82 -49 82 C-48.731875 81.195625 -48.46375 80.39125 -48.1875 79.5625 C-47.795625 78.716875 -47.40375 77.87125 -47 77 C-46.01 76.67 -45.02 76.34 -44 76 C-43.32364546 74.67155476 -42.65935585 73.33696376 -42 72 C-40.35406219 70.08841166 -38.66195325 68.21607095 -36.9375 66.375 C-33.58466353 62.95790247 -33.58466353 62.95790247 -31 59 C-30.34 59 -29.68 59 -29 59 C-28.690625 58.21625 -28.38125 57.4325 -28.0625 56.625 C-27 54 -27 54 -26 52 C-25.34 52 -24.68 52 -24 52 C-23.73832031 51.28457031 -23.47664063 50.56914063 -23.20703125 49.83203125 C-21.94829852 46.87869395 -20.44105135 44.37420506 -18.6875 41.6875 C-18.06488281 40.71941406 -17.44226563 39.75132813 -16.80078125 38.75390625 C-15.75051519 37.14775099 -14.69022042 35.54791271 -13.60546875 33.96484375 C-6.84124783 23.85072295 -3.7348699 11.49068484 0 0 Z " fill="#ED6323" transform="translate(218,75)"/>
<path d="M0 0 C2.67010009 2.21422934 3.39687839 2.95516634 3.87109375 6.3046875 C4.3323126 15.94835434 0.65291825 23.4932076 -5.25 31 C-11.96248724 38.1856913 -20.77209534 43.0711385 -30.625 43.625 C-34.49897594 43.51772067 -35.28098171 43.24638153 -38.5 40.75 C-42.05715082 35.93063438 -42.23416487 32.00927718 -41.4375 26.125 C-37.80367827 15.18044601 -30.30890241 6.35194077 -20.0625 1.0625 C-13.37248189 -1.99921839 -6.7090063 -3.65945798 0 0 Z " fill="#FDFBFA" transform="translate(163.4375,21.875)"/>
<path d="M0 0 C0.33 0 0.66 0 1 0 C0.56897567 17.78954954 -6.75345376 34.0666002 -14 50 C-14.66 49.67 -15.32 49.34 -16 49 C-16 48.34 -16 47.68 -16 47 C-15.34 47 -14.68 47 -14 47 C-14.33 46.34 -14.66 45.68 -15 45 C-15.40992188 45.5053125 -15.81984375 46.010625 -16.2421875 46.53125 C-17.05042969 47.50578125 -17.05042969 47.50578125 -17.875 48.5 C-18.67550781 49.47453125 -18.67550781 49.47453125 -19.4921875 50.46875 C-19.98976562 50.9740625 -20.48734375 51.479375 -21 52 C-21.66 52 -22.32 52 -23 52 C-23.33 52.99 -23.66 53.98 -24 55 C-24.66 55 -25.32 55 -26 55 C-26 55.66 -26 56.32 -26 57 C-26.66 56.67 -27.32 56.34 -28 56 C-27.34 54.68 -26.68 53.36 -26 52 C-25.34 52 -24.68 52 -24 52 C-23.73832031 51.28457031 -23.47664062 50.56914063 -23.20703125 49.83203125 C-21.94829852 46.87869395 -20.44105135 44.37420506 -18.6875 41.6875 C-18.06488281 40.71941406 -17.44226563 39.75132813 -16.80078125 38.75390625 C-15.75051519 37.14775099 -14.69022042 35.54791271 -13.60546875 33.96484375 C-6.84124783 23.85072295 -3.7348699 11.49068484 0 0 Z " fill="#EA5F29" transform="translate(218,75)"/>
<path d="M0 0 C0 4.19148637 -2.3594935 5.84191126 -5.125 8.6875 C-9.04531263 12.81110669 -12.61545423 16.92318135 -15.78125 21.671875 C-16.38453125 22.32929688 -16.38453125 22.32929688 -17 23 C-17.99 23 -18.98 23 -20 23 C-20 23.66 -20 24.32 -20 25 C-21.5390625 26.55078125 -21.5390625 26.55078125 -23.625 28.3125 C-24.71554688 29.23675781 -24.71554688 29.23675781 -25.828125 30.1796875 C-26.54484375 30.78039062 -27.2615625 31.38109375 -28 32 C-28.88945312 32.77730469 -28.88945312 32.77730469 -29.796875 33.5703125 C-33.75571429 37 -33.75571429 37 -36 37 C-36 36.34 -36 35.68 -36 35 C-35.34 35 -34.68 35 -34 35 C-34 34.34 -34 33.68 -34 33 C-33.34 33 -32.68 33 -32 33 C-32 32.01 -32 31.02 -32 30 C-30.04109119 28.60699818 -28.0360882 27.27754554 -26 26 C-25.13375 25.13375 -25.13375 25.13375 -24.25 24.25 C-23.8375 23.8375 -23.425 23.425 -23 23 C-22.34 23 -21.68 23 -21 23 C-20.773125 22.443125 -20.54625 21.88625 -20.3125 21.3125 C-18.61856764 18.32795251 -16.48385302 16.37345955 -14 14 C-12.76516737 12.81839291 -11.53621252 11.6306197 -10.3125 10.4375 C-9.44044922 9.60025391 -9.44044922 9.60025391 -8.55078125 8.74609375 C-6.91272315 7.05597692 -6.91272315 7.05597692 -5.95703125 4.89453125 C-4.60038232 2.2089201 -2.60546229 1.37129594 0 0 Z " fill="#B72C1E" transform="translate(186,134)"/>
<path d="M0 0 C2.0156557 4.03131139 2.24735749 5.64672766 2.1875 10 C2.18105469 11.03125 2.17460937 12.0625 2.16796875 13.125 C2 16 2 16 1 20 C-12.53 20 -26.06 20 -40 20 C-40 18.02 -40 16.04 -40 14 C-36.7 14 -33.4 14 -30 14 C-29.67 15.65 -29.34 17.3 -29 19 C-19.43 19 -9.86 19 0 19 C0 12.73 0 6.46 0 0 Z " fill="#0A3E64" transform="translate(429,140)"/>
<path d="M0 0 C0.33 0 0.66 0 1 0 C1.1968121 2.04079005 1.38202831 4.08270007 1.5625 6.125 C1.71912109 7.83042969 1.71912109 7.83042969 1.87890625 9.5703125 C2 13 2 13 1 19 C-12.86 19 -26.72 19 -41 19 C-41 17.02 -41 15.04 -41 13 C-40.01 13.495 -40.01 13.495 -39 14 C-39 14.66 -39 15.32 -39 16 C-35.7 16 -32.4 16 -29 16 C-29 16.66 -29 17.32 -29 18 C-19.43 18 -9.86 18 0 18 C0 12.06 0 6.12 0 0 Z " fill="#0A416A" transform="translate(637,141)"/>
<path d="M0 0 C0.33 0 0.66 0 1 0 C0.9278125 0.825 0.855625 1.65 0.78125 2.5 C-0.6089934 19.80080672 -1.41259805 36.86669835 6 53 C5.34 53 4.68 53 4 53 C-2.43371869 43.56387926 -2.3316059 32.40410162 -2.25 21.3125 C-2.25773437 20.24966797 -2.26546875 19.18683594 -2.2734375 18.09179688 C-2.25778817 11.74990567 -1.61865263 6.13417959 0 0 Z " fill="#E75D32" transform="translate(29,126)"/>
<path d="M0 0 C0.33 0.99 0.66 1.98 1 3 C0.34 3 -0.32 3 -1 3 C-1.33 4.65 -1.66 6.3 -2 8 C-2.99 8 -3.98 8 -5 8 C-5.226875 9.0725 -5.45375 10.145 -5.6875 11.25 C-7.13648927 15.38996934 -8.33664781 16.71040488 -12 19 C-12.66 19 -13.32 19 -14 19 C-14.2475 19.639375 -14.495 20.27875 -14.75 20.9375 C-16 23 -16 23 -18.125 23.75 C-19.053125 23.87375 -19.053125 23.87375 -20 24 C-18.625 21.5 -18.625 21.5 -17 19 C-16.34 19 -15.68 19 -15 19 C-14.77441406 18.45601562 -14.54882812 17.91203125 -14.31640625 17.3515625 C-12.58776213 14.26359881 -10.35449856 11.95545026 -7.9375 9.375 C-4.58466353 5.95790247 -4.58466353 5.95790247 -2 2 C-1.34 2 -0.68 2 0 2 C0 1.34 0 0.68 0 0 Z " fill="#E35A2C" transform="translate(189,132)"/>
<path d="M0 0 C2.85489918 0.20350004 5.66060925 0.47535102 8.5 0.8125 C9.29792969 0.89564453 10.09585938 0.97878906 10.91796875 1.06445312 C12.95542437 1.30140679 14.98008678 1.64317649 17 2 C17.33 2.66 17.66 3.32 18 4 C2.655 4.495 2.655 4.495 -13 5 C-9.83247575 1.83247575 -9.50036475 1.63031573 -5.375 1.375 C-2.38851817 1.39122227 -2.38851817 1.39122227 0 0 Z " fill="#073D62" transform="translate(913,196)"/>
<path d="M0 0 C0.33 0.66 0.66 1.32 1 2 C0.0625 4.625 0.0625 4.625 -1 7 C3.60420645 6.88006464 8.20826822 6.755746 12.81225586 6.62768555 C14.37244606 6.58486812 15.93266735 6.54316653 17.49291992 6.50268555 C27.02604747 6.2544749 36.49830562 5.85256864 46 5 C45.67 5.66 45.34 6.32 45 7 C42.6739143 7.38063221 40.33944736 7.71269945 38 8 C37.34 8.33 36.68 8.66 36 9 C33.08070205 9.01666138 30.18963383 8.97245606 27.2734375 8.87890625 C26.41062164 8.85529526 25.54780579 8.83168427 24.65884399 8.80735779 C21.89739794 8.73065703 19.13622782 8.64666038 16.375 8.5625 C14.50522193 8.50928573 12.63543031 8.45654529 10.765625 8.40429688 C6.17690791 8.27503321 1.58842523 8.13922496 -3 8 C-1.125 1.125 -1.125 1.125 0 0 Z " fill="#0A446B" transform="translate(768,211)"/>
<path d="M0 0 C1.15151524 3.45454573 0.99376244 5.99086922 0.875 9.625 C0.81786288 15.77676343 1.73418231 20.35363079 4 26 C4.38499891 27.65549531 4.72793135 29.3222433 5 31 C5.185625 32.093125 5.37125 33.18625 5.5625 34.3125 C5.706875 35.199375 5.85125 36.08625 6 37 C2.89967866 35.44983933 2.35863446 33.13310428 1 30 C0.33554915 27.43516502 -0.22778008 24.97284236 -0.6875 22.375 C-0.81487549 21.68148437 -0.94225098 20.98796875 -1.07348633 20.2734375 C-2.11953165 14.16694625 -2.31650989 8.18952683 -2 2 C-1.34 2 -0.68 2 0 2 C0 1.34 0 0.68 0 0 Z " fill="#B32920" transform="translate(30,142)"/>
<path d="M0 0 C0.33 0 0.66 0 1 0 C1.21224421 4.66229771 0.49360538 8.36203505 -0.875 12.8125 C-2.12444604 16.96558825 -3.27968662 21.05866494 -4.125 25.3125 C-4.41375 26.529375 -4.7025 27.74625 -5 29 C-5.66 29.33 -6.32 29.66 -7 30 C-6.78733112 19.79189355 -4.60247047 9.20494094 0 0 Z " fill="#B92E21" transform="translate(36,108)"/>
<path d="M0 0 C0 1.65 0 3.3 0 5 C-0.94875 5.20625 -1.8975 5.4125 -2.875 5.625 C-4.421875 6.305625 -4.421875 6.305625 -6 7 C-6.70381157 8.98723268 -7.3711811 10.98777953 -8 13 C-9.66072849 13.68132451 -11.327767 14.34742127 -13 15 C-14.84274976 18.01696409 -14.84274976 18.01696409 -16 21 C-16.66 21 -17.32 21 -18 21 C-18 21.99 -18 22.98 -18 24 C-18.66 24 -19.32 24 -20 24 C-17.73783413 17.63837618 -8.16713687 0 0 0 Z " fill="#08476F" transform="translate(526,137)"/>
<path d="M0 0 C0.66 0.33 1.32 0.66 2 1 C0.20049043 3.58391118 -1.61317961 5.93418366 -4 8 C-7.875 8.4375 -7.875 8.4375 -11 8 C-11.33 8.99 -11.66 9.98 -12 11 C-13.72880982 11.05449838 -15.45812712 11.09301688 -17.1875 11.125 C-18.15042969 11.14820312 -19.11335937 11.17140625 -20.10546875 11.1953125 C-23.12812778 10.9913544 -25.26769985 10.26874632 -28 9 C-25.01830983 8.00610328 -23.50276207 8.00545394 -20.4375 8.1875 C-12.58851961 8.26782582 -5.73964731 5.35700415 0 0 Z " fill="#A03841" transform="translate(153,56)"/>
<path d="M0 0 C13.53 0 27.06 0 41 0 C40.67 0.66 40.34 1.32 40 2 C20.695 1.505 20.695 1.505 1 1 C1 2.98 1 4.96 1 7 C0 9.875 0 9.875 -1 12 C-1.66 12 -2.32 12 -3 12 C-2.01 8.04 -1.02 4.08 0 0 Z " fill="#0F466A" transform="translate(251,118)"/>
<path d="M0 0 C13.53 0 27.06 0 41 0 C41 0.33 41 0.66 41 1 C28.13 1 15.26 1 2 1 C2 2.65 2 4.3 2 6 C0 7.8125 0 7.8125 -2 9 C-1.34 6.03 -0.68 3.06 0 0 Z " fill="#0E466B" transform="translate(458,118)"/>
<path d="M0 0 C-2 2.5625 -2 2.5625 -5 5 C-7.89116824 5.14963532 -10.13399816 4.63149193 -13 4 C-13 2.68 -13 1.36 -13 0 C-11.20909747 -0.19466332 -9.41723495 -0.38051213 -7.625 -0.5625 C-6.12839844 -0.71912109 -6.12839844 -0.71912109 -4.6015625 -0.87890625 C-2 -1 -2 -1 0 0 Z " fill="#093C63" transform="translate(909,224)"/>
<path d="M0 0 C1.299375 -0.02126953 1.299375 -0.02126953 2.625 -0.04296875 C5 0.1875 5 0.1875 8 2.1875 C6.83984375 2.24357422 6.83984375 2.24357422 5.65625 2.30078125 C-1.59032861 2.75108895 -1.59032861 2.75108895 -8.5 4.8125 C-12.0518094 6.20785369 -12.63151519 6.29555421 -16 5.1875 C-14.730447 4.53915346 -13.45930294 3.89392185 -12.1875 3.25 C-11.47980469 2.89035156 -10.77210937 2.53070313 -10.04296875 2.16015625 C-6.57633154 0.50969226 -3.79827749 0.02826099 0 0 Z " fill="#A03E46" transform="translate(84,118.8125)"/>
<path d="M0 0 C0.33 0 0.66 0 1 0 C0.76231654 2.37683462 0.52279643 4.75325702 0.2734375 7.12890625 C0.09640219 8.98777696 -0.04649378 10.85034669 -0.1484375 12.71484375 C-0.48385927 18.02568842 -0.99348428 21.12272672 -5 25 C-6.16445606 21.50663182 -5.77002998 20.37173851 -4.78515625 16.89453125 C-4.51123047 15.91162109 -4.23730469 14.92871094 -3.95507812 13.91601562 C-3.66052734 12.89185547 -3.36597656 11.86769531 -3.0625 10.8125 C-2.77181641 9.77673828 -2.48113281 8.74097656 -2.18164062 7.67382812 C-1.46196023 5.11365361 -0.7344788 2.55596089 0 0 Z " fill="#A43C48" transform="translate(125,140)"/>
<path d="M0 0 C0.33 0 0.66 0 1 0 C0.5697663 7.6700283 -0.74231361 14.65896942 -3 22 C-3.66 21.34 -4.32 20.68 -5 20 C-4.69294116 13.09117605 -2.11172136 6.53160326 0 0 Z " fill="#DE6434" transform="translate(218,75)"/>
<path d="M0 0 C0.33 0 0.66 0 1 0 C1.25028811 1.58013217 1.47440946 3.16442306 1.6875 4.75 C1.81511719 5.63171875 1.94273437 6.5134375 2.07421875 7.421875 C1.98264096 10.60299813 1.0201421 11.61663038 -1 14 C-1.350625 15.051875 -1.70125 16.10375 -2.0625 17.1875 C-3 20 -3 20 -5 21 C-4.35451147 18.24991865 -3.70862234 15.49993244 -3.0625 12.75 C-2.88009766 11.97269531 -2.69769531 11.19539062 -2.50976562 10.39453125 C-2.33251953 9.64042969 -2.15527344 8.88632813 -1.97265625 8.109375 C-1.72914429 7.07248535 -1.72914429 7.07248535 -1.48071289 6.01464844 C-1.0014338 4.00600899 -0.50453398 2.00243058 0 0 Z " fill="#064267" transform="translate(746,196)"/>
<path d="M0 0 C0.66 0 1.32 0 2 0 C3.40333568 5.76926889 2.67296616 11.18143105 2 17 C1.01 17.33 0.02 17.66 -1 18 C-1.33 19.98 -1.66 21.96 -2 24 C-2.99 23.67 -3.98 23.34 -5 23 C-4.6390625 22.34515625 -4.278125 21.6903125 -3.90625 21.015625 C-0.22491463 13.77566544 0.63353803 8.06705086 0 0 Z " fill="#AB484B" transform="translate(166,25)"/>
<path d="M0 0 C0 0.99 0 1.98 0 3 C-1.99284138 4.3440093 -3.99419671 5.67541292 -6 7 C-6.8875107 8.05618964 -7.7427165 9.14042043 -8.5625 10.25 C-11 13 -11 13 -13.8125 13.375 C-14.534375 13.25125 -15.25625 13.1275 -16 13 C-11.74582312 6.98547406 -6.28272674 3.71902213 0 0 Z " fill="#043F6B" transform="translate(329,129)"/>
<path d="M0 0 C0.66 0.66 1.32 1.32 2 2 C4.1374401 2.38594492 4.1374401 2.38594492 6.5 2.5 C10.77777778 2.77777778 10.77777778 2.77777778 13 5 C7.72 5 2.44 5 -3 5 C-3 4.34 -3 3.68 -3 3 C-4.32 2.67 -5.64 2.34 -7 2 C-4.69 1.34 -2.38 0.68 0 0 Z " fill="#BE3825" transform="translate(67,196)"/>
<path d="M0 0 C0.99 0.495 0.99 0.495 2 1 C2 1.66 2 2.32 2 3 C5.3 3 8.6 3 12 3 C12 3.99 12 4.98 12 6 C8.04 6 4.08 6 0 6 C0 4.02 0 2.04 0 0 Z " fill="#093555" transform="translate(596,154)"/>
<path d="M0 0 C1.65 0 3.3 0 5 0 C4.34 3.3 3.68 6.6 3 10 C1.68 9.01 0.36 8.02 -1 7 C-1.3125 3.875 -1.3125 3.875 -1 1 C-0.67 0.67 -0.34 0.34 0 0 Z " fill="#014868" transform="translate(1131,136)"/>
<path d="M0 0 C1 3 1 3 -0.14453125 5.70703125 C-0.69496094 6.73183594 -1.24539062 7.75664063 -1.8125 8.8125 C-3.94962283 12.8177017 -5.66868056 16.65535266 -7 21 C-8.45765644 16.62703067 -7.51135597 13.29225096 -6 9 C-4.20268651 5.83920732 -2.18379359 2.9048575 0 0 Z " fill="#E65B2F" transform="translate(43,89)"/>
<path d="M0 0 C0.99 0.33 1.98 0.66 3 1 C2.52797514 5.24822374 0.03344482 7.19989709 -3 10 C-3 9.01 -3 8.02 -3 7 C-3.99 6.67 -4.98 6.34 -6 6 C-4 4 -2 2 0 0 Z " fill="#E75D20" transform="translate(67,49)"/>
<path d="M0 0 C5.4185766 -0.22577402 9.77487721 0.53329887 15 2 C15 2.33 15 2.66 15 3 C13.35 3 11.7 3 10 3 C10 3.99 10 4.98 10 6 C10.66 6 11.32 6 12 6 C12 6.66 12 7.32 12 8 C9.83125748 7.49396008 8.00032373 7.00016187 6 6 C6 4.35 6 2.7 6 1 C4.02 1 2.04 1 0 1 C0 0.67 0 0.34 0 0 Z " fill="#0A4570" transform="translate(602,120)"/>
<path d="M0 0 C0.33 0 0.66 0 1 0 C1.05391993 1.79133978 1.09275571 3.58313899 1.125 5.375 C1.14820313 6.37273437 1.17140625 7.37046875 1.1953125 8.3984375 C1 11 1 11 -1 13 C-1.39764263 14.98821313 -1.73775349 16.98944339 -2 19 C-2.99 18.67 -3.98 18.34 -5 18 C-3.35 12.06 -1.7 6.12 0 0 Z " fill="#09466E" transform="translate(1114,124)"/>
<path d="M0 0 C1 2 1 2 0.4375 4.6875 C-1.1238048 8.28528933 -3.00069584 10.55819729 -5.66015625 13.38671875 C-7.22620315 15.07386916 -7.22620315 15.07386916 -8 18 C-8.66 17.67 -9.32 17.34 -10 17 C-8.35 14.03 -6.7 11.06 -5 8 C-4.34 8 -3.68 8 -3 8 C-2.814375 6.8553125 -2.814375 6.8553125 -2.625 5.6875 C-2 3 -2 3 0 0 Z " fill="#BF3424" transform="translate(56,69)"/>
<path d="M0 0 C-0.61488281 0.88751953 -0.61488281 0.88751953 -1.2421875 1.79296875 C-2.05042969 2.97826172 -2.05042969 2.97826172 -2.875 4.1875 C-3.40867187 4.96480469 -3.94234375 5.74210937 -4.4921875 6.54296875 C-5.98015439 8.9676609 -7.02428078 11.3333499 -8 14 C-10 11 -10 11 -9.71484375 8.58984375 C-7.60771833 1.40020475 -7.60771833 1.40020475 -4.4375 -0.6875 C-2 -1 -2 -1 0 0 Z " fill="#A13943" transform="translate(131,34)"/>
<path d="M0 0 C2.31 0 4.62 0 7 0 C6.54738642 1.43931117 6.08767021 2.87638999 5.625 4.3125 C5.36976562 5.11300781 5.11453125 5.91351563 4.8515625 6.73828125 C4 9 4 9 2 12 C2.185625 11.0925 2.37125 10.185 2.5625 9.25 C2.95734621 6.31685676 2.94691572 4.7355343 2 2 C1.34 2 0.68 2 0 2 C0 1.34 0 0.68 0 0 Z " fill="#E76D3F" transform="translate(72,201)"/>
<path d="M0 0 C0 0.99 0 1.98 0 3 C-0.825 3.45375 -1.65 3.9075 -2.5 4.375 C-3.7375 5.179375 -3.7375 5.179375 -5 6 C-5.41780879 8.62694422 -5.41780879 8.62694422 -5 11 C-5.99 11.33 -6.98 11.66 -8 12 C-8.34740318 9.08181329 -8.50109494 6.86234943 -6.9921875 4.265625 C-3.6 0 -3.6 0 0 0 Z " fill="#E76621" transform="translate(52,68)"/>
<path d="M0 0 C-0.6875 1.875 -0.6875 1.875 -2 4 C-3.66666667 4.66666667 -5.33333333 5.33333333 -7 6 C-8.1500831 7.96672915 -8.1500831 7.96672915 -9 10 C-9.99 10.66 -10.98 11.32 -12 12 C-12 8 -12 8 -9.8828125 5.859375 C-8.97273438 5.16328125 -8.06265625 4.4671875 -7.125 3.75 C-6.22007813 3.04359375 -5.31515625 2.3371875 -4.3828125 1.609375 C-2 0 -2 0 0 0 Z " fill="#DC5D2F" transform="translate(91,30)"/>
<path d="M0 0 C0 0.99 0 1.98 0 3 C-1.32 3.33 -2.64 3.66 -4 4 C-4 4.66 -4 5.32 -4 6 C-4.66 6 -5.32 6 -6 6 C-6.20625 6.639375 -6.4125 7.27875 -6.625 7.9375 C-8 10 -8 10 -11.125 10.75 C-12.548125 10.87375 -12.548125 10.87375 -14 11 C-9.86035278 6.70113557 -5.56672528 2.355153 0 0 Z " fill="#E1572C" transform="translate(153,169)"/>
<path d="M0 0 C0.33 0 0.66 0 1 0 C2.04167441 4.09725269 1.94409525 7.61495224 1.5625 11.8125 C1.46066406 12.97394531 1.35882812 14.13539063 1.25390625 15.33203125 C1.17011719 16.21246094 1.08632812 17.09289062 1 18 C0.67 18 0.34 18 0 18 C-0.66 13.71 -1.32 9.42 -2 5 C-1.34 5 -0.68 5 0 5 C0 3.35 0 1.7 0 0 Z " fill="#04446F" transform="translate(1077,168)"/>
<path d="M0 0 C1 4 1 4 -0.3125 6.6875 C-2 9 -2 9 -4 10 C-5.0409066 11.64142963 -6.04504326 13.30712215 -7 15 C-7.66 14.67 -8.32 14.34 -9 14 C-6.03 9.38 -3.06 4.76 0 0 Z " fill="#DF5433" transform="translate(203,111)"/>
<path d="M0 0 C3.42025316 3.42025316 3.95344801 7.71982025 4.125 12.4375 C4.08375 13.283125 4.0425 14.12875 4 15 C3.01 15.495 3.01 15.495 2 16 C0.80911014 10.61972975 -0.2919519 5.54708616 0 0 Z " fill="#C03F31" transform="translate(215,33)"/>
<path d="M0 0 C0 0.33 0 0.66 0 1 C-5.70690634 1.99250545 -11.21408489 2.10477512 -17 2 C-17.33 1.34 -17.66 0.68 -18 0 C-11.78675502 -0.73030908 -6.15901243 -1.23180249 0 0 Z " fill="#09466F" transform="translate(933,154)"/>
<path d="M0 0 C0.33 0 0.66 0 1 0 C1 1.98 1 3.96 1 6 C0.01 6.495 0.01 6.495 -1 7 C-1.144375 7.763125 -1.28875 8.52625 -1.4375 9.3125 C-2.05464716 12.26109198 -3.06882531 13.73296884 -5 16 C-6.39211215 11.82366356 -4.9535579 10.21039485 -3.0625 6.3125 C-2.49660156 5.13300781 -1.93070313 3.95351562 -1.34765625 2.73828125 C-0.90292969 1.83464844 -0.45820313 0.93101563 0 0 Z " fill="#E0642B" transform="translate(20,110)"/>
<path d="M0 0 C0.66 0.33 1.32 0.66 2 1 C-1.07517084 12.52164009 -1.07517084 12.52164009 -3 18 C-4.6104598 13.9738505 -3.24188781 11.00163851 -2 7 C-1.814375 5.88625 -1.62875 4.7725 -1.4375 3.625 C-1 1 -1 1 0 0 Z " fill="#FBE5E2" transform="translate(134,107)"/>
<path d="M0 0 C-1.39077301 0.82113177 -2.78788893 1.63152495 -4.1875 2.4375 C-4.96480469 2.88996094 -5.74210937 3.34242188 -6.54296875 3.80859375 C-9.04931977 5.02391499 -11.25790365 5.57626575 -14 6 C-12.71034824 4.62437146 -11.37310707 3.29233607 -10 2 C-9.34 2 -8.68 2 -8 2 C-8 1.34 -8 0.68 -8 0 C-4.90645403 -0.99435406 -3.09720845 -0.87840996 0 0 Z " fill="#B9311F" transform="translate(131,185)"/>
<path d="M0 0 C0.33 0 0.66 0 1 0 C1.55353075 12.66970387 1.55353075 12.66970387 -2 18 C-3.51553092 14.02549507 -2.49888623 10.79518851 -1.5625 6.75 C-1.27503906 5.48671875 -0.98757812 4.2234375 -0.69140625 2.921875 C-0.46324219 1.95765625 -0.23507813 0.9934375 0 0 Z " fill="#A6454C" transform="translate(118,166)"/>
<path d="M0 0 C0 0.66 0 1.32 0 2 C-5.71735105 4.45029331 -9.79029227 5.33266291 -16 5 C-13.70311431 2.70311431 -12.21071829 2.28148697 -9.125 1.375 C-7.82949219 0.98441406 -7.82949219 0.98441406 -6.5078125 0.5859375 C-4 0 -4 0 0 0 Z " fill="#BD413B" transform="translate(146,4)"/>
<path d="M0 0 C0.33 0 0.66 0 1 0 C1.47617251 6.69286912 1.39973696 10.77531236 -3 16 C-4.57159226 12.85681547 -3.04018399 10.07066611 -2.0625 6.875 C-1.86720703 6.21628906 -1.67191406 5.55757812 -1.47070312 4.87890625 C-0.98695014 3.25066448 -0.49430925 1.62506818 0 0 Z " fill="#043B64" transform="translate(434,206)"/>
<path d="M0 0 C0 0.99 0 1.98 0 3 C-1.98 3.99 -1.98 3.99 -4 5 C-4 6.32 -4 7.64 -4 9 C-4.66 9 -5.32 9 -6 9 C-6.33 8.01 -6.66 7.02 -7 6 C-8.98 6 -10.96 6 -13 6 C-13 5.67 -13 5.34 -13 5 C-12.31292969 4.80664062 -11.62585938 4.61328125 -10.91796875 4.4140625 C-10.01691406 4.15367187 -9.11585938 3.89328125 -8.1875 3.625 C-7.29417969 3.36976563 -6.40085937 3.11453125 -5.48046875 2.8515625 C-2.79532104 2.04733339 -2.79532104 2.04733339 0 0 Z " fill="#094672" transform="translate(578,207)"/>
<path d="M0 0 C0.66 0.99 1.32 1.98 2 3 C1.09972412 4.03531726 0.17906965 5.05294165 -0.75 6.0625 C-1.51570312 6.91521484 -1.51570312 6.91521484 -2.296875 7.78515625 C-4 9 -4 9 -6.203125 8.68359375 C-6.79609375 8.45800781 -7.3890625 8.23242188 -8 8 C-7.0479279 6.99403703 -6.08812654 5.99538437 -5.125 5 C-4.59132812 4.443125 -4.05765625 3.88625 -3.5078125 3.3125 C-2 2 -2 2 0 2 C0 1.34 0 0.68 0 0 Z " fill="#E2592C" transform="translate(166,157)"/>
<path d="M0 0 C-1.4375 2.125 -1.4375 2.125 -4 4 C-7.12820109 3.75232831 -10.01503209 2.94396421 -13 2 C-13 1.67 -13 1.34 -13 1 C-11.20994059 0.63779734 -9.41787943 0.28547531 -7.625 -0.0625 C-6.12839844 -0.35833984 -6.12839844 -0.35833984 -4.6015625 -0.66015625 C-2 -1 -2 -1 0 0 Z " fill="#083F65" transform="translate(572,120)"/>
<path d="M0 0 C1.32 0.33 2.64 0.66 4 1 C0.37 4.3 -3.26 7.6 -7 11 C-7.33 10.01 -7.66 9.02 -8 8 C-7.34 8 -6.68 8 -6 8 C-5.67 7.01 -5.34 6.02 -5 5 C-4.34 5 -3.68 5 -3 5 C-3 4.34 -3 3.68 -3 3 C-2.34 3 -1.68 3 -1 3 C-0.67 2.01 -0.34 1.02 0 0 Z " fill="#A3424E" transform="translate(74,102)"/>
<path d="M0 0 C0.66 0 1.32 0 2 0 C1.42365861 4.75481646 -0.55068521 7.97048212 -3 12 C-3.33 12 -3.66 12 -4 12 C-4.61528766 6.92387682 -2.61658349 4.17017994 0 0 Z " fill="#B72C1F" transform="translate(45,88)"/>
<path d="M0 0 C0.66 0.33 1.32 0.66 2 1 C1 4 1 4 -2.25 5.625 C-5.22180677 6.71466248 -7.88632112 7.52823047 -11 8 C-8.83385197 5.69125289 -6.60793392 3.94709819 -3.9375 2.25 C-2.89916016 1.57710938 -2.89916016 1.57710938 -1.83984375 0.890625 C-1.23269531 0.59671875 -0.62554687 0.3028125 0 0 Z " fill="#FBEAE3" transform="translate(111,79)"/>
<path d="M0 0 C0.33 0 0.66 0 1 0 C1 1.65 1 3.3 1 5 C1.66 5.33 2.32 5.66 3 6 C1.19587357 9.26460973 0.16605307 10.88929795 -3 13 C-2.01 8.71 -1.02 4.42 0 0 Z " fill="#07416B" transform="translate(450,146)"/>
<path d="M0 0 C-1.01812245 2.0362449 -2.03469612 4.06360955 -3.125 6.0625 C-4.20579336 8.10136548 -4.20579336 8.10136548 -4 11 C-2.35 11.33 -0.7 11.66 1 12 C1 12.33 1 12.66 1 13 C-0.99954746 13.04254356 -3.00041636 13.04080783 -5 13 C-5.33 12.67 -5.66 12.34 -6 12 C-5.984375 10.0390625 -5.984375 10.0390625 -5.75 7.625 C-5.64945313 6.43777344 -5.64945313 6.43777344 -5.546875 5.2265625 C-4.76511277 2.04367342 -3.43264397 0 0 0 Z " fill="#AA474F" transform="translate(65,113)"/>
<path d="M0 0 C1.98 0 3.96 0 6 0 C6 0.66 6 1.32 6 2 C6.86625 2.185625 6.86625 2.185625 7.75 2.375 C10.02335767 3.00648824 11.9253529 3.88858191 14 5 C10.08428299 6.305239 8.96107003 5.32239848 5.3125 3.5625 C4.31863281 3.08941406 3.32476562 2.61632812 2.30078125 2.12890625 C1.54152344 1.75636719 0.78226562 1.38382813 0 1 C0 0.67 0 0.34 0 0 Z " fill="#09436D" transform="translate(304,228)"/>
<path d="M0 0 C0.33 1.32 0.66 2.64 1 4 C-2.96 3.67 -6.92 3.34 -11 3 C-11 2.34 -11 1.68 -11 1 C-3.375 0 -3.375 0 0 0 Z " fill="#074263" transform="translate(587,140)"/>
<path d="M0 0 C1 3 1 3 0.3125 5.625 C-1 8 -1 8 -3.125 8.8125 C-3.74375 8.874375 -4.3625 8.93625 -5 9 C-4.5206753 4.68607774 -3.2542015 2.83430453 0 0 Z " fill="#E9651B" transform="translate(210,106)"/>
<path d="M0 0 C0 0.66 0 1.32 0 2 C-0.66 2 -1.32 2 -2 2 C-2 2.66 -2 3.32 -2 4 C-2.639375 4.28875 -3.27875 4.5775 -3.9375 4.875 C-6.15206079 5.82823451 -6.15206079 5.82823451 -7 8 C-10.0625 8.625 -10.0625 8.625 -13 9 C-4.66666667 0 -4.66666667 0 0 0 Z " fill="#FBE4E2" transform="translate(100,87)"/>
<path d="M0 0 C0 0.66 0 1.32 0 2 C-2.64738916 3.4606285 -3.89448334 4 -7 4 C-7.28875 4.639375 -7.5775 5.27875 -7.875 5.9375 C-9 8 -9 8 -11 9 C-11 8.34 -11 7.68 -11 7 C-11.66 6.67 -12.32 6.34 -13 6 C-11.21118264 4.99491199 -9.41885304 3.99607264 -7.625 3 C-6.62726563 2.443125 -5.62953125 1.88625 -4.6015625 1.3125 C-2 0 -2 0 0 0 Z " fill="#B84139" transform="translate(118,14)"/>
<path d="M0 0 C2.64 0 5.28 0 8 0 C7.01 2.97 6.02 5.94 5 9 C3.95550089 5.86650268 4.06576355 5.01031744 5 2 C3.35 2 1.7 2 0 2 C0 1.34 0 0.68 0 0 Z " fill="#063C62" transform="translate(416,193)"/>
<path d="M0 0 C2.97 0 5.94 0 9 0 C9 1.98 9 3.96 9 6 C7 6 7 6 5.0625 4.125 C4.381875 3.42375 3.70125 2.7225 3 2 C2.01 1.34 1.02 0.68 0 0 Z " fill="#A53745" transform="translate(134,76)"/>
<path d="M0 0 C0.33 0.66 0.66 1.32 1 2 C0.22265625 3.7265625 0.22265625 3.7265625 -0.9375 5.625 C-1.618125 6.73875 -2.29875 7.8525 -3 9 C-3.66 9 -4.32 9 -5 9 C-5.12375 9.639375 -5.2475 10.27875 -5.375 10.9375 C-5.58125 11.618125 -5.7875 12.29875 -6 13 C-6.99 13.495 -6.99 13.495 -8 14 C-6.58036591 8.32146365 -3.60636039 4.46825784 0 0 Z " fill="#FBE1DF" transform="translate(131,33)"/>
<path d="M0 0 C0.66 0.33 1.32 0.66 2 1 C-3.0940919 8.68490153 -3.0940919 8.68490153 -6.875 10 C-7.57625 10 -8.2775 10 -9 10 C-8.38125 9.4225 -7.7625 8.845 -7.125 8.25 C-4.95879427 6.17347802 -4.95879427 6.17347802 -3.9375 3.875 C-3 2 -3 2 0 0 Z " fill="#C14131" transform="translate(95,26)"/>
<path d="M0 0 C0.66 0 1.32 0 2 0 C0.43358249 4.30764815 -1.68336156 8.06171464 -4 12 C-5.0326802 9.21176345 -5.04509293 8.1322726 -4.0625 5.25 C-3.711875 4.5075 -3.36125 3.765 -3 3 C-2.01 3 -1.02 3 0 3 C0 2.01 0 1.02 0 0 Z " fill="#DC7240" transform="translate(72,213)"/>
<path d="M0 0 C0.66 0 1.32 0 2 0 C2 0.99 2 1.98 2 3 C1.34 3 0.68 3 0 3 C0 3.99 0 4.98 0 6 C-2.31 6 -4.62 6 -7 6 C-6.21625 5.38125 -5.4325 4.7625 -4.625 4.125 C-2.03162353 2.10141339 -2.03162353 2.10141339 0 0 Z " fill="#093F5F" transform="translate(1158,160)"/>
<path d="M0 0 C0.66 0 1.32 0 2 0 C1.25 6.625 1.25 6.625 -1 10 C-1.9765625 3.9453125 -1.9765625 3.9453125 -2 2 C-1.34 1.34 -0.68 0.68 0 0 Z " fill="#FDF1EB" transform="translate(127,127)"/>
<path d="M0 0 C0.33 0.66 0.66 1.32 1 2 C0.34 2 -0.32 2 -1 2 C-1.66 3.32 -2.32 4.64 -3 6 C-5.64 6 -8.28 6 -11 6 C-8.61542052 4.41028035 -6.3695876 3.13258407 -3.8125 1.875 C-3.09707031 1.52179688 -2.38164063 1.16859375 -1.64453125 0.8046875 C-1.10183594 0.53914062 -0.55914062 0.27359375 0 0 Z " fill="#FCD9C1" transform="translate(61,232)"/>
<path d="M0 0 C2.31 0 4.62 0 7 0 C6.25 4.75 6.25 4.75 4 7 C4 5.35 4 3.7 4 2 C2.68 2.33 1.36 2.66 0 3 C0 2.01 0 1.02 0 0 Z " fill="#093D63" transform="translate(624,193)"/>
<path d="M0 0 C0.99 0 1.98 0 3 0 C2.34 3.3 1.68 6.6 1 10 C0.67 10 0.34 10 0 10 C-0.38922918 8.71254964 -0.76098036 7.41980403 -1.125 6.125 C-1.43824219 5.04605469 -1.43824219 5.04605469 -1.7578125 3.9453125 C-1.83773437 3.30335938 -1.91765625 2.66140625 -2 2 C-1.34 1.34 -0.68 0.68 0 0 Z " fill="#0F456C" transform="translate(781,155)"/>
<path d="M0 0 C0.99 0 1.98 0 3 0 C3 1.65 3 3.3 3 5 C1.02 5.33 -0.96 5.66 -3 6 C-2.01 4.02 -1.02 2.04 0 0 Z " fill="#094F72" transform="translate(573,138)"/>
<path d="M0 0 C0.66 0.33 1.32 0.66 2 1 C0.60667426 4.36720387 -0.9789286 5.9859524 -4 8 C-4.66 7.67 -5.32 7.34 -6 7 C-4.02 4.69 -2.04 2.38 0 0 Z " fill="#A3353C" transform="translate(161,48)"/>
<path d="M0 0 C0.33 1.32 0.66 2.64 1 4 C-0.21484375 5.703125 -0.21484375 5.703125 -1.9375 7.25 C-2.50339844 7.77078125 -3.06929688 8.2915625 -3.65234375 8.828125 C-4.09707031 9.21484375 -4.54179688 9.6015625 -5 10 C-5.66 9.67 -6.32 9.34 -7 9 C-4.69 6.03 -2.38 3.06 0 0 Z " fill="#FDE0CA" transform="translate(69,222)"/>
<path d="M0 0 C0 1.98 0 3.96 0 6 C-1.32 6 -2.64 6 -4 6 C-4.33 4.68 -4.66 3.36 -5 2 C-2 0 -2 0 0 0 Z " fill="#09406B" transform="translate(1138,176)"/>
<path d="M0 0 C1.65 0 3.3 0 5 0 C6.2077558 3.62326739 5.54311128 4.64146369 4 8 C2.66666667 5.33333333 1.33333333 2.66666667 0 0 Z " fill="#0E426A" transform="translate(385,146)"/>
<path d="M0 0 C0.66 0.33 1.32 0.66 2 1 C1.05065487 2.67180274 0.09026687 4.33733936 -0.875 6 C-1.40867188 6.928125 -1.94234375 7.85625 -2.4921875 8.8125 C-2.98976562 9.534375 -3.48734375 10.25625 -4 11 C-4.66 11 -5.32 11 -6 11 C-5.690625 10.236875 -5.38125 9.47375 -5.0625 8.6875 C-4.32106407 6.81210323 -3.63771783 4.91315348 -3 3 C-2.34 3 -1.68 3 -1 3 C-0.67 2.01 -0.34 1.02 0 0 Z " fill="#B82E1F" transform="translate(205,105)"/>
<path d="M0 0 C0.99 0 1.98 0 3 0 C2.50639991 4.27786748 1.95216435 7.09567131 0 11 C0 7.37 0 3.74 0 0 Z " fill="#043859" transform="translate(269,192)"/>
<path d="M0 0 C0.33 0 0.66 0 1 0 C1.63019694 9.17286652 1.63019694 9.17286652 -1 12.625 C-1.66 13.07875 -2.32 13.5325 -3 14 C-2.68872484 12.41642541 -2.37592711 10.83315007 -2.0625 9.25 C-1.80146484 7.92742187 -1.80146484 7.92742187 -1.53515625 6.578125 C-1.07631512 4.36764947 -0.56663926 2.18487932 0 0 Z " fill="#043866" transform="translate(754,166)"/>
<path d="M0 0 C1.60080151 4.00200378 0.29279692 7.04556236 -1 11 C-2.32 10.67 -3.64 10.34 -5 10 C-4.67 9.01 -4.34 8.02 -4 7 C-3.01 7 -2.02 7 -1 7 C-1.020625 6.030625 -1.04125 5.06125 -1.0625 4.0625 C-1 1 -1 1 0 0 Z " fill="#0A446B" transform="translate(279,162)"/>
<path d="M0 0 C2 3 2 3 1.875 6.4375 C1 10 1 10 -3 14 C-2.01 9.38 -1.02 4.76 0 0 Z " fill="#063B67" transform="translate(658,142)"/>
<path d="M0 0 C1.45047396 2.90094791 0.45356803 4.55972596 -0.4375 7.625 C-0.72496094 8.62789062 -1.01242187 9.63078125 -1.30859375 10.6640625 C-1.53675781 11.43492187 -1.76492188 12.20578125 -2 13 C-2.33 13 -2.66 13 -3 13 C-3.4726477 4.80743982 -3.4726477 4.80743982 -1.5 1.4375 C-0.7575 0.7259375 -0.7575 0.7259375 0 0 Z " fill="#063D68" transform="translate(704,124)"/>
<path d="M0 0 C0.33 0 0.66 0 1 0 C1.33 2.97 1.66 5.94 2 9 C0.02 9.99 0.02 9.99 -2 11 C-1.34 7.37 -0.68 3.74 0 0 Z " fill="#053B63" transform="translate(1090,213)"/>
<path d="M0 0 C0.33 0 0.66 0 1 0 C1.0270043 1.45823212 1.04639787 2.91660675 1.0625 4.375 C1.07410156 5.18710938 1.08570313 5.99921875 1.09765625 6.8359375 C1 9 1 9 0 11 C-0.66 11 -1.32 11 -2 11 C-1.125 3.375 -1.125 3.375 0 0 Z " fill="#04416C" transform="translate(226,209)"/>
<path d="M0 0 C0.66 0.33 1.32 0.66 2 1 C1.75 4.375 1.75 4.375 1 8 C-0.98 8.99 -0.98 8.99 -3 10 C-2.01 6.7 -1.02 3.4 0 0 Z " fill="#FCE3D4" transform="translate(80,198)"/>
<path d="M0 0 C0.33 0.66 0.66 1.32 1 2 C0.34 2 -0.32 2 -1 2 C-1 2.99 -1 3.98 -1 5 C-3.64 5.66 -6.28 6.32 -9 7 C-7.71034824 5.62437146 -6.37310707 4.29233607 -5 3 C-4.34 3 -3.68 3 -3 3 C-3 2.34 -3 1.68 -3 1 C-2.01 0.67 -1.02 0.34 0 0 Z " fill="#DE5629" transform="translate(134,182)"/>
<path d="M0 0 C0.33 0 0.66 0 1 0 C1.33 2.97 1.66 5.94 2 9 C0.02 9.99 0.02 9.99 -2 11 C-1.125 3.375 -1.125 3.375 0 0 Z " fill="#083E66" transform="translate(242,150)"/>
<path d="M0 0 C0 1.65 0 3.3 0 5 C-0.99 5 -1.98 5 -3 5 C-3 5.66 -3 6.32 -3 7 C-3.99 7 -4.98 7 -6 7 C-2.86206897 0 -2.86206897 0 0 0 Z " fill="#0D4172" transform="translate(310,145)"/>
<path d="M0 0 C0.33 1.32 0.66 2.64 1 4 C0.34 4 -0.32 4 -1 4 C-0.65213292 5.97536745 -0.65213292 5.97536745 0 8 C0.66 8.33 1.32 8.66 2 9 C0.35 8.67 -1.3 8.34 -3 8 C-2.45276317 4.62537285 -1.9451 2.91765 0 0 Z " fill="#FAE1DD" transform="translate(63,116)"/>
<path d="M0 0 C2 2 2 2 2.1953125 4.6015625 C2.17210937 5.59929688 2.14890625 6.59703125 2.125 7.625 C2.10695312 8.62789062 2.08890625 9.63078125 2.0703125 10.6640625 C2.03550781 11.82035156 2.03550781 11.82035156 2 13 C-0.20247411 9.69628883 -0.09462421 8.7849683 0 5 C-0.33 4.01 -0.66 3.02 -1 2 C-0.67 1.34 -0.34 0.68 0 0 Z " fill="#FCE9E2" transform="translate(165,24)"/>
<path d="M0 0 C2.99324263 1.0975223 3.84610901 1.67682892 5.25 4.625 C5.4975 5.40875 5.745 6.1925 6 7 C1.2 4.53846154 1.2 4.53846154 0.1875 1.8125 C0.125625 1.214375 0.06375 0.61625 0 0 Z " fill="#BF3324" transform="translate(39,183)"/>
<path d="M0 0 C0.33 0 0.66 0 1 0 C1.19622241 4.21878192 0.80230168 7.17010894 -1 11 C-1.66 11 -2.32 11 -3 11 C-2.69217504 9.35328588 -2.37860766 7.70764424 -2.0625 6.0625 C-1.88847656 5.14597656 -1.71445313 4.22945313 -1.53515625 3.28515625 C-1 1 -1 1 0 0 Z " fill="#084371" transform="translate(251,119)"/>
<path d="M0 0 C0.33 0 0.66 0 1 0 C1.25 2.25 1.25 2.25 1 5 C-1 7.3125 -1 7.3125 -3 9 C-3.66 8.67 -4.32 8.34 -5 8 C-4.19185349 6.66402348 -3.37836819 5.331275 -2.5625 4 C-2.11003906 3.2575 -1.65757813 2.515 -1.19140625 1.75 C-0.79824219 1.1725 -0.40507813 0.595 0 0 Z " fill="#E2672D" transform="translate(34,87)"/>
<path d="M0 0 C0.33 0 0.66 0 1 0 C0.67 3.63 0.34 7.26 0 11 C-0.99 11 -1.98 11 -3 11 C-2.01 7.37 -1.02 3.74 0 0 Z " fill="#D85535" transform="translate(218,75)"/>
<path d="M0 0 C-3.50538557 1.96301592 -7.13351728 2.95902388 -11 4 C-11 3.01 -11 2.02 -11 1 C-7.32589215 -0.17571451 -3.83070817 -0.07366746 0 0 Z " fill="#A33B4A" transform="translate(152,20)"/>
<path d="M0 0 C2.475 0.495 2.475 0.495 5 1 C4.01 2.98 3.02 4.96 2 7 C0 4 0 4 0 0 Z " fill="#B42F21" transform="translate(187,127)"/>
<path d="M0 0 C0.99 0.33 1.98 0.66 3 1 C1.02 3.97 1.02 3.97 -1 7 C-1.66 5.68 -2.32 4.36 -3 3 C-2.01 2.01 -1.02 1.02 0 0 Z " fill="#FDF0EA" transform="translate(160,44)"/>
<path d="M0 0 C2.475 0.495 2.475 0.495 5 1 C3.35 2.65 1.7 4.3 0 6 C0 4.02 0 2.04 0 0 Z " fill="#07436E" transform="translate(410,210)"/>
<path d="M0 0 C0.45375 0.495 0.9075 0.99 1.375 1.5 C2.87635519 3.22609337 2.87635519 3.22609337 5 3 C4.67 4.65 4.34 6.3 4 8 C3.34 8 2.68 8 2 8 C0.74335022 5.09399739 0 3.20395416 0 0 Z " fill="#064473" transform="translate(497,207)"/>
<path d="M0 0 C0.33 0 0.66 0 1 0 C1.36923077 7.50769231 1.36923077 7.50769231 -0.5 10 C-0.995 10.33 -1.49 10.66 -2 11 C-1.125 3.375 -1.125 3.375 0 0 Z " fill="#06456B" transform="translate(236,172)"/>
<path d="M0 0 C3.67230705 3.07999946 4.56802365 5.2482602 5 10 C1.94597912 8.47298956 1.34130519 6.04842088 0 3 C0 2.01 0 1.02 0 0 Z " fill="#C2361F" transform="translate(31,169)"/>
<path d="M0 0 C0.66 0.33 1.32 0.66 2 1 C2 1.66 2 2.32 2 3 C2.66 3 3.32 3 4 3 C3.67 4.32 3.34 5.64 3 7 C2.34 7 1.68 7 1 7 C1 6.34 1 5.68 1 5 C0.34 4.67 -0.32 4.34 -1 4 C-0.67 2.68 -0.34 1.36 0 0 Z " fill="#E46032" transform="translate(209,99)"/>
<path d="M0 0 C2.91517292 1.07401108 4.77810176 1.77810176 7 4 C5.02 4.33 3.04 4.66 1 5 C0.67 3.35 0.34 1.7 0 0 Z " fill="#B03238" transform="translate(191,7)"/>
<path d="M0 0 C2.64 0 5.28 0 8 0 C5.37801226 2.15377564 3.35595828 3.40072174 0 4 C0 2.68 0 1.36 0 0 Z " fill="#0C426F" transform="translate(592,228)"/>
<path d="M0 0 C0.66 0 1.32 0 2 0 C1.34 3.3 0.68 6.6 0 10 C-0.33 10 -0.66 10 -1 10 C-1.125 2.25 -1.125 2.25 0 0 Z " fill="#043D66" transform="translate(999,205)"/>
<path d="M0 0 C2.31 0.66 4.62 1.32 7 2 C7 2.66 7 3.32 7 4 C7.66 4.33 8.32 4.66 9 5 C4.68607774 4.5206753 2.83430453 3.2542015 0 0 Z " fill="#BC331F" transform="translate(45,190)"/>
<path d="M0 0 C0.66 0 1.32 0 2 0 C2.1875 2.8125 2.1875 2.8125 2 6 C1.01 6.99 0.02 7.98 -1 9 C-0.67 6.03 -0.34 3.06 0 0 Z " fill="#F7D7D8" transform="translate(93,149)"/>
<path d="M0 0 C1.32 0.33 2.64 0.66 4 1 C3.01 2.485 3.01 2.485 2 4 C-0.625 4.1875 -0.625 4.1875 -3 4 C-2.01 2.68 -1.02 1.36 0 0 Z " fill="#0C4771" transform="translate(316,138)"/>
<path d="M0 0 C0.33 0 0.66 0 1 0 C1 2.64 1 5.28 1 8 C0.01 8.33 -0.98 8.66 -2 9 C-1.34 6.03 -0.68 3.06 0 0 Z " fill="#DB6837" transform="translate(10,133)"/>
</svg>
