<?xml version="1.0" encoding="UTF-8"?>
<svg version="1.1" xmlns="http://www.w3.org/2000/svg" width="2560" height="636">
<path d="M0 0 C0.82306641 0.61343262 1.64613281 1.22686523 2.49414062 1.85888672 C23.30046223 17.43291749 43.39250961 33.7725923 62.39453125 51.5078125 C66.08563384 54.93847233 69.81738459 58.32525323 73.5390625 61.72265625 C75.40280378 63.44735652 77.22602187 65.18435125 79 67 C79.30550781 66.32839844 79.61101562 65.65679687 79.92578125 64.96484375 C81.25312366 62.06712441 82.59287732 59.17541443 83.93847656 56.28613281 C84.69135049 54.66471804 85.44030318 53.04147991 86.18652344 51.41699219 C106.39685943 7.51177951 136.58664808 -35.07424558 183.47924805 -52.69726562 C209.20370536 -62.03273213 236.24605798 -62.09604412 262 -53 C263.04285156 -52.64164063 264.08570313 -52.28328125 265.16015625 -51.9140625 C277.94875669 -47.06024645 289.71253659 -38.91345289 300 -30 C301.19109375 -28.99066406 301.19109375 -28.99066406 302.40625 -27.9609375 C321.75913923 -11.11902441 335.96879229 9.49853794 348 32 C348.55977539 33.03688965 348.55977539 33.03688965 349.13085938 34.09472656 C372.17969991 77.14373359 384.01222462 125.85468528 390.1875 174 C390.42001465 175.7934082 390.42001465 175.7934082 390.65722656 177.62304688 C393.45648497 200.66356593 394.37905338 223.67777288 394.3125 246.875 C394.31057362 248.216929 394.3087334 249.55885812 394.30697632 250.90078735 C394.26616397 272.3862604 393.608471 293.66322276 391 315 C390.91514343 315.70547974 390.83028687 316.41095947 390.74285889 317.13781738 C384.75415386 366.52412459 371.86161884 414.19356458 350 459 C349.64083496 459.74427246 349.28166992 460.48854492 348.91162109 461.25537109 C337.69978705 484.26494425 321.54841151 504.5308385 304 523 C302.93265625 524.16402344 302.93265625 524.16402344 301.84375 525.3515625 C291.16443448 536.6286009 277.8095241 545.07136806 264 552 C263.28924316 552.35723145 262.57848633 552.71446289 261.84619141 553.08251953 C215.96732436 575.53864274 159.58712531 566.93218625 113.13110352 551.01855469 C60.8350226 532.8283202 12.98959629 503.63919701 -30 469 C-30.92941406 468.25363281 -31.85882813 467.50726562 -32.81640625 466.73828125 C-43.9238691 457.73266726 -54.70776526 448.38384329 -65.19287109 438.66308594 C-69.44147214 434.75313317 -73.72456434 430.88055398 -78 427 C-78.34667725 427.81976318 -78.69335449 428.63952637 -79.05053711 429.48413086 C-90.22769874 455.82778988 -101.7485501 482.38128321 -121 504 C-121.78503906 504.89332031 -122.57007813 505.78664063 -123.37890625 506.70703125 C-127.13405141 510.93234285 -130.9502793 515.05411829 -135 519 C-135.51175781 519.556875 -136.02351562 520.11375 -136.55078125 520.6875 C-154.31979441 539.55994224 -181.29313879 553.62197178 -207.35107422 555.20336914 C-210.98682328 555.30342873 -214.61293009 555.3289132 -218.25 555.3125 C-219.53471191 555.30758545 -220.81942383 555.3026709 -222.14306641 555.29760742 C-231.15008662 555.1862051 -239.32624326 554.57077609 -248 552 C-249.17304688 551.68289063 -250.34609375 551.36578125 -251.5546875 551.0390625 C-267.67512049 546.23360573 -282.24294568 537.88461974 -295 527 C-295.86753906 526.26007812 -296.73507812 525.52015625 -297.62890625 524.7578125 C-300.13558947 522.55318657 -302.57474107 520.29374569 -305 518 C-305.85980469 517.20464844 -306.71960938 516.40929687 -307.60546875 515.58984375 C-320.24722886 503.49534598 -330.25640653 489.0896969 -339 474 C-339.4729248 473.1843457 -339.94584961 472.36869141 -340.43310547 471.52832031 C-375.38816421 410.62712132 -390.9671262 336.76274579 -391.203125 266.85546875 C-391.21014695 265.44458485 -391.21723377 264.03370127 -391.22438049 262.62281799 C-391.24376236 258.14437395 -391.24881373 253.66598176 -391.25 249.1875 C-391.25044186 248.42508499 -391.25088371 247.66266998 -391.25133896 246.87715149 C-391.25815657 224.45391581 -391.0925179 202.25775454 -388 180 C-387.82103163 178.66637567 -387.64232856 177.33271571 -387.46386719 175.99902344 C-378.21232819 107.81954415 -357.41360803 38.08550708 -310.08984375 -13.6875 C-308.31643159 -15.64985514 -306.61849755 -17.64661409 -304.9375 -19.6875 C-301.63087814 -23.54970602 -297.92375422 -26.77713967 -294 -30 C-293.49936035 -30.4129834 -292.9987207 -30.8259668 -292.48291016 -31.25146484 C-209.49091261 -99.31913985 -101.62530941 -66.33521893 0 0 Z M-271 2 C-271.90516357 2.83942139 -271.90516357 2.83942139 -272.82861328 3.69580078 C-287.69865359 17.64580766 -298.83275094 33.40143096 -309 51 C-309.3604541 51.61633301 -309.7209082 52.23266602 -310.09228516 52.86767578 C-334.21152227 94.47364817 -344.81968203 143.97202143 -350.25 191.25 C-350.33317474 191.97172394 -350.41634949 192.69344788 -350.50204468 193.43704224 C-352.54057441 211.36416525 -353.20652156 229.15382919 -353.1875 247.1875 C-353.18689575 248.2475827 -353.1862915 249.30766541 -353.18566895 250.39987183 C-353.15951833 267.34180546 -352.77988648 284.13702656 -351 301 C-350.87109375 302.22283691 -350.7421875 303.44567383 -350.609375 304.70556641 C-343.12062307 372.96241996 -324.62321614 450.62775348 -270.6640625 497.90625 C-265.74185335 501.77473109 -260.43911223 504.91896251 -255 508 C-254.17886719 508.4846875 -253.35773438 508.969375 -252.51171875 509.46875 C-237.12707226 517.94969798 -218.27418441 519.46980947 -201.3125 515.5625 C-188.0637262 511.46821082 -176.12812462 504.43014536 -166 495 C-165.50081055 494.54705566 -165.00162109 494.09411133 -164.48730469 493.62744141 C-139.89006621 471.15430373 -124.47493906 439.66946654 -113.1875 408.8125 C-112.73632812 407.60037842 -112.28515625 406.38825684 -111.8203125 405.1394043 C-111.41941406 404.00672119 -111.01851562 402.87403809 -110.60546875 401.70703125 C-110.24606201 400.7013208 -109.88665527 399.69561035 -109.51635742 398.65942383 C-108.77481452 396.04056014 -108.77481452 396.04056014 -109.78417969 393.78027344 C-111.36344587 391.46782182 -113.15060669 389.48427115 -115.0625 387.4375 C-119.92819899 382.1231356 -124.47168044 376.60211764 -129 371 C-130.01082767 369.76879913 -131.02260049 368.53837382 -132.03515625 367.30859375 C-160.8524119 332.23144247 -185.87516981 294.17180822 -207 254 C-207.6794165 252.71706055 -207.6794165 252.71706055 -208.37255859 251.40820312 C-226.69606656 216.59287911 -240.29199642 179.59636297 -248 141 C-248.19207031 140.05350586 -248.38414062 139.10701172 -248.58203125 138.13183594 C-250.98935613 125.71389865 -251.29486999 113.29624109 -251.375 100.6875 C-251.38312714 99.93531189 -251.39125427 99.18312378 -251.39962769 98.40814209 C-251.59429545 74.38948779 -246.60299863 49.18528427 -229.453125 31.21875 C-216.84326858 19.81365693 -202.04162186 15.19516038 -185.265625 15.69921875 C-159.0723669 17.15506544 -137.26779597 32.38649471 -119 50 C-118.24460937 50.69222656 -117.48921875 51.38445312 -116.7109375 52.09765625 C-73.05008324 93.297626 -55.20315982 159.3539628 -50 217 C-49.88398437 218.2382251 -49.88398437 218.2382251 -49.765625 219.50146484 C-45.43120415 269.06598404 -51.87352208 321.19744178 -62.76464844 369.55664062 C-62.98736671 370.55415596 -62.98736671 370.55415596 -63.21458435 371.57182312 C-63.61649895 373.36332924 -64.02633791 375.15305242 -64.43676758 376.94262695 C-65.22694464 380.96628435 -65.22694464 380.96628435 -65 385 C-63.39888655 387.05109713 -61.89476771 388.71318059 -60.03125 390.4921875 C-59.51751831 391.00121613 -59.00378662 391.51024475 -58.4744873 392.03469849 C-56.82768793 393.66018319 -55.16412505 395.2672778 -53.5 396.875 C-52.41036793 397.94811268 -51.32181422 399.0223215 -50.234375 400.09765625 C-45.18032306 405.07326201 -40.05799943 409.94550535 -34.67236328 414.56396484 C-32.29024109 416.60946013 -29.9936388 418.74460117 -27.6875 420.875 C-22.2850248 425.79577302 -16.69762419 430.4270049 -11 435 C-9.86801214 435.92389449 -8.73652513 436.8484029 -7.60546875 437.7734375 C48.70638425 483.61540065 121.90803497 527.60860119 196.6875 527.375 C197.38077393 527.37412384 198.07404785 527.37324768 198.78833008 527.37234497 C230.43005224 527.24118522 253.89477574 516.02480844 277 495 C277.67546875 494.39671875 278.3509375 493.7934375 279.046875 493.171875 C296.3831686 476.82622675 308.92798003 454.33868647 319 433 C319.3285498 432.30567871 319.65709961 431.61135742 319.99560547 430.89599609 C343.84377402 380.02223098 354.99292165 321.38462479 355.203125 265.30078125 C355.21013931 264.03877396 355.21715363 262.77676666 355.22438049 261.47651672 C355.24179297 257.42180482 355.24881534 253.36724126 355.25 249.3125 C355.25044186 248.62081474 355.25088371 247.92912949 355.25133896 247.21648407 C355.25866111 225.34858802 354.84807022 203.71202018 352 182 C351.91514343 181.34132935 351.83028687 180.68265869 351.74285889 180.00402832 C344.99308381 127.87075279 331.76188905 70.97565264 300 28 C298.84951172 26.42605469 298.84951172 26.42605469 297.67578125 24.8203125 C281.73391509 3.36716973 261.37693588 -16.40333856 234 -21 C210.55595326 -23.13403632 189.22261873 -16.0821037 170.77050781 -1.48925781 C143.16386535 21.73199412 125.6551019 53.76009646 113.25 87.1875 C112.90235596 88.11409424 112.55471191 89.04068848 112.1965332 89.99536133 C111.73573364 91.2873645 111.73573364 91.2873645 111.265625 92.60546875 C110.86005371 93.73698364 110.86005371 93.73698364 110.44628906 94.89135742 C109.92939366 97.33360338 110.12952592 98.67429664 111 101 C112.99722705 103.5081737 112.99722705 103.5081737 115.5 106.0625 C119.75648376 110.60020892 123.74774726 115.28065857 127.65625 120.125 C129.75016189 122.69353192 131.88170686 125.22031607 134.03662109 127.73730469 C139.44521172 134.06020917 144.63340284 140.5235818 149.62939453 147.17871094 C150.5633433 148.41976149 151.50202348 149.65726224 152.44482422 150.89160156 C169.41521457 173.12264938 185.14893726 196.70084362 199 221 C199.41572266 221.72541992 199.83144531 222.45083984 200.25976562 223.19824219 C203.24461408 228.42752956 206.13517958 233.70422711 209 239 C209.45842285 239.83772949 209.9168457 240.67545898 210.38916016 241.53857422 C239.26404933 294.47098527 268.6739057 365.18582762 251.25390625 426.12109375 C246.11103224 442.66828035 237.1196148 459.40119389 222.046875 468.8515625 C206.00514252 477.20148992 190.04550803 478.78026624 172.53125 474.06640625 C155.5182712 468.52952464 143.4537363 458.490691 131 446 C130.44836182 445.46560303 129.89672363 444.93120605 129.32836914 444.38061523 C125.2847985 440.43104254 121.68751408 436.34492792 118.3125 431.8125 C117.80485107 431.13179443 117.29720215 430.45108887 116.77416992 429.74975586 C110.54317963 421.22157328 105.22444253 412.16766615 100 403 C99.60216309 402.31421875 99.20432617 401.6284375 98.79443359 400.921875 C77.65408295 364.26760426 66.03029007 321.43105565 59.1875 280 C58.99244873 278.82179688 58.79739746 277.64359375 58.59643555 276.4296875 C55.49547395 256.51349831 54.62287933 236.69865583 54.6875 216.5625 C54.69023422 214.78709839 54.69023422 214.78709839 54.69302368 212.97583008 C54.77704365 180.49102762 58.16232332 148.75419049 65.43164062 117.06079102 C65.71297852 115.54569946 65.71297852 115.54569946 66 114 C66.15275391 113.17798096 66.30550781 112.35596191 66.46289062 111.5090332 C65.70706407 107.41218221 62.86431687 105.23197523 59.9375 102.4140625 C59.31278809 101.79405365 58.68807617 101.1740448 58.04443359 100.5352478 C56.04103506 98.55319053 54.02071507 96.58938348 52 94.625 C50.66948373 93.3109978 49.34004411 91.99590445 48.01171875 90.6796875 C41.83873128 84.58548242 35.60876062 78.62304717 29 73 C27.22429779 71.38032183 25.45291693 69.75588282 23.6875 68.125 C19.25503526 64.08720678 14.72257823 60.22692566 10.0546875 56.46484375 C7.8168842 54.65914825 5.59518101 52.84020688 3.3828125 51.00390625 C-63.00372378 -3.90036658 -168.12925937 -64.38921505 -271 2 Z M-202.8125 58.73828125 C-208.49940161 65.832691 -211.51434202 74.11732913 -213 83 C-213.11214844 83.6496875 -213.22429687 84.299375 -213.33984375 84.96875 C-216.77449803 109.43478049 -211.3141087 134.48689457 -205 158 C-204.77473633 158.85480957 -204.54947266 159.70961914 -204.31738281 160.59033203 C-195.09900092 195.08692258 -179.16272386 228.37398687 -161 259 C-159.95700723 260.77863175 -158.91403829 262.55727747 -157.87109375 264.3359375 C-151.9043056 274.44880076 -145.67481946 284.34019927 -139 294 C-138.54157715 294.66563965 -138.0831543 295.3312793 -137.61083984 296.01708984 C-127.64113376 310.44701638 -117.03179033 324.36702963 -106 338 C-104.49905179 339.87424103 -102.99904268 341.74923455 -101.5 343.625 C-100.8296875 344.46289062 -100.159375 345.30078125 -99.46875 346.1640625 C-98.9840625 346.76992188 -98.499375 347.37578125 -98 348 C-83.58355558 322.89189776 -87.72033167 276.39418016 -87.625 248.5 C-87.61308121 246.67169647 -87.61308121 246.67169647 -87.60092163 244.80645752 C-87.3385827 192.44360708 -98.34651308 134.87270391 -132 93 C-132.44730469 92.44135254 -132.89460938 91.88270508 -133.35546875 91.30712891 C-147.31522109 74.03828961 -164.91197033 55.94626928 -188.14453125 53 C-193.92060438 53 -198.62623346 54.72343511 -202.8125 58.73828125 Z M99 146 C96.99589353 152.15113198 96.19445496 158.27541065 95.4375 164.6875 C95.31181641 165.70005859 95.18613281 166.71261719 95.05664062 167.75585938 C93.70763096 178.85164042 92.84346596 189.86326318 92.76171875 201.04296875 C92.7519249 202.15772079 92.74213104 203.27247284 92.73204041 204.42100525 C92.56116147 228.91624077 92.70056064 252.82628766 97 277 C97.21430664 278.23169922 97.42861328 279.46339844 97.64941406 280.73242188 C106.5840866 330.69896031 124.65336433 383.42370643 160 421 C160.84111328 421.93779297 160.84111328 421.93779297 161.69921875 422.89453125 C169.71217569 431.48954317 179.81221007 437.99448194 191.5625 439.4375 C198.9136836 438.50189482 203.79894561 435.02351855 208.40234375 429.30859375 C221.76705686 409.99674668 219.41321869 383.55340146 215.49169922 361.61474609 C206.61712554 314.421755 185.01549177 269.68750537 160 229 C159.13810059 227.59766113 159.13810059 227.59766113 158.25878906 226.16699219 C143.58349883 202.4393478 127.25985727 179.98111271 109.79394531 158.23583984 C108.35506201 156.44252284 106.92473659 154.64354263 105.50390625 152.8359375 C104.86324219 152.02382812 104.22257812 151.21171875 103.5625 150.375 C102.90378906 149.53710938 102.24507813 148.69921875 101.56640625 147.8359375 C100.79103516 146.92714844 100.79103516 146.92714844 100 146 C99.67 146 99.34 146 99 146 Z " fill="#48D7AB" transform="translate(391,70)"/>
<path d="M0 0 C1.03229736 0.24145752 1.03229736 0.24145752 2.08544922 0.48779297 C17.90227793 4.26337625 32.17681558 10.60253421 43 23 C43.33 16.4 43.66 9.8 44 3 C60.5 3 77 3 94 3 C94.04527911 26.90597508 94.08206584 50.81191503 94.10362434 74.71792221 C94.11390375 85.81977634 94.12789974 96.92160179 94.15087891 108.0234375 C94.17091552 117.70832536 94.18374062 127.39319243 94.18817699 137.07810044 C94.1907671 142.19841225 94.19678412 147.31866461 94.21146011 152.43895721 C94.225207 157.27505253 94.22918875 162.11106488 94.22621536 166.94717789 C94.22675799 168.7061445 94.23063221 170.46511438 94.23841095 172.22406387 C94.37288698 204.24918124 90.68225819 234.44663098 67.875 258.625 C48.96979106 276.85502291 22.59271313 284.35459936 -3 287 C-4.03125 287.11085938 -5.0625 287.22171875 -6.125 287.3359375 C-44.36335807 290.73694531 -87.0736788 287.18370929 -121 268 C-122.58207732 266.41792268 -122.12727519 264.8137897 -122.12939453 262.61962891 C-122.13254669 261.68841217 -122.13569885 260.75719543 -122.13894653 259.79776001 C-122.1369223 258.78426483 -122.13489807 257.77076965 -122.1328125 256.7265625 C-122.13376923 255.69187836 -122.13472595 254.65719421 -122.13571167 253.59115601 C-122.13639375 251.39703308 -122.13453755 249.20290814 -122.13037109 247.00878906 C-122.12503403 243.64643821 -122.13030958 240.28422161 -122.13671875 236.921875 C-122.13605776 234.79427054 -122.13477617 232.66666616 -122.1328125 230.5390625 C-122.13483673 229.52961578 -122.13686096 228.52016907 -122.13894653 227.48013306 C-122.13579437 226.542612 -122.13264221 225.60509094 -122.12939453 224.63916016 C-122.12859894 223.81388824 -122.12780334 222.98861633 -122.12698364 222.13833618 C-122 220 -122 220 -121 217 C-116.31610731 217.53908954 -112.99767536 219.68734784 -109.125 222.1875 C-86.22883216 236.4163577 -59.42419166 241.17457654 -32.8190918 241.24023438 C-30.46691683 241.24987938 -28.11564062 241.28095311 -25.76367188 241.3125 C-6.52014568 241.44744706 14.2880582 238.23484997 29.21875 225.0390625 C40.51020241 213.36841953 42.35977007 198.40594319 42.125 182.875 C42.11597656 181.72773438 42.10695313 180.58046875 42.09765625 179.3984375 C42.07432538 176.59873252 42.04159232 173.79948305 42 171 C41.55269531 171.53036865 41.10539062 172.0607373 40.64453125 172.60717773 C25.42103188 190.38077554 1.91526669 198.90570695 -21 201 C-56.66732486 203.12670254 -91.15400802 196.20657907 -118.7734375 172.6328125 C-135.20112367 157.21606086 -144.09823831 134.62929275 -145.12402344 112.30029297 C-145.866387 84.58996917 -141.80392641 56.70627158 -123 35 C-122.40703125 34.26394531 -121.8140625 33.52789062 -121.203125 32.76953125 C-103.42653425 11.43027665 -72.89229249 -0.30944917 -45.78125 -2.80517578 C-30.34453737 -3.88650449 -15.06003478 -3.73993959 0 0 Z M-72 57 C-73.0725 57.763125 -74.145 58.52625 -75.25 59.3125 C-86.53051608 70.33664071 -91.10092 84.50692503 -92 100 C-92.11056287 113.0049571 -89.06446157 123.7344148 -81 134 C-80.22462891 134.99966797 -80.22462891 134.99966797 -79.43359375 136.01953125 C-68.56688253 148.34486142 -49.23455115 155.15803356 -33.21777344 156.17700195 C-9.6171657 156.68295964 14.75287935 154.85441711 33 138 C34.15072243 136.96618446 34.15072243 136.96618446 35.32469177 135.91148376 C40.97603368 130.33427389 43.0440264 126.40624449 43.22486877 118.45863342 C43.20351364 117.29794846 43.18215851 116.13726349 43.16015625 114.94140625 C43.16639511 113.71646957 43.17263397 112.4915329 43.17906189 111.22947693 C43.18079605 108.65184797 43.16019862 106.07411693 43.1184082 103.49682617 C43.06268103 99.57523938 43.09757597 95.66181555 43.14257812 91.74023438 C43.13303427 89.22393188 43.11823429 86.7076427 43.09765625 84.19140625 C43.11071304 83.03274551 43.12376984 81.87408478 43.13722229 80.68031311 C42.87877098 70.61233279 38.70183952 64.6226178 31.645401 57.68507385 C16.15573679 43.7139588 -6.6329243 40.17590725 -26.72119141 40.86816406 C-43.36211623 41.83089166 -58.42507912 47.28710942 -72 57 Z " fill="#13284A" transform="translate(1638,218)"/>
<path d="M0 0 C2.47448969 0.00315841 4.94777585 -0.0204134 7.42211914 -0.0456543 C31.47365411 -0.14116774 58.08137428 3.86235268 76.18188477 21.16723633 C90.95504044 37.09907088 93.70920544 57.89428703 93.43188477 78.74145508 C93.42370565 80.26490054 93.41705828 81.78835489 93.41183472 83.31181335 C93.39492897 87.28129144 93.36084223 91.25041183 93.32177734 95.21972656 C92.97119544 119.88829823 92.97119544 119.88829823 93.47875977 144.54614258 C93.50173126 145.24862625 93.52470276 145.95110992 93.54837036 146.67488098 C93.832003 151.74231658 95.12182638 155.72294862 97.17407227 160.31567383 C106.06363124 166.72442564 117.0949899 163.57555912 127.17407227 162.31567383 C127.17407227 176.50567383 127.17407227 190.69567383 127.17407227 205.31567383 C115.786188 209.45672265 108.30608365 210.5164298 96.54907227 210.56567383 C94.73729492 210.59661133 94.73729492 210.59661133 92.88891602 210.62817383 C79.37127067 210.68637682 69.06835054 207.73331578 57.98657227 200.12817383 C54.18581271 196.32741427 51.74331206 192.00772523 49.17407227 187.31567383 C48.22532227 188.16129883 47.27657227 189.00692383 46.29907227 189.87817383 C20.97126553 211.37149189 -8.75278576 213.92314644 -40.82592773 212.31567383 C-57.03541169 210.91327756 -73.73923182 205.53568806 -85.82592773 194.31567383 C-86.59420898 193.62602539 -87.36249023 192.93637695 -88.15405273 192.22583008 C-98.64344459 182.34426722 -104.90697403 169.78919468 -105.82592773 155.31567383 C-105.87749023 154.53321289 -105.92905273 153.75075195 -105.98217773 152.94458008 C-106.51871457 137.89919291 -102.91579917 123.09148319 -93.34545898 111.24536133 C-79.94474024 97.05181506 -62.64693385 91.54434875 -43.95092773 88.06567383 C-42.73397217 87.83908081 -42.73397217 87.83908081 -41.49243164 87.60791016 C-25.6115568 84.8947871 -9.69410679 83.98103593 6.39526367 84.05493164 C9.20065364 84.06577659 12.00541863 84.05488848 14.81079102 84.04223633 C24.13391201 84.03608001 33.0418572 84.24060012 42.17407227 86.31567383 C41.25766379 75.29141662 40.01473908 66.33380014 32.86157227 57.44067383 C16.59083794 44.57544204 -8.01483136 46.11963079 -27.52441406 48.265625 C-47.34797209 50.7648989 -66.28660142 56.87913582 -82.44311523 68.84692383 C-84.82592773 70.31567383 -84.82592773 70.31567383 -88.82592773 70.31567383 C-88.82592773 54.80567383 -88.82592773 39.29567383 -88.82592773 23.31567383 C-72.41261435 13.93663761 -72.41261435 13.93663761 -64.76342773 11.12817383 C-63.88275635 10.79994629 -63.00208496 10.47171875 -62.09472656 10.13354492 C-55.82110117 7.86932081 -49.49402301 6.01207268 -43.01342773 4.44067383 C-42.22766357 4.24965088 -41.44189941 4.05862793 -40.63232422 3.86181641 C-27.16830564 0.82714801 -13.75167469 -0.03649093 0 0 Z M-49.52124023 136.47192383 C-53.63951615 142.29176285 -53.39628715 148.45266053 -52.82592773 155.31567383 C-51.06140299 161.16066203 -46.8746918 165.06553196 -41.82592773 168.31567383 C-34.42367156 171.45030272 -26.83462109 173.01221428 -18.82592773 173.31567383 C-18.0744043 173.35563477 -17.32288086 173.3955957 -16.54858398 173.43676758 C0.62366318 173.92250502 17.99936522 170.3157702 32.17407227 160.31567383 C33.04555908 159.72439697 33.9170459 159.13312012 34.81494141 158.52392578 C38.83569505 155.43346561 41.77431293 153.14380982 42.88720703 148.05444336 C42.9336108 144.3943781 42.69367618 140.89165403 42.29907227 137.25317383 C42.20625977 136.00600586 42.11344727 134.75883789 42.01782227 133.47387695 C41.78335162 130.41403502 41.50128131 127.36675467 41.17407227 124.31567383 C20.68143713 114.06935626 -34.01246974 120.11441465 -49.52124023 136.47192383 Z " fill="#13284A" transform="translate(1859.825927734375,214.684326171875)"/>
<path d="M0 0 C0.81635925 -0.0080365 1.63271851 -0.016073 2.47381592 -0.02435303 C17.76879291 -0.13845164 33.43129911 0.95485552 47.9375 6.1875 C49.04931641 6.57651489 49.04931641 6.57651489 50.18359375 6.97338867 C65.38073857 12.48735273 77.38140248 22.73076285 84.80859375 37.16015625 C94.04275959 58.39599756 91.69138927 83.2483662 91.4644165 105.85546875 C91.39327027 113.01074682 91.33867402 120.16602212 91.30206108 127.321558 C91.28557179 129.7931822 91.25603874 132.26440285 91.22535706 134.73588562 C90.73886938 148.18399972 90.73886938 148.18399972 95.4375 160.375 C105.0022657 166.8871809 113.78944916 163.66228343 125.375 162.375 C125.375 176.235 125.375 190.095 125.375 204.375 C108.62665415 212.74917293 86.20585462 213.53921502 68.30078125 207.6328125 C58.38386929 203.36946717 50.63721007 196.40372959 46.375 186.375 C45.715 187.055625 45.055 187.73625 44.375 188.4375 C43.37577433 189.41745685 42.37569452 190.39654313 41.375 191.375 C40.86324219 191.90609375 40.35148437 192.4371875 39.82421875 192.984375 C20.138492 212.01536583 -9.42395924 212.94639358 -35.0625 212.65234375 C-57.58112596 212.25123319 -76.77539409 205.61379885 -93.4375 190.0625 C-97.95548014 185.37479252 -100.90334991 180.25727601 -103.625 174.375 C-104.10066406 173.35792969 -104.10066406 173.35792969 -104.5859375 172.3203125 C-110.97363258 157.07838661 -109.5389855 138.95015973 -103.6328125 123.8359375 C-96.71197895 108.41918415 -83.01706691 99.20438467 -67.73828125 93.25 C-60.97326738 90.98615222 -54.06101464 89.56767086 -47.0625 88.25 C-46.23186035 88.09128418 -45.4012207 87.93256836 -44.54541016 87.76904297 C-28.59001275 84.93232902 -12.58438015 84.03994323 3.59619141 84.11425781 C6.40158137 84.12510276 9.20634637 84.11421466 12.01171875 84.1015625 C21.33483974 84.09540619 30.24278494 84.29992629 39.375 86.375 C38.18040743 69.71125219 38.18040743 69.71125219 29.25 56 C18.32063752 47.62555342 3.11781136 46.9996064 -10.0625 47.0625 C-11.28807617 47.06741455 -12.51365234 47.0723291 -13.77636719 47.07739258 C-30.14312016 47.28598845 -45.24845833 49.80936046 -60.625 55.375 C-61.6459375 55.73207031 -62.666875 56.08914063 -63.71875 56.45703125 C-70.8170046 59.15703938 -77.03761946 62.93597381 -83.37109375 67.07299805 C-88.43936997 70.375 -88.43936997 70.375 -90.625 70.375 C-90.625 54.865 -90.625 39.355 -90.625 23.375 C-61.54009875 6.75505643 -33.23639576 0.18212804 0 0 Z M-50.625 135.375 C-54.56448791 140.78891613 -56.06269004 145.70022686 -55.625 152.375 C-54.09708181 158.29568299 -51.80678933 163.43088716 -46.42578125 166.71875 C-29.12702067 175.83172648 -7.16711578 175.26556275 11.28613281 169.80224609 C18.66299506 167.4171743 25.31824529 164.23997038 31.375 159.375 C32.06029785 158.87307129 32.7455957 158.37114258 33.45166016 157.85400391 C36.97759805 154.92520694 39.09180075 152.77998357 40.01538086 148.19799805 C40.16140988 144.55891442 40.07466492 141.01120538 39.875 137.375 C39.83890625 136.12332031 39.8028125 134.87164062 39.765625 133.58203125 C39.67181689 130.50981568 39.54068726 127.44403787 39.375 124.375 C29.52190685 122.28625425 19.95610677 122.01607953 9.9375 122.0625 C9.14463593 122.06399048 8.35177185 122.06548096 7.53488159 122.0670166 C-23.83975222 121.69022026 -23.83975222 121.69022026 -50.625 135.375 Z " fill="#13284A" transform="translate(1361.625,214.625)"/>
<path d="M0 0 C14.63609024 13.73738294 24.10182962 31.70329276 28.1875 51.25 C28.52394531 52.74466797 28.52394531 52.74466797 28.8671875 54.26953125 C34.2123068 82.20327118 28.75245635 111.53380363 13.1875 135.25 C10.39549665 139.13240046 7.41369164 142.72255107 4.1875 146.25 C3.03314453 147.52617187 3.03314453 147.52617187 1.85546875 148.828125 C-12.89388804 164.36379645 -32.370614 173.66381972 -52.8125 179.25 C-53.4621875 179.42934082 -54.111875 179.60868164 -54.78125 179.79345703 C-75.98261443 185.26214914 -103.68770789 184.72434529 -124.8125 179.25 C-125.46943848 179.08371094 -126.12637695 178.91742188 -126.80322266 178.74609375 C-153.98546348 171.68067375 -178.32555801 155.42179141 -193.02734375 131.1550293 C-207.54498459 106.19085021 -210.99202989 75.86648498 -204.13671875 47.87109375 C-197.22950612 22.59419955 -180.43330824 0.85054755 -157.81005859 -12.46313477 C-110.08622011 -39.37919868 -41.77257357 -37.57052537 0 0 Z M-142.03515625 37.12109375 C-153.87472742 51.30255812 -157.05524868 67.29781862 -155.8125 85.25 C-153.75311893 100.35789639 -145.9446994 112.64223074 -134.33203125 122.31640625 C-116.97683387 135.09137666 -94.77653513 138.92206045 -73.67578125 135.71875 C-56.50593211 132.24322498 -41.56471367 123.70861355 -31.58203125 108.953125 C-24.96382929 98.12333998 -22.24646817 88.03817123 -22.375 75.3125 C-22.38257324 74.25780518 -22.39014648 73.20311035 -22.39794922 72.11645508 C-22.55841022 64.54726355 -23.39550891 58.0945611 -26.8125 51.25 C-27.25980469 50.30253906 -27.70710938 49.35507812 -28.16796875 48.37890625 C-35.03005775 34.82030144 -46.25382594 24.62494383 -60.56640625 19.24609375 C-89.3957617 10.39954063 -120.55663614 14.67625985 -142.03515625 37.12109375 Z " fill="#13284A" transform="translate(2529.8125,244.75)"/>
<path d="M0 0 C15.39529473 11.67391554 21.48465477 26.83662996 24.5 45.5625 C25.54392701 53.18057347 25.63531988 60.66106892 25.61352539 68.34399414 C25.61324281 69.71476235 25.61340263 71.08553071 25.6139679 72.45629883 C25.61425311 76.15194248 25.60840116 79.84755323 25.60139394 83.54318929 C25.5951143 87.41489444 25.59455297 91.28660047 25.59336853 95.15830994 C25.59026876 102.47849787 25.58207371 109.79867075 25.57201904 117.11885208 C25.56081574 125.45747321 25.55533685 133.79609508 25.55032361 142.13472188 C25.53988989 159.27732477 25.52156134 176.41990694 25.5 193.5625 C8.34 193.5625 -8.82 193.5625 -26.5 193.5625 C-26.5093457 189.92025391 -26.51869141 186.27800781 -26.52832031 182.52539062 C-26.56220346 170.44344111 -26.61761743 158.36167837 -26.68390274 146.27986908 C-26.72354282 138.9601764 -26.75601097 131.6405889 -26.77099609 124.32080078 C-26.78409127 117.93340228 -26.81125334 111.54623665 -26.85461307 105.1589694 C-26.87705378 101.7835993 -26.890821 98.4087635 -26.89188385 95.03327942 C-26.09863442 68.54179179 -26.09863442 68.54179179 -37.5 45.5625 C-49.39440762 35.24335942 -65.47057889 34.66915477 -80.5 35.5625 C-99.90942413 37.84473002 -117.56478888 46.94149696 -130.5 61.5625 C-132.71734274 64.88851412 -132.75586384 65.94314794 -132.7784729 69.82060242 C-132.78963638 70.91015228 -132.80079987 71.99970215 -132.81230164 73.12226868 C-132.81446182 74.31772812 -132.81662201 75.51318756 -132.81884766 76.74487305 C-132.83391609 78.63284607 -132.83391609 78.63284607 -132.84928894 80.55895996 C-132.87661775 84.01113858 -132.8917468 87.46327632 -132.90471697 90.91553473 C-132.92033496 94.52306803 -132.9471294 98.1305177 -132.9727478 101.73799133 C-133.01955924 108.5696001 -133.05629186 115.40122456 -133.08942068 122.23291188 C-133.12762539 130.01039415 -133.17703985 137.78779248 -133.22740483 145.56520402 C-133.33075988 161.56424819 -133.41852871 177.56332716 -133.5 193.5625 C-150.66 193.5625 -167.82 193.5625 -185.5 193.5625 C-185.5 126.9025 -185.5 60.2425 -185.5 -8.4375 C-168.67 -8.4375 -151.84 -8.4375 -134.5 -8.4375 C-134.17 1.4625 -133.84 11.3625 -133.5 21.5625 C-131.19 18.9225 -128.88 16.2825 -126.5 13.5625 C-98.68804024 -17.58689493 -34.30600469 -23.02590058 0 0 Z " fill="#13284A" transform="translate(1205.5,225.4375)"/>
<path d="M0 0 C0 17.16 0 34.32 0 52 C-4.00484377 51.33252604 -7.62983006 50.56576951 -11.50439453 49.48852539 C-32.60179907 43.84002693 -54.7860474 46.3930237 -74.3046875 56.15234375 C-81.49874501 60.30922134 -87.95834917 66.18196259 -91 74 C-91.45708976 78.14190408 -91.43745716 82.26731372 -91.43237305 86.43115234 C-91.4425647 87.68048553 -91.45275635 88.92981873 -91.46325684 90.2170105 C-91.48821914 93.62989482 -91.5001026 97.04234919 -91.50611091 100.45528746 C-91.51551105 104.02678714 -91.54171571 107.59816316 -91.56611633 111.16958618 C-91.60974006 117.92672833 -91.63831229 124.68384642 -91.66143972 131.44108641 C-91.68851359 139.1364346 -91.7324237 146.83165813 -91.77772844 154.52691722 C-91.87051564 170.35122799 -91.94000105 186.17552578 -92 202 C-109.49 202 -126.98 202 -145 202 C-145 135.34 -145 68.68 -145 0 C-127.84 0 -110.68 0 -93 0 C-92.67 9.24 -92.34 18.48 -92 28 C-89.36 24.37 -86.72 20.74 -84 17 C-64.06228851 -3.89625531 -26.62469714 -13.31234857 0 0 Z " fill="#13284A" transform="translate(2320,220)"/>
<path d="M0 0 C0 17.16 0 34.32 0 52 C-4.00484377 51.33252604 -7.62983006 50.56576951 -11.50439453 49.48852539 C-32.45978699 43.87804843 -55.29165289 46.14225184 -74.52734375 56.33984375 C-81.28051198 60.50718346 -87.9009838 66.55538113 -91 74 C-91.30887154 76.54600695 -91.30887154 76.54600695 -91.2784729 79.34039307 C-91.28963638 80.42290344 -91.30079987 81.50541382 -91.31230164 82.62072754 C-91.31446182 83.80324097 -91.31662201 84.98575439 -91.31884766 86.20410156 C-91.33391609 88.07766327 -91.33391609 88.07766327 -91.34928894 89.98907471 C-91.37488061 93.41025258 -91.39173588 96.83126462 -91.40471697 100.25249958 C-91.42035094 103.82933077 -91.4471403 107.40607794 -91.4727478 110.98284912 C-91.51953091 117.75421725 -91.55627725 124.5256012 -91.58942068 131.29704833 C-91.62764539 139.00684073 -91.67705463 146.71654875 -91.72740483 154.42627001 C-91.83071775 170.28412518 -91.91850371 186.14201543 -92 202 C-109.49 202 -126.98 202 -145 202 C-145 135.34 -145 68.68 -145 0 C-127.84 0 -110.68 0 -93 0 C-92.67 9.24 -92.34 18.48 -92 28 C-89.36 24.37 -86.72 20.74 -84 17 C-73.74000963 6.24674086 -59.56676047 -1.16627329 -45 -4 C-44.113125 -4.18046875 -43.22625 -4.3609375 -42.3125 -4.546875 C-28.65338988 -6.41533818 -12.60280026 -6.30140013 0 0 Z " fill="#13294A" transform="translate(2153,220)"/>
<path d="M0 0 C0.33 0 0.66 0 1 0 C1.01030746 0.56359726 1.02061493 1.12719452 1.03123474 1.70787048 C1.14083141 7.66332113 1.25527068 13.61866577 1.37231445 19.57397461 C1.41518118 21.78586574 1.45688137 23.99777984 1.49731445 26.2097168 C1.71360081 37.99865856 1.99234482 49.75629922 2.79492188 61.52148438 C3.07963919 66.3508324 3.09399309 71.16457758 3 76 C-0.39985454 73.08323471 -0.53371162 70.91764694 -0.87890625 66.61328125 C-1.4354227 54.60329724 -1.4354227 54.60329724 -0.49879456 51.15447998 C0.06518519 48.71844083 0.11996925 46.54806859 0.11352539 44.04785156 C0.11344986 43.06713684 0.11337433 42.08642212 0.11329651 41.07598877 C0.10813522 40.02481873 0.10297394 38.97364868 0.09765625 37.890625 C0.0962413 36.80867859 0.09482635 35.72673218 0.09336853 34.61199951 C0.08777318 31.1579715 0.0752215 27.70400841 0.0625 24.25 C0.0574844 21.90755302 0.0529216 19.56510502 0.04882812 17.22265625 C0.03780528 11.4817487 0.02107174 5.74087899 0 0 Z " fill="#59CDAA" transform="translate(37,294)"/>
<path d="M0 0 C0.33 0 0.66 0 1 0 C1.72431573 12.09163813 2.33891883 23.92913182 1 36 C0.5359375 35.0409375 0.5359375 35.0409375 0.0625 34.0625 C-0.8345163 32.06389179 -0.8345163 32.06389179 -2 31 C-2.25458617 26.56848912 -2.18523227 22.12545131 -2.1875 17.6875 C-2.19974609 16.43775391 -2.21199219 15.18800781 -2.22460938 13.90039062 C-2.22654297 12.69962891 -2.22847656 11.49886719 -2.23046875 10.26171875 C-2.23663208 8.60595825 -2.23663208 8.60595825 -2.24291992 6.91674805 C-2.00518501 4.06225656 -1.48095355 2.41714217 0 0 Z " fill="#58CFAA" transform="translate(646,442)"/>
<path d="M0 0 C0.33 0 0.66 0 1 0 C1.28875 1.051875 1.5775 2.10375 1.875 3.1875 C2.77225193 6.22818711 3.76423419 9.08712344 5 12 C5.33 12 5.66 12 6 12 C6.24550999 15.51897646 6.33759761 17.45984382 4.4375 20.5 C2.5599946 23.76522678 3.30869919 25.38987354 4 29 C3.0625 31.375 3.0625 31.375 2 33 C1.34 33 0.68 33 0 33 C0 22.11 0 11.22 0 0 Z " fill="#6AC9AB" transform="translate(608,443)"/>
<path d="M0 0 C0.33 0 0.66 0 1 0 C2.28241685 11.38144957 3.34176603 22.5318511 3 34 C2.67 34 2.34 34 2 34 C2 32.35 2 30.7 2 29 C1.01 28.67 0.02 28.34 -1 28 C-0.98259766 26.91332031 -0.98259766 26.91332031 -0.96484375 25.8046875 C-0.91741165 20.7226763 -1.07657701 16.01286769 -2 11 C-1.67 10.67 -1.34 10.34 -1 10 C-0.76712992 8.31816052 -0.58735834 6.6287584 -0.4375 4.9375 C-0.35371094 4.01839844 -0.26992188 3.09929687 -0.18359375 2.15234375 C-0.12300781 1.44207031 -0.06242188 0.73179687 0 0 Z " fill="#67C8AA" transform="translate(781,251)"/>
<path d="M0 0 C0.99 0 1.98 0 3 0 C3.04241723 2.33294775 3.04092937 4.66702567 3 7 C2.67 7.33 2.34 7.66 2 8 C1.89894178 10.78825348 1.8603016 13.55120873 1.8671875 16.33984375 C1.86623077 17.17713516 1.86527405 18.01442657 1.86428833 18.87709045 C1.86360645 20.65170364 1.86546128 22.42631931 1.86962891 24.20092773 C1.8749704 26.9224202 1.86968765 29.64374712 1.86328125 32.36523438 C1.86394216 34.08593787 1.86522359 35.80664125 1.8671875 37.52734375 C1.86516327 38.34508774 1.86313904 39.16283173 1.86105347 40.00535583 C1.77237268 44.13500659 1.77237268 44.13500659 3 48 C2.01 48 1.02 48 0 48 C0 32.16 0 16.32 0 0 Z " fill="#17233C" transform="translate(1680,296)"/>
<path d="M0 0 C0.99 0 1.98 0 3 0 C3.3172599 12.4612638 2.35798878 24.61918735 1 37 C0.67 37 0.34 37 0 37 C0 24.79 0 12.58 0 0 Z " fill="#5FCBAA" transform="translate(781,348)"/>
<path d="M0 0 C0.33 0 0.66 0 1 0 C1 4.29 1 8.58 1 13 C1.66 13 2.32 13 3 13 C2.42415568 15.38564077 1.77772405 17.66682784 1 20 C1.66 20.33 2.32 20.66 3 21 C1.35 21.33 -0.3 21.66 -2 22 C-1.85811015 19.45805839 -1.71160845 16.91652007 -1.5625 14.375 C-1.52318359 13.66214844 -1.48386719 12.94929687 -1.44335938 12.21484375 C-1.19690319 8.08196318 -0.76529947 4.07730976 0 0 Z " fill="#64C9A9" transform="translate(450,214)"/>
<path d="M0 0 C0.33 0 0.66 0 1 0 C1.33895656 1.72807318 1.67091525 3.45751974 2 5.1875 C2.185625 6.15042969 2.37125 7.11335938 2.5625 8.10546875 C2.96877612 10.7934206 3.07933572 13.28771019 3 16 C1.35 16 -0.3 16 -2 16 C-2 13.36 -2 10.72 -2 8 C-1.34 8 -0.68 8 0 8 C0 5.36 0 2.72 0 0 Z " fill="#61CBAA" transform="translate(45,408)"/>
<path d="M0 0 C-0.14238837 2.04190981 -0.28907028 4.08352045 -0.4375 6.125 C-0.51871094 7.26195312 -0.59992188 8.39890625 -0.68359375 9.5703125 C-0.97730965 12.7540478 -1.43124313 15.85510907 -2 19 C-2.33 19 -2.66 19 -3 19 C-3 17.35 -3 15.7 -3 14 C-3.99 14 -4.98 14 -6 14 C-6 13.34 -6 12.68 -6 12 C-4.68 12 -3.36 12 -2 12 C-2.66 11.01 -3.32 10.02 -4 9 C-4.55023923 3.71770335 -4.55023923 3.71770335 -2.5625 1.125 C-1 0 -1 0 0 0 Z " fill="#63C9AB" transform="translate(336,398)"/>
<path d="M0 0 C0.99 0.33 1.98 0.66 3 1 C2.67 1.66 2.34 2.32 2 3 C2.23590052 4.61760357 2.47620741 6.2347257 2.7421875 7.84765625 C3.22549239 11.88251977 3.07346629 15.94302799 3 20 C2.01 20 1.02 20 0 20 C0 13.4 0 6.8 0 0 Z " fill="#55D1AB" transform="translate(778,260)"/>
<path d="M0 0 C0 0.99 0 1.98 0 3 C-1.83192452 4.6356469 -3.58089767 5.80761035 -5.8125 6.83203125 C-8.56994733 8.30431117 -10.8293443 10.15025456 -13.25 12.125 C-14.58804688 13.21167969 -14.58804688 13.21167969 -15.953125 14.3203125 C-16.62859375 14.87460938 -17.3040625 15.42890625 -18 16 C-18.66 15.67 -19.32 15.34 -20 15 C-13.80546098 9.11136415 -7.33143968 4.38516018 0 0 Z " fill="#15253E" transform="translate(2255,223)"/>
<path d="M0 0 C0 3 0 3 -1.49609375 4.53515625 C-2.13675781 5.03917969 -2.77742188 5.54320312 -3.4375 6.0625 C-6.15875193 8.1671333 -6.15875193 8.1671333 -8 11 C-8.66 11 -9.32 11 -10 11 C-10.226875 11.5775 -10.45375 12.155 -10.6875 12.75 C-12.33038023 15.5663661 -14.39533227 17.08077114 -17 19 C-13.66625383 11.32174419 -6.54240284 5.03261757 0 0 Z " fill="#17273E" transform="translate(1529,239)"/>
<path d="M0 0 C-0.75 7.625 -0.75 7.625 -3 11 C-3 10.01 -3 9.02 -3 8 C-3.99 8 -4.98 8 -6 8 C-5.6875 5.125 -5.6875 5.125 -5 2 C-2 0 -2 0 0 0 Z " fill="#57D0AA" transform="translate(768,454)"/>
<path d="M0 0 C2.12046792 3.53411321 2.53199289 6.94393835 3 11 C1.35 11 -0.3 11 -2 11 C-2.28571429 3.57142857 -2.28571429 3.57142857 0 0 Z " fill="#62CAAA" transform="translate(637,397)"/>
<path d="M0 0 C0.99 0 1.98 0 3 0 C2.03644647 9.41002278 2.03644647 9.41002278 1 14 C-1.52749695 8.9450061 -2.04972456 6.7734851 -1 1 C-0.67 0.67 -0.34 0.34 0 0 Z " fill="#65C8AB" transform="translate(45,216)"/>
<path d="M0 0 C0.66 0 1.32 0 2 0 C2.33 3.3 2.66 6.6 3 10 C3.66 10 4.32 10 5 10 C4.25 14.75 4.25 14.75 2 17 C1.34 11.39 0.68 5.78 0 0 Z " fill="#5BCFA6" transform="translate(447,332)"/>
<path d="M0 0 C2.16345727 2.34374538 2.96214706 3.74584457 3.4375 6.9375 C2.90475283 10.66673022 1.54808744 12.29265709 -1 15 C-1.18451025 4.44191344 -1.18451025 4.44191344 0 0 Z " fill="#59CEAA" transform="translate(611,451)"/>
<path d="M0 0 C0.042721 1.66611905 0.04063832 3.33382885 0 5 C-0.33 5.33 -0.66 5.66 -1 6 C-1.36760731 8.32817964 -1.70241581 10.6618385 -2 13 C-2.66 13 -3.32 13 -4 13 C-4.08086147 11.20906809 -4.13912702 9.41710372 -4.1875 7.625 C-4.22230469 6.62726563 -4.25710938 5.62953125 -4.29296875 4.6015625 C-4.14794922 3.31378906 -4.14794922 3.31378906 -4 2 C-1 0 -1 0 0 0 Z " fill="#5CCBA8" transform="translate(748,361)"/>
<path d="M0 0 C0.33 0 0.66 0 1 0 C1.33872513 1.41538717 1.67074624 2.83237963 2 4.25 C2.185625 5.03890625 2.37125 5.8278125 2.5625 6.640625 C3 9 3 9 3 13 C1.68 13 0.36 13 -1 13 C-1.07654536 8.48382401 -1.10228696 4.40914783 0 0 Z " fill="#65C9A9" transform="translate(333,235)"/>
<path d="M0 0 C0.99 0.495 0.99 0.495 2 1 C2.34541851 3.33157492 2.67794257 5.66508361 3 8 C3.99 9.485 3.99 9.485 5 11 C5.25760279 13.69452521 5.08900053 16.28548375 5 19 C2.2574117 16.2574117 2.14687766 13.84002249 1.375 10.0625 C1.11460937 8.81597656 0.85421875 7.56945312 0.5859375 6.28515625 C0 3 0 3 0 0 Z " fill="#59D7AA" transform="translate(606,431)"/>
<path d="M0 0 C0.66 0.66 1.32 1.32 2 2 C1.67028521 5.29714793 1.3773161 6.6226839 -1 9 C-1.33 9.845625 -1.66 10.69125 -2 11.5625 C-3 14 -3 14 -5 15 C-3.33333333 10 -1.66666667 5 0 0 Z " fill="#57D3AA" transform="translate(721,474)"/>
<path d="M0 0 C2.62386487 3.06117568 3 3.73173127 3 8 C3.66 8 4.32 8 5 8 C4.67 10.97 4.34 13.94 4 17 C2.44534626 13.89069252 1.58404904 11.78638601 0.875 8.5 C0.70742187 7.7471875 0.53984375 6.994375 0.3671875 6.21875 C0 4 0 4 0 0 Z " fill="#5FCCAA" transform="translate(143,212)"/>
<path d="M0 0 C0.66 0 1.32 0 2 0 C2.66 0.99 3.32 1.98 4 3 C7.06556598 3.73343428 7.06556598 3.73343428 10 4 C10 4.33 10 4.66 10 5 C6.7 5.33 3.4 5.66 0 6 C0 4.02 0 2.04 0 0 Z " fill="#5BCEAA" transform="translate(188,618)"/>
<path d="M0 0 C0.66 0.33 1.32 0.66 2 1 C0.35 4.63 -1.3 8.26 -3 12 C-4 8 -4 8 -3.0625 5.75 C-2.5365625 4.88375 -2.5365625 4.88375 -2 4 C-2.66 4 -3.32 4 -4 4 C-4 3.34 -4 2.68 -4 2 C-2.125 0.9375 -2.125 0.9375 0 0 Z " fill="#5BCDAA" transform="translate(638,504)"/>
<path d="M0 0 C1.32 0 2.64 0 4 0 C3.67 2.97 3.34 5.94 3 9 C0 6 0 6 -0.1875 2.8125 C-0.125625 1.884375 -0.06375 0.95625 0 0 Z " fill="#5ACFAC" transform="translate(772,420)"/>
<path d="M0 0 C0.66 0 1.32 0 2 0 C2.98248524 4.0527516 3.08159574 7.83861737 3 12 C1 11 1 11 0 8 C-0.12781786 5.32605036 -0.04391871 2.67904143 0 0 Z " fill="#5ECCA9" transform="translate(485,335)"/>
<path d="M0 0 C0.99 0 1.98 0 3 0 C3.30466674 5.28089024 3.317124 6.577168 0 11 C0 7.37 0 3.74 0 0 Z " fill="#111E35" transform="translate(1680,296)"/>
<path d="M0 0 C1.98567708 0.5859375 3.97135417 1.171875 5.95703125 1.7578125 C5.95703125 2.4178125 5.95703125 3.0778125 5.95703125 3.7578125 C-1.47154018 4.04352679 -1.47154018 4.04352679 -5.04296875 1.7578125 C-2.04296875 -0.2421875 -2.04296875 -0.2421875 0 0 Z " fill="#60CBA9" transform="translate(152.04296875,620.2421875)"/>
<path d="M0 0 C0.99 0 1.98 0 3 0 C2.84660156 0.51046875 2.69320313 1.0209375 2.53515625 1.546875 C1.83094597 4.7749338 1.65111796 7.95418001 1.4375 11.25 C1.35371094 12.51328125 1.26992187 13.7765625 1.18359375 15.078125 C1.12300781 16.04234375 1.06242187 17.0065625 1 18 C0.67 18 0.34 18 0 18 C0 12.06 0 6.12 0 0 Z " fill="#1A273E" transform="translate(1682,221)"/>
<path d="M0 0 C0.33 0 0.66 0 1 0 C1.78774617 8.03501094 1.78774617 8.03501094 -1.5 12.0625 C-2.325 12.701875 -3.15 13.34125 -4 14 C-3.52188823 12.22888156 -3.0424722 10.45811517 -2.5625 8.6875 C-2.29566406 7.70136719 -2.02882813 6.71523438 -1.75390625 5.69921875 C-1.21920575 3.78482474 -0.62855462 1.88566385 0 0 Z " fill="#57D0AA" transform="translate(281,466)"/>
<path d="M0 0 C1.80330533 3.60661066 2.46599103 6.08393425 3 10 C1.68 10 0.36 10 -1 10 C-0.67 6.7 -0.34 3.4 0 0 Z " fill="#64C9AA" transform="translate(189,238)"/>
<path d="M0 0 C0.66 0.33 1.32 0.66 2 1 C2.36716379 5.28357759 1.45701181 7.50348319 -1 11 C-1.66 11.66 -2.32 12.32 -3 13 C-2.68991116 11.39536551 -2.37683713 9.79130769 -2.0625 8.1875 C-1.88847656 7.29417969 -1.71445312 6.40085937 -1.53515625 5.48046875 C-1 3 -1 3 0 0 Z " fill="#5CCEA9" transform="translate(730,446)"/>
<path d="M0 0 C2 2 2 2 2.3125 5.375 C2 9 2 9 -1 13 C-0.67 8.71 -0.34 4.42 0 0 Z " fill="#5DCDA9" transform="translate(297,396)"/>
<path d="M0 0 C0.66 0.66 1.32 1.32 2 2 C0.35 5.3 -1.3 8.6 -3 12 C-3.66 11.34 -4.32 10.68 -5 10 C-5 9.01 -5 8.02 -5 7 C-4.01 7 -3.02 7 -2 7 C-1.34 4.69 -0.68 2.38 0 0 Z " fill="#59D3AA" transform="translate(522,114)"/>
<path d="M0 0 C0.33 0.99 0.66 1.98 1 3 C-0.65 4.65 -2.3 6.3 -4 8 C-4.99 7.67 -5.98 7.34 -7 7 C-4.66666667 4.66666667 -2.33333333 2.33333333 0 0 Z " fill="#57D0A9" transform="translate(226,563)"/>
<path d="M0 0 C0.33 0.66 0.66 1.32 1 2 C-3.82142857 8.29464286 -3.82142857 8.29464286 -8 9 C-7.04270084 7.87411986 -6.08412105 6.7493285 -5.125 5.625 C-4.59132813 4.99851562 -4.05765625 4.37203125 -3.5078125 3.7265625 C-2.38567993 2.44163349 -1.20628025 1.20628025 0 0 Z " fill="#15273C" transform="translate(1772,321)"/>
<path d="M0 0 C2 1 2 1 2.75 3.1875 C3.05194616 6.58439429 2.24302818 8.85586991 1 12 C0.67 12 0.34 12 0 12 C0 8.04 0 4.08 0 0 Z " fill="#58CFA8" transform="translate(745,349)"/>
<path d="M0 0 C-1.75 2 -1.75 2 -4 4 C-5.32 4 -6.64 4 -8 4 C-8 3.01 -8 2.02 -8 1 C-3.375 -1.125 -3.375 -1.125 0 0 Z " fill="#19273F" transform="translate(1300,226)"/>
<path d="M0 0 C0.99 0 1.98 0 3 0 C3.72795155 4.20594226 4.04973814 6.80104745 3 11 C2.01 7.37 1.02 3.74 0 0 Z " fill="#56D0AB" transform="translate(723,164)"/>
<path d="M0 0 C1.65 0 3.3 0 5 0 C3.515 3.96 3.515 3.96 2 8 C1.67 8 1.34 8 1 8 C0.67 5.36 0.34 2.72 0 0 Z " fill="#58CFA9" transform="translate(508,137)"/>
<path d="M0 0 C1.58409994 0.11487748 3.16728963 0.24234508 4.75 0.375 C6.07257812 0.47941406 6.07257812 0.47941406 7.421875 0.5859375 C9.99066382 0.99850055 11.75841015 1.71160957 14 3 C4.58997722 3.3690205 4.58997722 3.3690205 0 1 C0 0.67 0 0.34 0 0 Z " fill="#5CCBAA" transform="translate(630,12)"/>
<path d="M0 0 C0.66 0.33 1.32 0.66 2 1 C2 3.31 2 5.62 2 8 C0.68 7.67 -0.64 7.34 -2 7 C-1.34 4.69 -0.68 2.38 0 0 Z " fill="#57D0AB" transform="translate(612,468)"/>
<path d="M0 0 C0.33 0 0.66 0 1 0 C1 3.63 1 7.26 1 11 C0.01 10.01 -0.98 9.02 -2 8 C-1.79846293 5.15124622 -0.85624823 2.74900747 0 0 Z " fill="#65C9AB" transform="translate(39,359)"/>
<path d="M0 0 C3 3.625 3 3.625 3 7 C1.68 7 0.36 7 -1 7 C-0.67 4.69 -0.34 2.38 0 0 Z " fill="#65C9AA" transform="translate(621,353)"/>
<path d="M0 0 C1.8125 0.05078125 1.8125 0.05078125 4 0.3125 C4.721875 0.39113281 5.44375 0.46976563 6.1875 0.55078125 C7.0846875 0.77314453 7.0846875 0.77314453 8 1 C8.33 1.66 8.66 2.32 9 3 C2.375 3.25 2.375 3.25 -1 1 C-0.67 0.67 -0.34 0.34 0 0 Z " fill="#61CAAA" transform="translate(225,37)"/>
<path d="M0 0 C2.31 0 4.62 0 7 0 C6.67 1.65 6.34 3.3 6 5 C5.01 5 4.02 5 3 5 C1.3125 2.5 1.3125 2.5 0 0 Z " fill="#57D0AA" transform="translate(519,513)"/>
<path d="M0 0 C0.99 0 1.98 0 3 0 C1.60667426 3.36720387 0.0210714 4.9859524 -3 7 C-1.125 1.125 -1.125 1.125 0 0 Z " fill="#102438" transform="translate(1763,331)"/>
<path d="M0 0 C2.64 0 5.28 0 8 0 C4.71536341 2.18975773 1.79303725 2.99806563 -2 4 C-1.34 2.68 -0.68 1.36 0 0 Z " fill="#62CAAB" transform="translate(584,52)"/>
<path d="M0 0 C1.31223496 3.93670488 0.24296256 6.12488144 -1 10 C-1.33 10 -1.66 10 -2 10 C-2.1953125 3.9453125 -2.1953125 3.9453125 -2 2 C-1.34 1.34 -0.68 0.68 0 0 Z " fill="#68C7A9" transform="translate(767,455)"/>
<path d="M0 0 C0.66 0.33 1.32 0.66 2 1 C0.25 3.0625 0.25 3.0625 -2 5 C-4.25 4.75 -4.25 4.75 -6 4 C-4.02 2.68 -2.04 1.36 0 0 Z " fill="#18273C" transform="translate(1780,315)"/>
<path d="M0 0 C2.475 0.495 2.475 0.495 5 1 C5 2.65 5 4.3 5 6 C3.31237149 4.3545622 1.6459651 2.68711423 0 1 C0 0.67 0 0.34 0 0 Z " fill="#56D0A9" transform="translate(251,153)"/>
<path d="M0 0 C1.5 1.375 1.5 1.375 3 3 C3 3.66 3 4.32 3 5 C1.35 5 -0.3 5 -2 5 C-1.125 1.125 -1.125 1.125 0 0 Z " fill="#61CAAA" transform="translate(733,93)"/>
</svg>
