<?xml version="1.0" encoding="UTF-8"?>
<svg version="1.1" xmlns="http://www.w3.org/2000/svg" width="250" height="297">
<path d="M0 0 C82.5 0 165 0 250 0 C250 98.01 250 196.02 250 297 C167.5 297 85 297 0 297 C0 198.99 0 100.98 0 0 Z " fill="#FDFAF5" transform="translate(0,0)"/>
<path d="M0 0 C80.19 0 160.38 0 243 0 C243 15.84 243 31.68 243 48 C162.81 48 82.62 48 0 48 C0 32.16 0 16.32 0 0 Z " fill="#FEE700" transform="translate(3,242)"/>
<path d="M0 0 C2.88147337 1.38501759 3.32386366 3.27608067 4.35229492 6.1887207 C4.58537354 6.89601318 4.81845215 7.60330566 5.05859375 8.33203125 C5.57260537 9.79093402 6.08824836 11.24926298 6.60546875 12.70703125 C6.85876953 13.4340625 7.11207031 14.16109375 7.37304688 14.91015625 C8.43946081 17.91727648 9.60626668 20.87691411 10.80859375 23.83203125 C11.18371094 24.76660156 11.55882813 25.70117188 11.9453125 26.6640625 C13.14283994 29.06309588 13.93179751 30.47592607 16.12109375 32.01953125 C18.68204729 32.46068463 18.68204729 32.46068463 21.55859375 32.33203125 C22.50605469 32.32816406 23.45351562 32.32429688 24.4296875 32.3203125 C27.57362887 32.0641395 30.47601883 31.58608862 33.56640625 30.99609375 C41.56695804 29.60563846 49.49559599 29.92065313 57.58569336 30.13598633 C59.55424928 30.18433682 61.52324674 30.2135088 63.4921875 30.2421875 C64.6464624 30.27062744 65.8007373 30.29906738 66.98999023 30.32836914 C70.51252639 29.9809221 72.33168125 29.1676778 75.12109375 27.01953125 C76.47830379 24.10740747 76.47830379 24.10740747 77.24609375 20.76953125 C80.63746509 8.50315991 80.63746509 8.50315991 84.12109375 5.01953125 C87.18359375 4.83203125 87.18359375 4.83203125 90.12109375 5.01953125 C90.61609375 5.51453125 90.61609375 5.51453125 91.12109375 6.01953125 C90.4152114 13.43129596 90.4152114 13.43129596 89.12109375 16.01953125 C89.0273026 17.66596578 88.98930469 19.31576359 88.98046875 20.96484375 C88.95146484 22.45757812 88.95146484 22.45757812 88.921875 23.98046875 C88.88840002 26.06621729 88.86982136 28.15226576 88.8671875 30.23828125 C88.65862623 38.77831637 86.48118215 43.51243898 80.62109375 49.62890625 C79.38359375 50.68851563 79.38359375 50.68851563 78.12109375 51.76953125 C76.88359375 52.84460938 76.88359375 52.84460938 75.62109375 53.94140625 C73.91718917 55.35777693 72.18640813 56.74228234 70.43359375 58.09765625 C66.44248767 61.41458901 65.74349962 64.24212086 64.99609375 69.20703125 C64.82851562 70.29371094 64.6609375 71.38039063 64.48828125 72.5 C64.36710937 73.33144531 64.2459375 74.16289062 64.12109375 75.01953125 C58.37746908 76.2405399 52.71387315 76.20327142 46.87109375 76.20703125 C45.39189453 76.22540039 45.39189453 76.22540039 43.8828125 76.24414062 C37.3950266 76.25696234 31.42577811 75.55059453 25.12109375 74.01953125 C24.99939819 72.92318359 24.99939819 72.92318359 24.87524414 71.8046875 C23.72514346 62.36978288 19.17793001 56.14768059 13.6484375 48.671875 C2.96740137 34.16549052 -3.96551974 19.49196052 -2.87890625 1.01953125 C-1.87890625 0.01953125 -1.87890625 0.01953125 0 0 Z " fill="#039137" transform="translate(66.87890625,143.98046875)"/>
<path d="M0 0 C-1.31680026 3.95040079 -3.19735457 4.84090966 -6.5625 7.25 C-7.6628832 8.05795885 -8.76183913 8.86786505 -9.859375 9.6796875 C-10.89578125 10.44539063 -11.9321875 11.21109375 -13 12 C-27.40332707 22.87499527 -33.81237138 39.66301827 -36.29443359 57.06420898 C-37.19251014 64.5865935 -37.15194045 72.12534462 -37.13037109 79.6887207 C-37.1249528 81.95726017 -37.13037593 84.22560671 -37.13671875 86.49414062 C-37.1360589 87.94270877 -37.13477966 89.39127679 -37.1328125 90.83984375 C-37.13112061 92.79458618 -37.13112061 92.79458618 -37.12939453 94.78881836 C-37.14816137 98.01847449 -37.14816137 98.01847449 -36 101 C-35.875 104.625 -35.875 104.625 -36 108 C-37.91219585 109.91219585 -41.33645504 109.24435298 -43.87890625 109.31640625 C-44.5655687 109.33718735 -45.25223114 109.35796844 -45.95970154 109.37937927 C-48.16052935 109.44494143 -50.36147975 109.50379015 -52.5625 109.5625 C-54.05144514 109.60567892 -55.54037773 109.649293 -57.02929688 109.69335938 C-60.68606553 109.8006293 -64.34297318 109.90187772 -68 110 C-65.33260523 105.24834221 -62.5175122 100.75659105 -59.3671875 96.30859375 C-53.65835192 86.66881711 -54.4233172 71.57333215 -56.40283203 60.80957031 C-57.41255352 57.2235527 -59.02798444 54.14061738 -61 51 C-61.44601563 50.22398438 -61.89203125 49.44796875 -62.3515625 48.6484375 C-72.17068984 32.68549864 -84.36381244 24.74820434 -102 20 C-102 19.01 -102 18.02 -102 17 C-88.60654087 16.22231528 -78.01433447 18.73635832 -67.63085938 27.52587891 C-63.37519355 31.37254212 -59.36854715 35.49445352 -55.39355469 39.62792969 C-54.73774414 40.30629883 -54.08193359 40.98466797 -53.40625 41.68359375 C-52.82166016 42.29775146 -52.23707031 42.91190918 -51.63476562 43.54467773 C-49.9524079 45.23509117 -49.9524079 45.23509117 -47 46 C-46.75378906 45.14921875 -46.50757813 44.2984375 -46.25390625 43.421875 C-44.89344294 39.70920876 -43.08686887 36.54099185 -40.9375 33.25 C-40.54046875 32.63946777 -40.1434375 32.02893555 -39.734375 31.39990234 C-35.9913328 25.7750073 -31.77129575 20.78803714 -27 16 C-26.32710938 15.30390625 -25.65421875 14.6078125 -24.9609375 13.890625 C-19.05717344 8.18586422 -8.54261217 0 0 0 Z " fill="#E3071C" transform="translate(173,63)"/>
<path d="M0 0 C3.48928276 3.12819797 4.39967617 6.72422231 5.625 11.125 C5.84373779 11.89908203 6.06247559 12.67316406 6.2878418 13.47070312 C7.71506959 18.65744446 8.86361718 23.60435461 9 29 C9.061875 30.23878906 9.12375 31.47757813 9.1875 32.75390625 C9.87491951 51.61102368 4.64739247 70.33332432 -8.375 84.4375 C-10.21464154 86.33346994 -12.09774638 88.16482161 -14 90 C-14.77988281 90.79921875 -15.55976563 91.5984375 -16.36328125 92.421875 C-25.07629456 100.91523252 -36.74620683 108.46827585 -49 110 C-49.3125 107.25 -49.3125 107.25 -49 104 C-45.73745881 100.90205548 -42.56219787 99.23935905 -38.375 97.6875 C-32.04941254 95.15104058 -26.56326736 91.91816763 -21 88 C-20.36449219 87.56300781 -19.72898438 87.12601562 -19.07421875 86.67578125 C-8.04942162 78.23610896 -0.44701471 62.91766241 2.375 49.625 C4.20826304 35.74457985 4.04920054 20.6632116 1 7 C0.77768036 5.58546078 0.5673494 4.16892527 0.375 2.75 C0.25125 1.8425 0.1275 0.935 0 0 Z " fill="#F0830E" transform="translate(183,108)"/>
<path d="M0 0 C0.66 0 1.32 0 2 0 C1.87882812 0.53665283 1.75765625 1.07330566 1.6328125 1.6262207 C-3.54758577 25.08495692 -4.88075801 49.33362263 8.07519531 70.77978516 C15.98551776 82.73249036 26.51119507 90.56951333 39.03125 97.17578125 C41.87382946 98.92247152 43.36497166 100.1285898 45 103 C45.1875 105.75 45.1875 105.75 45 108 C33.59473233 106.65225788 24.33081453 98.37798567 16 91 C15.27941406 90.37480469 14.55882813 89.74960938 13.81640625 89.10546875 C2.11269117 78.26869553 -6.31392135 60.88469664 -7.10473633 44.88037109 C-7.55119329 28.9010043 -5.43691111 15.00338448 0 0 Z " fill="#F0810A" transform="translate(44,107)"/>
<path d="M0 0 C1.32 0 2.64 0 4 0 C4.37125 1.175625 4.7425 2.35125 5.125 3.5625 C10.72680658 21.07778774 10.72680658 21.07778774 21 36 C20.84831437 40.24719772 17.67183599 42.98562093 15 46 C6.37517762 39.9005965 3.02000933 28.90877814 0.0625 19.125 C-0.14890625 18.43639893 -0.3603125 17.74779785 -0.578125 17.03833008 C-1.93772103 12.23060892 -2.34483715 7.99748615 -2 3 C-1.34 2.01 -0.68 1.02 0 0 Z " fill="#07933A" transform="translate(86,125)"/>
<path d="M0 0 C1.91796875 0.1953125 1.91796875 0.1953125 4 1 C8.71452375 7.15713827 10.7578263 15.76549462 13.32763672 23.0090332 C15.32271907 28.50726153 17.65397624 33.41282632 20.93359375 38.28515625 C22 40 22 40 22 42 C17.49793855 42.310487 14.87860856 42.40551164 10.75 40.5 C7.30137869 37.36488972 5.66816093 34.2573528 4 30 C3.32904297 28.33517578 3.32904297 28.33517578 2.64453125 26.63671875 C-0.64800955 17.9744868 -1.97082966 10.34770274 -1 1 C-0.67 0.67 -0.34 0.34 0 0 Z " fill="#06923A" transform="translate(74,131)"/>
<path d="M0 0 C2.96079529 1.81639801 5.42044164 3.84088328 7 7 C7.34708476 12.29304255 7.51351894 15.73358414 4 20 C0.57080428 22.57189679 -2.83939486 22.502142 -7 22 C-9.97239241 20.21523759 -12.42604027 18.14791945 -14 15 C-14.69583471 11.04639371 -15.01812576 7.48942432 -12.68359375 4.07421875 C-8.71346876 0.35278168 -5.52550458 -1.10510092 0 0 Z " fill="#FFEC06" transform="translate(125,76)"/>
<path d="M0 0 C1.65 0 3.3 0 5 0 C5.33 11.88 5.66 23.76 6 36 C2.37 36 -1.26 36 -5 36 C-7.56988681 33.43011319 -7.25706775 32.41089947 -7.265625 28.84375 C-7.26820312 27.82152344 -7.27078125 26.79929687 -7.2734375 25.74609375 C-7.26183594 24.13927734 -7.26183594 24.13927734 -7.25 22.5 C-7.25773437 21.42878906 -7.26546875 20.35757812 -7.2734375 19.25390625 C-7.27085938 18.23167969 -7.26828125 17.20945312 -7.265625 16.15625 C-7.26336914 15.21587891 -7.26111328 14.27550781 -7.25878906 13.30664062 C-7 11 -7 11 -5 9 C-2.375 8.875 -2.375 8.875 0 9 C0 6.03 0 3.06 0 0 Z " fill="#F28309" transform="translate(82,248)"/>
<path d="M0 0 C1.65 0 3.3 0 5 0 C5.33 11.88 5.66 23.76 6 36 C2.37 36 -1.26 36 -5 36 C-7.17746353 32.7338047 -7.25606429 31.75054166 -7.265625 27.96484375 C-7.26820313 26.99095703 -7.27078125 26.01707031 -7.2734375 25.01367188 C-7.26570312 23.99853516 -7.25796875 22.98339844 -7.25 21.9375 C-7.25773438 20.91849609 -7.26546875 19.89949219 -7.2734375 18.84960938 C-7.27085937 17.87701172 -7.26828125 16.90441406 -7.265625 15.90234375 C-7.26336914 15.01023193 -7.26111328 14.11812012 -7.25878906 13.19897461 C-7 11 -7 11 -5 9 C-2.375 8.875 -2.375 8.875 0 9 C0 6.03 0 3.06 0 0 Z " fill="#EE680B" transform="translate(175,248)"/>
<path d="M0 0 C3.06992975 1.37267784 5.24208628 2.94533241 7.625 5.3125 C8.51058594 6.17294922 8.51058594 6.17294922 9.4140625 7.05078125 C14.84960793 13.73141467 13.40933527 22.82433706 12.76953125 30.9140625 C12.54690836 32.94670624 12.27939596 34.97437925 12 37 C9.4389069 34.73041343 8.98671584 33.94952021 8.0625 30.4375 C7.41564748 26.95247239 7.41564748 26.95247239 5.125 25.9375 C4.42375 25.628125 3.7225 25.31875 3 25 C-1.16599211 20.04855282 -1.55052743 16.4175553 -1.3125 10.25 C-1.30283203 9.48300781 -1.29316406 8.71601562 -1.28320312 7.92578125 C-1.17032252 2.34064503 -1.17032252 2.34064503 0 0 Z " fill="#09692F" transform="translate(108,34)"/>
<path d="M0 0 C-1.48870112 5.29315952 -5.08601135 9.26907096 -9 13 C-11.71632338 13.90544113 -13.49932777 14.15703921 -16.30859375 14.24609375 C-17.13810547 14.27896484 -17.96761719 14.31183594 -18.82226562 14.34570312 C-20.56172089 14.40675943 -22.30131184 14.46406886 -24.04101562 14.51757812 C-25.2872168 14.56881836 -25.2872168 14.56881836 -26.55859375 14.62109375 C-27.31454834 14.6461499 -28.07050293 14.67120605 -28.84936523 14.69702148 C-31.23827683 15.03356812 -32.91235876 15.81665807 -35 17 C-34.14316007 11.52846502 -30.06735317 8.42475519 -26 5 C-17.76720106 0.5093824 -9.22647765 -0.34671524 0 0 Z " fill="#09692E" transform="translate(196,69)"/>
<path d="M0 0 C0.40121268 8.29172863 -0.61763989 15.17378528 -5.0625 22.3125 C-8.40162171 25.36744114 -11.68996502 27.07644604 -15.79296875 28.921875 C-18.13409209 29.9174351 -18.13409209 29.9174351 -20 32 C-22.125 31.625 -22.125 31.625 -24 31 C-22.83017578 29.74123047 -22.83017578 29.74123047 -21.63671875 28.45703125 C-18.8444695 25.10927653 -17.89065292 21.92530107 -16.8125 17.6875 C-14.59884104 9.97337771 -10.62548253 5.62024799 -4 1 C-2 0 -2 0 0 0 Z " fill="#08682D" transform="translate(178,34)"/>
<path d="M0 0 C3.5625 0.3125 3.5625 0.3125 5.25805664 1.54907227 C7.76743679 4.94140856 7.03165563 9.18368992 7 13.25 C7.01998047 14.15685547 7.03996094 15.06371094 7.06054688 15.99804688 C7.05567026 22.62536319 7.05567026 22.62536319 4.6953125 25.9140625 C2.03954748 27.65538828 0.67937321 27.87193878 -2.4375 27.3125 C-4.67579273 25.64694195 -5.36459529 24.76842933 -5.80981445 21.98413086 C-5.8068335 21.09089111 -5.80385254 20.19765137 -5.80078125 19.27734375 C-5.80013672 18.30345703 -5.79949219 17.32957031 -5.79882812 16.32617188 C-5.78271484 15.31103516 -5.76660156 14.29589844 -5.75 13.25 C-5.75322266 12.23099609 -5.75644531 11.21199219 -5.75976562 10.16210938 C-5.68945831 0.51722348 -5.68945831 0.51722348 0 0 Z " fill="#EE5F0C" transform="translate(130.4375,256.6875)"/>
<path d="M0 0 C2.91493325 4.37239988 2.32970877 8.35802061 2.3125 13.5 C2.32861328 14.46292969 2.34472656 15.42585938 2.36132812 16.41796875 C2.36197266 17.34222656 2.36261719 18.26648438 2.36328125 19.21875 C2.36775269 20.4862207 2.36775269 20.4862207 2.37231445 21.77929688 C2 24 2 24 0.69995117 25.80664062 C-1 27 -1 27 -4.5625 26.875 C-8 26 -8 26 -10 23 C-10.42821391 19.68086639 -10.32427403 16.34382422 -10.3125 13 C-10.32861328 12.08476562 -10.34472656 11.16953125 -10.36132812 10.2265625 C-10.36197266 9.34742188 -10.36261719 8.46828125 -10.36328125 7.5625 C-10.36626221 6.75941406 -10.36924316 5.95632813 -10.37231445 5.12890625 C-9.36356292 -0.63916808 -5.05888251 -0.55187809 0 0 Z " fill="#EA420F" transform="translate(223,257)"/>
<path d="M0 0 C7.33178378 0.52369884 13.30771934 1.94389762 18.3125 7.625 C20.12009258 11.24018515 21.21092219 14.7230562 22.19140625 18.6328125 C22.88482828 21.08001474 22.88482828 21.08001474 24.58984375 23.0546875 C26 25 26 25 26 29 C23.56577572 27.95676102 22.010976 27.01146641 20.1640625 25.08203125 C17.91732133 22.92045536 15.90219962 21.8174481 13.125 20.4375 C7.82852016 17.39866422 5.71427673 13.83386792 3.15625 8.390625 C2.10770793 5.8885866 2.10770793 5.8885866 0 4 C0 2.68 0 1.36 0 0 Z " fill="#0B6A30" transform="translate(80,53)"/>
<path d="M0 0 C7.84500879 2.02796146 13.47418074 4.90643086 17.8125 11.9375 C20.01227652 17.91220165 20.3106812 24.69881522 21 31 C20.01 30.67 19.02 30.34 18 30 C17.70867187 29.22527344 17.41734375 28.45054688 17.1171875 27.65234375 C15.71170914 24.3155612 14.17318856 23.44839707 11.125 21.5625 C4.52604622 17.16002795 1.70122775 12.79729387 0 5 C-0.125 2.0625 -0.125 2.0625 0 0 Z " fill="#07682D" transform="translate(74,19)"/>
<path d="M0 0 C9.66007382 -0.30666901 17.84934541 0.40617293 25.3125 7.0625 C27 9 27 9 27 11 C28.98 11.66 30.96 12.32 33 13 C33 13.99 33 14.98 33 16 C13.24100381 15.95737002 13.24100381 15.95737002 6 9 C5.48179688 8.51402344 4.96359375 8.02804688 4.4296875 7.52734375 C3.25841449 6.3794962 2.12502648 5.19320991 1 4 C0.34 3.67 -0.32 3.34 -1 3 C-0.67 2.01 -0.34 1.02 0 0 Z " fill="#0E6C33" transform="translate(44,61)"/>
<path d="M0 0 C2.38419947 1.69506351 2.93777148 2.63390236 3.43237305 5.54370117 C3.45855713 6.53345947 3.48474121 7.52321777 3.51171875 8.54296875 C3.54716797 9.61611328 3.58261719 10.68925781 3.61914062 11.79492188 C3.64169922 12.91447266 3.66425781 14.03402344 3.6875 15.1875 C3.73874023 16.88422852 3.73874023 16.88422852 3.79101562 18.61523438 C3.87356314 21.4100574 3.94269182 24.20456398 4 27 C2.39667209 27.08121924 0.79215974 27.13929134 -0.8125 27.1875 C-2.15248047 27.23970703 -2.15248047 27.23970703 -3.51953125 27.29296875 C-6 27 -6 27 -7.79931641 25.63671875 C-9.45687565 23.37720732 -9.39979716 21.77728164 -9.375 19 C-9.38273437 18.13375 -9.39046875 17.2675 -9.3984375 16.375 C-9 14 -9 14 -7.7265625 12.1875 C-6 11 -6 11 -2 11 C-2 7.7 -2 4.4 -2 1 C-2.66 1 -3.32 1 -4 1 C-4 3.31 -4 5.62 -4 8 C-5.65 8 -7.3 8 -9 8 C-9.22223194 5.25913944 -9.34781139 3.56036279 -7.875 1.1875 C-5.12844028 -0.55198782 -3.18153026 -0.39769128 0 0 Z " fill="#EA420F" transform="translate(98,257)"/>
<path d="M0 0 C0 0.66 0 1.32 0 2 C-0.64066406 2.03738281 -1.28132813 2.07476562 -1.94140625 2.11328125 C-6.20583097 2.43740295 -9.50478345 2.77490157 -13.4375 4.5625 C-21.42911357 7.78718618 -29.25022933 6.21471969 -37 3 C-35.54208241 -0.15440352 -34.19229045 -2.3734506 -31.13671875 -4.23046875 C-20.69188681 -7.99213583 -9.75871268 -3.82694615 0 0 Z " fill="#08692E" transform="translate(69,89)"/>
<path d="M0 0 C0.66 0 1.32 0 2 0 C5.61571395 6.79237692 8.98413696 13.22788341 7 21 C4.79084702 25.92482077 1.92184523 30.47374868 -1 35 C-1.66 35 -2.32 35 -3 35 C-2.97679687 34.18015625 -2.95359375 33.3603125 -2.9296875 32.515625 C-2.91164062 31.43796875 -2.89359375 30.3603125 -2.875 29.25 C-2.85179687 28.18265625 -2.82859375 27.1153125 -2.8046875 26.015625 C-2.99998301 23.00026238 -3.58458177 21.5922219 -5 19 C-6.35628661 11.66177561 -3.64321098 6.23249306 0 0 Z " fill="#09692E" transform="translate(134,14)"/>
<path d="M0 0 C-2.91352366 17.04027983 -2.91352366 17.04027983 -8.1875 21.1875 C-8.88230469 21.66703125 -9.57710937 22.1465625 -10.29296875 22.640625 C-12.36516031 24.02247397 -12.36516031 24.02247397 -13 27.4375 C-13 28.283125 -13 29.12875 -13 30 C-13.66 30 -14.32 30 -15 30 C-17.18118121 23.45645638 -17.8849536 18.15264719 -16 11.4375 C-12.46758061 5.36615417 -7.253705 0 0 0 Z " fill="#05672B" transform="translate(150,45)"/>
<path d="M0 0 C3.63 0 7.26 0 11 0 C13.63991268 2.63991268 13.30240797 3.97946296 13.4140625 7.6640625 C13.45273438 8.78554688 13.49140625 9.90703125 13.53125 11.0625 C13.5621875 12.238125 13.593125 13.41375 13.625 14.625 C13.66367188 15.80835938 13.70234375 16.99171875 13.7421875 18.2109375 C13.83668845 21.14046691 13.92224558 24.06998597 14 27 C12.02 27 10.04 27 8 27 C8 18.42 8 9.84 8 1 C7.01 1 6.02 1 5 1 C5.33 9.58 5.66 18.16 6 27 C4.02 27 2.04 27 0 27 C0 18.09 0 9.18 0 0 Z " fill="#E30615" transform="translate(227,257)"/>
<path d="M0 0 C1.65 0 3.3 0 5 0 C5 8.25 5 16.5 5 25 C5.99 25 6.98 25 8 25 C7.67 16.75 7.34 8.5 7 0 C8.98 0 10.96 0 13 0 C13.33 8.91 13.66 17.82 14 27 C10.37 27 6.74 27 3 27 C0.77464206 23.66196309 0.71021596 22.37180289 0.5859375 18.45703125 C0.54726562 17.38388672 0.50859375 16.31074219 0.46875 15.20507812 C0.4378125 14.08552734 0.406875 12.96597656 0.375 11.8125 C0.31699219 10.11577148 0.31699219 10.11577148 0.2578125 8.38476562 C0.16347467 5.5900075 0.07788348 2.79525722 0 0 Z " fill="#ED5A0D" transform="translate(138,257)"/>
<path d="M0 0 C2.30859375 0.15234375 2.30859375 0.15234375 5 1 C6.66015625 3.44140625 6.66015625 3.44140625 8.0625 6.5625 C8.56136719 7.64917969 9.06023437 8.73585937 9.57421875 9.85546875 C10.04472656 10.89316406 10.51523438 11.93085938 11 13 C11.78526057 14.46179275 12.57586585 15.92074527 13.375 17.375 C15.00698799 21.0155886 15.54709859 23.07912679 15 27 C14.34 27.99 13.68 28.98 13 30 C10.60432504 29.62440689 9.32343454 29.35164104 7.65625 27.5390625 C2.30685205 18.68364022 -0.81527002 10.43998553 0 0 Z " fill="#08933B" transform="translate(98,130)"/>
<path d="M0 0 C4.6622295 3.19695737 7.69859703 6.8711591 10 12 C11.15305343 19.1489313 8.52601809 23.85465418 5 30 C2.85307982 26.77961973 1.49989626 23.56225361 0 20 C-0.35578125 19.36707031 -0.7115625 18.73414062 -1.078125 18.08203125 C-3.24072328 13.19785802 -2.37965627 7.37625397 -1 2.375 C-0.67 1.59125 -0.34 0.8075 0 0 Z " fill="#0A6A30" transform="translate(105,1)"/>
<path d="M0 0 C10.58672377 -0.61670236 10.58672377 -0.61670236 15.4375 1.5 C19.396661 5.3625961 22.72647058 9.37411753 23.3125 15 C23.209375 15.66 23.10625 16.32 23 17 C22.44828125 16.70480469 21.8965625 16.40960938 21.328125 16.10546875 C18.84473144 14.92627349 16.37043984 14.13981029 13.75 13.3125 C8.28301585 11.35319159 3.58105651 8.67897356 0 4 C0 2.68 0 1.36 0 0 Z " fill="#0C6B31" transform="translate(49,35)"/>
<path d="M0 0 C1.91846266 5.75538797 -0.60443286 13.48493885 -3 19 C-4.95115603 21.24748544 -6.60887497 22.5271705 -9.1953125 23.95703125 C-11.32758572 25.01163285 -11.32758572 25.01163285 -13 28 C-13.66 28 -14.32 28 -15 28 C-14.67544172 25.99855726 -14.33882656 23.99907671 -14 22 C-13.91234375 21.15308594 -13.8246875 20.30617188 -13.734375 19.43359375 C-12.79816318 12.11689483 -10.56101085 7.86886786 -5 3 C-2.0625 1 -2.0625 1 0 0 Z " fill="#0B6B30" transform="translate(166,11)"/>
<path d="M0 0 C1.32 0 2.64 0 4 0 C4 2.97 4 5.94 4 9 C4.969375 8.979375 5.93875 8.95875 6.9375 8.9375 C10 9 10 9 11 10 C11.08737645 11.85369611 11.10698153 13.71067541 11.09765625 15.56640625 C11.09443359 16.69111328 11.09121094 17.81582031 11.08789062 18.97460938 C11.07951172 20.15861328 11.07113281 21.34261719 11.0625 22.5625 C11.05798828 23.75037109 11.05347656 24.93824219 11.04882812 26.16210938 C11.03699675 29.10812226 11.02051287 32.05403681 11 35 C9.68 35 8.36 35 7 35 C7 26.75 7 18.5 7 10 C6.01 10 5.02 10 4 10 C4.33 18.58 4.66 27.16 5 36 C3.02 36 1.04 36 -1 36 C-0.67 24.12 -0.34 12.24 0 0 Z " fill="#E61F12" transform="translate(34,248)"/>
<path d="M0 0 C1.79133978 -0.05391993 3.58313899 -0.09275571 5.375 -0.125 C6.37273437 -0.14820313 7.37046875 -0.17140625 8.3984375 -0.1953125 C11 0 11 0 13 2 C13.31884766 4.52197266 13.31884766 4.52197266 13.4140625 7.6640625 C13.45273438 8.78554688 13.49140625 9.90703125 13.53125 11.0625 C13.5621875 12.238125 13.593125 13.41375 13.625 14.625 C13.66367188 15.80835938 13.70234375 16.99171875 13.7421875 18.2109375 C13.83668845 21.14046691 13.92224558 24.06998597 14 27 C12.02 27 10.04 27 8 27 C8 18.42 8 9.84 8 1 C7.01 1 6.02 1 5 1 C5 9.25 5 17.5 5 26 C4.34 26 3.68 26 3 26 C3 17.75 3 9.5 3 1 C2.01 0.67 1.02 0.34 0 0 Z " fill="#EB4B0E" transform="translate(153,257)"/>
<path d="M0 0 C1.68803956 0.72100475 3.34372853 1.51681027 4.9921875 2.32421875 C4.4296875 4.13671875 4.4296875 4.13671875 2.9921875 6.32421875 C-2.16662105 9.00496844 -6.37298166 9.77239319 -12.1328125 9.88671875 C-16.78352906 10.00407328 -20.74769204 10.26046389 -25.0078125 12.32421875 C-23.52234268 8.53543619 -21.47067056 6.94756824 -18.1328125 4.69921875 C-17.26914063 4.10882813 -16.40546875 3.5184375 -15.515625 2.91015625 C-10.35158034 -0.35557916 -6.18308456 -2.0810771 0 0 Z " fill="#09692F" transform="translate(209.0078125,81.67578125)"/>
<path d="M0 0 C-0.94890699 1.69447676 -1.90388443 3.38586574 -2.890625 5.05859375 C-3.84230572 6.72403501 -4.68324727 8.45190045 -5.5 10.1875 C-10.30145347 15.58913515 -18.09254299 16.71518756 -25 18 C-20.83785577 11.27653624 -16.49661191 4.58555185 -9.5 0.5625 C-6.2880823 -0.16018148 -3.27973009 -0.12861687 0 0 Z " fill="#0C6B31" transform="translate(203,44)"/>
<path d="M0 0 C3.63 0 7.26 0 11 0 C12 1 12 1 12.0625 4.5625 C12.041875 5.696875 12.02125 6.83125 12 8 C10.68 8 9.36 8 8 8 C8 5.69 8 3.38 8 1 C7.34 1 6.68 1 6 1 C6.33 9.58 6.66 18.16 7 27 C4.69 27 2.38 27 0 27 C0 18.09 0 9.18 0 0 Z " fill="#F17A09" transform="translate(61,257)"/>
<path d="M0 0 C2.875 0.875 2.875 0.875 4.875 3.875 C4.95405064 6.20699388 4.96298769 8.54332622 4.875 10.875 C3.555 10.875 2.235 10.875 0.875 10.875 C0.875 7.905 0.875 4.935 0.875 1.875 C-0.445 1.875 -1.765 1.875 -3.125 1.875 C-3.22012701 8.13979333 -2.23457888 12.17455092 1.4375 17.3125 C4.81741808 22.20155846 5.62301821 25.6721899 5.51171875 31.5625 C4.875 33.875 4.875 33.875 2.99609375 35.6953125 C0.875 36.875 0.875 36.875 -1.75 36.75 C-4.125 35.875 -4.125 35.875 -6.125 32.875 C-6.455 32.875 -6.785 32.875 -7.125 32.875 C-7.125 30.565 -7.125 28.255 -7.125 25.875 C-5.805 25.875 -4.485 25.875 -3.125 25.875 C-2.795 28.845 -2.465 31.815 -2.125 34.875 C-1.465 34.875 -0.805 34.875 -0.125 34.875 C0.04352247 33.27102723 0.20974886 31.6668131 0.375 30.0625 C0.51421875 28.72251953 0.51421875 28.72251953 0.65625 27.35546875 C1.01464399 23.29153695 0.91877265 21.58027005 -1.5625 18.375 C-3.32243883 16.08858374 -4.19151207 14.67546379 -5.125 11.875 C-6.115 12.37 -6.115 12.37 -7.125 12.875 C-7.23324843 11.2723218 -7.31070645 9.66754252 -7.375 8.0625 C-7.42140625 7.16917969 -7.4678125 6.27585938 -7.515625 5.35546875 C-7.125 2.875 -7.125 2.875 -5.3046875 1.04296875 C-3.125 -0.125 -3.125 -0.125 0 0 Z " fill="#E61E12" transform="translate(26.125,247.125)"/>
<path d="M0 0 C3.0625 0.125 3.0625 0.125 5.0625 1.125 C5.0625 9.375 5.0625 17.625 5.0625 26.125 C3.7425 25.795 2.4225 25.465 1.0625 25.125 C1.3925 20.835 1.7225 16.545 2.0625 12.125 C1.0725 12.125 0.0825 12.125 -0.9375 12.125 C-0.6075 17.075 -0.2775 22.025 0.0625 27.125 C-1.5875 26.795 -3.2375 26.465 -4.9375 26.125 C-6.16441067 23.67117866 -6.13925931 21.92515897 -6.1875 19.1875 C-6.21328125 18.31222656 -6.2390625 17.43695313 -6.265625 16.53515625 C-5.9375 14.125 -5.9375 14.125 -4.58984375 12.3203125 C-2.32936011 10.68506901 -0.65772409 10.90444129 2.0625 11.125 C1.94887738 9.6449159 1.82127092 8.16589926 1.6875 6.6875 C1.58308594 5.45193359 1.58308594 5.45193359 1.4765625 4.19140625 C1.33992187 3.50949219 1.20328125 2.82757813 1.0625 2.125 C0.4025 1.795 -0.2575 1.465 -0.9375 1.125 C-0.9375 3.435 -0.9375 5.745 -0.9375 8.125 C-2.2575 7.795 -3.5775 7.465 -4.9375 7.125 C-4.2775 7.125 -3.6175 7.125 -2.9375 7.125 C-3.123125 6.155625 -3.30875 5.18625 -3.5 4.1875 C-3.644375 3.176875 -3.78875 2.16625 -3.9375 1.125 C-2.9375 0.125 -2.9375 0.125 0 0 Z " fill="#E83111" transform="translate(187.9375,256.875)"/>
<path d="M0 0 C4.75 0.75 4.75 0.75 7 3 C7.22705078 5.43017578 7.22705078 5.43017578 7.1953125 8.4453125 C7.18564453 10.05986328 7.18564453 10.05986328 7.17578125 11.70703125 C7.15902344 12.83496094 7.14226563 13.96289062 7.125 15.125 C7.11597656 16.26066406 7.10695313 17.39632813 7.09765625 18.56640625 C7.07403098 21.37781299 7.04109013 24.18880298 7 27 C5.35 27 3.7 27 2 27 C2.33 22.38 2.66 17.76 3 13 C2.01 13.495 2.01 13.495 1 14 C0.53045739 17.04581269 0.53045739 17.04581269 0.375 20.5625 C0.30023438 21.76003906 0.22546875 22.95757812 0.1484375 24.19140625 C0.09945312 25.11824219 0.05046875 26.04507812 0 27 C-1.32 26.34 -2.64 25.68 -4 25 C-4.08086147 23.20906809 -4.13912702 21.41710372 -4.1875 19.625 C-4.22230469 18.62726563 -4.25710937 17.62953125 -4.29296875 16.6015625 C-4.19628906 15.74304688 -4.09960938 14.88453125 -4 14 C-1 12 -1 12 3 12 C3 8.7 3 5.4 3 2 C2.01 2 1.02 2 0 2 C0 4.31 0 6.62 0 9 C-1.32 9 -2.64 9 -4 9 C-4 7.35 -4 5.7 -4 4 C-3.34 4 -2.68 4 -2 4 C-1.34 2.68 -0.68 1.36 0 0 Z " fill="#E61C12" transform="translate(52,256)"/>
<path d="M0 0 C0 2.97 0 5.94 0 9 C0.99 9.33 1.98 9.66 3 10 C2.01 10 1.02 10 0 10 C0 17.92 0 25.84 0 34 C0.99 34 1.98 34 3 34 C3 34.66 3 35.32 3 36 C-1.75 35.25 -1.75 35.25 -4 33 C-4.3347168 30.69677734 -4.3347168 30.69677734 -4.44921875 27.8359375 C-4.49240234 26.79566406 -4.53558594 25.75539063 -4.58007812 24.68359375 C-4.61552734 23.59175781 -4.65097656 22.49992187 -4.6875 21.375 C-4.73455078 20.30636719 -4.78160156 19.23773438 -4.83007812 18.13671875 C-5.04874682 12.30794328 -5.12450042 6.73835973 -4 1 C-2 0 -2 0 0 0 Z " fill="#EB460E" transform="translate(201,248)"/>
<path d="M0 0 C3.96 0 7.92 0 12 0 C12 3.3 12 6.6 12 10 C10.68 10 9.36 10 8 10 C8 7.03 8 4.06 8 1 C7.01 1 6.02 1 5 1 C5 5.95 5 10.9 5 16 C6.32 16.33 7.64 16.66 9 17 C7.68 17 6.36 17 5 17 C5 22.94 5 28.88 5 35 C3.68 35 2.36 35 1 35 C0.505 17.675 0.505 17.675 0 0 Z " fill="#E51413" transform="translate(111,248)"/>
<path d="M0 0 C1.98 0 3.96 0 6 0 C6.33 8.91 6.66 17.82 7 27 C4.69 27 2.38 27 0 27 C0 18.09 0 9.18 0 0 Z " fill="#EE610C" transform="translate(205,257)"/>
<path d="M0 0 C0.66 0 1.32 0 2 0 C2 8.25 2 16.5 2 25 C2.66 25 3.32 25 4 25 C4 16.75 4 8.5 4 0 C4.99 0 5.98 0 7 0 C7 8.25 7 16.5 7 25 C5 26 5 26 -1 26 C-0.67 17.42 -0.34 8.84 0 0 Z " fill="#FCDC01" transform="translate(154,258)"/>
<path d="M0 0 C0.94875 0.04125 1.8975 0.0825 2.875 0.125 C1.555 0.455 0.235 0.785 -1.125 1.125 C-0.98657705 5.08362931 -0.83800994 9.04181327 -0.6875 13 C-0.64818359 14.12792969 -0.60886719 15.25585938 -0.56835938 16.41796875 C-0.52646484 17.49433594 -0.48457031 18.57070313 -0.44140625 19.6796875 C-0.40474854 20.67468262 -0.36809082 21.66967773 -0.33032227 22.69482422 C-0.27540468 25.13279501 -0.27540468 25.13279501 0.875 27.125 C-4 26.25 -4 26.25 -5.125 25.125 C-5.37708722 21.31911856 -5.31022344 17.50074544 -5.3125 13.6875 C-5.32474609 12.61177734 -5.33699219 11.53605469 -5.34960938 10.42773438 C-5.35154297 9.40099609 -5.35347656 8.37425781 -5.35546875 7.31640625 C-5.35957764 6.36967041 -5.36368652 5.42293457 -5.36791992 4.44750977 C-4.96724827 0.61676665 -3.72503666 0.14900147 0 0 Z " fill="#EC500E" transform="translate(80.125,256.875)"/>
<path d="M0 0 C1.98 0.495 1.98 0.495 4 1 C4.33 9.25 4.66 17.5 5 26 C3.02 26 1.04 26 -1 26 C-1.02886751 21.85418113 -1.04675327 17.70838784 -1.0625 13.5625 C-1.07087891 12.37849609 -1.07925781 11.19449219 -1.08789062 9.97460938 C-1.09111328 8.84990234 -1.09433594 7.72519531 -1.09765625 6.56640625 C-1.10289307 5.52427979 -1.10812988 4.48215332 -1.11352539 3.40844727 C-1 1 -1 1 0 0 Z " fill="#F17B09" transform="translate(236,258)"/>
<path d="M0 0 C1.670625 0.061875 1.670625 0.061875 3.375 0.125 C3.375 0.455 3.375 0.785 3.375 1.125 C1.725 1.125 0.075 1.125 -1.625 1.125 C-1.625 9.375 -1.625 17.625 -1.625 26.125 C-2.945 25.465 -4.265 24.805 -5.625 24.125 C-5.68287784 20.50006666 -5.7185542 16.87525143 -5.75 13.25 C-5.76675781 12.21746094 -5.78351563 11.18492187 -5.80078125 10.12109375 C-5.80722656 9.13496094 -5.81367187 8.14882813 -5.8203125 7.1328125 C-5.83078613 6.22160645 -5.84125977 5.31040039 -5.85205078 4.37158203 C-5.43817577 0.27644457 -3.90943309 0.13480804 0 0 Z " fill="#EA420F" transform="translate(130.625,256.875)"/>
<path d="M0 0 C0.99 0 1.98 0 3 0 C3.33 7.92 3.66 15.84 4 24 C1.69 24 -0.62 24 -3 24 C-4 23 -4 23 -4.09765625 19.83984375 C-4.08025391 17.90818359 -4.08025391 17.90818359 -4.0625 15.9375 C-4.05347656 14.64714844 -4.04445313 13.35679687 -4.03515625 12.02734375 C-4.02355469 11.02832031 -4.01195313 10.02929688 -4 9 C-3.01 9 -2.02 9 -1 9 C-0.67 6.03 -0.34 3.06 0 0 Z " fill="#F49907" transform="translate(98,260)"/>
<path d="M0 0 C0.99 0 1.98 0 3 0 C3.33 7.92 3.66 15.84 4 24 C1.69 24 -0.62 24 -3 24 C-4 23 -4 23 -4.09765625 19.83984375 C-4.08025391 17.90818359 -4.08025391 17.90818359 -4.0625 15.9375 C-4.05347656 14.64714844 -4.04445312 13.35679687 -4.03515625 12.02734375 C-4.02355469 11.02832031 -4.01195312 10.02929688 -4 9 C-3.01 9 -2.02 9 -1 9 C-1.01160156 9.92683594 -1.02320313 10.85367187 -1.03515625 11.80859375 C-1.04417969 13.00613281 -1.05320313 14.20367187 -1.0625 15.4375 C-1.07410156 16.63246094 -1.08570313 17.82742188 -1.09765625 19.05859375 C-1.33901792 21.88873341 -1.33901792 21.88873341 0 23 C0 15.41 0 7.82 0 0 Z " fill="#F17909" transform="translate(191,260)"/>
<path d="M0 0 C0.33 0 0.66 0 1 0 C1 7.92 1 15.84 1 24 C1.99 23.67 2.98 23.34 4 23 C4 23.66 4 24.32 4 25 C2.37581255 25.08090971 0.75048255 25.13914995 -0.875 25.1875 C-1.77992187 25.22230469 -2.68484375 25.25710938 -3.6171875 25.29296875 C-4.79667969 25.14794922 -4.79667969 25.14794922 -6 25 C-8.30143236 21.54785147 -8.13833854 20.76520676 -7.625 16.8125 C-7.51414063 15.91144531 -7.40328125 15.01039063 -7.2890625 14.08203125 C-7.14597656 13.05142578 -7.14597656 13.05142578 -7 12 C-6.67 12 -6.34 12 -6 12 C-5.67 15.3 -5.34 18.6 -5 22 C-4.67 18.37 -4.34 14.74 -4 11 C-3.01 10.67 -2.02 10.34 -1 10 C-1.01160156 10.92683594 -1.02320313 11.85367187 -1.03515625 12.80859375 C-1.04417969 14.00613281 -1.05320312 15.20367187 -1.0625 16.4375 C-1.07410156 17.63246094 -1.08570313 18.82742188 -1.09765625 20.05859375 C-1.33901792 22.88873341 -1.33901792 22.88873341 0 24 C0 16.08 0 8.16 0 0 Z " fill="#F7B304" transform="translate(56,259)"/>
<path d="M0 0 C0.99 0.33 1.98 0.66 3 1 C3 9.25 3 17.5 3 26 C0.525 25.01 0.525 25.01 -2 24 C-2.05787784 20.37506666 -2.0935542 16.75025143 -2.125 13.125 C-2.14175781 12.09246094 -2.15851563 11.05992187 -2.17578125 9.99609375 C-2.18222656 9.00996094 -2.18867188 8.02382813 -2.1953125 7.0078125 C-2.20578613 6.09660645 -2.21625977 5.18540039 -2.22705078 4.24658203 C-2 2 -2 2 0 0 Z " fill="#E93B0F" transform="translate(170,257)"/>
<path d="M0 0 C1.65 0 3.3 0 5 0 C5.33 11.88 5.66 23.76 6 36 C5.01 36 4.02 36 3 36 C3 24.45 3 12.9 3 1 C2.01 0.67 1.02 0.34 0 0 Z " fill="#E83211" transform="translate(82,248)"/>
<path d="M0 0 C0.99 0 1.98 0 3 0 C3 7.92 3 15.84 3 24 C2.01 24.33 1.02 24.66 0 25 C0 16.75 0 8.5 0 0 Z " fill="#FDE300" transform="translate(218,258)"/>
<path d="M0 0 C0.99 0 1.98 0 3 0 C3 8.25 3 16.5 3 25 C2.01 24.67 1.02 24.34 0 24 C0 16.08 0 8.16 0 0 Z " fill="#FDE300" transform="translate(129,258)"/>
<path d="M0 0 C0.99 0 1.98 0 3 0 C3 7.92 3 15.84 3 24 C2.01 24 1.02 24 0 24 C0 16.08 0 8.16 0 0 Z " fill="#FBCC02" transform="translate(172,258)"/>
<path d="M0 0 C0.99 0 1.98 0 3 0 C3 7.92 3 15.84 3 24 C2.01 24 1.02 24 0 24 C0 16.08 0 8.16 0 0 Z " fill="#FBD102" transform="translate(79,258)"/>
<path d="M0 0 C0.66 0 1.32 0 2 0 C2 7.92 2 15.84 2 24 C-1 21 -1 21 -1.35644531 18.83935547 C-1.34709961 18.02354004 -1.33775391 17.20772461 -1.328125 16.3671875 C-1.32296875 15.47902344 -1.3178125 14.59085937 -1.3125 13.67578125 C-1.291875 12.75152344 -1.27125 11.82726562 -1.25 10.875 C-1.24484375 9.94300781 -1.2396875 9.01101563 -1.234375 8.05078125 C-1.15406388 1.15406388 -1.15406388 1.15406388 0 0 Z " fill="#F0780A" transform="translate(214,259)"/>
<path d="M0 0 C1.81242052 -0.02687279 3.62495233 -0.04633715 5.4375 -0.0625 C6.44683594 -0.07410156 7.45617187 -0.08570313 8.49609375 -0.09765625 C11 0 11 0 12 1 C12.04092937 3.33297433 12.04241723 5.66705225 12 8 C10.68 8 9.36 8 8 8 C8 5.69 8 3.38 8 1 C7.01 1 6.02 1 5 1 C5 9.25 5 17.5 5 26 C4.67 26 4.34 26 4 26 C4 17.75 4 9.5 4 1 C2.68 0.67 1.36 0.34 0 0 Z " fill="#E62212" transform="translate(61,257)"/>
<path d="M0 0 C0.99 0 1.98 0 3 0 C3 8.58 3 17.16 3 26 C3.99 25.67 4.98 25.34 6 25 C6 25.66 6 26.32 6 27 C4.02 27 2.04 27 0 27 C0 18.09 0 9.18 0 0 Z " fill="#F0760A" transform="translate(227,257)"/>
<path d="M0 0 C0.66 0 1.32 0 2 0 C2 8.25 2 16.5 2 25 C2.99 24.67 3.98 24.34 5 24 C5 24.66 5 25.32 5 26 C3.02 26 1.04 26 -1 26 C-0.67 17.42 -0.34 8.84 0 0 Z " fill="#F17A0A" transform="translate(154,258)"/>
<path d="M0 0 C0.33 0 0.66 0 1 0 C1.07476563 0.68964844 1.14953125 1.37929687 1.2265625 2.08984375 C1.97214684 7.41857887 2.8371462 11.23556033 6.125 15.5625 C9.65050252 20.28598881 9.64509415 24.27777593 9 30 C8.67 30 8.34 30 8 30 C8 27.03 8 24.06 8 21 C7.34 21 6.68 21 6 21 C1.00696739 15.03681857 -0.658307 9.74518227 -0.2109375 2.0546875 C-0.14132813 1.37664062 -0.07171875 0.69859375 0 0 Z " fill="#F38A08" transform="translate(20,251)"/>
<path d="M0 0 C0.66 0 1.32 0 2 0 C0.68 6.93 -0.64 13.86 -2 21 C-2.99 20.34 -3.98 19.68 -5 19 C-4.39297368 12.3227105 -2.22368606 6.29872004 0 0 Z " fill="#F18C21" transform="translate(44,107)"/>
<path d="M0 0 C0.99 0 1.98 0 3 0 C3 4.62 3 9.24 3 14 C1.68 13.34 0.36 12.68 -1 12 C-1.02687279 10.18757948 -1.04633715 8.37504767 -1.0625 6.5625 C-1.07410156 5.55316406 -1.08570313 4.54382813 -1.09765625 3.50390625 C-1 1 -1 1 0 0 Z " fill="#E51513" transform="translate(49,269)"/>
<path d="M0 0 C0.99 0 1.98 0 3 0 C3 4.29 3 8.58 3 13 C2.01 13 1.02 13 0 13 C0 8.71 0 4.42 0 0 Z " fill="#FBD002" transform="translate(187,269)"/>
<path d="M0 0 C0.66 0 1.32 0 2 0 C2 4.29 2 8.58 2 13 C1.01 13 0.02 13 -1 13 C-1.02686553 11.02090602 -1.04633375 9.04171029 -1.0625 7.0625 C-1.07410156 5.96035156 -1.08570313 4.85820312 -1.09765625 3.72265625 C-1 1 -1 1 0 0 Z " fill="#FEE500" transform="translate(53,269)"/>
<path d="M0 0 C0.66 0 1.32 0 2 0 C2 4.29 2 8.58 2 13 C1.34 13 0.68 13 0 13 C-1.25069801 10.49860398 -1.13302467 8.72607309 -1.125 5.9375 C-1.12757812 5.03902344 -1.13015625 4.14054687 -1.1328125 3.21484375 C-1 1 -1 1 0 0 Z " fill="#F17A0A" transform="translate(90,270)"/>
<path d="M0 0 C0.66 0 1.32 0 2 0 C2 3.96 2 7.92 2 12 C1.01 12.495 1.01 12.495 0 13 C-1.25069801 10.49860398 -1.13302467 8.72607309 -1.125 5.9375 C-1.12757813 5.03902344 -1.13015625 4.14054687 -1.1328125 3.21484375 C-1 1 -1 1 0 0 Z " fill="#F18009" transform="translate(183,270)"/>
<path d="M0 0 C1.32 0 2.64 0 4 0 C4 1.98 4 3.96 4 6 C2.68 6 1.36 6 0 6 C0 4.02 0 2.04 0 0 Z " fill="#EB4D0E" transform="translate(206,248)"/>
<path d="M0 0 C1.4540625 0.0309375 1.4540625 0.0309375 2.9375 0.0625 C1.6175 0.3925 0.2975 0.7225 -1.0625 1.0625 C-1.0625 3.3725 -1.0625 5.6825 -1.0625 8.0625 C-2.3825 7.7325 -3.7025 7.4025 -5.0625 7.0625 C-4.4025 7.0625 -3.7425 7.0625 -3.0625 7.0625 C-3.248125 6.093125 -3.43375 5.12375 -3.625 4.125 C-3.769375 3.114375 -3.91375 2.10375 -4.0625 1.0625 C-3.0625 0.0625 -3.0625 0.0625 0 0 Z " fill="#E62312" transform="translate(188.0625,256.9375)"/>
<path d="M0 0 C0.66 0 1.32 0 2 0 C1.34 3.3 0.68 6.6 0 10 C-0.99 10 -1.98 10 -3 10 C-2.01 6.7 -1.02 3.4 0 0 Z " fill="#F39E42" transform="translate(44,107)"/>
</svg>
