<svg version="1.1" xmlns="http://www.w3.org/2000/svg" xmlns:xlink="http://www.w3.org/1999/xlink" width="1023.5194" height="107.15325" viewBox="0,0,1023.5194,107.15325"><g transform="translate(271.7597,-126.42337)"><g data-paper-data="{&quot;isPaintingLayer&quot;:true}" fill-rule="nonzero" stroke="none" stroke-width="1" stroke-linecap="butt" stroke-linejoin="miter" stroke-miterlimit="10" stroke-dasharray="" stroke-dashoffset="0" style="mix-blend-mode: normal"><path d="M-271.7597,153.5933h29.3679l8.65884,30.6945h0.14431l8.65884,-30.6945h29.36235v52.81342h-18.93845v-37.72149h-0.14986l-11.09552,37.72149h-15.83014l-11.09551,-37.72149h-0.14987v37.72149h-18.92734zM-170.42352,153.59886h25.59909l22.47969,52.80786h-22.1855l-2.22022,-6.06119h-21.747l-2.22023,6.06119h-22.19105zM-157.54626,169.57334h-0.14986l-6.21661,17.90049h12.57754z" fill="#e20015"/><path d="M-50.39866,153.5933h20.85893v31.96002c0,6.80496 3.92423,8.95304 10.72918,8.95304c6.80496,0 10.72364,-2.14809 10.72364,-8.95304v-31.95446h20.85893v32.76486c0,16.79595 -10.12974,21.90244 -31.58257,21.90244c-21.45283,0 -31.58811,-5.10649 -31.58811,-21.90244z" fill="#e20015"/><path d="M36.28966,166.90351h-19.30477v-13.30465h59.47402v13.3102h-19.31033v39.49765h-20.85892zM80.85494,153.59886h20.86447v52.81341h-20.86447z" fill="#e20015"/><path d="M-78.23462,206.4012l-17.45644,-16.26311h-3.64115v16.26864h-20.85893v-52.80786h43.93806c5.99459,0 9.61909,0.5162 12.50537,1.9205c3.91869,1.91494 7.17129,7.02142 7.17129,12.79398c0,4.91779 1.8761,19.27148 -12.74403,21.57497l17.75062,16.51841zM-99.3322,176.82235h14.79218c4.07409,0 5.77256,-1.62632 5.77256,-4.95109c0,-3.99639 -2.58656,-4.96219 -6.06119,-4.96219h-14.50355z" fill="#e20015"/><path d="M178.49447,206.78972v-14.88099c0,-11.49518 3.79101,-17.58412 8.42016,-22.21883l16.47955,-16.47401l26.7869,-26.79249v17.86165c0,10.57934 -3.78545,15.69139 -8.42016,20.31498l-12.41656,12.42213l-3.84652,3.85206c-1.39992,1.31138 -2.16825,3.16145 -2.1092,5.07874v2.97511l26.79244,-26.78137v17.8561c0,10.57934 -3.78545,15.69138 -8.42016,20.31498l-3.48575,3.49685l-3.8465,3.84652c-1.16561,1.15452 -2.10922,2.63651 -2.10922,5.07874v2.98064l17.86163,-17.8561v17.8561c0,13.85415 -8.03717,17.8561 -17.86163,17.8561h-33.82499zM174.26496,206.78972v-14.88099c0,-11.49518 -3.78546,-17.58412 -8.42017,-22.21883l-16.48511,-16.47401l-26.78135,-26.79249v17.86165c0,10.57934 3.79104,15.69139 8.42019,20.31498l12.41655,12.42213l3.84653,3.85206c1.16006,1.16006 2.10364,2.63651 2.10364,5.07874v2.97511l-26.78691,-26.78137v17.8561c0,10.57934 3.79104,15.69138 8.42019,20.31498l3.48573,3.49685l3.85208,3.84652c1.15452,1.15452 2.10364,2.63651 2.10364,5.07874v2.98064l-17.86164,-17.8561v17.8561c0,13.85415 8.03718,17.8561 17.86164,17.8561h33.82499z" fill="#004f9d"/><path d="M357.4272,163.50103c-23.97834,11.79491 -32.82033,9.69681 -43.94361,1.73177l-22.30207,-15.97447l-3.65782,2.85854l68.88775,47.99554c-20.68686,8.41463 -38.43748,19.49905 -52.95215,33.46422l-52.42484,-36.70018c4.59585,-7.7541 27.38638,-11.97252 36.56696,-5.88358l28.19674,18.75528l3.83541,-1.84279l-68.1051,-48.78926c19.13272,-8.39242 37.00544,-18.76084 52.70237,-32.69272z" fill="#e20015"/><path d="M393.44465,183.99364c-10.20744,-1.5486 -14.42585,-7.47104 -14.42585,-14.86436c0,-13.68763 13.39345,-17.38429 30.55571,-17.38429c23.52319,0 33.20889,6.13891 33.95266,17.31215h-24.25586c0,-2.14806 -1.25998,-3.48019 -3.19157,-4.21842c-1.84277,-0.81593 -4.21286,-1.1101 -6.50522,-1.1101c-6.21661,0 -8.35912,1.54858 -8.35912,3.7688c0,1.47643 0.66607,2.44226 2.73087,2.74198l24.93304,3.69666c10.50162,1.55416 17.01794,6.43309 17.01794,15.3861c0,12.87171 -10.50715,18.93845 -33.95264,18.93845c-16.05217,0 -33.59186,-2.22022 -33.65847,-17.75619h25.15505c0.0666,1.77617 0.73267,2.95843 2.20911,3.77436c1.55416,0.73823 3.85206,1.10456 7.10468,1.10456c6.51079,0 8.28141,-1.77618 8.28141,-4.28502c0,-1.55416 -0.96026,-3.1083 -3.76882,-3.55234zM451.6587,153.59331h20.85893v31.96002c0,6.79942 3.92423,8.94748 10.72918,8.94748c6.80496,0 10.7292,-2.14807 10.7292,-8.94748v-31.95446h20.85337v32.7704c0,16.79039 -10.12974,21.89691 -31.58257,21.89691c-21.44729,0 -31.58255,-5.10652 -31.58255,-21.89691z" fill="#004f9d"/><path d="M520.45208,195.23349l31.66583,-28.32997h-29.51222v-13.31021h57.6146v11.53404l-30.91651,27.96363h30.11167v13.3213h-58.96337z" fill="#004f9d"/><path d="M585.84298,153.5933h20.85893v31.96002c0,6.79942 3.92423,8.94748 10.72918,8.94748c6.80496,0 10.7292,-2.14807 10.7292,-8.94748v-31.95446h20.85337v32.7704c0,16.79039 -10.12974,21.89691 -31.58257,21.89691c-21.45839,0 -31.58255,-5.10652 -31.58255,-21.89691z" fill="#004f9d"/><path d="M730.90077,206.41228h20.85893v-52.81341h-20.85893zM658.11655,153.59331h20.29277v18.30014l22.74612,-18.30014h25.34931l-30.49466,25.85444l28.97381,26.96453h-26.67035l-20.31496,-18.93289l0.41073,18.93289h-20.29277z" fill="#004f9d"/></g></g></svg>