<?xml version="1.0" encoding="UTF-8"?>
<svg version="1.1" xmlns="http://www.w3.org/2000/svg" width="2560" height="336">
<path d="M0 0 C43.23 0 86.46 0 131 0 C134.07644151 7.38345963 137.13356471 14.76183919 140.08203125 22.1953125 C140.45293381 23.12890594 140.82383636 24.06249939 141.20597839 25.02438354 C142.40979455 28.05727419 143.61143077 31.09102055 144.8125 34.125 C145.43934692 35.70716309 145.43934692 35.70716309 146.07885742 37.32128906 C152.16281958 52.6876524 158.12085904 68.09672869 163.96621704 83.55523682 C169.34047414 97.7589799 174.88538362 111.88967323 180.5 126 C186.4678546 140.99990711 192.34595055 156.02746466 198.0625 171.125 C203.55886635 185.63898454 209.14278482 200.11531099 214.8125 214.5625 C215.1827832 215.5060434 215.55306641 216.44958679 215.93457031 217.42172241 C216.30549805 218.36689728 216.67642578 219.31207214 217.05859375 220.28588867 C223.54040913 236.80474305 229.96309298 253.34612154 236.3684082 269.89477539 C237.11147417 271.81397131 237.85455659 273.73316087 238.59765625 275.65234375 C238.95535599 276.57674759 239.31305573 277.50115143 239.68159485 278.4535675 C241.62828277 283.47924057 243.58657516 288.50012932 245.55810547 293.51611328 C245.97628036 294.58068253 246.39445526 295.64525177 246.82530212 296.74208069 C247.63363889 298.79805138 248.44345136 300.85344262 249.25489807 302.90818787 C249.79472572 304.28116783 249.79472572 304.28116783 250.34545898 305.68188477 C250.66562485 306.49343521 250.98579071 307.30498566 251.31565857 308.14112854 C252 310 252 310 252 311 C211.41 311 170.82 311 129 311 C122.91776428 293.96973998 116.86569835 276.94353623 110.98458862 259.84487915 C108.9281863 253.8667114 106.8663139 247.89043029 104.8046875 241.9140625 C104.3934111 240.72156387 103.9821347 239.52906525 103.55839539 238.3004303 C100.17035298 228.48178799 96.75719975 218.67207775 93.3302002 208.86697388 C91.53709054 203.73596594 89.74705617 198.60388405 87.95654297 193.4719696 C86.17435185 188.36420266 84.39096784 183.25685527 82.60644531 178.14990234 C80.49977701 172.11933759 78.39832722 166.08697281 76.29983521 160.05355835 C75.47930408 157.6970383 74.65711695 155.34109418 73.83322144 152.98574829 C72.68788721 149.71073203 71.54834637 146.43375472 70.41015625 143.15625 C70.06409332 142.17093796 69.7180304 141.18562592 69.36148071 140.17045593 C69.04891327 139.26664688 68.73634583 138.36283783 68.41430664 137.43164062 C68.00251915 136.25051697 68.00251915 136.25051697 67.58241272 135.04553223 C67 133 67 133 67 130 C66.34 130 65.68 130 65 130 C64.82893738 130.65701904 64.65787476 131.31403809 64.48162842 131.9909668 C62.61020377 139.03125795 60.43301806 145.9204993 58.078125 152.8125 C57.70143173 153.92297699 57.32473846 155.03345398 56.93663025 156.17758179 C55.71121349 159.78624155 54.48077132 163.39316331 53.25 167 C52.60730891 168.88939272 51.96461926 170.77878593 51.32215786 172.66825676 C45.7224494 189.13278566 40.03504528 205.56558315 34.27493286 221.97467041 C29.06104367 236.83585547 24.02537907 251.75173813 19.0925293 266.70849609 C14.19671489 281.52372197 9.0884733 296.24342744 4 311 C-35.93 311 -75.86 311 -117 311 C-116.2427707 306.45662418 -115.44379605 303.11251602 -113.84887695 298.90527344 C-113.39855606 297.70921982 -112.94823517 296.5131662 -112.48426819 295.28086853 C-111.98571323 293.97366307 -111.48704746 292.66649987 -110.98828125 291.359375 C-110.46688473 289.98081681 -109.94597652 288.60207384 -109.42552185 287.22315979 C-108.02059518 283.50506387 -106.60885856 279.78958764 -105.19584656 276.07455826 C-103.70959524 272.16343444 -102.22965998 268.24992195 -100.74902344 264.33666992 C-98.03192903 257.15832029 -95.30943168 249.98203452 -92.5843792 242.80670261 C-89.76963816 235.39480798 -86.96068478 227.98072764 -84.15234375 220.56640625 C-80.12272912 209.9305925 -76.08739502 199.29696042 -72.04920959 188.66439819 C-68.79827907 180.10413255 -65.5506527 171.542618 -62.3046875 162.98046875 C-53.52515814 139.82286244 -44.74166249 116.66683936 -35.91577148 93.52685547 C-32.32754994 84.11785375 -28.74890292 74.70529196 -25.1796875 65.2890625 C-24.34141913 63.07876498 -23.50312159 60.86847853 -22.66479492 58.65820312 C-21.45309265 55.46350344 -20.24185147 52.26863507 -19.03262329 49.07299805 C-12.82184244 32.66005491 -6.41764292 16.33581835 0 0 Z " fill="#3C77B9" transform="translate(396,12)"/>
<path d="M0 0 C43.23 0 86.46 0 131 0 C133.72548722 5.45097445 136.14739593 10.6808186 138.2578125 16.3515625 C138.55807343 17.14674789 138.85833435 17.94193329 139.16769409 18.76121521 C139.81662493 20.4802334 140.46379709 22.19991634 141.109375 23.92019653 C142.87753768 28.62915165 144.6614213 33.3321414 146.4453125 38.03515625 C146.81754944 39.01699387 147.18978638 39.99883148 147.57330322 41.01042175 C151.64208102 51.72321597 155.81400983 62.39507133 160 73.0625 C160.37708099 74.02394928 160.75416199 74.98539856 161.14266968 75.97598267 C162.66042909 79.84571304 164.17858901 83.71528567 165.69761658 87.58451843 C169.45533321 97.15618646 173.19927542 106.73320443 176.9375 116.3125 C177.2601181 117.1391214 177.58273621 117.9657428 177.91513062 118.81741333 C187.05659393 142.24445479 196.13400362 165.69638438 205.21862793 189.14550781 C213.91961285 211.60393858 222.6220808 234.061747 231.375 256.5 C231.8617067 257.74814987 231.8617067 257.74814987 232.35824585 259.02151489 C235.84435654 267.95935247 239.34687148 276.89034332 242.8828125 285.80859375 C243.19149261 286.5880838 243.50017273 287.36757385 243.81820679 288.17068481 C245.27212785 291.84208652 246.72911904 295.51219391 248.19287109 299.1796875 C248.70163656 300.46218438 249.21027103 301.74473325 249.71875 303.02734375 C250.16154297 304.13843506 250.60433594 305.24952637 251.06054688 306.39428711 C252 309 252 309 252 311 C211.41 311 170.82 311 129 311 C120 285 111 259 102 233 C100.52660156 228.74480469 99.05320312 224.48960937 97.53515625 220.10546875 C94.81823764 212.25823949 92.1048222 204.40981019 89.39511108 196.56008911 C87.79458534 191.9239709 86.19286472 187.28826588 84.59106445 182.65258789 C83.84047343 180.47928932 83.09044358 178.30579682 82.34106445 176.13208008 C77.02323244 160.70732153 71.56199305 145.33841964 66 130 C65.78274765 130.6436702 65.5654953 131.28734039 65.34165955 131.95051575 C62.54355343 140.23895365 59.74188873 148.52618592 56.9375 156.8125 C56.70911312 157.48734814 56.48072624 158.16219627 56.24541855 158.85749435 C50.24274951 176.59129712 44.18274818 194.30184424 37.96789551 211.96261597 C30.14436593 234.22397771 22.65724672 256.60131008 15.13329315 278.96524715 C14.05715905 282.16344835 12.98009699 285.3613367 11.90298843 288.55920982 C11.1526001 290.78875111 10.40387485 293.01884611 9.65524292 295.24897766 C9.19821437 296.60660244 8.7411159 297.96420368 8.28393555 299.32177734 C7.88949753 300.49557953 7.49505951 301.66938171 7.08866882 302.87875366 C6.13483165 305.61343359 5.07564125 308.31089688 4 311 C-35.93 311 -75.86 311 -117 311 C-116.24064284 306.44385705 -115.46649472 303.20581297 -113.83203125 299.015625 C-113.36289307 297.80197266 -112.89375488 296.58832031 -112.41040039 295.33789062 C-112.15275909 294.67893799 -111.8951178 294.01998535 -111.62966919 293.34106445 C-110.15218094 289.56030131 -108.69544925 285.77150417 -107.234375 281.984375 C-106.90655533 281.13633301 -106.57873566 280.28829102 -106.24098206 279.41455078 C-102.09910149 268.69052776 -98.03187556 257.93817344 -93.95947266 247.18762207 C-92.54653199 243.45784885 -91.13279768 239.72837705 -89.71875 235.99902344 C-87.78165381 230.89006765 -85.84480733 225.78101731 -83.90820312 220.671875 C-79.21125596 208.28063549 -74.51201284 195.89026665 -69.8125 183.5 C-69.35572876 182.29569336 -68.89895752 181.09138672 -68.42834473 179.85058594 C-60.12755158 157.96567582 -51.81600573 136.08486326 -43.49914551 114.20605469 C-40.71727386 106.88771403 -37.93652435 99.56894761 -35.15625 92.25 C-27.48629442 72.05978454 -19.81264365 51.87098819 -12.125 31.6875 C-11.63092148 30.39005859 -11.63092148 30.39005859 -11.12686157 29.06640625 C-10.19159025 26.61058365 -9.25600786 24.15487981 -8.3203125 21.69921875 C-8.05652298 21.0065239 -7.79273346 20.31382904 -7.52095032 19.60014343 C-5.0284636 13.06109725 -2.51216887 6.53163905 0 0 Z " fill="#3C77B9" transform="translate(1003,12)"/>
<path d="M0 0 C99.33 0 198.66 0 301 0 C301 30.36 301 60.72 301 92 C272.62 92 244.24 92 215 92 C215 164.27 215 236.54 215 311 C173.42 311 131.84 311 89 311 C89 238.73 89 166.46 89 92 C59.63 92 30.26 92 0 92 C0 61.64 0 31.28 0 0 Z " fill="#3C77B9" transform="translate(10,12)"/>
<path d="M0 0 C99 0 198 0 300 0 C300 30.36 300 60.72 300 92 C271.62 92 243.24 92 214 92 C214 164.27 214 236.54 214 311 C172.75 311 131.5 311 89 311 C89 238.73 89 166.46 89 92 C59.63 92 30.26 92 0 92 C0 61.64 0 31.28 0 0 Z " fill="#3C77B9" transform="translate(618,12)"/>
<path d="M0 0 C59.73 0 119.46 0 181 0 C181 15.51 181 31.02 181 47 C140.41 47 99.82 47 58 47 C58 72.74 58 98.48 58 125 C96.61 125 135.22 125 175 125 C175 140.51 175 156.02 175 172 C136.39 172 97.78 172 58 172 C58 201.37 58 230.74 58 261 C100.9 261 143.8 261 188 261 C188 276.84 188 292.68 188 309 C126.29 309 64.58 309 1 309 C-0.15967832 224.34348289 -0.15967832 224.34348289 -0.10573006 184.57546806 C-0.09662213 176.94549894 -0.09475776 169.31553598 -0.09336853 161.68556213 C-0.0906674 151.01131791 -0.08453339 140.33708228 -0.07543945 129.6628418 C-0.0661229 118.71525101 -0.05912545 107.76766236 -0.05493164 96.82006836 C-0.05466364 96.12750145 -0.05439565 95.43493455 -0.05411953 94.72138077 C-0.05180372 88.6880583 -0.04965232 82.65473577 -0.04751682 76.62141323 C-0.03826776 51.08093496 -0.01830275 25.54047711 0 0 Z " fill="#3C77B9" transform="translate(2112,14)"/>
<path d="M0 0 C59.73 0 119.46 0 181 0 C181 15.51 181 31.02 181 47 C140.41 47 99.82 47 58 47 C57.67 72.74 57.34 98.48 57 125 C95.61 125 134.22 125 174 125 C174 170 174 170 173 172 C134.72 172 96.44 172 57 172 C57 201.37 57 230.74 57 261 C99.9 261 142.8 261 187 261 C187.33 276.84 187.66 292.68 188 309 C125.96 309 63.92 309 0 309 C0 207.03 0 105.06 0 0 Z " fill="#3C77B9" transform="translate(1868,14)"/>
<path d="M0 0 C-1.27591263 6.05734492 -2.78075856 12.00074967 -4.53125 17.9375 C-4.76783325 18.74364746 -5.0044165 19.54979492 -5.24816895 20.38037109 C-5.74402155 22.06478149 -6.24155627 23.74869756 -6.74072266 25.43212891 C-7.50559328 28.01891643 -8.25872844 30.60895161 -9.01171875 33.19921875 C-9.49668144 34.84135698 -9.9823333 36.48329187 -10.46875 38.125 C-10.69276489 38.90093506 -10.91677979 39.67687012 -11.14758301 40.47631836 C-11.7059236 42.33633059 -12.34562328 44.17156328 -13 46 C-13.99 46.495 -13.99 46.495 -15 47 C-17.05120947 46.19879336 -19.06655406 45.30537205 -21.0625 44.375 C-46.50351157 33.05133352 -76.60904169 28.23356017 -103.3125 37.75 C-113.07279761 41.99709174 -120.1870204 48.9337179 -124.13671875 58.85546875 C-126.35509126 66.93596592 -126.02519657 76.00600625 -122.4453125 83.62890625 C-110.70133218 102.89538207 -86.08812255 110.6434521 -66.1875 118.625 C-56.19705618 122.6374697 -46.39935004 126.73286422 -37 132 C-36.34 132.36915527 -35.68 132.73831055 -35 133.11865234 C-12.75626274 145.78346961 2.87060975 163.02053287 10.2734375 187.96484375 C16.02161657 211.97739824 11.83703816 238.02279807 -0.921875 259.01953125 C-4.75731398 264.52035821 -9.27037249 269.26364471 -14 274 C-14.73089844 274.7425 -15.46179687 275.485 -16.21484375 276.25 C-22.37462722 282.12301515 -29.51679435 286.08544823 -37 290 C-37.90621094 290.474375 -38.81242187 290.94875 -39.74609375 291.4375 C-77.8339117 309.98864421 -128.03702773 307.46838374 -167.29174805 294.40136719 C-174.77950589 291.78868389 -182.09492445 288.94316156 -189 285 C-188.38645223 279.1657034 -187.28982361 273.67685403 -185.78515625 268.01171875 C-185.5693541 267.18670364 -185.35355194 266.36168854 -185.13121033 265.51167297 C-184.67734884 263.7824188 -184.22089731 262.0538425 -183.76196289 260.32592773 C-183.06041388 257.679631 -182.37055411 255.03047009 -181.68164062 252.38085938 C-181.23767562 250.69512892 -180.79303789 249.00957547 -180.34765625 247.32421875 C-180.039739 246.13828377 -180.039739 246.13828377 -179.7256012 244.9283905 C-178.81333632 241.52300459 -177.9723833 238.95857495 -176 236 C-174.98164062 236.50789062 -173.96328125 237.01578125 -172.9140625 237.5390625 C-142.93473961 252.23129581 -106.49769146 261.62111084 -73.73046875 250.93359375 C-62.7268215 246.73975084 -54.94350149 240.8535209 -50 230 C-46.43263609 220.41946587 -45.58424096 210.75461957 -49 201 C-59.25622027 179.34048218 -82.23830534 171.7293352 -103.1015625 163.62890625 C-133.58628423 151.7405901 -164.21457996 136.80122048 -178.58984375 105.54296875 C-186.41389498 86.0622151 -187.28370511 62.485019 -179.13818359 42.93115234 C-175.43180666 34.49109796 -171.07022728 26.97492462 -165 20 C-164.566875 19.42507812 -164.13375 18.85015625 -163.6875 18.2578125 C-148.27119465 -1.65491524 -120.89247571 -10.53696129 -97 -14 C-96.34845947 -14.09498779 -95.69691895 -14.18997559 -95.02563477 -14.2878418 C-63.53807233 -18.36842096 -28.49317371 -14.35274622 0 0 Z " fill="#3C77B9" transform="translate(1582,24)"/>
<path d="M0 0 C77.22 0 154.44 0 234 0 C234 15.84 234 31.68 234 48 C204.63 48 175.26 48 145 48 C145 134.13 145 220.26 145 309 C126.19 309 107.38 309 88 309 C88 222.87 88 136.74 88 48 C58.96 48 29.92 48 0 48 C0 32.16 0 16.32 0 0 Z " fill="#3C77B9" transform="translate(1599,14)"/>
<path d="M0 0 C19.14 0 38.28 0 58 0 C58 86.13 58 172.26 58 261 C99.91 261 141.82 261 185 261 C185 276.84 185 292.68 185 309 C124.28 309 63.56 309 1 309 C-0.125 300 -0.125 300 -0.12304783 295.31478882 C-0.12503888 294.25035836 -0.12702993 293.18592791 -0.12908131 292.08924198 C-0.12616847 290.94136928 -0.12325563 289.79349657 -0.12025452 288.61083984 C-0.12110894 287.37485518 -0.12196337 286.13887053 -0.12284368 284.86543179 C-0.12420182 281.45161128 -0.12109248 278.03784861 -0.11606562 274.62403512 C-0.11173499 270.93634308 -0.1132094 267.24865273 -0.1139679 263.56095886 C-0.11449147 257.17736389 -0.11136201 250.79377916 -0.10573006 244.41018677 C-0.09759258 235.18065812 -0.09499753 225.95113441 -0.09374207 216.72160256 C-0.09155508 201.74620229 -0.08490457 186.77080747 -0.07543945 171.79541016 C-0.0662562 157.25081408 -0.05917983 142.70621949 -0.05493164 128.16162109 C-0.05466892 127.26463721 -0.05440619 126.36765333 -0.05413551 125.44348812 C-0.05283044 120.94344776 -0.05156674 116.44340738 -0.05032361 111.943367 C-0.039962 74.62890649 -0.02152961 37.31445607 0 0 Z " fill="#3C77BA" transform="translate(2357,14)"/>
<path d="M0 0 C99 0 198 0 300 0 C300 30.36 300 60.72 300 92 C271.62 92 243.24 92 214 92 C214 91.67 214 91.34 214 91 C240.4 91 266.8 91 294 91 C294.33 90.01 294.66 89.02 295 88 C296.32 88 297.64 88 299 88 C299 59.29 299 30.58 299 1 C200.66 1 102.32 1 1 1 C1 30.7 1 60.4 1 91 C29.05 91 57.1 91 86 91 C86 90.34 86 89.68 86 89 C87.485 89.495 87.485 89.495 89 90 C89 90.66 89 91.32 89 92 C59.63 92 30.26 92 0 92 C0 61.64 0 31.28 0 0 Z " fill="#4874A7" transform="translate(618,12)"/>
<path d="M0 0 C1.32 0 2.64 0 4 0 C4 3.3 4 6.6 4 10 C-34.61 10 -73.22 10 -113 10 C-113 9.67 -113 9.34 -113 9 C-76.04 9 -39.08 9 -1 9 C-1 6.36 -1 3.72 -1 1 C-0.67 0.67 -0.34 0.34 0 0 Z " fill="#4775AA" transform="translate(2283,176)"/>
<path d="M0 0 C3.25 -0.25 3.25 -0.25 7 0 C8.32 1.32 9.64 2.64 11 4 C4.4 4.33 -2.2 4.66 -9 5 C-8.67 4.34 -8.34 3.68 -8 3 C-5.69 3 -3.38 3 -1 3 C-0.67 2.01 -0.34 1.02 0 0 Z " fill="#4B73A6" transform="translate(1505,52)"/>
<path d="M0 0 C0.33 0 0.66 0 1 0 C1 6.27 1 12.54 1 19 C-0.32 18.34 -1.64 17.68 -3 17 C-3 13.04 -3 9.08 -3 5 C-2.34 4.67 -1.68 4.34 -1 4 C-0.34786708 1.97536745 -0.34786708 1.97536745 0 0 Z " fill="#386F9B" transform="translate(2048,27)"/>
<path d="M0 0 C2.41696872 -0.05411124 4.83271787 -0.09372278 7.25 -0.125 C7.93191406 -0.14175781 8.61382813 -0.15851563 9.31640625 -0.17578125 C13.0608235 -0.21213482 15.82352727 -0.07944349 19 2 C12.62641289 2.96205088 6.44070471 3.10655578 0 3 C0 2.01 0 1.02 0 0 Z " fill="#4674B1" transform="translate(1488,324)"/>
<path d="M0 0 C1.25433458 3.76300374 1.10695422 7.27210909 1.0625 11.1875 C1.05798828 11.93708984 1.05347656 12.68667969 1.04882812 13.45898438 C1.03706354 15.30602383 1.01912865 17.15302213 1 19 C0.34 19 -0.32 19 -1 19 C-1 16.69 -1 14.38 -1 12 C-1.66 12 -2.32 12 -3 12 C-3 9.69 -3 7.38 -3 5 C-2.34 5 -1.68 5 -1 5 C-0.67 3.35 -0.34 1.7 0 0 Z " fill="#4A74A1" transform="translate(1456,83)"/>
<path d="M0 0 C2 3.75 2 3.75 2 6 C1.01 6 0.02 6 -1 6 C-0.938125 6.928125 -0.87625 7.85625 -0.8125 8.8125 C-1 12 -1 12 -2.5 13.875 C-3.2425 14.431875 -3.2425 14.431875 -4 15 C-3.43179252 9.54520815 -2.05362055 5.08940744 0 0 Z " fill="#4374AB" transform="translate(1404,64)"/>
<path d="M0 0 C2 3 2 3 1.75 4.875 C0.90092985 7.28069876 -0.01881339 9.64515214 -1 12 C-1.99 11.67 -2.98 11.34 -4 11 C-2.68 7.37 -1.36 3.74 0 0 Z " fill="#4273AA" transform="translate(388,32)"/>
<path d="M0 0 C0.66 0.33 1.32 0.66 2 1 C0.35 5.62 -1.3 10.24 -3 15 C-5 11 -5 11 -5 9 C-4.34 8.67 -3.68 8.34 -3 8 C-2.29508733 5.67793475 -1.62787571 3.34406932 -1 1 C-0.67 0.67 -0.34 0.34 0 0 Z " fill="#3F71A6" transform="translate(423,249)"/>
<path d="M0 0 C0.99 0 1.98 0 3 0 C3 3.96 3 7.92 3 12 C-0.67952474 7.09396701 -0.29124516 5.82490317 0 0 Z " fill="#4874A7" transform="translate(2052,275)"/>
<path d="M0 0 C0.33 1.32 0.66 2.64 1 4 C0.01 4.33 -0.98 4.66 -2 5 C-2 5.66 -2 6.32 -2 7 C-3.98 7.33 -5.96 7.66 -8 8 C-5.33333333 5.33333333 -2.66666667 2.66666667 0 0 Z " fill="#4375A5" transform="translate(1429,32)"/>
<path d="M0 0 C2.72869407 0.03287583 5.2966618 0.56397771 8 1 C8 1.66 8 2.32 8 3 C4.18510326 4.46726798 1.70988378 3.43336419 -2 2 C-1.34 1.34 -0.68 0.68 0 0 Z " fill="#3F6698" transform="translate(1416,316)"/>
<path d="M0 0 C0.66 0 1.32 0 2 0 C2.66 1.98 3.32 3.96 4 6 C2.68 6.33 1.36 6.66 0 7 C-0.38133299 5.0085944 -0.71325582 3.00720923 -1 1 C-0.67 0.67 -0.34 0.34 0 0 Z " fill="#3D7BAC" transform="translate(524,314)"/>
<path d="M0 0 C0.66 0.33 1.32 0.66 2 1 C1.731875 1.515625 1.46375 2.03125 1.1875 2.5625 C-0.32349407 5.66401415 -1.65572726 8.82262806 -3 12 C-4.21386936 8.35839192 -3.6674695 7.66834531 -2.0625 4.3125 C-1.49208984 3.10013672 -1.49208984 3.10013672 -0.91015625 1.86328125 C-0.60980469 1.24839844 -0.30945313 0.63351563 0 0 Z " fill="#4377A9" transform="translate(362,102)"/>
<path d="M0 0 C3.63 0 7.26 0 11 0 C10.01 1.485 10.01 1.485 9 3 C4.545 2.01 4.545 2.01 0 1 C0 0.67 0 0.34 0 0 Z " fill="#4974A7" transform="translate(1494,9)"/>
<path d="M0 0 C0.66 0.66 1.32 1.32 2 2 C1.74739753 5.78903708 -0.27849443 7.54186593 -3 10 C-2.01 6.7 -1.02 3.4 0 0 Z " fill="#4673A9" transform="translate(930,204)"/>
<path d="M0 0 C0.99 0 1.98 0 3 0 C2.75 1.875 2.75 1.875 2 4 C-0.0625 5.25 -0.0625 5.25 -2 6 C-1.125 1.125 -1.125 1.125 0 0 Z " fill="#3B6EC6" transform="translate(1413,49)"/>
<path d="M0 0 C0.66 0.33 1.32 0.66 2 1 C1.34 2.65 0.68 4.3 0 6 C-1.32 6 -2.64 6 -4 6 C-2.84826645 3.53199953 -1.95216435 1.95216435 0 0 Z " fill="#4271A4" transform="translate(1007,317)"/>
<path d="M0 0 C1.25541557 3.76624671 0.37061958 5.37188934 -1 9 C-1.66 8.34 -2.32 7.68 -3 7 C-2.67028521 3.70285207 -2.3773161 2.3773161 0 0 Z " fill="#4775AA" transform="translate(407,296)"/>
<path d="M0 0 C1 2 1 2 0.0625 5.125 C-0.288125 6.07375 -0.63875 7.0225 -1 8 C-4 4.25 -4 4.25 -4 2 C-2.68 1.34 -1.36 0.68 0 0 Z " fill="#4575AA" transform="translate(447,180)"/>
<path d="M0 0 C1.2065625 0.0309375 1.2065625 0.0309375 2.4375 0.0625 C2.4375 1.3825 2.4375 2.7025 2.4375 4.0625 C-0.42974686 3.48905063 -1.4239515 3.2010485 -3.5625 1.0625 C-2.5625 0.0625 -2.5625 0.0625 0 0 Z " fill="#4774AA" transform="translate(1435.5625,161.9375)"/>
<path d="M0 0 C0.66 0.66 1.32 1.32 2 2 C1.625 4.625 1.625 4.625 1 7 C0.01 7 -0.98 7 -2 7 C-1.34 4.69 -0.68 2.38 0 0 Z " fill="#2E65B0" transform="translate(369,82)"/>
<path d="M0 0 C0.33 0 0.66 0 1 0 C1 2.31 1 4.62 1 7 C-0.98 7.99 -0.98 7.99 -3 9 C-2.01 6.03 -1.02 3.06 0 0 Z " fill="#4476A6" transform="translate(978,78)"/>
<path d="M0 0 C0.66 1.32 1.32 2.64 2 4 C-1.3 3.34 -4.6 2.68 -8 2 C-8 1.67 -8 1.34 -8 1 C-5.23735711 0.40267181 -2.83967231 0 0 0 Z " fill="#4177AC" transform="translate(1544,58)"/>
<path d="M0 0 C1 4 1 4 -0.9375 7.25 C-1.618125 8.1575 -2.29875 9.065 -3 10 C-3.66 9.67 -4.32 9.34 -5 9 C-3.35 6.03 -1.7 3.06 0 0 Z " fill="#4773AC" transform="translate(1410,53)"/>
<path d="M0 0 C0.33 0 0.66 0 1 0 C1.23509196 4.81938524 0.45184478 8.46298506 -1 13 C-1.33 13 -1.66 13 -2 13 C-2.16682272 8.07872966 -2.24828052 4.49656104 0 0 Z " fill="#32799E" transform="translate(2048,27)"/>
<path d="M0 0 C0.5625 1.9375 0.5625 1.9375 1 4 C0 5 0 5 -2.5625 5.0625 C-3.7690625 5.0315625 -3.7690625 5.0315625 -5 5 C-3.35 3.35 -1.7 1.7 0 0 Z " fill="#4275AB" transform="translate(1525,265)"/>
</svg>
