<?xml version="1.0" encoding="UTF-8"?>
<svg version="1.1" xmlns="http://www.w3.org/2000/svg" width="1200" height="1222">
<path d="M0 0 C1.05126197 0.84232915 2.09749244 1.69135228 3.125 2.5625 C1.52489058 7.78336985 -1.77157239 11.55323605 -5.125 15.75 C-6.40128717 17.36699375 -7.67732186 18.98418682 -8.953125 20.6015625 C-9.60603516 21.4255957 -10.25894531 22.24962891 -10.93164062 23.09863281 C-13.36131574 26.17907016 -15.75652946 29.28522562 -18.15161133 32.39257812 C-31.64407089 49.8702733 -45.82074483 66.78828835 -60.6796875 83.12109375 C-62.54289973 85.19317141 -64.3779782 87.28461585 -66.20703125 89.38671875 C-76.75882148 101.45932359 -88.05386629 112.84225461 -99.375 124.1875 C-99.93498688 124.75007507 -100.49497375 125.31265015 -101.07192993 125.89227295 C-106.61570447 131.4562606 -112.16285671 136.96868194 -118.14013672 142.07275391 C-120.90097539 144.4435163 -123.53379881 146.94839865 -126.1875 149.4375 C-131.00255443 153.91670159 -135.94031844 158.1701977 -141.0703125 162.2890625 C-143.6178989 164.35409771 -146.11752565 166.46183152 -148.60791016 168.59472656 C-154.92299925 173.99907578 -161.37963778 179.18296 -168.02734375 184.17431641 C-169.30846529 185.13685038 -170.58693496 186.10292018 -171.86328125 187.07177734 C-198.6329698 207.36633019 -227.09005355 225.41990598 -256.65283203 241.36328125 C-258.16416824 242.17889139 -259.67287227 242.99939382 -261.17919922 243.82421875 C-334.17032096 283.72742998 -417.32524709 308.14296992 -542.875 328.5625 C-543.98149902 328.68785126 -543.98149902 328.68785126 -545.11035156 328.81573486 C-586.99131695 333.49316624 -630.02305696 333.59318314 -671.875 328.5625 C-672.56392334 328.48 -673.25284668 328.3975 -673.96264648 328.3125 C-742.03299024 320.02775366 -806.85331133 297.29963712 -867.875 266.5625 C-869.12206133 265.93683105 -870.36913149 265.3111797 -871.61621094 264.68554688 C-902.51221457 249.1490304 -930.95551877 230.50374636 -958.80810547 210.07763672 C-984.61310262 191.16128752 -1010.59327083 172.62687635 -1038.875 157.5625 C-1039.51405273 157.21767578 -1040.15310547 156.87285156 -1040.81152344 156.51757812 C-1075.57020909 137.87543935 -1115.17763747 126.32256728 -1154.70410156 126.43212891 C-1156.97467886 126.43744076 -1159.24505407 126.43218138 -1161.515625 126.42578125 C-1171.33767292 126.42178757 -1181.08084661 126.83139418 -1190.875 127.5625 C-1185.77958746 121.22766278 -1179.95948693 115.93785967 -1173.875 110.5625 C-1172.88693359 109.68464844 -1172.88693359 109.68464844 -1171.87890625 108.7890625 C-1169.88842299 107.03401274 -1167.88402195 105.29631346 -1165.875 103.5625 C-1165.37097656 103.12679687 -1164.86695313 102.69109375 -1164.34765625 102.2421875 C-1157.57513355 96.39247967 -1150.77322413 90.58842947 -1143.8203125 84.953125 C-1141.63882066 83.18247115 -1139.46853301 81.40132744 -1137.3046875 79.609375 C-1127.10840845 71.19696109 -1116.58869463 63.30179699 -1105.875 55.5625 C-1105.16230957 55.04300781 -1104.44961914 54.52351562 -1103.71533203 53.98828125 C-1066.60200105 26.95886725 -1023.88219475 3.22319329 -977.875 -3.4375 C-976.39966797 -3.65744629 -976.39966797 -3.65744629 -974.89453125 -3.88183594 C-960.14374339 -5.99103531 -945.50402577 -6.73810393 -930.625 -6.8125 C-929.47174728 -6.82428284 -929.47174728 -6.82428284 -928.29519653 -6.83630371 C-914.03139006 -6.95012541 -900.43997069 -5.30656792 -887 -0.25 C-885.66582031 0.2445166 -885.66582031 0.2445166 -884.3046875 0.74902344 C-862.68784778 9.05041008 -841.68622325 19.63019594 -821.56494141 31.04101562 C-818.66010766 32.68404738 -815.74334907 34.30438817 -812.82421875 35.921875 C-802.29256439 41.76879843 -791.8302465 47.72206013 -781.4375 53.8125 C-764.18018223 63.92152859 -746.67674155 73.44539838 -728.875 82.5625 C-728.25586731 82.88043518 -727.63673462 83.19837036 -726.99884033 83.52593994 C-646.72297208 124.73757665 -564.1869596 152.23802479 -325.875 123.5625 C-269.08845748 105.23008073 -213.16223524 82.70768527 -163.875 48.5625 C-163.29057129 48.15821777 -162.70614258 47.75393555 -162.10400391 47.33740234 C-146.77345461 36.67910092 -132.00876678 25.09726807 -118.38671875 12.3125 C-117.53315796 11.51187134 -117.53315796 11.51187134 -116.66235352 10.69506836 C-115.59781585 9.68962825 -114.53911134 8.67795363 -113.48803711 7.65844727 C-84.86216699 -19.50378773 -31.45405151 -23.34221717 0 0 Z " fill="#034DA1" transform="translate(1195.875,514.4375)"/>
<path d="M0 0 C1.36329057 1.12383672 2.6795278 2.30454075 3.98046875 3.5 C2.40609814 6.97503564 0.34336779 9.83830687 -1.95703125 12.875 C-2.54484375 13.65121704 -2.54484375 13.65121704 -3.14453125 14.44311523 C-16.34757825 31.80832968 -30.049935 48.86601356 -44.75390625 64.98828125 C-46.62817335 67.06613254 -48.46997626 69.16480259 -50.3046875 71.27734375 C-54.01334904 75.52352837 -57.83772245 79.65023972 -61.70703125 83.75 C-62.40183594 84.48653809 -63.09664062 85.22307617 -63.8125 85.98193359 C-79.24550415 102.28375346 -79.24550415 102.28375346 -87.7734375 109.53515625 C-90.23666986 111.68994908 -92.61913539 113.9181131 -95.00415039 116.15869141 C-101.46707354 122.22712332 -108.07810807 127.97884091 -115.01953125 133.5 C-116.14807667 134.41941877 -117.27562663 135.34006036 -118.40234375 136.26171875 C-132.64653155 147.86332836 -147.56847635 158.56508876 -163.01953125 168.5 C-163.76976562 168.98404297 -164.52 169.46808594 -165.29296875 169.96679688 C-214.8668432 201.77268882 -269.32034082 223.31999841 -326.01953125 238.5 C-326.70186829 238.68304688 -327.38420532 238.86609375 -328.08721924 239.0546875 C-360.97347413 247.84887163 -394.22806538 254.36418777 -428.01953125 258.5 C-429.09154785 258.63277344 -430.16356445 258.76554687 -431.26806641 258.90234375 C-470.4977372 263.51226711 -511.38825291 261.40453371 -550.01953125 253.5 C-551.02338867 253.29536133 -552.02724609 253.09072266 -553.06152344 252.87988281 C-604.70365941 242.12713181 -653.10380726 221.07756241 -700.01953125 197.5 C-701.26162354 196.87762451 -701.26162354 196.87762451 -702.52880859 196.24267578 C-721.46583485 186.60176362 -738.92639268 173.44521539 -756.38110352 161.3815918 C-769.99497475 151.97929877 -783.66806013 142.7204367 -798.08886719 134.59082031 C-799.33068493 133.88919643 -800.56868068 133.18074107 -801.80175781 132.46386719 C-831.24445665 115.35144404 -866.04756983 105.2294531 -900.14453125 105.375 C-901.78699829 105.37790039 -901.78699829 105.37790039 -903.46264648 105.38085938 C-911.68425725 105.42451073 -919.83141945 105.75441584 -928.01953125 106.5 C-925.72993678 103.54552329 -923.49532202 100.85615733 -920.64453125 98.4375 C-919.59845703 97.54224609 -919.59845703 97.54224609 -918.53125 96.62890625 C-917.70238281 95.92636719 -916.87351562 95.22382813 -916.01953125 94.5 C-914.41875371 93.13052147 -912.81978146 91.75895374 -911.22094727 90.38720703 C-910.02843698 89.36486672 -908.83488599 88.34373929 -907.64038086 87.32373047 C-904.53344616 84.66858717 -901.44174513 81.99891602 -898.37890625 79.29296875 C-889.86130156 71.78532974 -881.05280094 64.79881873 -871.97412109 57.98291016 C-870.21662645 56.64953238 -868.48230778 55.29359321 -866.7578125 53.91796875 C-857.29296776 46.41638246 -847.2461829 39.90867461 -837.01953125 33.5 C-836.29749512 33.04592773 -835.57545898 32.59185547 -834.83154297 32.12402344 C-795.18017257 7.40166108 -742.17765241 -10.22611786 -695.01953125 0.35546875 C-668.98882835 7.46957117 -644.22949972 21.2419889 -621.0390625 34.74462891 C-615.36123859 38.04536904 -609.65810663 41.30214275 -603.95703125 44.5625 C-603.0643454 45.07337662 -603.0643454 45.07337662 -602.15362549 45.59457397 C-590.86034856 52.05497632 -579.49685733 58.37174337 -568.01953125 64.5 C-567.05547363 65.01626953 -566.09141602 65.53253906 -565.09814453 66.06445312 C-518.92804746 90.70247542 -470.41067919 112.22522099 -418.01953125 118.5 C-417.23416992 118.59571289 -416.44880859 118.69142578 -415.63964844 118.79003906 C-406.66252131 119.74782815 -397.66271788 119.74359789 -388.64453125 119.75 C-387.78604584 119.75067474 -386.92756042 119.75134949 -386.0430603 119.75204468 C-298.88313688 119.64399727 -192.90581255 88.39538815 -123.01953125 35.5 C-122.17648437 34.86312256 -122.17648437 34.86312256 -121.31640625 34.21337891 C-104.81945338 21.67282488 -104.81945338 21.67282488 -90.08203125 7.1875 C-68.92555206 -14.47161692 -23.59736835 -17.52686547 0 0 Z " fill="#034DA1" transform="translate(1173.01953125,246.5)"/>
<path d="M0 0 C130.20474777 0 130.20474777 0 154 22 C166.46662116 35.91106033 169.69127918 55.03181289 168.90673828 73.15429688 C167.74476014 89.20667215 162.51628387 103.54347022 150.69140625 114.828125 C143.41893 120.69677056 134.88764474 125.15595368 126 128 C127.95313233 129.48004028 129.90890285 130.93748596 131.9296875 132.32421875 C145.94985738 142.14959885 150.22026908 158.98988906 155.3125 174.5625 C155.81066707 176.0702445 156.30913119 177.57789088 156.80786133 179.08544922 C162.48028886 196.2864555 167.97646088 213.54604071 173.47583008 230.80297852 C173.83500519 231.92836533 174.1941803 233.05375214 174.5642395 234.21324158 C175.24468022 236.34581367 175.92375525 238.47882213 176.60128784 240.61231995 C177.05424728 242.03132851 177.05424728 242.03132851 177.51635742 243.47900391 C177.77994553 244.30751862 178.04353363 245.13603333 178.31510925 245.98965454 C178.96188268 248.03616912 178.96188268 248.03616912 180 250 C187.55655992 226.95674432 195.09382724 203.90853721 202.44482422 180.79876709 C210.08538555 156.78263787 217.95544861 132.84498538 225.85387802 108.91275024 C233.68656584 85.17906316 241.46191535 61.43112021 249.01757812 37.60742188 C251.91819201 28.46445896 254.85125931 19.33353073 257.86328125 10.2265625 C258.16260056 9.31538666 258.46191986 8.40421082 258.77030945 7.46542358 C259.04760391 6.63201447 259.32489838 5.79860535 259.6105957 4.93994141 C259.85526077 4.20143951 260.09992584 3.46293762 260.352005 2.70205688 C261 1 261 1 262 0 C264.11681317 -0.0942174 266.23680758 -0.11742761 268.35571289 -0.11352539 C269.35079613 -0.11374443 269.35079613 -0.11374443 270.36598206 -0.1139679 C272.56823956 -0.11326881 274.77041345 -0.10547665 276.97265625 -0.09765625 C278.49580336 -0.09579206 280.01895107 -0.09436816 281.542099 -0.09336853 C285.55837651 -0.08954346 289.57461808 -0.07971328 293.59088135 -0.06866455 C297.68623366 -0.05845019 301.78159176 -0.05387086 305.87695312 -0.04882812 C313.91798528 -0.038091 321.95898817 -0.02101472 330 0 C335.9157934 17.44598658 341.53516294 34.95770992 346.90936279 52.57867432 C348.84493363 58.92490679 350.79196116 65.26763128 352.73801041 71.61065674 C353.19503928 73.10042949 353.65195555 74.5902368 354.10876083 76.08007812 C359.24727773 92.83837952 364.44668005 109.57759643 369.65576172 126.31407547 C371.57659143 132.48573321 373.49666549 138.65762616 375.41676331 144.82951164 C375.89919571 146.38021392 376.38164809 147.93090998 376.86412048 149.48159981 C383.33716781 170.28723187 389.78286626 191.10133865 396.22770119 211.9157238 C396.89587792 214.07358926 397.56415794 216.23142271 398.23245239 218.38925171 C399.06630231 221.08167689 399.89965321 223.77425574 400.7326355 226.46694946 C402.38362628 231.80050973 404.03714381 237.13298176 405.72167969 242.45605469 C405.96401337 243.2230368 406.20634705 243.99001892 406.45602417 244.78024292 C407.0524328 246.66279099 407.65269153 248.54411827 408.25341797 250.42529297 C409 253 409 253 409 255 C388.54 255 368.08 255 347 255 C344.69 246.13125 342.38 237.2625 340 228.125 C339.26910156 225.32402832 338.53820312 222.52305664 337.78515625 219.63720703 C337.21074483 217.42745893 336.63651358 215.21766398 336.0625 213.0078125 C335.76021484 211.8520874 335.45792969 210.6963623 335.14648438 209.50561523 C334.72012695 207.8614563 334.72012695 207.8614563 334.28515625 206.18408203 C333.91209351 204.75178757 333.91209351 204.75178757 333.53149414 203.29055786 C333 201 333 201 333 199 C306.27 199 279.54 199 252 199 C250.68 204.28 249.36 209.56 248 215 C247.1631144 218.18739671 246.32121814 221.37101007 245.45703125 224.55078125 C245.24310226 225.34228073 245.02917328 226.13378021 244.8087616 226.94926453 C244.36680524 228.58315365 243.92412941 230.21684834 243.48071289 231.8503418 C242.80101966 234.3548015 242.12399003 236.85997101 241.44726562 239.36523438 C241.0131735 240.96879133 240.57893444 242.57230853 240.14453125 244.17578125 C239.94350296 244.91943436 239.74247467 245.66308746 239.53535461 246.42927551 C238.75177841 249.31251813 237.94507534 252.16477398 237 255 C198.06 255 159.12 255 119 255 C108.8125 218.3125 108.8125 218.3125 105.62817383 206.8059082 C104.66444273 203.34774831 104.66444273 203.34774831 103.69902039 199.89006042 C103.27605907 198.37211726 102.85557025 196.85348361 102.43717957 195.33427429 C97.13306499 172.46896207 97.13306499 172.46896207 83 155 C75.78271479 151.84516395 75.78271479 151.84516395 58 151 C58 185.32 58 219.64 58 255 C38.86 255 19.72 255 0 255 C0 170.85 0 86.7 0 0 Z M58 44 C58 65.12 58 86.24 58 108 C81.54242329 108.9973364 81.54242329 108.9973364 102.70703125 99.46875 C109.07384346 92.652698 110.54812591 85.23376057 110.4375 76.1875 C110.42847656 75.30747314 110.41945313 74.42744629 110.41015625 73.52075195 C110.17332988 64.60933747 108.91450765 57.36276813 102.25 51 C89.45485835 41.05879329 73.63267701 44 58 44 Z M294 54 C290.65883215 65.26563867 287.32043684 76.53209491 283.98549938 87.79957962 C282.43657995 93.03247522 280.88673604 98.26509316 279.3347168 103.49707031 C277.83469958 108.55387309 276.33719257 113.61141319 274.84136391 118.66945648 C274.27256418 120.59123504 273.70288707 122.51275416 273.13228416 124.43399811 C272.32823852 127.14182329 271.52742573 129.85058615 270.72729492 132.55957031 C270.37879486 133.72915283 270.37879486 133.72915283 270.02325439 134.92236328 C268.15936093 141.252148 266.60498855 147.58004581 265 154 C283.48 154 301.96 154 321 154 C319.78582448 147.92912238 318.5621765 141.97470202 317.00048828 136.00268555 C316.81154999 135.27108215 316.62261169 134.53947876 316.427948 133.78570557 C315.81152658 131.40197685 315.19108228 129.01931844 314.5703125 126.63671875 C314.13418927 124.95583661 313.69822832 123.27491235 313.26242065 121.59394836 C312.35141319 118.08274448 311.43839081 114.5720725 310.52392578 111.06176758 C309.3613274 106.59827458 308.2038557 102.13347126 307.04792976 97.66824627 C306.14918671 94.19895054 305.24763054 90.7303904 304.34527206 87.26203346 C303.91787542 85.617891 303.49132945 83.97352713 303.06570816 82.32892418 C300.59973423 72.80741811 297.99759918 63.37079938 295 54 C294.67 54 294.34 54 294 54 Z " fill="#034EA1" transform="translate(491,964)"/>
<path d="M0 0 C25.1449461 21.84634485 41.48618624 51.29319824 44.50488281 84.72607422 C46.61194082 118.91538067 37.72736779 151.33466519 15.50488281 177.72607422 C14.786875 178.59619141 14.06886719 179.46630859 13.32910156 180.36279297 C-6.66508707 203.64670185 -35.9149004 218.29424783 -66.49511719 220.72607422 C-94.7743824 221.99756266 -122.18536374 216.45832298 -145.49511719 199.72607422 C-146.23503906 199.19626953 -146.97496094 198.66646484 -147.73730469 198.12060547 C-175.22550629 177.52890996 -191.88857296 149.10455576 -197.74511719 115.22607422 C-201.86728452 82.39728215 -194.63186968 49.1779252 -174.99511719 22.28857422 C-154.4568734 -3.7573301 -126.84067614 -22.62167939 -93.38574219 -26.99267578 C-59.23137353 -29.46166629 -26.62892706 -22.68937645 0 0 Z " fill="#034DA1" transform="translate(869.4951171875,31.27392578125)"/>
<path d="M0 0 C56.1 0 112.2 0 170 0 C170 15.51 170 31.02 170 47 C151.85 47 133.7 47 115 47 C115 115.64 115 184.28 115 255 C95.2 255 75.4 255 55 255 C55 186.36 55 117.72 55 47 C36.85 47 18.7 47 0 47 C0 31.49 0 15.98 0 0 Z " fill="#034EA1" transform="translate(290,964)"/>
<path d="M0 0 C19.47 0 38.94 0 59 0 C59 84.15 59 168.3 59 255 C39.53 255 20.06 255 0 255 C0 170.85 0 86.7 0 0 Z " fill="#024EA1" transform="translate(921,964)"/>
<path d="M0 0 C19.47 0 38.94 0 59 0 C59 84.15 59 168.3 59 255 C58.67 255 58.34 255 58 255 C58 171.18 58 87.36 58 1 C39.85 1 21.7 1 3 1 C3 3.64 3 6.28 3 9 C2.01 10.32 1.02 11.64 0 13 C0 8.71 0 4.42 0 0 Z " fill="#104A89" transform="translate(921,964)"/>
<path d="M0 0 C1 2 1 2 1 6 C1.61488281 5.98839844 2.22976563 5.97679687 2.86328125 5.96484375 C3.67152344 5.95582031 4.47976563 5.94679688 5.3125 5.9375 C6.51326172 5.92009766 6.51326172 5.92009766 7.73828125 5.90234375 C10 6 10 6 13 7 C13 7.66 13 8.32 13 9 C19.93 9 26.86 9 34 9 C34.495 10.485 34.495 10.485 35 12 C34.07888428 11.99476318 33.15776855 11.98952637 32.20874023 11.98413086 C28.71410467 11.96684909 25.21951602 11.95443542 21.72485352 11.94506836 C20.22679924 11.94011162 18.72874961 11.93334426 17.23071289 11.92456055 C7.10323824 11.86676697 -2.90263673 12.18049582 -13 13 C-10.45014918 9.75746136 -7.96106066 6.92007395 -4.8125 4.25 C-4.11769531 3.65703125 -3.42289063 3.0640625 -2.70703125 2.453125 C-2.14371094 1.97359375 -1.58039063 1.4940625 -1 1 C-0.67 0.67 -0.34 0.34 0 0 Z " fill="#074B9D" transform="translate(258,340)"/>
<path d="M0 0 C9.9 0 19.8 0 30 0 C30 0.66 30 1.32 30 2 C30.66 2 31.32 2 32 2 C32 2.99 32 3.98 32 5 C20.78 5 9.56 5 -2 5 C-1.34 3.35 -0.68 1.7 0 0 Z " fill="#0B3F7A" transform="translate(24,635)"/>
<path d="M0 0 C0.76965088 0.08564209 1.53930176 0.17128418 2.33227539 0.25952148 C5.90865489 0.65553031 9.48556643 1.04652861 13.0625 1.4375 C14.27228516 1.57220703 15.48207031 1.70691406 16.72851562 1.84570312 C32.13002168 3.52066797 47.46204371 4.20240058 62.9375 4.5625 C64.69987686 4.60583315 66.46224674 4.64945129 68.22460938 4.69335938 C72.48299984 4.7988472 76.74146518 4.90051797 81 5 C81 5.33 81 5.66 81 6 C73.7552738 6.16781579 66.5104054 6.32778113 59.26538086 6.48217773 C56.79854365 6.53568795 54.33174536 6.59102393 51.86499023 6.64819336 C48.32804767 6.72985335 44.79101902 6.80503753 41.25390625 6.87890625 C40.14350479 6.90594131 39.03310333 6.93297638 37.88905334 6.96083069 C36.35757912 6.99097511 36.35757912 6.99097511 34.79516602 7.02172852 C33.43948265 7.05170677 33.43948265 7.05170677 32.05641174 7.08229065 C30 7 30 7 29 6 C27.35892758 5.79160985 25.71143707 5.63248275 24.0625 5.5 C19.21955403 5.10977702 19.21955403 5.10977702 17 4 C14.1245468 3.60684921 11.25888154 3.25350975 8.375 2.9375 C7.57320312 2.84662109 6.77140625 2.75574219 5.9453125 2.66210938 C3.96392132 2.43802347 1.98200695 2.2185725 0 2 C0 1.34 0 0.68 0 0 Z " fill="#0E468C" transform="translate(645,661)"/>
<path d="M0 0 C3.3 0 6.6 0 10 0 C10 0.66 10 1.32 10 2 C10.66 2 11.32 2 12 2 C12 1.34 12 0.68 12 0 C12.99 0 13.98 0 15 0 C15 0.66 15 1.32 15 2 C17.31 2 19.62 2 22 2 C22.33 2.99 22.66 3.98 23 5 C15.08 5 7.16 5 -1 5 C-0.67 3.35 -0.34 1.7 0 0 Z " fill="#0C417F" transform="translate(550,1003)"/>
<path d="M0 0 C1.12775345 0.00212242 1.12775345 0.00212242 2.27828979 0.00428772 C4.6829626 0.0098916 7.08754277 0.02244468 9.4921875 0.03515625 C11.12109241 0.04017075 12.74999877 0.04473375 14.37890625 0.04882812 C18.37503577 0.05986228 22.37109592 0.07712946 26.3671875 0.09765625 C26.8621875 1.58265625 26.8621875 1.58265625 27.3671875 3.09765625 C15.1571875 3.09765625 2.9471875 3.09765625 -9.6328125 3.09765625 C-9.6328125 2.43765625 -9.6328125 1.77765625 -9.6328125 1.09765625 C-6.56686656 -0.43531672 -3.36169397 -0.0236583 0 0 Z " fill="#0C3F7B" transform="translate(265.6328125,348.90234375)"/>
<path d="M0 0 C6.6 0 13.2 0 20 0 C20 0.66 20 1.32 20 2 C14.7265625 5.22265625 14.7265625 5.22265625 13 6 C12.34 5.67 11.68 5.34 11 5 C11 4.34 11 3.68 11 3 C10.071875 3.309375 9.14375 3.61875 8.1875 3.9375 C6.125 4.625 4.0625 5.3125 2 6 C1.34 5.67 0.68 5.34 0 5 C0 3.35 0 1.7 0 0 Z " fill="#0C407C" transform="translate(550,1072)"/>
<path d="M0 0 C22.44 0 44.88 0 68 0 C68 0.33 68 0.66 68 1 C46.22 1 24.44 1 2 1 C1.67 2.32 1.34 3.64 1 5 C0.01 5.33 -0.98 5.66 -2 6 C-1.34 4.02 -0.68 2.04 0 0 Z " fill="#10498A" transform="translate(753,964)"/>
<path d="M0 0 C1.11544189 0.26184082 2.23088379 0.52368164 3.38012695 0.79345703 C4.58862305 1.07060547 5.79711914 1.34775391 7.04223633 1.63330078 C8.30487305 1.93623047 9.56750977 2.23916016 10.8684082 2.55126953 C12.14264648 2.84646484 13.41688477 3.14166016 14.72973633 3.44580078 C17.88294947 4.17800758 21.03293239 4.92191879 24.1809082 5.67626953 C22.5309082 6.99626953 20.8809082 8.31626953 19.1809082 9.67626953 C14.3059082 7.92626953 14.3059082 7.92626953 13.1809082 5.67626953 C11.00355758 4.9820709 11.00355758 4.9820709 8.4309082 4.55126953 C7.56981445 4.38369141 6.7087207 4.21611328 5.8215332 4.04345703 C1.71195879 3.47200733 -1.83348263 3.4953483 -5.8190918 4.67626953 C-5.8190918 3.68626953 -5.8190918 2.69626953 -5.8190918 1.67626953 C-2.8190918 -0.32373047 -2.8190918 -0.32373047 0 0 Z " fill="#084D91" transform="translate(601.819091796875,651.32373046875)"/>
<path d="M0 0 C0.99 0.33 1.98 0.66 3 1 C3.79681402 5.38247712 4.13998781 9.66950639 4.25 14.125 C4.27578125 15.11757812 4.3015625 16.11015625 4.328125 17.1328125 C3.95099385 20.4282204 2.87807591 22.30150145 1 25 C-0.27861615 22.44276771 -0.11336609 20.63262898 -0.09765625 17.7734375 C-0.09443359 16.7421875 -0.09121094 15.7109375 -0.08789062 14.6484375 C-0.07951172 13.56820313 -0.07113281 12.48796875 -0.0625 11.375 C-0.05798828 10.28703125 -0.05347656 9.1990625 -0.04882812 8.078125 C-0.03701776 5.38536211 -0.02054778 2.69270812 0 0 Z " fill="#0E488A" transform="translate(600,1027)"/>
<path d="M0 0 C0 0.66 0 1.32 0 2 C-1.7015625 2.2165625 -1.7015625 2.2165625 -3.4375 2.4375 C-6.80777201 2.61171478 -6.80777201 2.61171478 -8 4 C-14.17825512 4.40292968 -19.95914243 3.22346483 -26 2 C-26 1.67 -26 1.34 -26 1 C-17.32685006 0.39739901 -8.70044116 -0.1882307 0 0 Z " fill="#0C4383" transform="translate(754,664)"/>
<path d="M0 0 C0.66 0 1.32 0 2 0 C2.72767003 1.23884319 3.43154815 2.49168341 4.125 3.75 C4.51945313 4.44609375 4.91390625 5.1421875 5.3203125 5.859375 C6 8 6 8 5.15625 10.0625 C4.7746875 10.701875 4.393125 11.34125 4 12 C3.61709538 13.99110401 3.27395385 15.99100513 3 18 C2.67 18 2.34 18 2 18 C0.59545452 11.88019467 -0.23268915 6.28260706 0 0 Z " fill="#0D4990" transform="translate(672,140)"/>
<path d="M0 0 C0 0.66 0 1.32 0 2 C-0.9590625 2.1546875 -0.9590625 2.1546875 -1.9375 2.3125 C-2.618125 2.539375 -3.29875 2.76625 -4 3 C-4.33 3.99 -4.66 4.98 -5 6 C-6.98 6 -8.96 6 -11 6 C-10.67 5.01 -10.34 4.02 -10 3 C-11.65 3 -13.3 3 -15 3 C-10.05614216 0.25341231 -5.60239722 -0.13028831 0 0 Z " fill="#0B4990" transform="translate(218,512)"/>
<path d="M0 0 C3.6875 -0.3125 3.6875 -0.3125 7 0 C7.33 1.32 7.66 2.64 8 4 C0.57142857 6.42857143 0.57142857 6.42857143 -3 5 C-1.9375 2.5 -1.9375 2.5 0 0 Z " fill="#0A4C93" transform="translate(721,826)"/>
<path d="M0 0 C0 0.66 0 1.32 0 2 C0.66 2 1.32 2 2 2 C2.33 2.66 2.66 3.32 3 4 C5.11846285 4.68729254 5.11846285 4.68729254 7.5625 5.125 C8.38878906 5.29257812 9.21507812 5.46015625 10.06640625 5.6328125 C10.70449219 5.75398438 11.34257813 5.87515625 12 6 C11.67 6.66 11.34 7.32 11 8 C4.07 6.35 -2.86 4.7 -10 3 C-10 2.67 -10 2.34 -10 2 C-3.375 0 -3.375 0 0 0 Z " fill="#0A4283" transform="translate(607,491)"/>
<path d="M0 0 C0.33 0 0.66 0 1 0 C1.24878997 2.43694274 1.47463404 4.87238389 1.6875 7.3125 C1.79674805 8.34793945 1.79674805 8.34793945 1.90820312 9.40429688 C2.32991135 14.53921472 2.32991135 14.53921472 0.58203125 16.98046875 C-1 18 -1 18 -2 18 C-2.23268915 11.71739294 -1.40454548 6.11980533 0 0 Z " fill="#0A3E7E" transform="translate(674,98)"/>
<path d="M0 0 C5.28 0.33 10.56 0.66 16 1 C16 1.33 16 1.66 16 2 C13.93827387 2.33808686 11.8755797 2.67027361 9.8125 3 C8.08966797 3.2784375 8.08966797 3.2784375 6.33203125 3.5625 C3.49584607 3.93489477 0.85280436 4.08596021 -2 4 C-2 3.34 -2 2.68 -2 2 C-1.34 2 -0.68 2 0 2 C0 1.34 0 0.68 0 0 Z " fill="#0A4884" transform="translate(674,836)"/>
<path d="M0 0 C0.7734375 0.03738281 1.546875 0.07476562 2.34375 0.11328125 C3.50390625 0.15001953 3.50390625 0.15001953 4.6875 0.1875 C6.84375 0.42578125 6.84375 0.42578125 9.84375 1.42578125 C9.84375 2.08578125 9.84375 2.74578125 9.84375 3.42578125 C4.89375 3.75578125 -0.05625 4.08578125 -5.15625 4.42578125 C-2.15625 0.42578125 -2.15625 0.42578125 0 0 Z " fill="#0B4C90" transform="translate(261.15625,345.57421875)"/>
<path d="M0 0 C0 0.66 0 1.32 0 2 C-5.27593716 4.23827637 -10.23011265 6 -16 6 C-16 6.66 -16 7.32 -16 8 C-17.32 7.34 -18.64 6.68 -20 6 C-17.23113877 4.99422987 -14.46015896 3.99519853 -11.6875 3 C-10.90181641 2.71382812 -10.11613281 2.42765625 -9.30664062 2.1328125 C-8.54931641 1.86210937 -7.79199219 1.59140625 -7.01171875 1.3125 C-6.31522217 1.06113281 -5.61872559 0.80976563 -4.90112305 0.55078125 C-3 0 -3 0 0 0 Z " fill="#074587" transform="translate(1118,238)"/>
<path d="M0 0 C2.29633824 3.44450737 2.54016485 5.93812283 3 10 C1.35 10 -0.3 10 -2 10 C-2.25 3.375 -2.25 3.375 0 0 Z " fill="#0F4480" transform="translate(893,1198)"/>
<path d="M0 0 C0.33 0 0.66 0 1 0 C1 5.61 1 11.22 1 17 C-0.5994614 13.80107719 -1.42595236 11.64537424 -2.125 8.25 C-2.29257812 7.45078125 -2.46015625 6.6515625 -2.6328125 5.828125 C-2.75398437 5.22484375 -2.87515625 4.6215625 -3 4 C-2.34 4 -1.68 4 -1 4 C-0.67 2.68 -0.34 1.36 0 0 Z " fill="#044E92" transform="translate(591,1134)"/>
<path d="M0 0 C-4.18586481 3.18923033 -6.70558305 4.50423019 -12 4 C-12 4.99 -12 5.98 -12 7 C-14.97 6.505 -14.97 6.505 -18 6 C-15.05442083 4.03628055 -12.24961274 2.70234663 -9 1.3125 C-7.4221875 0.62607422 -7.4221875 0.62607422 -5.8125 -0.07421875 C-3 -1 -3 -1 0 0 Z " fill="#0E4B90" transform="translate(939,615)"/>
<path d="M0 0 C0 0.66 0 1.32 0 2 C-0.99 2 -1.98 2 -3 2 C-3 2.66 -3 3.32 -3 4 C-6.4352048 6.29013653 -7.985331 6.17842973 -12 6 C-12.33 5.34 -12.66 4.68 -13 4 C-11.39850114 3.32694982 -9.79368971 2.66177773 -8.1875 2 C-7.29417969 1.62875 -6.40085937 1.2575 -5.48046875 0.875 C-3 0 -3 0 0 0 Z " fill="#0C4A94" transform="translate(1114,506)"/>
<path d="M0 0 C2.64 0 5.28 0 8 0 C8.66 1.32 9.32 2.64 10 4 C6.7 3.67 3.4 3.34 0 3 C0 2.01 0 1.02 0 0 Z " fill="#0D4887" transform="translate(642,500)"/>
<path d="M0 0 C0.66 0 1.32 0 2 0 C2 0.66 2 1.32 2 2 C3.32 2 4.64 2 6 2 C5.01 4.97 4.02 7.94 3 11 C1.04783565 7.09567131 0.49360009 4.27786748 0 0 Z " fill="#094180" transform="translate(608,1208)"/>
<path d="M0 0 C1.29065057 3.8719517 0.22324098 6.44232601 -0.9375 10.1875 C-1.23043945 11.16879883 -1.23043945 11.16879883 -1.52929688 12.16992188 C-2.01182563 13.78227407 -2.50490205 15.39146289 -3 17 C-3.33 17 -3.66 17 -4 17 C-4.02698189 15.37509046 -4.04638757 13.75005367 -4.0625 12.125 C-4.07410156 11.22007813 -4.08570313 10.31515625 -4.09765625 9.3828125 C-4 7 -4 7 -3 5 C-2.34 5 -1.68 5 -1 5 C-0.67 3.35 -0.34 1.7 0 0 Z " fill="#0C4585" transform="translate(777,1042)"/>
<path d="M0 0 C2.27076842 -0.02699725 4.54162821 -0.04639453 6.8125 -0.0625 C8.07707031 -0.07410156 9.34164063 -0.08570313 10.64453125 -0.09765625 C14 0 14 0 17 1 C17 1.66 17 2.32 17 3 C5.47835991 2.03644647 5.47835991 2.03644647 0 1 C0 0.67 0 0.34 0 0 Z " fill="#0F478C" transform="translate(491,837)"/>
<path d="M0 0 C2 3 2 3 2 7 C1.01 7.495 1.01 7.495 0 8 C-0.65772428 11.02934491 -0.65772428 11.02934491 -1 14 C-1.99 14.33 -2.98 14.66 -4 15 C-3.79503906 14.25234375 -3.59007812 13.5046875 -3.37890625 12.734375 C-3.10949219 11.74953125 -2.84007812 10.7646875 -2.5625 9.75 C-2.29566406 8.77546875 -2.02882813 7.8009375 -1.75390625 6.796875 C-1.14455416 4.53627347 -0.55761745 2.27377991 0 0 Z " fill="#044A92" transform="translate(716,1075)"/>
<path d="M0 0 C2.11044382 3.16566573 2.75552077 5.51197415 3.625 9.1875 C3.88539063 10.27417969 4.14578125 11.36085938 4.4140625 12.48046875 C4.60742188 13.31191406 4.80078125 14.14335938 5 15 C4.01 15 3.02 15 2 15 C1.814375 13.14375 1.814375 13.14375 1.625 11.25 C1.24276451 8.06283052 0.47901405 5.85238424 -1 3 C-0.67 2.01 -0.34 1.02 0 0 Z " fill="#044687" transform="translate(827,985)"/>
<path d="M0 0 C3.3 0.33 6.6 0.66 10 1 C8.35 2.32 6.7 3.64 5 5 C2.525 4.01 2.525 4.01 0 3 C0 2.01 0 1.02 0 0 Z " fill="#043E81" transform="translate(616,656)"/>
<path d="M0 0 C0 3 0 3 -1.75 5.04296875 C-2.4925 5.75066406 -3.235 6.45835937 -4 7.1875 C-4.7425 7.90292969 -5.485 8.61835938 -6.25 9.35546875 C-6.8275 9.89816406 -7.405 10.44085938 -8 11 C-8.99 10.67 -9.98 10.34 -11 10 C-5.555 5.05 -5.555 5.05 0 0 Z " fill="#05468F" transform="translate(272,328)"/>
<path d="M0 0 C4.30764815 1.56641751 8.06171464 3.68336156 12 6 C8.67576157 7.10807948 7.32809422 6.76802174 4 6 C3.34 6 2.68 6 2 6 C2 4.68 2 3.36 2 2 C1.34 2 0.68 2 0 2 C0 1.34 0 0.68 0 0 Z " fill="#084A98" transform="translate(576,296)"/>
<path d="M0 0 C1.88391785 3.26545761 2.49287967 6.28111761 3 10 C0.5625 9.1875 0.5625 9.1875 -2 8 C-2.33 7.01 -2.66 6.02 -3 5 C-1.5625 2.3125 -1.5625 2.3125 0 0 Z " fill="#064C84" transform="translate(877,1146)"/>
<path d="M0 0 C1.98 0 3.96 0 6 0 C5.02471263 1.33617352 4.04466681 2.6688751 3.0625 4 C2.51722656 4.7425 1.97195313 5.485 1.41015625 6.25 C0.94480469 6.8275 0.47945312 7.405 0 8 C-0.33 8 -0.66 8 -1 8 C-0.67 5.36 -0.34 2.72 0 0 Z " fill="#10489B" transform="translate(1146,578)"/>
<path d="M0 0 C0 0.66 0 1.32 0 2 C-3.28519475 3.09506492 -5.73663415 3.09960608 -9.1875 3.0625 C-10.81751953 3.04896484 -10.81751953 3.04896484 -12.48046875 3.03515625 C-13.31191406 3.02355469 -14.14335938 3.01195312 -15 3 C-15 2.67 -15 2.34 -15 2 C-13.2508503 1.66223316 -11.50063855 1.32996329 -9.75 1 C-8.77546875 0.814375 -7.8009375 0.62875 -6.796875 0.4375 C-4 0 -4 0 0 0 Z " fill="#074586" transform="translate(805,656)"/>
<path d="M0 0 C0.89203125 0.00902344 1.7840625 0.01804687 2.703125 0.02734375 C3.37859375 0.03894531 4.0540625 0.05054688 4.75 0.0625 C1.63089144 1.85525866 -0.92682428 2.40540718 -4.5 2.6875 C-5.39203125 2.76226562 -6.2840625 2.83703125 -7.203125 2.9140625 C-7.87859375 2.96304687 -8.5540625 3.01203125 -9.25 3.0625 C-9.25 2.4025 -9.25 1.7425 -9.25 1.0625 C-6.09493858 0.12630187 -3.28413498 -0.0432123 0 0 Z " fill="#08457F" transform="translate(805.25,492.9375)"/>
<path d="M0 0 C1.28132813 0.10183594 2.56265625 0.20367187 3.8828125 0.30859375 C4.87023437 0.39238281 5.85765625 0.47617187 6.875 0.5625 C6.875 0.8925 6.875 1.2225 6.875 1.5625 C-1.045 2.0575 -1.045 2.0575 -9.125 2.5625 C-9.125 1.9025 -9.125 1.2425 -9.125 0.5625 C-6.07230154 -0.96384923 -3.36654311 -0.27544444 0 0 Z " fill="#053A6E" transform="translate(265.125,349.4375)"/>
<path d="M0 0 C0.66 0 1.32 0 2 0 C1.88512252 1.58409994 1.75765492 3.16728963 1.625 4.75 C1.52058594 6.07257813 1.52058594 6.07257813 1.4140625 7.421875 C1.00149945 9.99066382 0.28839043 11.75841015 -1 14 C-1.027193 12.41676312 -1.04648306 10.83338938 -1.0625 9.25 C-1.07410156 8.36828125 -1.08570313 7.4865625 -1.09765625 6.578125 C-1.00826198 4.2181162 -0.66912821 2.25501476 0 0 Z " fill="#054386" transform="translate(910,148)"/>
<path d="M0 0 C0 0.66 0 1.32 0 2 C-3.01324195 3.50662097 -5.68286377 3.17770373 -9 3 C-9.66 2.34 -10.32 1.68 -11 1 C-7.26562152 0.12132271 -3.83225427 -0.08912219 0 0 Z " fill="#083D78" transform="translate(218,512)"/>
<path d="M0 0 C1.485 0.99 1.485 0.99 3 2 C3.29296875 4.8203125 3.29296875 4.8203125 3.1875 8.125 C3.16042969 9.22070312 3.13335938 10.31640625 3.10546875 11.4453125 C3.07066406 12.28835937 3.03585937 13.13140625 3 14 C2.67 14 2.34 14 2 14 C1.66179834 12.4176994 1.32964061 10.83410625 1 9.25 C0.814375 8.36828125 0.62875 7.4865625 0.4375 6.578125 C0 4 0 4 0 0 Z " fill="#063C76" transform="translate(672,144)"/>
<path d="M0 0 C0.99 0.33 1.98 0.66 3 1 C1.515 6.445 1.515 6.445 0 12 C-2 8 -2 8 -2 6 C-1.34 6 -0.68 6 0 6 C-0.33 5.01 -0.66 4.02 -1 3 C-0.67 2.01 -0.34 1.02 0 0 Z " fill="#0A499B" transform="translate(740,1164)"/>
<path d="M0 0 C-0.33 0.99 -0.66 1.98 -1 3 C-4.3 2.67 -7.6 2.34 -11 2 C-4.2 -1.4 -4.2 -1.4 0 0 Z " fill="#07467E" transform="translate(891,353)"/>
<path d="M0 0 C-0.33 0.99 -0.66 1.98 -1 3 C-1.66 3 -2.32 3 -3 3 C-3 3.66 -3 4.32 -3 5 C-3.66 5 -4.32 5 -5 5 C-5.33 5.66 -5.66 6.32 -6 7 C-7.32 6.67 -8.64 6.34 -10 6 C-8.71283353 4.99421411 -7.42011342 3.99553202 -6.125 3 C-5.40570313 2.443125 -4.68640625 1.88625 -3.9453125 1.3125 C-2 0 -2 0 0 0 Z " fill="#0A4994" transform="translate(314,296)"/>
<path d="M0 0 C0 3.90838866 -1.50567876 5.11594107 -4 8 C-5.32 7.67 -6.64 7.34 -8 7 C-5.36 4.69 -2.72 2.38 0 0 Z " fill="#0B488E" transform="translate(20,627)"/>
<path d="M0 0 C0.66 0.66 1.32 1.32 2 2 C1.195625 2.61875 0.39125 3.2375 -0.4375 3.875 C-3.03874519 5.74164041 -3.03874519 5.74164041 -4 8 C-5.32 7.67 -6.64 7.34 -8 7 C-5.36 4.69 -2.72 2.38 0 0 Z " fill="#074892" transform="translate(1072,264)"/>
<path d="M0 0 C2.1640625 -0.29296875 2.1640625 -0.29296875 4.625 -0.1875 C5.44226563 -0.16042969 6.25953125 -0.13335938 7.1015625 -0.10546875 C8.04128906 -0.05326172 8.04128906 -0.05326172 9 0 C6.60236815 2.39763185 5.66726502 2.34280586 2.375 2.625 C1.55773437 2.69976563 0.74046875 2.77453125 -0.1015625 2.8515625 C-0.72804688 2.90054688 -1.35453125 2.94953125 -2 3 C-1.34 2.01 -0.68 1.02 0 0 Z " fill="#094078" transform="translate(720,829)"/>
<path d="M0 0 C0.33 0 0.66 0 1 0 C1.390625 5.95703125 1.390625 5.95703125 1 8 C-0.32 8.99 -1.64 9.98 -3 11 C-2.01 7.37 -1.02 3.74 0 0 Z " fill="#044486" transform="translate(722,1057)"/>
<path d="M0 0 C0.70125 0.144375 1.4025 0.28875 2.125 0.4375 C5.07556141 1.01478375 8.03270151 1.51695141 11 2 C11 2.99 11 3.98 11 5 C9.53932801 4.54917531 8.08151968 4.08906463 6.625 3.625 C5.81289063 3.36976563 5.00078125 3.11453125 4.1640625 2.8515625 C2 2 2 2 0 0 Z " fill="#0F4A92" transform="translate(378,803)"/>
<path d="M0 0 C2.97 0.495 2.97 0.495 6 1 C4.3545622 2.68762851 2.68711423 4.3540349 1 6 C0.67 6 0.34 6 0 6 C0 4.02 0 2.04 0 0 Z " fill="#0F47A0" transform="translate(1050,674)"/>
<path d="M0 0 C3.96 0.33 7.92 0.66 12 1 C12 1.33 12 1.66 12 2 C7.38 2.33 2.76 2.66 -2 3 C-1.34 2.01 -0.68 1.02 0 0 Z " fill="#0A4C90" transform="translate(7,639)"/>
<path d="M0 0 C2.31 0 4.62 0 7 0 C3.8745041 2.64465038 0.91211733 3.84414715 -3 5 C-2.67 4.34 -2.34 3.68 -2 3 C-1.34 3 -0.68 3 0 3 C0 2.01 0 1.02 0 0 Z " fill="#104B8A" transform="translate(843,237)"/>
<path d="M0 0 C-0.66 1.65 -1.32 3.3 -2 5 C-3.32 4.67 -4.64 4.34 -6 4 C-6 3.01 -6 2.02 -6 1 C-3 0 -3 0 0 0 Z " fill="#00497E" transform="translate(896,192)"/>
<path d="M0 0 C0.33 0.99 0.66 1.98 1 3 C-0.21484375 4.82421875 -0.21484375 4.82421875 -1.9375 6.6875 C-2.50339844 7.31011719 -3.06929687 7.93273438 -3.65234375 8.57421875 C-4.09707031 9.04472656 -4.54179688 9.51523437 -5 10 C-5.66 9.67 -6.32 9.34 -7 9 C-4.69 6.03 -2.38 3.06 0 0 Z " fill="#0C4899" transform="translate(699,48)"/>
<path d="M0 0 C0.99 0.99 1.98 1.98 3 3 C2.1875 4.9375 2.1875 4.9375 1 7 C0.01 7.33 -0.98 7.66 -2 8 C-1.34 5.36 -0.68 2.72 0 0 Z " fill="#044A87" transform="translate(729,1036)"/>
<path d="M0 0 C-0.33 0.99 -0.66 1.98 -1 3 C-3.97 3 -6.94 3 -10 3 C-6.41600853 0.61067235 -4.26804999 0 0 0 Z " fill="#034489" transform="translate(867,640)"/>
<path d="M0 0 C0 1.65 0 3.3 0 5 C-1.875 5.625 -1.875 5.625 -4 6 C-4.66 5.34 -5.32 4.68 -6 4 C-1.125 0 -1.125 0 0 0 Z " fill="#0F48A0" transform="translate(62,592)"/>
<path d="M0 0 C0.99 0 1.98 0 3 0 C3 3.3 3 6.6 3 10 C1.19669467 6.39338934 0.53400897 3.91606575 0 0 Z " fill="#0E3F85" transform="translate(832,1194)"/>
<path d="M0 0 C0.66 0 1.32 0 2 0 C2 0.66 2 1.32 2 2 C2.66 2 3.32 2 4 2 C4.33 3.65 4.66 5.3 5 7 C2.525 6.01 2.525 6.01 0 5 C0 3.35 0 1.7 0 0 Z " fill="#074E8D" transform="translate(651,1165)"/>
<path d="M0 0 C-5.75 4 -5.75 4 -8 4 C-8 3.01 -8 2.02 -8 1 C-3.375 -1.125 -3.375 -1.125 0 0 Z " fill="#0F499C" transform="translate(1018,706)"/>
<path d="M0 0 C0.33 0.66 0.66 1.32 1 2 C-0.4375 4.625 -0.4375 4.625 -2 7 C-2.99 6.67 -3.98 6.34 -5 6 C-3.35 4.02 -1.7 2.04 0 0 Z " fill="#10489C" transform="translate(1086,519)"/>
<path d="M0 0 C2.475 0.495 2.475 0.495 5 1 C4.67 1.99 4.34 2.98 4 4 C2.68 4 1.36 4 0 4 C0 2.68 0 1.36 0 0 Z " fill="#064AAF" transform="translate(580,301)"/>
<path d="M0 0 C-3.08888522 2.05925681 -3.70935927 2.2390374 -7.1875 2.125 C-9.0746875 2.063125 -9.0746875 2.063125 -11 2 C-6.98764085 -0.6749061 -4.6342454 -1.48957888 0 0 Z " fill="#104A91" transform="translate(408,251)"/>
<path d="M0 0 C0 0.66 0 1.32 0 2 C-2.99531539 2.99843846 -4.17255732 3.00732761 -7.1875 2.5625 C-8.445625 2.376875 -9.70375 2.19125 -11 2 C-11 1.67 -11 1.34 -11 1 C-7.26562152 0.12132271 -3.83225427 -0.08912219 0 0 Z " fill="#0D4382" transform="translate(420,248)"/>
<path d="M0 0 C1.80330533 3.60661066 2.46599103 6.08393425 3 10 C2.01 10 1.02 10 0 10 C0 6.7 0 3.4 0 0 Z " fill="#083882" transform="translate(909,94)"/>
<path d="M0 0 C-2 2 -2 2 -3.9453125 2.1953125 C-5.96354167 2.13020833 -7.98177083 2.06510417 -10 2 C-6.19832777 -0.53444815 -4.31588991 -1.33941411 0 0 Z " fill="#09488B" transform="translate(763,9)"/>
<path d="M0 0 C0.99 0.33 1.98 0.66 3 1 C3 3.97 3 6.94 3 10 C1.19669467 6.39338934 0.53400897 3.91606575 0 0 Z " fill="#024186" transform="translate(592,1152)"/>
<path d="M0 0 C1.875 0.1875 1.875 0.1875 4 1 C5.25 3.5625 5.25 3.5625 6 6 C3.37812506 4.95125002 2.20628639 4.35068687 0.75 1.875 C0.5025 1.25625 0.255 0.6375 0 0 Z " fill="#0D479D" transform="translate(640,984)"/>
<path d="M0 0 C-0.33 0.99 -0.66 1.98 -1 3 C-3.97 3 -6.94 3 -10 3 C-6.48579734 1.24289867 -3.89581553 0 0 0 Z " fill="#0E4A8B" transform="translate(838,648)"/>
<path d="M0 0 C0.66 0 1.32 0 2 0 C2.75 1.75 2.75 1.75 3 4 C1.0625 6.25 1.0625 6.25 -1 8 C-0.67 5.36 -0.34 2.72 0 0 Z " fill="#0D498B" transform="translate(1166,554)"/>
</svg>
