<?xml version="1.0" encoding="UTF-8"?>
<svg version="1.1" xmlns="http://www.w3.org/2000/svg" width="1024" height="1024">
<path d="M0 0 C0.33 0.66 0.66 1.32 1 2 C0.12646484 4.06518555 0.12646484 4.06518555 -1.2890625 6.63671875 C-1.81169678 7.59433105 -2.33433105 8.55194336 -2.87280273 9.53857422 C-3.45102783 10.57771973 -4.02925293 11.61686523 -4.625 12.6875 C-5.51264038 14.30422607 -5.51264038 14.30422607 -6.41821289 15.95361328 C-10.89300045 24.07827722 -15.46244239 32.14907051 -20.05126953 40.2097168 C-24.14155818 47.41696935 -28.09150505 54.69279029 -32 62 C-37.98585966 73.19070079 -44.1623814 84.26225502 -50.46118164 95.27954102 C-52.66376091 99.17345515 -54.82738296 103.08928933 -57 107 C90.18 107 237.36 107 389 107 C389 175.31 389 243.62 389 314 C203.87 314 18.74 314 -172 314 C-172.66 315.98 -173.32 317.96 -174 320 C-174.90698242 321.9050293 -174.90698242 321.9050293 -175.85546875 323.57421875 C-176.2230127 324.2280957 -176.59055664 324.88197266 -176.96923828 325.55566406 C-177.37126465 326.25916992 -177.77329102 326.96267578 -178.1875 327.6875 C-179.0850288 329.27972623 -179.98213614 330.87219008 -180.87890625 332.46484375 C-181.37277832 333.33866699 -181.86665039 334.21249023 -182.37548828 335.11279297 C-185.15570439 340.05400664 -187.89568947 345.01757577 -190.6427002 349.97729492 C-196.02565655 359.69163469 -201.4381542 369.38671381 -207 379 C-210 379 -210 379 -212.21185303 377.15563965 C-213.07232239 376.29152466 -213.93279175 375.42740967 -214.81933594 374.53710938 C-215.2962085 374.06228119 -215.77308105 373.587453 -216.2644043 373.09823608 C-217.84508528 371.52057154 -219.41473525 369.93239416 -220.984375 368.34375 C-222.083746 367.24131974 -223.18371017 366.13948072 -224.28424072 365.03820801 C-226.59545977 362.72237875 -228.90167635 360.40172035 -231.20410156 358.07714844 C-234.13696733 355.1161986 -237.07825263 352.16380587 -240.0229454 349.2146225 C-242.84657272 346.3857985 -245.66551814 343.55232616 -248.484375 340.71875 C-249.0148217 340.18642258 -249.5452684 339.65409515 -250.09178925 339.1056366 C-255.32167012 333.85182226 -260.51682043 328.60633519 -265.28765869 322.9239502 C-265.85273132 322.28904663 -266.41780396 321.65414307 -267 321 C-268.21263047 319.47897454 -268.21263047 319.47897454 -269.44975853 317.9272213 C-272.90866777 314.51438957 -275.79024818 314.27959812 -280.52715147 314.19933903 C-281.51353908 314.21292513 -282.49992669 314.22651123 -283.51620483 314.24050903 C-284.57488789 314.23129893 -285.63357095 314.22208883 -286.72433531 314.21259964 C-290.27164388 314.18900602 -293.81742844 314.20813476 -297.36474609 314.22705078 C-299.90748025 314.21888108 -302.45020711 314.20807932 -304.99291992 314.19483948 C-310.4670725 314.17226085 -315.94075203 314.16799489 -321.41492844 314.18042374 C-329.32949771 314.19836165 -337.24373298 314.18321503 -345.15827604 314.16004442 C-357.9995865 314.12334638 -370.84077322 314.11333169 -383.68212891 314.12011719 C-396.15482814 314.12665069 -408.62741629 314.12053652 -421.10009766 314.09765625 C-421.87700545 314.09624673 -422.65391325 314.09483721 -423.4543637 314.09338498 C-429.53047196 314.08226266 -435.60657873 314.07040779 -441.68268514 314.05832148 C-471.45517848 313.99928692 -501.22735064 314.00413681 -531 314 C-531 245.69 -531 177.38 -531 107 C-498.60585938 107.14824219 -466.21171875 107.29648437 -432.8359375 107.44921875 C-412.34631186 107.50067915 -391.85683706 107.54746097 -371.3671875 107.57226562 C-361.29003298 107.58469636 -351.21288028 107.59790415 -341.13572985 107.6133162 C-339.76892827 107.61540423 -338.40212665 107.61746435 -337.03532499 107.6194962 C-315.26125469 107.6520964 -293.48798506 107.74611145 -271.71427296 107.87236585 C-248.69318334 108.00551714 -225.67263451 108.06810722 -202.65110171 108.05671436 C-188.86462769 108.05216124 -175.08071724 108.10372255 -161.29478671 108.22731743 C-151.83823023 108.30670465 -142.38321653 108.31594299 -132.92644344 108.27035638 C-127.47095555 108.24611961 -122.02009112 108.25248324 -116.56518745 108.34227943 C-94.13738691 109.95404069 -94.13738691 109.95404069 -74.41080093 101.83141518 C-71.15479447 97.95642726 -68.91858626 93.8945466 -66.98786092 89.23263037 C-65.57587142 86.04144164 -63.66106172 83.66084863 -61.44921875 80.97265625 C-60.81886719 80.14830078 -60.18851563 79.32394531 -59.5390625 78.47460938 C-58.92804688 77.67861328 -58.31703125 76.88261719 -57.6875 76.0625 C-56.3264848 74.2828106 -54.96580459 72.50286498 -53.60546875 70.72265625 C-52.97688965 69.90039551 -52.34831055 69.07813477 -51.70068359 68.23095703 C-49.61795043 65.49882731 -47.55562592 62.752581 -45.5 60 C-42.16016382 55.52780032 -38.77922645 51.0885399 -35.38916016 46.65429688 C-28.80741776 38.04371265 -22.30475963 29.38359413 -15.89697266 20.64282227 C-2.79119959 2.79119959 -2.79119959 2.79119959 0 0 Z " fill="#0162A7" transform="translate(583,322)"/>
<path d="M0 0 C0.70970236 0.00262701 1.41940472 0.00525403 2.15061322 0.00796065 C2.90140498 0.0068068 3.65219674 0.00565296 4.42573977 0.00446415 C6.97373621 0.0017904 9.52167107 0.00632583 12.06966439 0.01075396 C13.90193896 0.01031841 15.73421347 0.00944381 17.56648764 0.00816479 C22.62653494 0.00591659 27.68656128 0.00994554 32.7466059 0.01494285 C38.19381031 0.01924253 43.64101345 0.01780128 49.08821908 0.01704058 C58.53420647 0.01651504 67.98018698 0.01966499 77.42617264 0.02527842 C91.08365294 0.03338933 104.7411299 0.03600822 118.39861234 0.03726641 C140.55446266 0.03945758 162.71030965 0.04611084 184.86615792 0.05556902 C206.39447804 0.06474873 227.92279717 0.07183466 249.45111886 0.07607684 C250.11434816 0.07620836 250.77757745 0.07633989 251.46090461 0.0764754 C258.7819899 0.07792471 266.1030752 0.07931656 273.42416051 0.08068487 C328.64726121 0.09105949 383.87035513 0.10949887 439.09345284 0.13100848 C439.09345284 63.82100848 439.09345284 127.51100848 439.09345284 193.13100848 C257.59345284 193.13100848 76.09345284 193.13100848 -110.90654716 193.13100848 C-106.05472897 183.42737211 -101.21827978 173.87645071 -95.90654716 164.44350848 C-94.93290663 162.70235353 -93.95928054 160.96119039 -92.98633537 159.21964678 C-92.31494108 158.01811375 -91.64313597 156.81681018 -90.97092399 155.61573443 C-87.19339924 148.86484209 -83.45463421 142.09267029 -79.71904716 135.31850848 C-79.38255149 134.70873156 -79.04605583 134.09895464 -78.69936332 133.47069964 C-74.34550454 125.58043539 -70.02034351 117.67507017 -65.71904716 109.75600848 C-61.73371244 102.41926283 -57.66037754 95.13789079 -53.53154716 87.88100848 C-48.25440731 78.6043105 -43.17079192 69.23423619 -38.13750419 59.82339129 C-33.8175887 51.76768853 -29.3566798 43.80240672 -24.8274456 35.86294207 C-19.83884974 27.08625549 -15.05889896 18.20137329 -10.31084403 9.29311785 C-9.46876396 7.71627215 -9.46876396 7.71627215 -8.60967216 6.10757098 C-8.11112724 5.16993914 -7.61258232 4.2323073 -7.09892997 3.26626238 C-5.10691213 -0.30093419 -4.01830534 0.01413892 0 0 Z " fill="#0062A7" transform="translate(525.9065471589565,435.8689915239811)"/>
<path d="M0 0 C0.33 0.66 0.66 1.32 1 2 C0.12646484 4.06518555 0.12646484 4.06518555 -1.2890625 6.63671875 C-1.81169678 7.59433105 -2.33433105 8.55194336 -2.87280273 9.53857422 C-3.45102783 10.57771973 -4.02925293 11.61686523 -4.625 12.6875 C-5.51264038 14.30422607 -5.51264038 14.30422607 -6.41821289 15.95361328 C-10.89300045 24.07827722 -15.46244239 32.14907051 -20.05126953 40.2097168 C-24.14155818 47.41696935 -28.09150505 54.69279029 -32 62 C-37.98585966 73.19070079 -44.1623814 84.26225502 -50.46118164 95.27954102 C-52.66376091 99.17345515 -54.82738296 103.08928933 -57 107 C90.18 107 237.36 107 389 107 C389 175.31 389 243.62 389 314 C203.87 314 18.74 314 -172 314 C-172.66 315.98 -173.32 317.96 -174 320 C-174.90698242 321.9050293 -174.90698242 321.9050293 -175.85546875 323.57421875 C-176.2230127 324.2280957 -176.59055664 324.88197266 -176.96923828 325.55566406 C-177.37126465 326.25916992 -177.77329102 326.96267578 -178.1875 327.6875 C-179.0850288 329.27972623 -179.98213614 330.87219008 -180.87890625 332.46484375 C-181.37277832 333.33866699 -181.86665039 334.21249023 -182.37548828 335.11279297 C-185.15570439 340.05400664 -187.89568947 345.01757577 -190.6427002 349.97729492 C-196.02565655 359.69163469 -201.4381542 369.38671381 -207 379 C-210 379 -210 379 -212.21185303 377.15563965 C-213.07232239 376.29152466 -213.93279175 375.42740967 -214.81933594 374.53710938 C-215.2962085 374.06228119 -215.77308105 373.587453 -216.2644043 373.09823608 C-217.84508528 371.52057154 -219.41473525 369.93239416 -220.984375 368.34375 C-222.083746 367.24131974 -223.18371017 366.13948072 -224.28424072 365.03820801 C-226.59545977 362.72237875 -228.90167635 360.40172035 -231.20410156 358.07714844 C-234.13696733 355.1161986 -237.07825263 352.16380587 -240.0229454 349.2146225 C-242.84657272 346.3857985 -245.66551814 343.55232616 -248.484375 340.71875 C-249.0148217 340.18642258 -249.5452684 339.65409515 -250.09178925 339.1056366 C-255.32167012 333.85182226 -260.51682043 328.60633519 -265.28765869 322.9239502 C-265.85273132 322.28904663 -266.41780396 321.65414307 -267 321 C-268.21263047 319.47897454 -268.21263047 319.47897454 -269.44975853 317.9272213 C-272.90866777 314.51438957 -275.79024818 314.27959812 -280.52715147 314.19933903 C-281.51353908 314.21292513 -282.49992669 314.22651123 -283.51620483 314.24050903 C-284.57488789 314.23129893 -285.63357095 314.22208883 -286.72433531 314.21259964 C-290.27164388 314.18900602 -293.81742844 314.20813476 -297.36474609 314.22705078 C-299.90748025 314.21888108 -302.45020711 314.20807932 -304.99291992 314.19483948 C-310.4670725 314.17226085 -315.94075203 314.16799489 -321.41492844 314.18042374 C-329.32949771 314.19836165 -337.24373298 314.18321503 -345.15827604 314.16004442 C-357.9995865 314.12334638 -370.84077322 314.11333169 -383.68212891 314.12011719 C-396.15482814 314.12665069 -408.62741629 314.12053652 -421.10009766 314.09765625 C-421.87700545 314.09624673 -422.65391325 314.09483721 -423.4543637 314.09338498 C-429.53047196 314.08226266 -435.60657873 314.07040779 -441.68268514 314.05832148 C-471.45517848 313.99928692 -501.22735064 314.00413681 -531 314 C-531 245.69 -531 177.38 -531 107 C-498.60585938 107.14824219 -466.21171875 107.29648437 -432.8359375 107.44921875 C-412.34631186 107.50067915 -391.85683706 107.54746097 -371.3671875 107.57226562 C-361.29003298 107.58469636 -351.21288028 107.59790415 -341.13572985 107.6133162 C-339.76892827 107.61540423 -338.40212665 107.61746435 -337.03532499 107.6194962 C-315.26125469 107.6520964 -293.48798506 107.74611145 -271.71427296 107.87236585 C-248.69318334 108.00551714 -225.67263451 108.06810722 -202.65110171 108.05671436 C-188.86462769 108.05216124 -175.08071724 108.10372255 -161.29478671 108.22731743 C-151.83823023 108.30670465 -142.38321653 108.31594299 -132.92644344 108.27035638 C-127.47095555 108.24611961 -122.02009112 108.25248324 -116.56518745 108.34227943 C-94.13738691 109.95404069 -94.13738691 109.95404069 -74.41080093 101.83141518 C-71.15479447 97.95642726 -68.91858626 93.8945466 -66.98786092 89.23263037 C-65.57587142 86.04144164 -63.66106172 83.66084863 -61.44921875 80.97265625 C-60.81886719 80.14830078 -60.18851563 79.32394531 -59.5390625 78.47460938 C-58.92804688 77.67861328 -58.31703125 76.88261719 -57.6875 76.0625 C-56.3264848 74.2828106 -54.96580459 72.50286498 -53.60546875 70.72265625 C-52.97688965 69.90039551 -52.34831055 69.07813477 -51.70068359 68.23095703 C-49.61795043 65.49882731 -47.55562592 62.752581 -45.5 60 C-42.16016382 55.52780032 -38.77922645 51.0885399 -35.38916016 46.65429688 C-28.80741776 38.04371265 -22.30475963 29.38359413 -15.89697266 20.64282227 C-2.79119959 2.79119959 -2.79119959 2.79119959 0 0 Z M-524 114 C-524 177.69 -524 241.38 -524 307 C-472.06373872 307.52454194 -472.06373872 307.52454194 -420.12695312 307.87890625 C-413.11921433 307.91414594 -406.11148278 307.95051403 -399.10375977 307.98876953 C-398.22550161 307.99351701 -397.34724346 307.99826449 -396.44237143 308.00315583 C-382.27827896 308.08136479 -368.11550688 308.22322521 -353.9521964 308.38875033 C-339.40782643 308.55730633 -324.86414579 308.6571046 -310.31883925 308.69359291 C-301.34855118 308.7182477 -292.38199341 308.79598371 -283.41285446 308.9424964 C-277.25535883 309.03793309 -271.09978012 309.06634161 -264.94159929 309.04302479 C-261.39119308 309.03153185 -257.84728044 309.04862695 -254.2980423 309.14569855 C-240.26825543 310.01409362 -240.26825543 310.01409362 -227.60095572 305.21636534 C-223.53236394 300.99599291 -220.68061405 296.28243478 -218.07083547 291.06166053 C-216.71575072 288.4527399 -215.03086053 286.23319117 -213.16015625 283.97265625 C-212.64259766 283.31652344 -212.12503906 282.66039062 -211.59179688 281.984375 C-211.08712891 281.35015625 -210.58246094 280.7159375 -210.0625 280.0625 C-205.25860023 273.9563057 -200.58325661 267.77340851 -196 261.5 C-191.43328652 255.25111496 -186.77744718 249.08929538 -182 243 C-176.596474 236.11105157 -171.3611074 229.11571238 -166.19067383 222.05053711 C-162.25004026 216.67362372 -158.24705938 211.35015638 -154.1875 206.0625 C-153.64399902 205.35456299 -153.10049805 204.64662598 -152.54052734 203.91723633 C-151.4987214 202.56052884 -150.45689297 201.20383862 -149.41503906 199.84716797 C-144.81454512 193.84176128 -140.29663452 187.77584846 -135.828125 181.671875 C-129.31028173 172.77445784 -122.70086419 163.96972356 -115.90405273 155.28320312 C-111.18379849 149.25002607 -106.57259009 143.14612195 -102 137 C-99.89816611 134.18575066 -97.79306666 131.37395709 -95.6875 128.5625 C-95.18331543 127.88751465 -94.67913086 127.2125293 -94.15966797 126.51708984 C-92.03530664 123.67963631 -89.90465616 120.88473356 -87.64453125 118.15234375 C-85.7976237 116.18658255 -85.7976237 116.18658255 -86 114 C-230.54 114 -375.08 114 -524 114 Z M-62 114 C-72.50810803 132.68108094 -83.00830041 151.35453364 -93.125 170.25 C-98.01962761 179.39194106 -103.04374549 188.44774926 -108.17626953 197.45800781 C-112.04082445 204.25821705 -115.79375576 211.11236819 -119.5 218 C-123.721676 225.84550289 -128.02764354 233.63372656 -132.4375 241.375 C-137.68724959 250.59376316 -142.74354787 259.90538493 -147.74291992 269.26196289 C-152.33008967 277.82215026 -157.07124673 286.28699108 -161.9140625 294.70507812 C-162.42195313 295.59259766 -162.92984375 296.48011719 -163.453125 297.39453125 C-164.12069824 298.55239136 -164.12069824 298.55239136 -164.80175781 299.73364258 C-166.03866885 302.07313832 -167.01716881 304.54292204 -168 307 C13.5 307 195 307 382 307 C382 243.31 382 179.62 382 114 C235.48 114 88.96 114 -62 114 Z " fill="#FAFEFD" transform="translate(583,322)"/>
<path d="M0 0 C0.33 0.66 0.66 1.32 1 2 C0.14233398 3.94165039 0.14233398 3.94165039 -1.25390625 6.34765625 C-1.77146484 7.25 -2.28902344 8.15234375 -2.82226562 9.08203125 C-3.39654297 10.06558594 -3.97082031 11.04914063 -4.5625 12.0625 C-5.77279425 14.1675901 -6.98240678 16.27307226 -8.19140625 18.37890625 C-8.82191895 19.47219238 -9.45243164 20.56547852 -10.10205078 21.69189453 C-13.1113595 26.93708789 -16.05442619 32.21883835 -19 37.5 C-24.0115485 46.46369459 -29.05189745 55.41059763 -34.11206055 64.34692383 C-37.45189201 70.24919047 -40.77179985 76.16218332 -44.07861328 82.08300781 C-52.86747608 97.81930454 -61.81263915 113.46358405 -70.77734375 129.10009766 C-71.88307101 131.02905545 -72.98839406 132.95824503 -74.09326172 134.88769531 C-75.0677916 136.58947238 -76.04327183 138.29070584 -77.02001953 139.99121094 C-79.88458455 144.99343265 -82.66760482 150.03529838 -85.41943359 155.1003418 C-88.24933281 160.2919873 -91.12662809 165.45732665 -94 170.625 C-94.32192322 171.20415161 -94.64384644 171.78330322 -94.9755249 172.38000488 C-104.62282032 189.73438394 -114.32439073 207.0578322 -124.10595703 224.33691406 C-128.09079724 231.3800558 -132.05007741 238.43722451 -136 245.5 C-141.0081977 254.45505549 -146.04202808 263.39508759 -151.09887695 272.32275391 C-154.54928958 278.41898923 -157.97367306 284.52922969 -161.38623047 290.64672852 C-167.45132332 301.51670992 -173.61952805 312.3119744 -180 323 C-183.02874459 321.64368172 -185.1251941 320.12353234 -187.46411133 317.77880859 C-188.12192093 317.12407562 -188.77973053 316.46934265 -189.45747375 315.79476929 C-190.15857773 315.0864798 -190.8596817 314.37819031 -191.58203125 313.6484375 C-192.31443527 312.91557526 -193.04683929 312.18271301 -193.80143738 311.42764282 C-195.35119847 309.87486171 -196.89852945 308.31965197 -198.44360352 306.76220703 C-200.78812668 304.39956172 -203.14041748 302.04488265 -205.49414062 299.69140625 C-207.00307417 298.17755167 -208.51155215 296.66324283 -210.01953125 295.1484375 C-210.71456253 294.4522934 -211.40959381 293.75614929 -212.12568665 293.03890991 C-216.06853124 289.05836706 -219.84189806 284.98125355 -223.49029541 280.72865295 C-225.53078585 278.39223571 -227.7146166 276.22458659 -229.9375 274.0625 C-231.30987145 272.72678621 -232.67017209 271.37807563 -234 270 C-234 269.67 -234 269.34 -234 269 C-222.12 269 -210.24 269 -198 269 C-197.34 267.68 -196.68 266.36 -196 265 C-189.71120166 255.62078359 -182.75499098 246.70625385 -175.890625 237.74682617 C-171.73166978 232.30732472 -167.66392155 226.82274835 -163.71337891 221.23071289 C-155.31944811 209.35751339 -146.58836619 197.73214726 -137.75 186.1875 C-132.97124092 179.94448302 -128.26070913 173.67292235 -123.7277832 167.24926758 C-115.83424862 156.07239181 -107.61317137 145.12452905 -99.38671875 134.19140625 C-93.27162625 126.01459681 -87.24375163 117.77242102 -81.19580078 109.54589844 C-74.68080015 100.68464245 -68.1456275 91.84083922 -61.53417969 83.05126953 C-55.29465252 74.74631473 -49.15228357 66.36965513 -43 58 C-35.89263337 48.33103612 -28.77391938 38.67281039 -21.55834961 29.08422852 C-15.79336461 21.41332001 -10.1153848 13.67820684 -4.43530273 5.94433594 C-2.96694013 3.95521537 -1.4858939 1.97604878 0 0 Z " fill="#D51B22" transform="translate(554,367)"/>
<path d="M0 0 C46.81081081 0 46.81081081 0 56.375 9.3125 C60.38855094 15.95029578 62.09117818 22.21295574 61 30 C59.12675331 36.28875673 55.26198861 40.25439727 50 44 C49.01 44.495 49.01 44.495 48 45 C48.59167969 45.3403125 49.18335938 45.680625 49.79296875 46.03125 C55.98379487 49.82855933 60.31982809 53.80674137 62.6015625 60.859375 C64.12111233 69.02323096 63.74078694 76.60613675 59.5390625 83.84765625 C53.93889041 91.67936899 46.11743194 94.72064202 37 97 C24.79 97 12.58 97 0 97 C0 64.99 0 32.98 0 0 Z " fill="#F4FBFD" transform="translate(539,484)"/>
<path d="M0 0 C19.47 0 38.94 0 59 0 C59 6.6 59 13.2 59 20 C58 21 58 21 54.58178711 21.11352539 C53.06363012 21.11336628 51.54546771 21.10767226 50.02734375 21.09765625 C49.22970108 21.0962413 48.43205841 21.09482635 47.61024475 21.09336853 C45.05262565 21.08775316 42.49509282 21.07519812 39.9375 21.0625 C38.20768355 21.05748698 36.47786574 21.05292373 34.74804688 21.04882812 C30.49863761 21.03862791 26.24941584 21.01905568 22 21 C22 26.28 22 31.56 22 37 C32.23 37 42.46 37 53 37 C53 43.93 53 50.86 53 58 C42.77 58 32.54 58 22 58 C22 63.94 22 69.88 22 76 C34.21 76 46.42 76 59 76 C59 82.93 59 89.86 59 97 C39.53 97 20.06 97 0 97 C0 64.99 0 32.98 0 0 Z " fill="#F9FCFE" transform="translate(210,484)"/>
<path d="M0 0 C4.47230291 1.11807573 5.08270263 1.85273633 7.9375 5.25 C11.67392751 9.56078744 15.56056494 13.62277271 19.625 17.625 C23.61719021 21.57006295 27.43216512 25.55995484 31.0625 29.84375 C34.30159372 33.44854785 37.78816144 36.80744976 41.23339844 40.21386719 C44.18248441 43.14248524 47.04524382 46.09023811 49.75 49.25 C53.60998697 53.70383112 57.83250008 57.83250008 62 62 C62.33 42.53 62.66 23.06 63 3 C68.61 3 74.22 3 80 3 C80 36 80 69 80 103 C75.86442648 101.96610662 75.53748794 101.87049147 73.125 98.8125 C69.64029781 94.62633179 65.87411364 90.81984155 62 87 C57.81074929 82.85580083 53.7732193 78.69074938 49.96875 74.1875 C46.51509439 70.35010488 42.79291687 66.77424795 39.12426758 63.14379883 C36.03583391 60.07521317 33.02018686 56.99782961 30.1875 53.6875 C26.35253397 49.25097067 22.14667077 45.14667077 18 41 C17.67 60.47 17.34 79.94 17 100 C11.39 100 5.78 100 0 100 C0 67 0 34 0 0 Z " fill="#F5FBFD" transform="translate(722,481)"/>
<path d="M0 0 C0.99 0 1.98 0 3 0 C3.24645264 0.58378418 3.49290527 1.16756836 3.74682617 1.76904297 C4.89037299 4.47245705 6.03891171 7.17372422 7.1875 9.875 C7.57486328 10.7928125 7.96222656 11.710625 8.36132812 12.65625 C10.69033806 18.12268653 13.16832175 23.46453404 15.89233398 28.74584961 C17.01255288 31.02554568 17.95739117 33.31953186 18.875 35.6875 C20.45892408 39.75367562 22.2237249 43.69600763 24.08203125 47.64453125 C24.70919925 48.98142591 25.33614156 50.31842646 25.96289062 51.65551758 C26.45934082 52.71338974 26.45934082 52.71338974 26.96582031 53.79263306 C29.89151944 60.03728438 32.78936261 66.2948768 35.68139648 72.55517578 C36.44250251 74.20026875 37.20555944 75.84446039 37.97045898 77.48779297 C39.09581679 79.906323 40.21456346 82.32781621 41.33203125 84.75 C41.67160355 85.47614502 42.01117584 86.20229004 42.36103821 86.95043945 C42.67864609 87.64226318 42.99625397 88.33408691 43.32348633 89.046875 C43.59993484 89.64338867 43.87638336 90.23990234 44.16120911 90.85449219 C45.32345914 93.82736249 46.12309365 96.93082776 47 100 C41.06 100 35.12 100 29 100 C27.845 97.56625 26.69 95.1325 25.5 92.625 C25.13455078 91.86010254 24.76910156 91.09520508 24.39257812 90.30712891 C22 85.22222222 22 85.22222222 22 83 C7.48 83 -7.04 83 -22 83 C-22.66 85.31 -23.32 87.62 -24 90 C-25.53320872 93.41487398 -27.27002312 96.67662336 -29 100 C-34.61 100 -40.22 100 -46 100 C-45.11231616 96.44926464 -44.01750297 93.6596005 -42.48046875 90.36328125 C-41.95864014 89.24099121 -41.43681152 88.11870117 -40.89916992 86.96240234 C-40.32874463 85.74570664 -39.75818464 84.52907408 -39.1875 83.3125 C-38.60050006 82.05427724 -38.01366959 80.79597539 -37.42700195 79.53759766 C-33.08496156 70.241175 -28.64502282 60.99305514 -24.17944336 51.75537109 C-20.91740612 44.98334045 -17.81123027 38.15975567 -14.80444336 31.27124023 C-12.29668078 25.56471351 -9.55695591 19.99619444 -6.73535156 14.43920898 C-4.32534365 9.68775581 -2.09832696 4.89609624 0 0 Z " fill="#F7FCFC" transform="translate(659,481)"/>
<path d="M0 0 C0 7.59 0 15.18 0 23 C-7.25 19.5625 -7.25 19.5625 -9.51269531 18.48266602 C-10.11178711 18.20092529 -10.71087891 17.91918457 -11.328125 17.62890625 C-11.9355957 17.34088135 -12.54306641 17.05285645 -13.16894531 16.75610352 C-16.96515038 15.1885239 -20.46989567 14.81681803 -24.5625 14.75 C-25.98755859 14.71132813 -25.98755859 14.71132813 -27.44140625 14.671875 C-30.02589262 14.79223072 -30.02589262 14.79223072 -31.80859375 16.3359375 C-33.72119297 19.0073056 -33.51051855 20.80925909 -33 24 C-29.05500611 28.76228346 -24.24772054 31.31784278 -18.875 34.25 C1.86659254 45.98511456 1.86659254 45.98511456 6.26171875 56.26171875 C8.91770347 66.11275201 7.05603589 75.34067427 2.3125 84.125 C-4.47677801 92.56572401 -11.35575603 96.50192122 -22 98 C-32.70748019 98.68909526 -42.81244585 97.39585138 -53 94 C-53.33972801 91.18814406 -53.67190212 88.37571764 -54 85.5625 C-54.09539062 84.77939453 -54.19078125 83.99628906 -54.2890625 83.18945312 C-54.91511131 77.75624381 -55.08759571 72.46925737 -55 67 C-54.05898438 67.48210937 -53.11796875 67.96421875 -52.1484375 68.4609375 C-50.89073478 69.0991747 -49.63291608 69.7371834 -48.375 70.375 C-47.44880859 70.85066406 -47.44880859 70.85066406 -46.50390625 71.3359375 C-40.68825507 74.27437178 -35.56117554 76.28418671 -28.9375 76.25 C-27.93589844 76.25515625 -26.93429687 76.2603125 -25.90234375 76.265625 C-22.88204441 75.9892046 -20.71285212 75.33489549 -18 74 C-15.91155305 71.43690601 -16 69.90208652 -16 66.5625 C-17.86261647 59.92692884 -24.23493832 57.14901398 -29.93945312 53.94335938 C-31.60017233 53.02535431 -33.2616276 52.10867954 -34.92382812 51.19335938 C-41.44908767 47.52192444 -47.95674854 43.5726624 -51.8125 36.9375 C-52.19019531 36.30714844 -52.56789063 35.67679688 -52.95703125 35.02734375 C-56.48355157 28.17242222 -57.17657698 21.85426073 -55.34765625 14.30859375 C-52.86735876 7.33608364 -49.15774638 2.10129555 -42.46484375 -1.28125 C-28.86434099 -6.88970475 -13.3382647 -6.66913235 0 0 Z " fill="#F8FCFD" transform="translate(345,486)"/>
<path d="M0 0 C5.61 0 11.22 0 17 0 C17.495 20.295 17.495 20.295 18 41 C26.41174085 32.6435953 26.41174085 32.6435953 34.2578125 23.9609375 C36.96556719 20.91319568 39.89547183 18.09630329 42.796875 15.234375 C45.42699702 12.56694628 47.8779584 9.78059462 50.296875 6.921875 C50.85890625 6.28765625 51.4209375 5.6534375 52 5 C52.68964844 4.10410156 53.37929688 3.20820313 54.08984375 2.28515625 C58.26837205 -0.99597 61.66440433 -0.56203484 66.8125 -0.3125 C67.69615234 -0.28994141 68.57980469 -0.26738281 69.49023438 -0.24414062 C71.6608891 -0.18547428 73.8306669 -0.09579979 76 0 C74.37915347 3.44401787 72.57463755 5.60671518 69.8125 8.25 C66.89341371 11.09914013 64.09011446 13.96370846 61.4375 17.0625 C58.44282544 20.5551343 55.24562463 23.77353883 51.96875 27 C49.45282019 29.5558652 47.1349853 32.25330432 44.8125 34.984375 C42.1935609 37.89681589 39.31186486 40.51689815 36.40625 43.140625 C34.75953662 44.87100082 34.75953662 44.87100082 35.22998047 46.91796875 C36.11031894 49.29828785 37.08965532 50.42250348 38.9140625 52.171875 C39.51089844 52.75453125 40.10773437 53.3371875 40.72265625 53.9375 C41.35042969 54.535625 41.97820313 55.13375 42.625 55.75 C46.38365366 59.37241249 50.05355742 62.99429499 53.4609375 66.953125 C57.10396275 71.18406479 61.01590022 75.09222397 65 79 C78.73684211 92.47368421 78.73684211 92.47368421 81 97 C77.48003799 97.20488457 73.96162121 97.32813842 70.4375 97.4375 C69.44685547 97.49615234 68.45621094 97.55480469 67.43554688 97.61523438 C60.16267153 97.78437101 60.16267153 97.78437101 56.83300781 95.53808594 C55.05725734 93.77544064 53.5216813 91.98375439 52 90 C50.9629682 88.78768653 49.92182136 87.5788704 48.875 86.375 C48.30523438 85.71242188 47.73546875 85.04984375 47.1484375 84.3671875 C44.36854832 81.30425506 41.44082531 78.40757686 38.5 75.5 C34.92523265 71.96564833 31.40512445 68.43944336 28.125 64.625 C24.93066162 60.91956748 21.4593372 57.4593372 18 54 C17.67 68.19 17.34 82.38 17 97 C11.39 97 5.78 97 0 97 C0 64.99 0 32.98 0 0 Z " fill="#F9FDFD" transform="translate(832,484)"/>
<path d="M0 0 C6.8329485 -0.50722157 13.64753662 -0.79761672 20.5 -0.6640625 C21.6240625 -0.64553223 22.748125 -0.62700195 23.90625 -0.60791016 C27.76776807 0.15086352 29.35575637 1.57571073 32 4.4375 C33.04836701 6.60223621 34.04149833 8.79400118 35 11 C36.86567383 14.12385416 38.87565774 17.1481055 40.875 20.1875 C41.59236328 21.33786743 41.59236328 21.33786743 42.32421875 22.51147461 C42.77152344 23.22311768 43.21882813 23.93476074 43.6796875 24.66796875 C44.07913574 25.31016357 44.47858398 25.9523584 44.89013672 26.61401367 C45.43951904 27.3000769 45.43951904 27.3000769 46 28 C46.66 28 47.32 28 48 28 C49.58897392 26.16045711 51.05063009 24.3208131 52.5 22.375 C52.93562256 21.79975586 53.37124512 21.22451172 53.82006836 20.63183594 C58.0093161 15.06617466 62.0497198 9.39397418 66.06640625 3.703125 C68 1 68 1 69 0 C70.78071246 -0.08726223 72.5648314 -0.10699041 74.34765625 -0.09765625 C75.42724609 -0.09443359 76.50683594 -0.09121094 77.61914062 -0.08789062 C79.32360352 -0.07532227 79.32360352 -0.07532227 81.0625 -0.0625 C82.77276367 -0.05573242 82.77276367 -0.05573242 84.51757812 -0.04882812 C87.34510351 -0.03699747 90.1725264 -0.0205141 93 0 C91.65960331 2.83221729 90.14803852 5.33371319 88.3125 7.87109375 C87.78374268 8.60360352 87.25498535 9.33611328 86.71020508 10.09082031 C86.1458374 10.86522461 85.58146973 11.63962891 85 12.4375 C84.41694092 13.24155273 83.83388184 14.04560547 83.2331543 14.87402344 C79.82646024 19.55304103 76.3607431 24.17777155 72.8125 28.75 C72.07563965 29.72622314 71.3387793 30.70244629 70.57958984 31.70825195 C68.9261904 33.87127897 67.25312625 35.79834626 65.38208008 37.79833984 C55.79408142 48.54008201 56.63966989 60.11833209 56.875 73.875 C56.87694552 76.12369858 56.87437703 78.37240582 56.8671875 80.62109375 C56.85108422 86.08413116 56.92746914 91.53458663 57 97 C49.41 97 41.82 97 34 97 C34.04382813 93.85339844 34.08765625 90.70679688 34.1328125 87.46484375 C34.14122938 84.36661544 34.13243776 81.26887027 34.12207031 78.1706543 C34.12399919 76.04198183 34.14340222 73.91324198 34.18164062 71.78491211 C34.41642419 57.91637732 33.45857994 48.38538487 24.31718445 37.61979675 C21.99476251 34.76381746 20.0560661 31.65213939 18.0625 28.5625 C15.41671729 24.56963695 12.73561681 20.60503003 9.99609375 16.67578125 C9.49650146 15.95769287 8.99690918 15.23960449 8.48217773 14.49975586 C7.51868464 13.11855336 6.55097063 11.74028237 5.57836914 10.36547852 C5.14000732 9.73697998 4.70164551 9.10848145 4.25 8.4609375 C3.86328125 7.91228027 3.4765625 7.36362305 3.078125 6.79833984 C1.77287118 4.62114337 0.89266311 2.37215077 0 0 Z " fill="#F6FCFD" transform="translate(107,484)"/>
<path d="M0 0 C2 1 2 1 2.7746582 2.82055664 C3.072189 5.69819195 2.32109617 6.57610449 0.60546875 8.87109375 C0.06736572 9.60320068 -0.4707373 10.33530762 -1.02514648 11.08959961 C-1.61497314 11.86440674 -2.2047998 12.63921387 -2.8125 13.4375 C-3.71174194 14.64901733 -3.71174194 14.64901733 -4.62915039 15.88500977 C-6.4046861 18.26824582 -8.19774372 20.636927 -10 23 C-10.6811084 23.89332031 -10.6811084 23.89332031 -11.37597656 24.8046875 C-13.35833188 27.39517573 -15.35461369 29.97455914 -17.35546875 32.55078125 C-22.42223041 39.11635447 -27.28027548 45.841937 -32.18554688 52.52832031 C-35.11805746 56.52303737 -38.05936661 60.51126088 -41 64.5 C-42.16671111 66.08330059 -43.33337772 67.66663396 -44.5 69.25 C-46.83333333 72.41666667 -49.16666667 75.58333333 -51.5 78.75 C-52.07733887 79.53358887 -52.65467773 80.31717773 -53.24951172 81.12451172 C-54.41758398 82.70963628 -55.58587868 84.29459694 -56.75439453 85.87939453 C-59.65139141 89.80901631 -62.5446114 93.74130352 -65.4296875 97.6796875 C-71.62103272 106.12203146 -77.88487605 114.50019486 -84.25 122.8125 C-89.08533326 129.1273009 -93.84030272 135.47736771 -98.42382812 141.97705078 C-101.45809234 146.27137047 -104.58539808 150.48844535 -107.75 154.6875 C-111.57762724 159.7681201 -115.39612993 164.85453489 -119.16333008 169.98022461 C-120.35004981 171.58205945 -121.55191433 173.17278002 -122.76831055 174.75219727 C-125.82018766 178.76247447 -128.37547899 182.58234772 -130.4765625 187.171875 C-133.16636927 192.57241275 -135.54037931 197.06283821 -141 200 C-152.79499533 202.9909 -165.97332085 201.7307862 -178 201 C-178 200.34 -178 199.68 -178 199 C-166.12 199 -154.24 199 -142 199 C-140.85422263 193.51320897 -140.85422263 193.51320897 -141.1875 189.97265625 C-140.93666766 185.99591859 -139.52829315 184.49390702 -137 181.4375 C-136.07927541 180.29804817 -135.16011729 179.1573295 -134.2421875 178.015625 C-133.72881836 177.38462891 -133.21544922 176.75363281 -132.68652344 176.10351562 C-129.4184942 172.02746758 -126.28268528 167.84918839 -123.125 163.6875 C-122.43277344 162.77863037 -121.74054688 161.86976074 -121.02734375 160.93334961 C-116.51458089 155.00717334 -112.03271796 149.05885677 -107.57421875 143.09179688 C-103.46147296 137.59527201 -99.29448646 132.14104947 -95.125 126.6875 C-89.2935233 119.05669942 -83.5565021 111.36328779 -77.87866211 103.61767578 C-73.75468931 97.99985427 -69.54327259 92.45966492 -65.27734375 86.94921875 C-60.36463631 80.58713621 -55.56425842 74.1419423 -50.81640625 67.65625 C-44.30270413 58.7638711 -37.6968492 49.96459229 -30.90405273 41.28320312 C-26.18375243 35.2499672 -21.57506528 29.14432829 -17 23 C-15.98762557 21.6518581 -14.97455804 20.3042365 -13.9609375 18.95703125 C-13.42936035 18.2501416 -12.8977832 17.54325195 -12.35009766 16.81494141 C-11.31639375 15.44055999 -10.28224534 14.06651274 -9.24755859 12.69287109 C-6.10167263 8.50506262 -3.02924572 4.27300536 0 0 Z " fill="#F3F2F5" transform="translate(497,436)"/>
<path d="M0 0 C0.70970236 0.00262701 1.41940472 0.00525403 2.15061322 0.00796065 C2.90140498 0.0068068 3.65219674 0.00565296 4.42573977 0.00446415 C6.97373621 0.0017904 9.52167107 0.00632583 12.06966439 0.01075396 C13.90193896 0.01031841 15.73421347 0.00944381 17.56648764 0.00816479 C22.62653494 0.00591659 27.68656128 0.00994554 32.7466059 0.01494285 C38.19381031 0.01924253 43.64101345 0.01780128 49.08821908 0.01704058 C58.53420647 0.01651504 67.98018698 0.01966499 77.42617264 0.02527842 C91.08365294 0.03338933 104.7411299 0.03600822 118.39861234 0.03726641 C140.55446266 0.03945758 162.71030965 0.04611084 184.86615792 0.05556902 C206.39447804 0.06474873 227.92279717 0.07183466 249.45111886 0.07607684 C250.11434816 0.07620836 250.77757745 0.07633989 251.46090461 0.0764754 C258.7819899 0.07792471 266.1030752 0.07931656 273.42416051 0.08068487 C328.64726121 0.09105949 383.87035513 0.10949887 439.09345284 0.13100848 C439.09345284 63.82100848 439.09345284 127.51100848 439.09345284 193.13100848 C257.59345284 193.13100848 76.09345284 193.13100848 -110.90654716 193.13100848 C-106.95671119 190.4977845 -103.5926282 190.86432758 -99.01031932 190.90053019 C-98.08500576 190.89991087 -97.15969219 190.89929156 -96.20633882 190.89865348 C-93.0766413 190.89903765 -89.94717323 190.91383894 -86.81751212 190.92846331 C-84.56278303 190.93171907 -82.30805253 190.93409406 -80.05332163 190.93565938 C-73.83479801 190.94254561 -67.61636614 190.96200114 -61.3978779 190.98342022 C-55.38761977 191.00217373 -49.37735205 191.01153347 -43.36707411 191.02109273 C-31.06881985 191.0409794 -18.77060428 191.07021713 -6.47238311 191.10474429 C5.70822401 191.13891082 17.88882972 191.16894566 30.0694603 191.193436 C30.82619943 191.19495982 31.58293855 191.19648365 32.36260916 191.19805365 C36.20554669 191.2057705 40.04848436 191.21341328 43.8914221 191.22102754 C71.12634834 191.27512316 98.36124579 191.33852245 125.59613839 191.40737566 C152.0580432 191.47425342 178.5199525 191.53692784 204.98188058 191.5938991 C205.79724052 191.59565621 206.61260047 191.59741332 207.4526683 191.59922367 C215.64068563 191.61686428 223.82870315 191.63441929 232.0167208 191.65191159 C248.69735395 191.68754886 265.37798585 191.72375747 282.05861703 191.76031145 C282.82560211 191.76199152 283.59258719 191.76367159 284.38281424 191.76540257 C307.89657032 191.81693915 331.41031998 191.87089788 354.92406502 191.92724261 C356.90051261 191.9319772 356.90051261 191.9319772 358.91688842 191.93680744 C385.3090799 192.00017678 411.70126562 192.06589691 438.09345284 192.13100848 C438.09345284 129.10100848 438.09345284 66.07100848 438.09345284 1.13100848 C219.30345284 1.62600848 219.30345284 1.62600848 -3.90654716 2.13100848 C-4.23654716 3.45100848 -4.56654716 4.77100848 -4.90654716 6.13100848 C-5.89654716 6.46100848 -6.88654716 6.79100848 -7.90654716 7.13100848 C-5.63702358 0.01983459 -5.63702358 0.01983459 0 0 Z " fill="#115C8E" transform="translate(525.9065471589565,435.8689915239811)"/>
<path d="M0 0 C0.33 0 0.66 0 1 0 C0.96269381 8.49415219 -1.80760832 14.36443341 -6 21.625 C-6.59232422 22.68332031 -7.18464844 23.74164063 -7.79492188 24.83203125 C-9.51421322 27.89726077 -11.25453491 30.94962185 -13 34 C-13.80369686 35.42356943 -14.60600962 36.84792219 -15.40625 38.2734375 C-16.45228478 40.13665694 -17.49947426 41.99907314 -18.55371094 43.85766602 C-21.86965087 49.71418796 -25.05801064 55.63774616 -28.25 61.5625 C-33.09861807 70.55736624 -38.07009571 79.47291773 -43.12402344 88.35375977 C-47.56882592 96.18555513 -51.86016478 104.0942237 -56.12719727 112.02392578 C-59.81362859 118.85679789 -63.5945678 125.62906222 -67.4375 132.375 C-72.18359187 140.70789362 -76.78334187 149.10980936 -81.3125 157.5625 C-82.48547405 159.74229677 -83.65864379 161.92198825 -84.83203125 164.1015625 C-86.71991113 167.60930027 -88.59279575 171.12398116 -90.44921875 174.6484375 C-91.1317783 175.91201753 -91.8152639 177.17509812 -92.5 178.4375 C-93.31984375 179.98244141 -93.31984375 179.98244141 -94.15625 181.55859375 C-96.40901764 184.54160175 -98.6136235 185.51163291 -102 187 C-103.95216435 188.95216435 -104.84826645 190.53199953 -106 193 C-107 190 -107 190 -105.97119141 187.6184082 C-105.43671387 186.68859131 -104.90223633 185.75877441 -104.3515625 184.80078125 C-103.7630249 183.7648584 -103.1744873 182.72893555 -102.56811523 181.66162109 C-101.92688721 180.55641113 -101.28565918 179.45120117 -100.625 178.3125 C-99.97668213 177.17635254 -99.32836426 176.04020508 -98.66040039 174.86962891 C-97.36393317 172.59818865 -96.06362165 170.32893783 -94.75927734 168.06201172 C-92.62523771 164.34772848 -90.52801701 160.61386711 -88.4375 156.875 C-83.77370611 148.58162436 -79.08706946 140.30109281 -74.40234375 132.01953125 C-72.14006083 128.0194303 -69.88256052 124.01668704 -67.62890625 120.01171875 C-62.31174613 110.56980692 -56.98068224 101.14230406 -51.42114258 91.84033203 C-47.02073588 84.44764877 -42.99210301 76.85110611 -38.921875 69.2734375 C-33.78546489 59.71282547 -28.6157275 50.20070234 -23.03588867 40.89111328 C-17.95340036 32.34714317 -13.22167279 23.60269545 -8.4440918 14.88598633 C-8.10689117 14.27130997 -7.76969055 13.65663361 -7.42227173 13.02333069 C-6.4972251 11.33618045 -5.57387526 9.6481002 -4.65063477 7.95996094 C-3.15020846 5.26935769 -1.65799372 2.59679248 0 0 Z " fill="#EBF1F4" transform="translate(519,431)"/>
<path d="M0 0 C0.495 0.99 0.495 0.99 1 2 C0.12646484 4.06518555 0.12646484 4.06518555 -1.2890625 6.63671875 C-1.81169678 7.59433105 -2.33433105 8.55194336 -2.87280273 9.53857422 C-3.45102783 10.57771973 -4.02925293 11.61686523 -4.625 12.6875 C-5.21676025 13.76531738 -5.80852051 14.84313477 -6.41821289 15.95361328 C-10.89300045 24.07827722 -15.46244239 32.14907051 -20.05126953 40.2097168 C-24.14156266 47.41697724 -28.09121905 54.69293744 -32 62 C-36.64371921 70.67416604 -41.35598748 79.3038422 -46.1875 87.875 C-46.72826172 88.83792969 -47.26902344 89.80085938 -47.82617188 90.79296875 C-48.33083984 91.68371094 -48.83550781 92.57445312 -49.35546875 93.4921875 C-50.01518677 94.65790283 -50.01518677 94.65790283 -50.68823242 95.84716797 C-52.01564812 98.02568121 -53.34732736 100.05460611 -55 102 C-55.66 102 -56.32 102 -57 102 C-57.66 103.32 -58.32 104.64 -59 106 C-59.66 106 -60.32 106 -61 106 C-61 106.66 -61 107.32 -61 108 C-61.66 107.67 -62.32 107.34 -63 107 C-58.9189644 99.70838691 -54.83623335 92.41772587 -50.75195312 85.12792969 C-49.31794192 82.56765215 -47.88520535 80.00667013 -46.453125 77.4453125 C-40.73783765 67.23744907 -34.88273907 57.11214849 -29 47 C-32.89629207 51.4352122 -36.54978094 55.96107744 -40 60.75 C-40.96193356 62.0731392 -41.92418885 63.39604455 -42.88671875 64.71875 C-43.39122559 65.41355469 -43.89573242 66.10835938 -44.41552734 66.82421875 C-47.77820517 71.4418127 -51.1737693 76.03538225 -54.5715332 80.62719727 C-57.71133175 84.87460271 -60.82363693 89.13884113 -63.8984375 93.43359375 C-64.53289795 94.31305664 -65.1673584 95.19251953 -65.82104492 96.09863281 C-67.04528653 97.79671758 -68.26188706 99.50034305 -69.4699707 101.20996094 C-70.29501099 102.34933105 -70.29501099 102.34933105 -71.13671875 103.51171875 C-71.61842529 104.18678467 -72.10013184 104.86185059 -72.59643555 105.55737305 C-73.05961182 106.03343994 -73.52278809 106.50950684 -74 107 C-74.99 107 -75.98 107 -77 107 C-76.34 106.01 -75.68 105.02 -75 104 C-75.17474854 103.35361572 -75.34949707 102.70723145 -75.52954102 102.04125977 C-76 100 -76 100 -75.05053711 98.19506836 C-74.5478833 97.58284424 -74.04522949 96.97062012 -73.52734375 96.33984375 C-72.96466797 95.63859375 -72.40199219 94.93734375 -71.82226562 94.21484375 C-70.88930664 93.08755859 -70.88930664 93.08755859 -69.9375 91.9375 C-68.63183612 90.3130266 -67.32851873 88.68666491 -66.02734375 87.05859375 C-65.35558105 86.22183105 -64.68381836 85.38506836 -63.99169922 84.52294922 C-60.88856262 80.59210666 -57.94471898 76.55008769 -55 72.5 C-50.43487256 66.24999399 -45.77734662 60.08928462 -41 54 C-35.6731542 47.20764152 -30.50960722 40.31322638 -25.41259766 33.34716797 C-20.79999643 27.05513999 -16.10553849 20.8287818 -11.375 14.625 C-10.69969238 13.73901123 -10.02438477 12.85302246 -9.32861328 11.94018555 C-6.26093993 7.92535932 -3.18221891 3.9252751 0 0 Z " fill="#FDF8F9" transform="translate(583,322)"/>
<path d="M0 0 C17.82178218 -0.44554455 17.82178218 -0.44554455 24 3 C28.33284569 7.5550429 29.30312524 10.57255293 29.21484375 16.68359375 C28.78193847 21.35109979 26.8976732 24.14836132 23.5625 27.3125 C20.01206539 29.65059108 17.09117892 30.12947863 12.890625 30.09765625 C12.21032227 30.09515869 11.53001953 30.09266113 10.82910156 30.09008789 C9.97799805 30.08098389 9.12689453 30.07187988 8.25 30.0625 C5.5275 30.041875 2.805 30.02125 0 30 C0 20.1 0 10.2 0 0 Z " fill="#0363A7" transform="translate(556,537)"/>
<path d="M0 0 C17.90322581 0 17.90322581 0 24 3.9375 C26.84947676 6.87602291 26.98686715 8.79644082 27.25 12.875 C27.1866633 16.71742642 26.46097657 18.94499461 24 22 C18.71388932 26.75749961 14.69687036 27.14006844 7.8125 27.0625 C5.234375 27.041875 2.65625 27.02125 0 27 C0 18.09 0 9.18 0 0 Z " fill="#0562A5" transform="translate(556,497)"/>
<path d="M0 0 C1.125 3.75 1.125 3.75 0 6 C-97.02 6 -194.04 6 -294 6 C-294.33 5.34 -294.66 4.68 -295 4 C-198.31 4 -101.62 4 -2 4 C-1.34 2.68 -0.68 1.36 0 0 Z " fill="#E6FEFE" transform="translate(355,625)"/>
<path d="M0 0 C2.6687885 3.23943552 4.26395987 6.56229407 5.91796875 10.41015625 C6.18007645 11.0188707 6.44218414 11.62758514 6.7122345 12.25474548 C7.26191694 13.5353053 7.80888368 14.8170339 8.35327148 16.09985352 C9.18770639 18.06298555 10.03366336 20.02086227 10.88085938 21.97851562 C11.41475964 23.22626443 11.94798629 24.47430173 12.48046875 25.72265625 C12.96410889 26.85453369 13.44774902 27.98641113 13.94604492 29.15258789 C15 32 15 32 15 35 C5.1 35 -4.8 35 -15 35 C-13.55855236 30.67565708 -12.06386127 26.7145774 -10.21484375 22.578125 C-9.68439453 21.38832031 -9.15394531 20.19851563 -8.60742188 18.97265625 C-8.05080298 17.73176109 -7.49416212 16.49087578 -6.9375 15.25 C-6.37670555 13.99360006 -5.81615642 12.73709059 -5.25585938 11.48046875 C-1.1979831 2.3959662 -1.1979831 2.3959662 0 0 Z " fill="#0A66A7" transform="translate(659,515)"/>
<path d="M0 0 C0.99 0 1.98 0 3 0 C3.82350295 6.06324232 2.15749326 8.88995117 -1.48828125 13.68554688 C-2.11089844 14.46994141 -2.73351562 15.25433594 -3.375 16.0625 C-4.57184758 17.61470298 -5.7671178 19.16812328 -6.9609375 20.72265625 C-7.61304199 21.53412109 -8.26514648 22.34558594 -8.93701172 23.18164062 C-10.52623094 25.35275858 -11.77114168 27.34597177 -13.03564453 29.69335938 C-18.29340736 38.9857096 -18.29340736 38.9857096 -23.02911377 40.76040649 C-28.69711525 41.90108038 -34.38113144 41.61797615 -40.125 41.375 C-41.86190957 41.35295635 -43.59891217 41.33727756 -45.3359375 41.328125 C-49.56193544 41.29213912 -53.7773575 41.17002647 -58 41 C-58 40.34 -58 39.68 -58 39 C-46.12 39 -34.24 39 -22 39 C-20.84650526 33.51751649 -20.84650526 33.51751649 -21.2109375 30.00390625 C-20.92032991 25.86543895 -19.23996057 24.11970586 -16.625 20.9375 C-15.71178114 19.80635955 -14.79903534 18.67483704 -13.88671875 17.54296875 C-13.41282715 16.96466309 -12.93893555 16.38635742 -12.45068359 15.79052734 C-10.04898273 12.82619309 -7.7489294 9.78486357 -5.4375 6.75 C-1.16204128 1.16204128 -1.16204128 1.16204128 0 0 Z " fill="#F6F4F4" transform="translate(377,596)"/>
<path d="M0 0 C5.61 0 11.22 0 17 0 C17.33 14.19 17.66 28.38 18 43 C17.34 43 16.68 43 16 43 C16 29.14 16 15.28 16 1 C11.05 1 6.1 1 1 1 C1 32.02 1 63.04 1 95 C5.62 95 10.24 95 15 95 C15 80.81 15 66.62 15 52 C15.99 52.33 16.98 52.66 18 53 C17.67 67.52 17.34 82.04 17 97 C11.39 97 5.78 97 0 97 C0 64.99 0 32.98 0 0 Z " fill="#D0F0FC" transform="translate(832,484)"/>
<path d="M0 0 C0.66 1.32 1.32 2.64 2 4 C1.34 4 0.68 4 0 4 C0.31831787 5.08498779 0.31831787 5.08498779 0.64306641 6.19189453 C1.08228729 9.64737922 0.3997019 10.91857222 -1.2890625 13.9296875 C-1.81258301 14.8794043 -2.33610352 15.82912109 -2.87548828 16.80761719 C-3.74149658 18.32597168 -3.74149658 18.32597168 -4.625 19.875 C-5.20878418 20.92333008 -5.79256836 21.97166016 -6.39404297 23.05175781 C-8.2495141 26.37541951 -10.12478676 29.68744549 -12 33 C-13.22008164 35.1841525 -14.43885787 37.36903479 -15.65625 39.5546875 C-17.87064547 43.51435284 -20.08516126 47.47388316 -22.3203125 51.421875 C-22.76648926 52.21174805 -23.21266602 53.00162109 -23.67236328 53.81542969 C-25.00398446 56.00655626 -26.33795005 58.04562971 -28 60 C-28.66 60 -29.32 60 -30 60 C-30.66 61.32 -31.32 62.64 -32 64 C-32.66 64 -33.32 64 -34 64 C-34 64.66 -34 65.32 -34 66 C-34.66 65.67 -35.32 65.34 -36 65 C-31.9189644 57.70838691 -27.83623335 50.41772587 -23.75195312 43.12792969 C-22.31794192 40.56765215 -20.88520535 38.00667013 -19.453125 35.4453125 C-18.73991015 34.17169193 -18.02638715 32.89824385 -17.3125 31.625 C-16.97154297 31.0168042 -16.63058594 30.4086084 -16.27929688 29.78198242 C-14.24236055 26.16356492 -12.1708485 22.56693117 -10.078125 18.98046875 C-9.57756592 18.12179199 -9.07700684 17.26311523 -8.5612793 16.37841797 C-7.58683741 14.71016838 -6.60930142 13.04372092 -5.62817383 11.37939453 C-3.45604853 7.66376118 -1.43075295 4.07968984 0 0 Z " fill="#FDEEED" transform="translate(556,364)"/>
<path d="M0 0 C0.495 0.99 0.495 0.99 1 2 C0.14233398 3.94165039 0.14233398 3.94165039 -1.25390625 6.34765625 C-2.03145264 7.70358887 -2.03145264 7.70358887 -2.82470703 9.08691406 C-3.39817871 10.06885742 -3.97165039 11.05080078 -4.5625 12.0625 C-5.75998918 14.14142355 -6.95657053 16.22087023 -8.15234375 18.30078125 C-8.78124512 19.39084473 -9.41014648 20.4809082 -10.05810547 21.60400391 C-12.02716565 25.04750745 -13.9588485 28.50942724 -15.87890625 31.98046875 C-16.81851196 33.67707642 -16.81851196 33.67707642 -17.77709961 35.40795898 C-18.99331044 37.60755074 -20.20644912 39.80884444 -21.41625977 42.01196289 C-21.97240967 43.01348389 -22.52855957 44.01500488 -23.1015625 45.046875 C-23.58963379 45.93213867 -24.07770508 46.81740234 -24.58056641 47.72949219 C-25.88526854 49.81647702 -27.18104815 51.35816193 -29 53 C-29.66 51.02 -30.32 49.04 -31 47 C-32.32 47.66 -33.64 48.32 -35 49 C-33.41954605 44.00807839 -30.44609828 40.42257754 -27.25 36.375 C-26.07529163 34.86447086 -24.90217349 33.35270397 -23.73046875 31.83984375 C-23.11993652 31.05206543 -22.5094043 30.26428711 -21.88037109 29.45263672 C-18.12694995 24.55691239 -14.49403603 19.57206237 -10.84667969 14.59716797 C-7.26159515 9.7081279 -3.64825736 4.84211274 0 0 Z " fill="#D02026" transform="translate(554,367)"/>
<path d="M0 0 C1.98 0 3.96 0 6 0 C6.33 1.65 6.66 3.3 7 5 C6.566875 4.525625 6.13375 4.05125 5.6875 3.5625 C3.97690387 1.76313043 3.97690387 1.76313043 1 1 C1 34 1 67 1 101 C6.61 101 12.22 101 18 101 C18 101.33 18 101.66 18 102 C15.20880221 102.22114415 12.4178788 102.42743301 9.625 102.625 C8.8309375 102.68945312 8.036875 102.75390625 7.21875 102.8203125 C5.14971776 102.96058587 3.07374464 102.98758237 1 103 C-1 101 -1 101 -1.23047829 99.17654991 C-1.22126036 98.43358477 -1.21204243 97.69061962 -1.20254517 96.92514038 C-1.19688034 96.07256149 -1.19121552 95.2199826 -1.18537903 94.34156799 C-1.16883774 93.40433395 -1.15229645 92.46709991 -1.13525391 91.50146484 C-1.12579239 90.51606216 -1.11633087 89.53065948 -1.10658264 88.51539612 C-1.07281183 85.24705824 -1.02472194 81.97909248 -0.9765625 78.7109375 C-0.95040499 76.44936099 -0.92513722 74.18777402 -0.90072632 71.92617798 C-0.83398121 65.96495367 -0.75510877 60.00394834 -0.67376709 54.04290771 C-0.59293878 47.96358668 -0.5235016 41.88413692 -0.453125 35.8046875 C-0.31327426 23.86963734 -0.16062009 11.93478745 0 0 Z M18 41 C19.98 42.65 21.96 44.3 24 46 C23.34 46.66 22.68 47.32 22 48 C21.67 47.67 21.34 47.34 21 47 C19.75660024 49.48679952 19.84172513 51.21797088 19.79467773 54.00048828 C19.77473251 55.04141632 19.75478729 56.08234436 19.73423767 57.15481567 C19.71752518 58.28192963 19.70081268 59.40904358 19.68359375 60.5703125 C19.66281265 61.72167694 19.64203156 62.87304138 19.62062073 64.05929565 C19.55508335 67.7478014 19.49622072 71.43638003 19.4375 75.125 C19.39431877 77.62110138 19.35070462 80.1171953 19.30664062 82.61328125 C19.19939769 88.74210981 19.09763911 94.87101133 19 101 C18.67 101 18.34 101 18 101 C18 81.2 18 61.4 18 41 Z " fill="#0D5E8F" transform="translate(721,480)"/>
<path d="M0 0 C9.9 0 19.8 0 30 0 C30 0.33 30 0.66 30 1 C20.43 1 10.86 1 1 1 C1 6.28 1 11.56 1 17 C13.54 17 26.08 17 39 17 C39.185625 20.609375 39.37125 24.21875 39.5625 27.9375 C39.62381104 29.07695068 39.68512207 30.21640137 39.74829102 31.39038086 C39.79139404 32.28120361 39.83449707 33.17202637 39.87890625 34.08984375 C39.9260376 35.00628662 39.97316895 35.92272949 40.02172852 36.86694336 C40 39 40 39 39 40 C37.15881971 40.09381302 35.31402359 40.11743954 33.47045898 40.11352539 C32.28931015 40.11344986 31.10816132 40.11337433 29.89122009 40.11329651 C28.6058284 40.10813522 27.32043671 40.10297394 25.99609375 40.09765625 C24.68794205 40.0962413 23.37979034 40.09482635 22.03199768 40.09336853 C18.54837141 40.0895441 15.06478661 40.07971446 11.58117676 40.06866455 C8.02873292 40.05844882 4.47628241 40.05387056 0.92382812 40.04882812 C-6.05079832 40.03809212 -13.02539717 40.0210166 -20 40 C-20 39.67 -20 39.34 -20 39 C-1.19 39 17.62 39 37 39 C37 32.07 37 25.14 37 18 C24.79 18 12.58 18 0 18 C0 12.06 0 6.12 0 0 Z " fill="#125D92" transform="translate(232,542)"/>
<path d="M0 0 C19.47 0 38.94 0 59 0 C59 6.6 59 13.2 59 20 C58 21 58 21 54.58178711 21.11352539 C53.06363012 21.11336628 51.54546771 21.10767226 50.02734375 21.09765625 C49.22970108 21.0962413 48.43205841 21.09482635 47.61024475 21.09336853 C45.05262565 21.08775316 42.49509282 21.07519812 39.9375 21.0625 C38.20768355 21.05748698 36.47786574 21.05292373 34.74804688 21.04882812 C30.49866447 21.03777875 26.24934688 21.02050386 22 21 C22 20.34 22 19.68 22 19 C33.55 19 45.1 19 57 19 C57 13.06 57 7.12 57 1 C38.19 1 19.38 1 0 1 C0 0.67 0 0.34 0 0 Z " fill="#B1D7EA" transform="translate(210,484)"/>
<path d="M0 0 C2.475 0.495 2.475 0.495 5 1 C4.14751605 2.29277786 3.29286927 3.58412941 2.4375 4.875 C1.72400391 5.95394531 1.72400391 5.95394531 0.99609375 7.0546875 C0.33738281 8.02664063 -0.32132812 8.99859375 -1 10 C-1.36665771 10.82902832 -1.73331543 11.65805664 -2.11108398 12.51220703 C-3.78478985 15.73877358 -5.15826985 17.70303832 -8 20 C-14.06378085 21.81378112 -20.68189483 21.26120839 -26.9375 21.125 C-28.6881519 21.12305645 -30.43881494 21.12561563 -32.18945312 21.1328125 C-36.46152662 21.14061047 -40.72884732 21.08696558 -45 21 C-45 20.34 -45 19.68 -45 19 C-33.12 19 -21.24 19 -9 19 C-7.78034746 13.58698203 -7.78034746 13.58698203 -8.375 10.5 C-7.82027771 6.80185139 -5.50653367 5.53530558 -2.62890625 3.33203125 C-0.86833905 2.07775666 -0.86833905 2.07775666 0 0 Z " fill="#F4D5D6" transform="translate(364,616)"/>
<path d="M0 0 C0.33 0.66 0.66 1.32 1 2 C0.01538086 4.16381836 0.01538086 4.16381836 -1.53515625 6.83984375 C-2.37916992 8.31227539 -2.37916992 8.31227539 -3.24023438 9.81445312 C-3.84158203 10.84505859 -4.44292969 11.87566406 -5.0625 12.9375 C-6.22087941 14.94613769 -7.37843423 16.95525115 -8.53515625 18.96484375 C-9.39391357 20.45153564 -9.39391357 20.45153564 -10.27001953 21.96826172 C-12.91714409 26.60726719 -15.46551612 31.29872638 -18 36 C-19 33 -19 33 -18 30 C-18.99 30 -19.98 30 -21 30 C-19.68586338 26.27334391 -18.10477616 23.63767653 -15.5625 20.625 C-11.88063077 16.14979983 -8.41265018 11.55599548 -5 6.875 C-4.50701416 6.19904785 -4.01402832 5.5230957 -3.50610352 4.82666016 C-2.33566352 3.21903796 -1.1675731 1.60970555 0 0 Z " fill="#C82B32" transform="translate(554,367)"/>
<path d="M0 0 C1.32 0.66 2.64 1.32 4 2 C1.92276588 4.92105438 -0.16284515 7.83602792 -2.25 10.75 C-2.83652344 11.575 -3.42304688 12.4 -4.02734375 13.25 C-4.60097656 14.04921875 -5.17460937 14.8484375 -5.765625 15.671875 C-6.28930664 16.4050293 -6.81298828 17.13818359 -7.35253906 17.89355469 C-9.08767627 20.11210298 -10.97186509 22.04898049 -13 24 C-13.33 23.01 -13.66 22.02 -14 21 C-13.01 20.01 -12.02 19.02 -11 18 C-11.66 18 -12.32 18 -13 18 C-11.71792611 12.87170445 -10.10554699 11.17246813 -6 8 C-3.88074927 5.41700735 -1.92713317 2.72844971 0 0 Z " fill="#FDF0F0" transform="translate(407,559)"/>
<path d="M0 0 C0.33 0 0.66 0 1 0 C1 31.68 1 63.36 1 96 C0.67 96 0.34 96 0 96 C-0.01030746 94.88135559 -0.02061493 93.76271118 -0.03123474 92.61016846 C-0.12893664 82.07460018 -0.23166776 71.53909139 -0.33933926 61.00362015 C-0.39453379 55.58706949 -0.44794832 50.17051341 -0.49731445 44.75390625 C-0.54500908 39.52785281 -0.59735385 34.30186484 -0.65294075 29.07588959 C-0.67334117 27.08079404 -0.69205807 25.08568056 -0.70907402 23.09055328 C-0.73316914 20.29890961 -0.76321685 17.50738933 -0.79467773 14.71582031 C-0.8004332 13.88863495 -0.80618866 13.06144958 -0.81211853 12.209198 C-0.82699782 7.993364 -0.82699782 7.993364 -1.63488865 3.88138962 C-1.75537539 3.26053104 -1.87586214 2.63967247 -2 2 C-1.34 1.34 -0.68 0.68 0 0 Z " fill="#0F5E93" transform="translate(538,484)"/>
<path d="M0 0 C7 6 7 6 9 9 C8.01 9.495 8.01 9.495 7 10 C6.67 9.34 6.34 8.68 6 8 C5.01 7.67 4.02 7.34 3 7 C1.93621331 11.31772244 1.8705784 15.50742256 1.90234375 19.92578125 C1.90446617 21.04716743 1.90446617 21.04716743 1.90663147 22.19120789 C1.91220236 24.56501365 1.9247494 26.93872303 1.9375 29.3125 C1.94251877 30.92773301 1.94708101 32.5429675 1.95117188 34.15820312 C1.96216225 38.10550555 1.97940668 42.05273647 2 46 C-1.74110761 46 -5.4560694 45.74115796 -9.1875 45.5 C-9.93708984 45.45230469 -10.68667969 45.40460937 -11.45898438 45.35546875 C-13.30604344 45.23782168 -15.15302904 45.11902229 -17 45 C-17 44.67 -17 44.34 -17 44 C-11.39 44 -5.78 44 0 44 C0 29.48 0 14.96 0 0 Z " fill="#105C8B" transform="translate(849,537)"/>
<path d="M0 0 C0.66 0.33 1.32 0.66 2 1 C1.690625 1.598125 1.38125 2.19625 1.0625 2.8125 C-0.10209704 5.08956772 -0.10209704 5.08956772 -1 8 C-1.99 8.495 -1.99 8.495 -3 9 C-3 10.98 -3 12.96 -3 15 C-3.88945312 15.22429688 -4.77890625 15.44859375 -5.6953125 15.6796875 C-9.55482174 17.22166637 -11.20838828 18.97354978 -13.875 22.125 C-14.65617187 23.03507813 -15.43734375 23.94515625 -16.2421875 24.8828125 C-16.82226562 25.58148437 -17.40234375 26.28015625 -18 27 C-18.66 26.67 -19.32 26.34 -20 26 C-19.410979 25.24493164 -19.410979 25.24493164 -18.81005859 24.47460938 C-16.99761186 22.15033152 -15.18630086 19.82517093 -13.375 17.5 C-12.75753906 16.70851563 -12.14007813 15.91703125 -11.50390625 15.1015625 C-7.61496425 10.10734225 -3.77767392 5.07893109 0 0 Z " fill="#F2F7F9" transform="translate(416,544)"/>
<path d="M0 0 C0.33 0.66 0.66 1.32 1 2 C0.3503125 3.051875 0.3503125 3.051875 -0.3125 4.125 C-1.81808989 6.69007907 -2.42514548 8.35538435 -3.0625 11.1875 C-4 15 -4 15 -6 17 C-6.99 17 -7.98 17 -9 17 C-9.33 17.99 -9.66 18.98 -10 20 C-10.66 20.33 -11.32 20.66 -12 21 C-12.33 21.99 -12.66 22.98 -13 24 C-14.32 23.67 -15.64 23.34 -17 23 C-16.443125 22.26136719 -15.88625 21.52273438 -15.3125 20.76171875 C-10.1417969 13.88782797 -5.03728042 6.97258434 0 0 Z " fill="#EBF5F8" transform="translate(488,448)"/>
<path d="M0 0 C2.59875 -0.04125 5.1975 -0.0825 7.875 -0.125 C8.69210449 -0.14320801 9.50920898 -0.16141602 10.35107422 -0.18017578 C12.23495049 -0.19477217 14.11869312 -0.09943482 16 0 C16.66 0.66 17.32 1.32 18 2 C12.39 2 6.78 2 1 2 C1.14009116 6.14610213 1.28678753 10.29178241 1.4375 14.4375 C1.47681641 15.62150391 1.51613281 16.80550781 1.55664062 18.02539062 C1.59853516 19.15009766 1.64042969 20.27480469 1.68359375 21.43359375 C1.72025146 22.47572021 1.75690918 23.51784668 1.79467773 24.59155273 C1.73515341 26.9499826 1.73515341 26.9499826 3 28 C5.34987262 28.23527773 7.70556039 28.41386417 10.0625 28.5625 C11.35285156 28.64628906 12.64320313 28.73007812 13.97265625 28.81640625 C15.47119141 28.90728516 15.47119141 28.90728516 17 29 C17 29.33 17 29.66 17 30 C11.39 30 5.78 30 0 30 C0 20.1 0 10.2 0 0 Z " fill="#206697" transform="translate(556,537)"/>
<path d="M0 0 C1 2 1 2 0.1875 4.5 C-1 7 -1 7 -3 9 C-3.144375 10.11375 -3.28875 11.2275 -3.4375 12.375 C-3.99431773 15.96338094 -4.59615375 17.38712365 -7 20 C-8.98 19.67 -10.96 19.34 -13 19 C-9.40878958 12.12985833 -4.70778149 6.12615155 0 0 Z " fill="#F6F5F7" transform="translate(457,489)"/>
<path d="M0 0 C14.52 0 29.04 0 44 0 C43.67 0.66 43.34 1.32 43 2 C41.83428467 1.98952637 40.66856934 1.97905273 39.4675293 1.96826172 C35.14578315 1.93208278 30.82405041 1.90910719 26.50219727 1.89013672 C24.63108062 1.88007433 22.75997972 1.86642309 20.88891602 1.84912109 C18.20064409 1.82488316 15.51257994 1.81351937 12.82421875 1.8046875 C11.56782845 1.78920364 11.56782845 1.78920364 10.28605652 1.77340698 C5.34900507 1.76695383 5.34900507 1.76695383 1 4 C0.09899689 6.03977093 -0.50849292 8.09045585 -1.15625 10.22265625 C-1.4346875 10.80917969 -1.713125 11.39570312 -2 12 C-2.99 12.33 -3.98 12.66 -5 13 C-3.57070062 8.49220966 -1.88030995 4.38738988 0 0 Z " fill="#186196" transform="translate(637,564)"/>
<path d="M0 0 C1.98 0 3.96 0 6 0 C5.01 1.485 5.01 1.485 4 3 C3.34 3 2.68 3 2 3 C1.67 21.81 1.34 40.62 1 60 C0.67 60 0.34 60 0 60 C0 40.2 0 20.4 0 0 Z " fill="#ECFEFF" transform="translate(786,485)"/>
<path d="M0 0 C0.66 0.99 1.32 1.98 2 3 C1.57421875 4.9375 1.57421875 4.9375 0.6875 7 C0.40261719 7.680625 0.11773438 8.36125 -0.17578125 9.0625 C-0.44777344 9.701875 -0.71976563 10.34125 -1 11 C-1.33 11.99 -1.66 12.98 -2 14 C-2.99 14 -3.98 14 -5 14 C-4.67 14.99 -4.34 15.98 -4 17 C-4.66 17.99 -5.32 18.98 -6 20 C-6.66 20 -7.32 20 -8 20 C-8.103125 20.78375 -8.20625 21.5675 -8.3125 22.375 C-9 25 -9 25 -12 27 C-10.26460179 21.07570956 -7.55448391 15.6641012 -4.875 10.125 C-4.40707031 9.15046875 -3.93914063 8.1759375 -3.45703125 7.171875 C-2.30785155 4.77970501 -1.15542757 2.38915684 0 0 Z " fill="#E1F5FA" transform="translate(637,528)"/>
<path d="M0 0 C0.66 1.32 1.32 2.64 2 4 C1.34 4 0.68 4 0 4 C0.22558594 4.70511719 0.45117188 5.41023438 0.68359375 6.13671875 C1.1010403 9.91435232 -0.02484083 11.57268957 -1.9375 14.8125 C-2.50339844 15.78832031 -3.06929687 16.76414062 -3.65234375 17.76953125 C-4.09707031 18.50558594 -4.54179688 19.24164063 -5 20 C-5.99 19.34 -6.98 18.68 -8 18 C-7.35460508 14.80203193 -6.20384362 12.37275303 -4.5625 9.5625 C-2.77898135 6.43876502 -1.20676674 3.40088808 0 0 Z " fill="#FDF4F5" transform="translate(556,364)"/>
<path d="M0 0 C0.495 1.485 0.495 1.485 1 3 C-0.88631543 4.88631543 -4.14200693 4.24265292 -6.66015625 4.31640625 C-7.32462265 4.33718735 -7.98908905 4.35796844 -8.6736908 4.37937927 C-10.80318543 4.44493658 -12.93280668 4.50378785 -15.0625 4.5625 C-16.50326847 4.60567939 -17.94402399 4.64929349 -19.38476562 4.69335938 C-22.9230404 4.80062393 -26.46145869 4.90187371 -30 5 C-29.67 6.98 -29.34 8.96 -29 11 C-30.14926266 10.04578192 -31.29430541 9.08647955 -32.4375 8.125 C-33.07558594 7.59132813 -33.71367187 7.05765625 -34.37109375 6.5078125 C-36 5 -36 5 -37 3 C-25.12 3 -13.24 3 -1 3 C-0.67 2.01 -0.34 1.02 0 0 Z " fill="#BF272D" transform="translate(357,633)"/>
<path d="M0 0 C1 3 1 3 0 6 C-0.66 6 -1.32 6 -2 6 C-2.33 21.51 -2.66 37.02 -3 53 C-3.33 53 -3.66 53 -4 53 C-4.10161289 46.41647559 -4.1715547 39.83315423 -4.21972656 33.24902344 C-4.23981316 31.01033979 -4.2670878 28.77170842 -4.30175781 26.53320312 C-4.35040464 23.31106651 -4.37299874 20.08962499 -4.390625 16.8671875 C-4.41127014 15.87008759 -4.43191528 14.87298767 -4.45318604 13.84567261 C-4.45509637 7.89874592 -3.89352826 4.57388527 0 0 Z " fill="#126199" transform="translate(168,527)"/>
<path d="M0 0 C0.66 0 1.32 0 2 0 C0.63784946 3.62371148 -0.97476489 6.91384974 -2.9375 10.25 C-3.44152344 11.12140625 -3.94554687 11.9928125 -4.46484375 12.890625 C-6 15 -6 15 -9 16 C-9.33 15.01 -9.66 14.02 -10 13 C-9.34 12.34 -8.68 11.68 -8 11 C-7.35232207 8.42938689 -7.35232207 8.42938689 -7 6 C-6.34 6 -5.68 6 -5 6 C-4.67 5.01 -4.34 4.02 -4 3 C-1.9375 2.3125 -1.9375 2.3125 0 2 C0 1.34 0 0.68 0 0 Z " fill="#EAF8FB" transform="translate(445,570)"/>
<path d="M0 0 C0 3 0 3 -1 5 C-0.34 5 0.32 5 1 5 C0.34 6.98 -0.32 8.96 -1 11 C-2.98 11.33 -4.96 11.66 -7 12 C-7.33 13.32 -7.66 14.64 -8 16 C-8.99 15.34 -9.98 14.68 -11 14 C-9.35504034 11.85349184 -7.70907674 9.70776711 -6.0625 7.5625 C-5.59392578 6.95083984 -5.12535156 6.33917969 -4.64257812 5.70898438 C-1.11328125 1.11328125 -1.11328125 1.11328125 0 0 Z " fill="#E5F6FB" transform="translate(395,572)"/>
<path d="M0 0 C3.25847359 3.7028109 3.48468398 5.69639395 5 11 C-0.94 11 -6.88 11 -13 11 C-12.67 10.01 -12.34 9.02 -12 8 C-5.07 8.495 -5.07 8.495 2 9 C0.515 6.03 0.515 6.03 -1 3 C-0.67 2.01 -0.34 1.02 0 0 Z " fill="#CAEDFC" transform="translate(701,570)"/>
<path d="M0 0 C1.98 0.66 3.96 1.32 6 2 C6 9.59 6 17.18 6 25 C4.68 24.34 3.36 23.68 2 23 C2.66 22.67 3.32 22.34 4 22 C4 15.73 4 9.46 4 3 C2.68 2.67 1.36 2.34 0 2 C0 1.34 0 0.68 0 0 Z " fill="#C9EDFD" transform="translate(339,484)"/>
<path d="M0 0 C2.02054804 1.64169528 4.02043058 3.30911778 6 5 C6 5.33 6 5.66 6 6 C2.37515001 6.08681476 -1.24943443 6.14032721 -4.875 6.1875 C-6.42380859 6.22520508 -6.42380859 6.22520508 -8.00390625 6.26367188 C-8.99003906 6.27333984 -9.97617187 6.28300781 -10.9921875 6.29296875 C-12.35899658 6.31653442 -12.35899658 6.31653442 -13.75341797 6.34057617 C-14.49479004 6.22818604 -15.23616211 6.1157959 -16 6 C-16.66 5.01 -17.32 4.02 -18 3 C-11.73 3 -5.46 3 1 3 C0.67 2.01 0.34 1.02 0 0 Z " fill="#CAEFFD" transform="translate(907,575)"/>
<path d="M0 0 C1.12664062 0.02255859 2.25328125 0.04511719 3.4140625 0.06835938 C6.19405232 0.12725746 8.97135332 0.20945799 11.75 0.3125 C11.42 0.9725 11.09 1.6325 10.75 2.3125 C10.09926514 2.32708252 9.44853027 2.34166504 8.77807617 2.35668945 C5.83061694 2.43114549 2.88429358 2.52781266 -0.0625 2.625 C-1.08666016 2.64755859 -2.11082031 2.67011719 -3.16601562 2.69335938 C-4.14892578 2.72880859 -5.13183594 2.76425781 -6.14453125 2.80078125 C-7.05050049 2.82696533 -7.95646973 2.85314941 -8.88989258 2.88012695 C-11.6273485 3.38163046 -12.53237607 4.1772772 -14.25 6.3125 C-14.91 5.9825 -15.57 5.6525 -16.25 5.3125 C-12.78919693 -1.64196187 -6.78178821 -0.25569387 0 0 Z " fill="#CFECF8" transform="translate(188.25,483.6875)"/>
<path d="M0 0 C0.66 0 1.32 0 2 0 C2.33 7.26 2.66 14.52 3 22 C1.68 22.33 0.36 22.66 -1 23 C-0.67 15.41 -0.34 7.82 0 0 Z " fill="#246FA1" transform="translate(269,559)"/>
<path d="M0 0 C3.42931954 3.7559214 4.56429083 8.23466745 6 13 C5.34 12.67 4.68 12.34 4 12 C4 11.34 4 10.68 4 10 C3.01 9.67 2.02 9.34 1 9 C0.67 8.34 0.34 7.68 0 7 C-0.66 7 -1.32 7 -2 7 C-2.103125 7.763125 -2.20625 8.52625 -2.3125 9.3125 C-3.05790616 12.22636046 -3.84458939 13.02950397 -6 15 C-4.36041242 9.76727367 -2.61047965 4.84803364 0 0 Z " fill="#1B6897" transform="translate(659,515)"/>
<path d="M0 0 C0.66 0 1.32 0 2 0 C2 1.65 2 3.3 2 5 C1.071875 5.3403125 1.071875 5.3403125 0.125 5.6875 C-2.6711475 7.41453228 -2.85674272 8.95131391 -4 12 C-4.85726979 13.77948425 -5.7322722 15.55053724 -6.625 17.3125 C-7.07101562 18.19550781 -7.51703125 19.07851563 -7.9765625 19.98828125 C-8.48316406 20.98408203 -8.48316406 20.98408203 -9 22 C-9.99 22 -10.98 22 -12 22 C-8.04 14.74 -4.08 7.48 0 0 Z " fill="#156799" transform="translate(514,448)"/>
<path d="M0 0 C0.33 0.66 0.66 1.32 1 2 C0.19555664 3.78759766 0.19555664 3.78759766 -1.08984375 5.9140625 C-1.54423828 6.67460937 -1.99863281 7.43515625 -2.46679688 8.21875 C-2.95212891 9.0128125 -3.43746094 9.806875 -3.9375 10.625 C-4.41896484 11.42679687 -4.90042969 12.22859375 -5.39648438 13.0546875 C-6.59056765 15.04088542 -7.79195201 17.02227542 -9 19 C-10.32 18.34 -11.64 17.68 -13 17 C-6.565 8.585 -6.565 8.585 0 0 Z " fill="#C03445" transform="translate(554,367)"/>
<path d="M0 0 C1.55955444 3.11910889 0.62673502 5.63842127 0 9 C-1.0625 11.9375 -1.0625 11.9375 -2 14 C-2.33 13.01 -2.66 12.02 -3 11 C-3.66 11 -4.32 11 -5 11 C-4.67 11.99 -4.34 12.98 -4 14 C-5.98 14.99 -5.98 14.99 -8 16 C-6.42986223 10.03347646 -3.24970218 5.17090975 0 0 Z " fill="#FBE7E9" transform="translate(459,538)"/>
<path d="M0 0 C-1.76429199 4.97209562 -4.3939166 9.43438061 -7 14 C-8.58939347 10.82121306 -8.41576711 8.5043228 -8 5 C-5.90240055 2.40543083 -3.49562183 0 0 0 Z " fill="#EEF8FC" transform="translate(422,615)"/>
<path d="M0 0 C0.33 0 0.66 0 1 0 C0.67 2.97 0.34 5.94 0 9 C-0.66 9 -1.32 9 -2 9 C-2.433125 10.1446875 -2.433125 10.1446875 -2.875 11.3125 C-4 14 -4 14 -6 17 C-6.99 16.67 -7.98 16.34 -9 16 C-6.03 10.72 -3.06 5.44 0 0 Z " fill="#FCE3E2" transform="translate(519,431)"/>
<path d="M0 0 C0.33 0 0.66 0 1 0 C1 11.22 1 22.44 1 34 C1.99 34.33 2.98 34.66 4 35 C2.68 35.99 1.36 36.98 0 38 C0 25.46 0 12.92 0 0 Z " fill="#0B5A90" transform="translate(849,488)"/>
<path d="M0 0 C0.33 0 0.66 0 1 0 C1.144375 1.134375 1.28875 2.26875 1.4375 3.4375 C1.61171478 6.80777201 1.61171478 6.80777201 3 8 C3.15620555 9.41327947 3.25056173 10.8335459 3.31640625 12.25390625 C3.35830078 13.10791016 3.40019531 13.96191406 3.44335938 14.84179688 C3.48267578 15.73962891 3.52199219 16.63746094 3.5625 17.5625 C3.60568359 18.46419922 3.64886719 19.36589844 3.69335938 20.29492188 C3.79978142 22.52978485 3.90179988 24.76476308 4 27 C3.34 27 2.68 27 2 27 C1.66027199 24.18814406 1.32809788 21.37571764 1 18.5625 C0.90460938 17.77939453 0.80921875 16.99628906 0.7109375 16.18945312 C0.08488869 10.75624381 -0.08759571 5.46925737 0 0 Z " fill="#CBEEF8" transform="translate(290,553)"/>
<path d="M0 0 C2.475 0.495 2.475 0.495 5 1 C5.12117187 1.60328125 5.24234375 2.2065625 5.3671875 2.828125 C5.53476562 3.62734375 5.70234375 4.4265625 5.875 5.25 C6.03742187 6.03890625 6.19984375 6.8278125 6.3671875 7.640625 C6.92050545 10.01830693 6.92050545 10.01830693 8.0625 12.125 C9.25409043 14.50818085 9.14598495 16.37227096 9 19 C6.74116865 15.61175298 5.07846446 12.05891502 3.375 8.375 C3.05015625 7.68148437 2.7253125 6.98796875 2.390625 6.2734375 C0 1.13058036 0 1.13058036 0 0 Z " fill="#19699D" transform="translate(687,538)"/>
<path d="M0 0 C0.33 0 0.66 0 1 0 C0.79962011 4.59871854 0.56605886 8.07543719 -1.875 12.0625 C-4 14 -4 14 -7 14 C-5.23570801 9.02790438 -2.6060834 4.56561939 0 0 Z " fill="#FEEFEC" transform="translate(479,502)"/>
<path d="M0 0 C0.33 0.66 0.66 1.32 1 2 C5.62 2 10.24 2 15 2 C15.33 1.34 15.66 0.68 16 0 C16.33 0.66 16.66 1.32 17 2 C16.67 2.66 16.34 3.32 16 4 C10.39 4 4.78 4 -1 4 C-0.67 2.68 -0.34 1.36 0 0 Z " fill="#C7EDFC" transform="translate(614,577)"/>
<path d="M0 0 C0.33 0 0.66 0 1 0 C1.33821197 2.85366354 1.6706978 5.70780596 2 8.5625 C2.09539062 9.36236328 2.19078125 10.16222656 2.2890625 10.98632812 C2.82714176 15.69452167 3.10176703 20.26147265 3 25 C2.01 25.33 1.02 25.66 0 26 C0 17.42 0 8.84 0 0 Z " fill="#1F6EA4" transform="translate(289,554)"/>
<path d="M0 0 C-2.64 4.95 -5.28 9.9 -8 15 C-9.27446435 11.17660695 -8.34278151 9.72994863 -7 6 C-6.87625 5.0925 -6.7525 4.185 -6.625 3.25 C-6 1 -6 1 -4.0625 -0.375 C-2 -1 -2 -1 0 0 Z " fill="#DAF4FA" transform="translate(466,537)"/>
<path d="M0 0 C0.98138508 3.92554034 0.93746297 5.25014811 0 9 C-0.185625 9.763125 -0.37125 10.52625 -0.5625 11.3125 C-0.7790625 12.1478125 -0.7790625 12.1478125 -1 13 C-2.98 13.33 -4.96 13.66 -7 14 C-4.69 9.38 -2.38 4.76 0 0 Z " fill="#1869A1" transform="translate(456,553)"/>
<path d="M0 0 C0.33 0.66 0.66 1.32 1 2 C-0.07674702 4.28258633 -1.19546116 6.4356434 -2.4375 8.625 C-2.77587891 9.23601562 -3.11425781 9.84703125 -3.46289062 10.4765625 C-4.30146192 11.988353 -5.14982577 13.49470399 -6 15 C-6.99 14.34 -7.98 13.68 -9 13 C-8.34 13 -7.68 13 -7 13 C-6.67 10.69 -6.34 8.38 -6 6 C-5.34 6 -4.68 6 -4 6 C-4 5.34 -4 4.68 -4 4 C-3.34 4 -2.68 4 -2 4 C-1.34 2.68 -0.68 1.36 0 0 Z " fill="#FDFBFD" transform="translate(541,398)"/>
<path d="M0 0 C0.66 0.99 1.32 1.98 2 3 C1.01 3.33 0.02 3.66 -1 4 C-1.144375 4.598125 -1.28875 5.19625 -1.4375 5.8125 C-2.22254511 8.86545322 -3.49900119 10.12425089 -6 12 C-8.75 11.75 -8.75 11.75 -11 11 C-8.71552977 8.62766553 -6.36609958 6.44864593 -3.8125 4.375 C-0.98963873 2.30830705 -0.98963873 2.30830705 0 0 Z " fill="#186C9E" transform="translate(597,519)"/>
<path d="M0 0 C1 2 1 2 0.3125 5.0625 C-0.120625 6.031875 -0.55375 7.00125 -1 8 C-2.32303717 8.3721042 -3.65737935 8.70630173 -5 9 C-5.68132451 10.66072849 -6.34742127 12.327767 -7 14 C-9.0625 15.16015625 -9.0625 15.16015625 -11 16 C-7.43120211 10.59161557 -3.79801861 5.25020219 0 0 Z " fill="#206EA0" transform="translate(180,511)"/>
<path d="M0 0 C0.33 0.66 0.66 1.32 1 2 C0.67 2.99 0.34 3.98 0 5 C-0.66 5 -1.32 5 -2 5 C-2.66 6.32 -3.32 7.64 -4 9 C-4.66 9 -5.32 9 -6 9 C-6.33 9.99 -6.66 10.98 -7 12 C-8.32 11.67 -9.64 11.34 -11 11 C-7.37 7.37 -3.74 3.74 0 0 Z " fill="#2169A3" transform="translate(892,502)"/>
<path d="M0 0 C1.32 0.33 2.64 0.66 4 1 C1.03 4.96 1.03 4.96 -2 9 C-2.33 8.01 -2.66 7.02 -3 6 C-3.66 5.67 -4.32 5.34 -5 5 C-2.75 2.4375 -2.75 2.4375 0 0 Z " fill="#FEF0F0" transform="translate(548,370)"/>
<path d="M0 0 C0.99 0.33 1.98 0.66 3 1 C3 1.99 3 2.98 3 4 C2.360625 4.103125 1.72125 4.20625 1.0625 4.3125 C0.381875 4.539375 -0.29875 4.76625 -1 5 C-1.33 5.99 -1.66 6.98 -2 8 C-2.66 8 -3.32 8 -4 8 C-4.66 9.32 -5.32 10.64 -6 12 C-6.99 12 -7.98 12 -9 12 C-6.03 8.04 -3.06 4.08 0 0 Z " fill="#E0F4FA" transform="translate(365,611)"/>
<path d="M0 0 C0.99 0.33 1.98 0.66 3 1 C1.02 4.63 -0.96 8.26 -3 12 C-3.33 12 -3.66 12 -4 12 C-4.125 5.25 -4.125 5.25 -3 3 C-2.34 3 -1.68 3 -1 3 C-0.67 2.01 -0.34 1.02 0 0 Z " fill="#E5F5FA" transform="translate(491,485)"/>
<path d="M0 0 C0.99 0.33 1.98 0.66 3 1 C2.39196574 4.12308506 1.37985958 6.19251662 -0.5 8.75 C-1.16515625 9.67039062 -1.16515625 9.67039062 -1.84375 10.609375 C-2.2253125 11.06828125 -2.606875 11.5271875 -3 12 C-3.33 12 -3.66 12 -4 12 C-4.36836955 7.70235528 -3.39180503 5.53987145 -1 2 C-0.67 1.34 -0.34 0.68 0 0 Z " fill="#FDF7F7" transform="translate(489,448)"/>
<path d="M0 0 C0.66 0 1.32 0 2 0 C2.88336837 2.4667645 3.1312406 3.63859372 2.22265625 6.140625 C1.83980469 6.83671875 1.45695312 7.5328125 1.0625 8.25 C0.68222656 8.95640625 0.30195313 9.6628125 -0.08984375 10.390625 C-0.39019531 10.92171875 -0.69054687 11.4528125 -1 12 C-1.66 12 -2.32 12 -3 12 C-3.37086093 5.44812362 -3.37086093 5.44812362 -1.5 3.1875 C-1.005 2.795625 -0.51 2.40375 0 2 C0 1.34 0 0.68 0 0 Z " fill="#EEF6FC" transform="translate(454,549)"/>
<path d="M0 0 C0.33 0.66 0.66 1.32 1 2 C0.3125 4 0.3125 4 -1 6 C-1.639375 6.309375 -2.27875 6.61875 -2.9375 6.9375 C-5.71944543 8.3706234 -6.56938502 10.28183153 -8 13 C-8.99 12.34 -9.98 11.68 -11 11 C-7.37 7.37 -3.74 3.74 0 0 Z " fill="#196CA5" transform="translate(907,486)"/>
<path d="M0 0 C1.32 0.33 2.64 0.66 4 1 C1.69 5.29 -0.62 9.58 -3 14 C-3.33 14 -3.66 14 -4 14 C-3.25 6.25 -3.25 6.25 -1 4 C-0.3574765 1.93125966 -0.3574765 1.93125966 0 0 Z " fill="#E9F7FD" transform="translate(501,465)"/>
<path d="M0 0 C0.33 0.66 0.66 1.32 1 2 C0.06421005 4.35981813 -0.93347808 6.69631264 -2 9 C-2.66 9 -3.32 9 -4 9 C-4.33 10.32 -4.66 11.64 -5 13 C-6.32 13.33 -7.64 13.66 -9 14 C-7.65070536 10.16336928 -5.92248975 7.34827431 -3.375 4.1875 C-2.42753906 3.00220703 -2.42753906 3.00220703 -1.4609375 1.79296875 C-0.97882812 1.20128906 -0.49671875 0.60960937 0 0 Z " fill="#CC323E" transform="translate(528,402)"/>
<path d="M0 0 C0.33 0.66 0.66 1.32 1 2 C-0.75832302 7.17728444 -2.74201216 10.39708721 -7 14 C-7.66 14 -8.32 14 -9 14 C-7.65070536 10.16336928 -5.92248975 7.34827431 -3.375 4.1875 C-2.42753906 3.00220703 -2.42753906 3.00220703 -1.4609375 1.79296875 C-0.97882813 1.20128906 -0.49671875 0.60960937 0 0 Z " fill="#C7333E" transform="translate(368,618)"/>
<path d="M0 0 C0.12375 0.61875 0.2475 1.2375 0.375 1.875 C0.87197356 4.19120832 0.87197356 4.19120832 3 6 C1.576875 6.8353125 1.576875 6.8353125 0.125 7.6875 C-3.08878787 10.06570302 -3.95565118 11.24034426 -5 15 C-5.66 14.67 -6.32 14.34 -7 14 C-5.23570801 9.02790438 -2.6060834 4.56561939 0 0 Z " fill="#FBE4DF" transform="translate(419,609)"/>
<path d="M0 0 C0.33 0.66 0.66 1.32 1 2 C0.67 2.66 0.34 3.32 0 4 C0.66 4.33 1.32 4.66 2 5 C1.52949219 5.31453125 1.05898438 5.6290625 0.57421875 5.953125 C-2.88002433 8.32747014 -5.72778504 10.39118801 -8 14 C-8.66 13.67 -9.32 13.34 -10 13 C-5.05 6.565 -5.05 6.565 0 0 Z " fill="#C8363A" transform="translate(477,471)"/>
<path d="M0 0 C1.13508688 3.3515741 0.87309359 5.35675676 -0.25 8.6875 C-0.50265625 9.47511719 -0.7553125 10.26273437 -1.015625 11.07421875 C-2 13 -2 13 -5 14 C-6 11 -6 11 -4.78515625 8.30078125 C-4.21667969 7.31464844 -3.64820313 6.32851563 -3.0625 5.3125 C-2.49660156 4.31863281 -1.93070312 3.32476562 -1.34765625 2.30078125 C-0.90292969 1.54152344 -0.45820313 0.78226562 0 0 Z " fill="#FBE4E3" transform="translate(507,452)"/>
<path d="M0 0 C0.64453125 1.84765625 0.64453125 1.84765625 1 4 C-0.6222454 5.70993434 -2.29413425 7.37347684 -4 9 C-4.350625 9.9075 -4.70125 10.815 -5.0625 11.75 C-5.5265625 12.86375 -5.5265625 12.86375 -6 14 C-8.125 14.8125 -8.125 14.8125 -10 15 C-8.37815499 11.41486894 -6.20743761 8.41007677 -3.875 5.25 C-3.15054687 4.26515625 -2.42609375 3.2803125 -1.6796875 2.265625 C-1.12539063 1.51796875 -0.57109375 0.7703125 0 0 Z " fill="#C7323A" transform="translate(494,448)"/>
<path d="M0 0 C-0.4793247 4.31392226 -1.7457985 6.16569547 -5 9 C-5 7.02 -5 5.04 -5 3 C-5.99 2.67 -6.98 2.34 -8 2 C-2.25 0 -2.25 0 0 0 Z " fill="#F7EBEC" transform="translate(385,593)"/>
<path d="M0 0 C6.75 5.625 6.75 5.625 9 9 C8.01 9.495 8.01 9.495 7 10 C6.67 9.34 6.34 8.68 6 8 C5.01 7.67 4.02 7.34 3 7 C2.67 8.65 2.34 10.3 2 12 C1.67 12 1.34 12 1 12 C0.67 8.04 0.34 4.08 0 0 Z " fill="#15669C" transform="translate(849,537)"/>
<path d="M0 0 C1.53445094 3.06890187 0.54984289 5.70094266 0 9 C-0.99 9 -1.98 9 -3 9 C-3 9.66 -3 10.32 -3 11 C-3.66 11 -4.32 11 -5 11 C-5 11.99 -5 12.98 -5 14 C-5.66 14 -6.32 14 -7 14 C-5.23570801 9.02790438 -2.6060834 4.56561939 0 0 Z " fill="#FBDCDD" transform="translate(487,488)"/>
<path d="M0 0 C9.24 0 18.48 0 28 0 C28 0.99 28 1.98 28 3 C27.34 2.67 26.68 2.34 26 2 C24.04225931 1.84621148 22.07982648 1.75028537 20.1171875 1.68359375 C18.95058594 1.64169922 17.78398438 1.59980469 16.58203125 1.55664062 C15.35871094 1.51732422 14.13539062 1.47800781 12.875 1.4375 C11.64394531 1.39431641 10.41289063 1.35113281 9.14453125 1.30664062 C6.09647147 1.20031296 3.0483281 1.09828219 0 1 C0 0.67 0 0.34 0 0 Z " fill="#126294" transform="translate(108,483)"/>
<path d="M0 0 C0.6875 1.6875 0.6875 1.6875 1 4 C0.04504326 5.69287785 -0.9590934 7.35857037 -2 9 C-2.70670728 11.69254991 -2.70670728 11.69254991 -3 14 C-4.65 14.33 -6.3 14.66 -8 15 C-7.04416032 13.06126858 -6.08523808 11.1240567 -5.125 9.1875 C-4.32449219 7.56908203 -4.32449219 7.56908203 -3.5078125 5.91796875 C-2 3 -2 3 0 0 Z " fill="#FCE5E4" transform="translate(500,465)"/>
<path d="M0 0 C0.99 0.33 1.98 0.66 3 1 C0.36 4.3 -2.28 7.6 -5 11 C-5.66 9.68 -6.32 8.36 -7 7 C-4.66666667 4.66666667 -2.33333333 2.33333333 0 0 Z " fill="#FDE6E7" transform="translate(419,546)"/>
<path d="M0 0 C0.99 0 1.98 0 3 0 C1.6062718 4.43458973 -0.60582235 6.87378374 -4 10 C-4.93423645 6.98968256 -5.04449911 6.13349732 -4 3 C-1.9375 2.3125 -1.9375 2.3125 0 2 C0 1.34 0 0.68 0 0 Z " fill="#FCECED" transform="translate(438,519)"/>
<path d="M0 0 C2.3125 0.1875 2.3125 0.1875 5 1 C6.875 3.4375 6.875 3.4375 8 6 C7.67 6.66 7.34 7.32 7 8 C4.2160817 6.60804085 4.02101003 4.84424221 3 2 C3 3.65 3 5.3 3 7 C2.01 7.33 1.02 7.66 0 8 C0 5.36 0 2.72 0 0 Z " fill="#0F619A" transform="translate(104,486)"/>
<path d="M0 0 C0.66 1.32 1.32 2.64 2 4 C1.34 4 0.68 4 0 4 C0.33 5.65 0.66 7.3 1 9 C-2.75 12 -2.75 12 -5 12 C-3.41037341 7.96479403 -1.71767682 3.98188718 0 0 Z " fill="#F3E1DE" transform="translate(556,364)"/>
<path d="M0 0 C1.39935013 2.79870027 1.25265405 4.90498792 1 8 C-0.5 9.875 -0.5 9.875 -2 11 C-2.99 10.67 -3.98 10.34 -5 10 C-3.66511872 6.40608886 -2.03977277 3.24509304 0 0 Z " fill="#FDEAE8" transform="translate(431,588)"/>
<path d="M0 0 C2 3 2 3 1.625 5.6875 C1.315625 6.8321875 1.315625 6.8321875 1 8 C0.34 7.67 -0.32 7.34 -1 7 C-3.71262116 6.7677354 -6.40773126 6.58063765 -9.125 6.4375 C-9.87910156 6.39431641 -10.63320313 6.35113281 -11.41015625 6.30664062 C-13.27321888 6.2005168 -15.13658524 6.09974999 -17 6 C-17 5.67 -17 5.34 -17 5 C-11.39 5 -5.78 5 0 5 C0 3.35 0 1.7 0 0 Z " fill="#0B5A95" transform="translate(849,576)"/>
<path d="M0 0 C0.33 0 0.66 0 1 0 C1.375 2.75 1.375 2.75 1 6 C-2 8.375 -2 8.375 -5 10 C-5.66 9.67 -6.32 9.34 -7 9 C-5.85793642 7.49712782 -4.71125043 5.99776716 -3.5625 4.5 C-2.92441406 3.6646875 -2.28632813 2.829375 -1.62890625 1.96875 C-0.82259766 0.99421875 -0.82259766 0.99421875 0 0 Z " fill="#C82E35" transform="translate(406,567)"/>
<path d="M0 0 C1.24546405 2.49092811 0.7767578 3.41080733 0 6 C-0.66 6 -1.32 6 -2 6 C-1.67 6.99 -1.34 7.98 -1 9 C-2.40445835 11.2636564 -4.1967913 13.0208685 -6 15 C-6.66 14.67 -7.32 14.34 -8 14 C-5.36 9.38 -2.72 4.76 0 0 Z " fill="#1D679D" transform="translate(473,523)"/>
<path d="M0 0 C0.33 0.99 0.66 1.98 1 3 C0.34 3.66 -0.32 4.32 -1 5 C-0.67 5.66 -0.34 6.32 0 7 C-0.66 7.66 -1.32 8.32 -2 9 C-2.6425235 11.06874034 -2.6425235 11.06874034 -3 13 C-3.66 12.34 -4.32 11.68 -5 11 C-5.66 11 -6.32 11 -7 11 C-5.22054913 6.95579349 -2.60470327 3.53921513 0 0 Z " fill="#E1F2F8" transform="translate(436,517)"/>
<path d="M0 0 C0.66 0.99 1.32 1.98 2 3 C0.8828125 6.13671875 0.8828125 6.13671875 -0.875 9.6875 C-1.44992187 10.86699219 -2.02484375 12.04648437 -2.6171875 13.26171875 C-3.07351563 14.16535156 -3.52984375 15.06898438 -4 16 C-4.33 16 -4.66 16 -5 16 C-5.125 13.125 -5.125 13.125 -5 10 C-4.34 9.34 -3.68 8.68 -3 8 C-2.3574765 5.93125966 -2.3574765 5.93125966 -2 4 C-1.34 4 -0.68 4 0 4 C0 2.68 0 1.36 0 0 Z " fill="#1B6B9A" transform="translate(657,480)"/>
<path d="M0 0 C7.92 0 15.84 0 24 0 C24 0.99 24 1.98 24 3 C23.01 2.67 22.02 2.34 21 2 C19.37432921 1.85284801 17.74413143 1.75278133 16.11328125 1.68359375 C15.17548828 1.64169922 14.23769531 1.59980469 13.27148438 1.55664062 C12.29501953 1.51732422 11.31855469 1.47800781 10.3125 1.4375 C9.32443359 1.39431641 8.33636719 1.35113281 7.31835938 1.30664062 C4.87904454 1.20058346 2.43962887 1.09852286 0 1 C0 0.67 0 0.34 0 0 Z " fill="#0D5F93" transform="translate(140,581)"/>
<path d="M0 0 C1.27596315 3.82788944 0.62344752 5.36656983 -1 9 C-3.58975241 10.8378888 -4.78481903 11 -8 11 C-5.36 7.37 -2.72 3.74 0 0 Z " fill="#C82E38" transform="translate(390,588)"/>
<path d="M0 0 C0.66 0.33 1.32 0.66 2 1 C2 2.65 2 4.3 2 6 C1.34 6 0.68 6 0 6 C-0.33 6.99 -0.66 7.98 -1 9 C-1.33 8.67 -1.66 8.34 -2 8 C-2.33 8.66 -2.66 9.32 -3 10 C-3.66 9.67 -4.32 9.34 -5 9 C-3.35 6.03 -1.7 3.06 0 0 Z " fill="#FDE5E5" transform="translate(443,566)"/>
<path d="M0 0 C1 2 1 2 0.375 4.3125 C-1.29299165 7.57266549 -3.22177427 9.62834389 -6 12 C-6.99 12 -7.98 12 -9 12 C-6.03 8.04 -3.06 4.08 0 0 Z " fill="#CBEEF6" transform="translate(457,489)"/>
<path d="M0 0 C0.33 1.32 0.66 2.64 1 4 C-0.65234375 6.359375 -0.65234375 6.359375 -2.9375 8.75 C-4.06478516 9.94882812 -4.06478516 9.94882812 -5.21484375 11.171875 C-5.80394531 11.77515625 -6.39304687 12.3784375 -7 13 C-7.66 12.67 -8.32 12.34 -9 12 C-6.03 8.04 -3.06 4.08 0 0 Z " fill="#DDF4FB" transform="translate(405,558)"/>
<path d="M0 0 C2 3 2 3 2 7 C0.02 7.66 -1.96 8.32 -4 9 C-2.94124926 5.59687262 -1.99097846 2.98646769 0 0 Z " fill="#FDEBED" transform="translate(464,529)"/>
<path d="M0 0 C0.66 0.99 1.32 1.98 2 3 C0.35 4.98 -1.3 6.96 -3 9 C-3.99 8.67 -4.98 8.34 -6 8 C-4.02 5.36 -2.04 2.72 0 0 Z " fill="#C72B36" transform="translate(503,436)"/>
<path d="M0 0 C1.39456452 0.00667256 2.78911118 0.01863093 4.18359375 0.03515625 C4.89451172 0.03966797 5.60542969 0.04417969 6.33789062 0.04882812 C8.09899388 0.06064761 9.86005411 0.07858362 11.62109375 0.09765625 C11.62109375 0.42765625 11.62109375 0.75765625 11.62109375 1.09765625 C7.00109375 1.42765625 2.38109375 1.75765625 -2.37890625 2.09765625 C-2.70890625 3.41765625 -3.03890625 4.73765625 -3.37890625 6.09765625 C-4.36890625 6.42765625 -5.35890625 6.75765625 -6.37890625 7.09765625 C-4.15199463 0.11999984 -4.15199463 0.11999984 0 0 Z " fill="#176498" transform="translate(524.37890625,435.90234375)"/>
<path d="M0 0 C0.99 0 1.98 0 3 0 C1.43358249 4.30764815 -0.68336156 8.06171464 -3 12 C-3.33 12 -3.66 12 -4 12 C-4 10.35 -4 8.7 -4 7 C-3.01 6.67 -2.02 6.34 -1 6 C-0.67 4.02 -0.34 2.04 0 0 Z " fill="#BF2D2E" transform="translate(408,623)"/>
<path d="M0 0 C0.33 0.66 0.66 1.32 1 2 C0.54625 2.556875 0.0925 3.11375 -0.375 3.6875 C-2.11759315 5.94336572 -2.11759315 5.94336572 -2.9375 8.6875 C-4 11 -4 11 -6.125 11.8125 C-6.74375 11.874375 -7.3625 11.93625 -8 12 C-5.6163187 7.65829477 -3.21880117 3.7935871 0 0 Z " fill="#C72E33" transform="translate(423,544)"/>
<path d="M0 0 C1.33332095 2.6666419 0.67102033 4.16680303 0 7 C-0.66 7 -1.32 7 -2 7 C-2.66 8.65 -3.32 10.3 -4 12 C-4.66 12 -5.32 12 -6 12 C-4.68139111 7.38486888 -2.78644563 3.90102388 0 0 Z " fill="#FCE4E2" transform="translate(471,517)"/>
<path d="M0 0 C6.40416667 2.29583333 6.40416667 2.29583333 9.0625 5.4375 C10 8 10 8 9.1875 10.3125 C8.795625 10.869375 8.40375 11.42625 8 12 C8 10.02 8 8.04 8 6 C7.360625 5.87625 6.72125 5.7525 6.0625 5.625 C5.381875 5.41875 4.70125 5.2125 4 5 C3.67 4.34 3.34 3.68 3 3 C2.01 2.67 1.02 2.34 0 2 C0 1.34 0 0.68 0 0 Z " fill="#246B9A" transform="translate(573,498)"/>
<path d="M0 0 C5.14079929 2.02926288 7.36978352 2.97867762 10 8 C10 8.99 10 9.98 10 11 C8.33035479 9.35718838 6.6643536 7.71067239 5 6.0625 C4.071875 5.14597656 3.14375 4.22945313 2.1875 3.28515625 C0 1 0 1 0 0 Z " fill="#1C6698" transform="translate(733,490)"/>
<path d="M0 0 C0.66 0.33 1.32 0.66 2 1 C2 1.99 2 2.98 2 4 C2.66 4 3.32 4 4 4 C4 4.99 4 5.98 4 7 C3.34 7 2.68 7 2 7 C1.34 6.34 0.68 5.68 0 5 C-0.99 6.32 -1.98 7.64 -3 9 C-2.5020163 5.26512223 -2.12508244 3.18762365 0 0 Z " fill="#D6F2FA" transform="translate(659,512)"/>
<path d="M0 0 C0 3.38023517 -0.87455622 5.83468937 -2 9 C-2.99 9 -3.98 9 -5 9 C-5.33 9.66 -5.66 10.32 -6 11 C-6 7.39426104 -5.18292538 6.58663434 -3 3.8125 C-2.443125 3.09707031 -1.88625 2.38164062 -1.3125 1.64453125 C-0.879375 1.10183594 -0.44625 0.55914062 0 0 Z " fill="#1E67A0" transform="translate(193,494)"/>
<path d="M0 0 C1.8125 0.1875 1.8125 0.1875 4 1 C5.75 3.5625 5.75 3.5625 7 6 C6.21625 5.814375 5.4325 5.62875 4.625 5.4375 C2.02910225 4.74037734 2.02910225 4.74037734 0 6 C0 4.02 0 2.04 0 0 Z " fill="#EBF9FC" transform="translate(723,482)"/>
<path d="M0 0 C0.33 0.66 0.66 1.32 1 2 C-0.54115394 6.16111563 -2.12614955 9.57874946 -5 13 C-5.66 12.67 -6.32 12.34 -7 12 C-4.69 8.04 -2.38 4.08 0 0 Z " fill="#1B6B9C" transform="translate(483,505)"/>
<path d="M0 0 C-1.3937282 4.43458973 -3.60582235 6.87378374 -7 10 C-7.33 9.01 -7.66 8.02 -8 7 C-7.34 7 -6.68 7 -6 7 C-5.896875 6.401875 -5.79375 5.80375 -5.6875 5.1875 C-4.71993159 2.10887325 -3.39245825 0 0 0 Z " fill="#FCE4E0" transform="translate(481,465)"/>
<path d="M0 0 C0.91058531 3.07322544 1.08886184 5.80097361 1 9 C0.01 9 -0.98 9 -2 9 C-2.6875 7.3125 -2.6875 7.3125 -3 5 C-1.5625 2.25 -1.5625 2.25 0 0 Z " fill="#F9E7EC" transform="translate(383,673)"/>
<path d="M0 0 C1.14926266 0.95421808 2.29430541 1.91352045 3.4375 2.875 C4.07558594 3.40867187 4.71367187 3.94234375 5.37109375 4.4921875 C7 6 7 6 8 8 C6.68 8 5.36 8 4 8 C4 7.34 4 6.68 4 6 C3.34 6 2.68 6 2 6 C0 3 0 3 0 0 Z " fill="#FEF1E9" transform="translate(346,664)"/>
<path d="M0 0 C0.33 0.66 0.66 1.32 1 2 C0.06421005 4.35981813 -0.93347808 6.69631264 -2 9 C-3.32 8.67 -4.64 8.34 -6 8 C-4.02 5.36 -2.04 2.72 0 0 Z " fill="#C73739" transform="translate(397,579)"/>
<path d="M0 0 C0.66 0.33 1.32 0.66 2 1 C0.02 5.29 -1.96 9.58 -4 14 C-5.20371769 10.38884694 -4.71183147 9.75890242 -3.125 6.4375 C-2.75632812 5.65246094 -2.38765625 4.86742187 -2.0078125 4.05859375 C-1.34414845 2.70296989 -0.67500608 1.35001216 0 0 Z " fill="#DDF4FC" transform="translate(636,563)"/>
<path d="M0 0 C0.99 0 1.98 0 3 0 C2.67 1.32 2.34 2.64 2 4 C2.99 4 3.98 4 5 4 C4.67 4.66 4.34 5.32 4 6 C3.01 6 2.02 6 1 6 C-0.6875 4 -0.6875 4 -2 2 C-1.34 1.34 -0.68 0.68 0 0 Z " fill="#0C6199" transform="translate(875,536)"/>
<path d="M0 0 C1.32 0 2.64 0 4 0 C2.7508258 3.45925163 1.32472205 6.14693203 -1 9 C-0.67 6.03 -0.34 3.06 0 0 Z " fill="#C42E32" transform="translate(466,518)"/>
<path d="M0 0 C2.475 0.495 2.475 0.495 5 1 C3.69593116 3.01920337 2.36176581 5.01924973 1 7 C0.67 7 0.34 7 0 7 C0 4.69 0 2.38 0 0 Z " fill="#1468A3" transform="translate(356,616)"/>
<path d="M0 0 C0.33 1.32 0.66 2.64 1 4 C0.34 4 -0.32 4 -1 4 C-1.33 5.32 -1.66 6.64 -2 8 C-2.99 8 -3.98 8 -5 8 C-4.45773019 4.20411134 -2.79872437 2.52788007 0 0 Z " fill="#FBFDFE" transform="translate(424,605)"/>
<path d="M0 0 C0.66 0.33 1.32 0.66 2 1 C2 2.65 2 4.3 2 6 C0.35 6 -1.3 6 -3 6 C-1.125 1.125 -1.125 1.125 0 0 Z " fill="#E6FAFC" transform="translate(376,597)"/>
<path d="M0 0 C0.33 0.99 0.66 1.98 1 3 C0.34 3.66 -0.32 4.32 -1 5 C-1.6425235 7.06874034 -1.6425235 7.06874034 -2 9 C-3.65 9.33 -5.3 9.66 -7 10 C-6.02223933 8.51990357 -5.0427506 7.04094856 -4.0625 5.5625 C-3.51722656 4.73878906 -2.97195313 3.91507813 -2.41015625 3.06640625 C-1 1 -1 1 0 0 Z " fill="#CB3741" transform="translate(414,556)"/>
<path d="M0 0 C0.66 0.33 1.32 0.66 2 1 C0.8141763 4.37503669 -0.27573689 6.64722731 -3 9 C-3.99 8.67 -4.98 8.34 -6 8 C-4.02 5.36 -2.04 2.72 0 0 Z " fill="#CB3339" transform="translate(442,518)"/>
<path d="M0 0 C0.66 0 1.32 0 2 0 C1.65120368 3.25543229 0.97866739 4.01873107 -1.5625 6.25 C-2.366875 6.8275 -3.17125 7.405 -4 8 C-4 6.02 -4 4.04 -4 2 C-2.68 2.33 -1.36 2.66 0 3 C0 2.01 0 1.02 0 0 Z " fill="#1D72A5" transform="translate(876,494)"/>
<path d="M0 0 C0.66 1.32 1.32 2.64 2 4 C0.35 5.98 -1.3 7.96 -3 10 C-4 8 -4 8 -4 4 C-2 1.75 -2 1.75 0 0 Z " fill="#FEEDED" transform="translate(457,493)"/>
<path d="M0 0 C0.33 0.99 0.66 1.98 1 3 C-0.21484375 4.82421875 -0.21484375 4.82421875 -1.9375 6.6875 C-2.50339844 7.31011719 -3.06929687 7.93273437 -3.65234375 8.57421875 C-4.09707031 9.04472656 -4.54179688 9.51523437 -5 10 C-5.66 9.67 -6.32 9.34 -7 9 C-4.69 6.03 -2.38 3.06 0 0 Z " fill="#C53541" transform="translate(518,416)"/>
<path d="M0 0 C2 3 2 3 1.625 5.1875 C1.41875 5.785625 1.2125 6.38375 1 7 C0.01 6.67 -0.98 6.34 -2 6 C-2.99 6 -3.98 6 -5 6 C-3.35 4.02 -1.7 2.04 0 0 Z " fill="#1E73A8" transform="translate(347,569)"/>
<path d="M0 0 C2 3 2 3 2 6 C1.01 6 0.02 6 -1 6 C-1.33 6.99 -1.66 7.98 -2 9 C-2.66 8.67 -3.32 8.34 -4 8 C-2.68 5.36 -1.36 2.72 0 0 Z " fill="#1E6DA7" transform="translate(462,542)"/>
<path d="M0 0 C0.66 0 1.32 0 2 0 C0.74194623 4.50802601 -0.90407165 7.4912812 -4 11 C-3.21681311 7.08406554 -1.60820142 3.63593365 0 0 Z " fill="#BF2929" transform="translate(457,537)"/>
<path d="M0 0 C0.66 0.99 1.32 1.98 2 3 C1.0409375 4.3921875 1.0409375 4.3921875 0.0625 5.8125 C-2.08622093 8.84219943 -2.08622093 8.84219943 -3 12 C-3.66 12 -4.32 12 -5 12 C-3.68938409 7.76570244 -2.05643741 3.92592596 0 0 Z " fill="#D0F1FB" transform="translate(637,528)"/>
<path d="M0 0 C1.98 1.65 3.96 3.3 6 5 C5.34 5.66 4.68 6.32 4 7 C3.67 6.67 3.34 6.34 3 6 C2.34 6.66 1.68 7.32 1 8 C0.67 5.36 0.34 2.72 0 0 Z " fill="#146299" transform="translate(739,521)"/>
<path d="M0 0 C0.33 0.66 0.66 1.32 1 2 C-0.00203321 5.00609963 -0.60028446 6.06176821 -3 8 C-3.99 8 -4.98 8 -6 8 C-4.55746343 4.63408134 -2.66735273 2.48952921 0 0 Z " fill="#DEF8FE" transform="translate(856,519)"/>
<path d="M0 0 C0.99 0.33 1.98 0.66 3 1 C0.525 4.465 0.525 4.465 -2 8 C-2.99 6.68 -3.98 5.36 -5 4 C-4.360625 3.71125 -3.72125 3.4225 -3.0625 3.125 C-0.84793921 2.17176549 -0.84793921 2.17176549 0 0 Z " fill="#DEF6FB" transform="translate(173,517)"/>
<path d="M0 0 C1 2 1 2 0.0625 5.125 C-0.288125 6.07375 -0.63875 7.0225 -1 8 C-2.65 8 -4.3 8 -6 8 C-4.02 5.36 -2.04 2.72 0 0 Z " fill="#C92D3D" transform="translate(461,493)"/>
<path d="M0 0 C0.99 0 1.98 0 3 0 C1.70700306 2.88437779 0.34058637 4.87219421 -2 7 C-2.66 5.68 -3.32 4.36 -4 3 C-2.68 3 -1.36 3 0 3 C0 2.01 0 1.02 0 0 Z " fill="#E8F9FD" transform="translate(196,485)"/>
<path d="M0 0 C0.33 0.66 0.66 1.32 1 2 C0.00390625 4.1640625 0.00390625 4.1640625 -1.4375 6.625 C-1.91058594 7.44226563 -2.38367188 8.25953125 -2.87109375 9.1015625 C-3.24363281 9.72804688 -3.61617188 10.35453125 -4 11 C-4.33 9.68 -4.66 8.36 -5 7 C-4.34 7 -3.68 7 -3 7 C-3.061875 6.21625 -3.12375 5.4325 -3.1875 4.625 C-3.125625 3.75875 -3.06375 2.8925 -3 2 C-2.01 1.34 -1.02 0.68 0 0 Z " fill="#C02E38" transform="translate(502,459)"/>
<path d="M0 0 C0.33 0.66 0.66 1.32 1 2 C0.00390625 4.1640625 0.00390625 4.1640625 -1.4375 6.625 C-1.91058594 7.44226563 -2.38367188 8.25953125 -2.87109375 9.1015625 C-3.24363281 9.72804688 -3.61617187 10.35453125 -4 11 C-4.99 10.34 -5.98 9.68 -7 9 C-4.69 6.03 -2.38 3.06 0 0 Z " fill="#B35056" transform="translate(554,367)"/>
<path d="M0 0 C0.66 0 1.32 0 2 0 C0.55746343 3.36591866 -1.33264727 5.51047079 -4 8 C-3.67 6.02 -3.34 4.04 -3 2 C-2.01 2 -1.02 2 0 2 C0 1.34 0 0.68 0 0 Z " fill="#1B6998" transform="translate(409,550)"/>
<path d="M0 0 C0.66 0.33 1.32 0.66 2 1 C-0.475 5.455 -0.475 5.455 -3 10 C-3.33 10 -3.66 10 -4 10 C-4.25 7.25 -4.25 7.25 -4 4 C-2 1.625 -2 1.625 0 0 Z " fill="#D8F2F9" transform="translate(473,520)"/>
<path d="M0 0 C0.95465783 2.16967689 1.14401212 3.56328793 0.3984375 5.82421875 C-0.35870385 7.5684743 -1.17609198 9.28627131 -2 11 C-2.66 11 -3.32 11 -4 11 C-2.7874262 7.27566618 -1.49140021 3.62197194 0 0 Z " fill="#D3F1F9" transform="translate(645,510)"/>
<path d="M0 0 C2.475 0.495 2.475 0.495 5 1 C5.66 3.31 6.32 5.62 7 8 C6.34 8 5.68 8 5 8 C3.1402289 5.40759181 1.42794577 2.85589153 0 0 Z " fill="#10639B" transform="translate(592,490)"/>
<path d="M0 0 C0.99 0 1.98 0 3 0 C3.33 1.65 3.66 3.3 4 5 C2.35 5 0.7 5 -1 5 C-0.67 3.35 -0.34 1.7 0 0 Z " fill="#D4171D" transform="translate(529,401)"/>
<path d="M0 0 C0.33 0.66 0.66 1.32 1 2 C0.67 2.66 0.34 3.32 0 4 C0.66 4.33 1.32 4.66 2 5 C0.35 5.66 -1.3 6.32 -3 7 C-3.33 6.34 -3.66 5.68 -4 5 C-2.68 3.35 -1.36 1.7 0 0 Z " fill="#E3F9FC" transform="translate(383,588)"/>
<path d="M0 0 C0.99 0.33 1.98 0.66 3 1 C1.68 3.31 0.36 5.62 -1 8 C-1.33 8 -1.66 8 -2 8 C-2.20086443 4.28400809 -2.1519437 3.22791555 0 0 Z " fill="#E0F6FB" transform="translate(645,541)"/>
<path d="M0 0 C1.98 0.66 3.96 1.32 6 2 C6 2.99 6 3.98 6 5 C5.34 5 4.68 5 4 5 C4 4.34 4 3.68 4 3 C2.35 3.33 0.7 3.66 -1 4 C-0.67 2.68 -0.34 1.36 0 0 Z " fill="#0B639C" transform="translate(311,538)"/>
<path d="M0 0 C0.99 0.66 1.98 1.32 3 2 C2.34 2 1.68 2 1 2 C0.67 3.32 0.34 4.64 0 6 C-1.32 5.67 -2.64 5.34 -4 5 C-2.68 3.35 -1.36 1.7 0 0 Z " fill="#D22D3E" transform="translate(429,536)"/>
<path d="M0 0 C0.33 1.32 0.66 2.64 1 4 C1.66 4 2.32 4 3 4 C3.66 5.65 4.32 7.3 5 9 C3.8274869 8.04882866 2.66212985 7.08882991 1.5 6.125 C0.8503125 5.59132813 0.200625 5.05765625 -0.46875 4.5078125 C-0.9740625 4.01023437 -1.479375 3.51265625 -2 3 C-2 2.34 -2 1.68 -2 1 C-1.34 0.67 -0.68 0.34 0 0 Z " fill="#1F6CA2" transform="translate(774,529)"/>
<path d="M0 0 C0.33 0.66 0.66 1.32 1 2 C0.22265625 3.7265625 0.22265625 3.7265625 -0.9375 5.625 C-1.618125 6.73875 -2.29875 7.8525 -3 9 C-3.99 8.34 -4.98 7.68 -6 7 C-4.02 4.69 -2.04 2.38 0 0 Z " fill="#E3F7FB" transform="translate(863,511)"/>
<path d="M0 0 C2.475 0.99 2.475 0.99 5 2 C4.01 4.31 3.02 6.62 2 9 C1 6 1 6 2 3 C1.01 3 0.02 3 -1 3 C-0.67 2.01 -0.34 1.02 0 0 Z " fill="#CA3840" transform="translate(534,394)"/>
<path d="M0 0 C1.65 0 3.3 0 5 0 C3.25 4.875 3.25 4.875 1 6 C0.67 4.02 0.34 2.04 0 0 Z " fill="#C62929" transform="translate(410,616)"/>
<path d="M0 0 C0.93065133 2.60582371 1.14917407 3.64198224 0.0625 6.25 C-0.4634375 7.11625 -0.4634375 7.11625 -1 8 C-1.99 7.67 -2.98 7.34 -4 7 C-2.68 4.69 -1.36 2.38 0 0 Z " fill="#226CA2" transform="translate(427,606)"/>
<path d="M0 0 C1.61949011 2.57213134 2.04408751 3.67669159 1.625 6.75 C1.41875 7.4925 1.2125 8.235 1 9 C0.34 9 -0.32 9 -1 9 C-1.09765625 2.84765625 -1.09765625 2.84765625 -1 1 C-0.67 0.67 -0.34 0.34 0 0 Z " fill="#E4FDFE" transform="translate(586,547)"/>
<path d="M0 0 C0.99 0 1.98 0 3 0 C4.75 2.375 4.75 2.375 6 5 C5.67 5.66 5.34 6.32 5 7 C3.29115995 5.37660195 1.62553283 3.70680947 0 2 C0 1.34 0 0.68 0 0 Z " fill="#1D689C" transform="translate(888,553)"/>
<path d="M0 0 C-2 3 -2 3 -5 4 C-5 4.66 -5 5.32 -5 6 C-5.66 6 -6.32 6 -7 6 C-6.75 3.625 -6.75 3.625 -6 1 C-2.69333333 -1.34666667 -2.69333333 -1.34666667 0 0 Z " fill="#F3FBFC" transform="translate(466,537)"/>
<path d="M0 0 C-0.33 1.65 -0.66 3.3 -1 5 C-2.65 4.67 -4.3 4.34 -6 4 C-2.25 0 -2.25 0 0 0 Z " fill="#2472A6" transform="translate(592,526)"/>
<path d="M0 0 C0.99 0 1.98 0 3 0 C3 4 3 4 1.5 5.75 C1.005 6.1625 0.51 6.575 0 7 C-0.66 6.67 -1.32 6.34 -2 6 C-1.34 4.02 -0.68 2.04 0 0 Z " fill="#F8FCFC" transform="translate(472,516)"/>
<path d="M0 0 C0.66 0 1.32 0 2 0 C1.5206753 4.31392226 0.2542015 6.16569547 -3 9 C-2.30058404 5.85262818 -1.23921302 2.97411124 0 0 Z " fill="#DAF6FB" transform="translate(597,514)"/>
<path d="M0 0 C0.33 0.66 0.66 1.32 1 2 C1.66 2.33 2.32 2.66 3 3 C0.69 4.32 -1.62 5.64 -4 7 C-2.92598892 4.08482708 -2.22189824 2.22189824 0 0 Z " fill="#DBF4FB" transform="translate(170,492)"/>
<path d="M0 0 C0.66 0.66 1.32 1.32 2 2 C-1.465 4.97 -1.465 4.97 -5 8 C-4.67 6.35 -4.34 4.7 -4 3 C-3.01 3 -2.02 3 -1 3 C-0.67 2.01 -0.34 1.02 0 0 Z " fill="#146392" transform="translate(885,485)"/>
<path d="M0 0 C0.99 0.33 1.98 0.66 3 1 C1.02 3.97 1.02 3.97 -1 7 C-1.66 5.68 -2.32 4.36 -3 3 C-2.01 2.01 -1.02 1.02 0 0 Z " fill="#106DA4" transform="translate(479,456)"/>
<path d="M0 0 C0.33 0.66 0.66 1.32 1 2 C-0.91522803 6.03205902 -1.85351878 6.92675939 -6 9 C-4.02 6.03 -2.04 3.06 0 0 Z " fill="#CCECF5" transform="translate(488,448)"/>
<path d="M0 0 C1.2077558 3.62326739 0.54311128 4.64146369 -1 8 C-1.66 8 -2.32 8 -3 8 C-3 8.66 -3 9.32 -3 10 C-3.66 9.67 -4.32 9.34 -5 9 C-3.35 6.03 -1.7 3.06 0 0 Z " fill="#FEDCD7" transform="translate(525,420)"/>
<path d="M0 0 C0.66 0 1.32 0 2 0 C0.90931332 3.77545388 0.0916909 6.47043472 -3 9 C-3 4.73350364 -2.43160605 3.36683915 0 0 Z " fill="#C1282E" transform="translate(528,411)"/>
<path d="M0 0 C0.33 1.32 0.66 2.64 1 4 C-0.32 4.99 -1.64 5.98 -3 7 C-3.66 6.67 -4.32 6.34 -5 6 C-3.35 4.02 -1.7 2.04 0 0 Z " fill="#C92F37" transform="translate(381,601)"/>
<path d="M0 0 C0.99 0.33 1.98 0.66 3 1 C1.35 2.98 -0.3 4.96 -2 7 C-2.66 5.68 -3.32 4.36 -4 3 C-2.68 3 -1.36 3 0 3 C0 2.01 0 1.02 0 0 Z " fill="#12649F" transform="translate(376,593)"/>
<path d="M0 0 C0.99 0 1.98 0 3 0 C1.95125002 2.62187494 1.35068687 3.79371361 -1.125 5.25 C-1.74375 5.4975 -2.3625 5.745 -3 6 C-2.67 4.68 -2.34 3.36 -2 2 C-1.34 2.33 -0.68 2.66 0 3 C0 2.01 0 1.02 0 0 Z " fill="#15669B" transform="translate(580,559)"/>
<path d="M0 0 C0.66 0.33 1.32 0.66 2 1 C0.79618552 3.49361571 -0.45428722 5.68143083 -2 8 C-2.99 7.34 -3.98 6.68 -5 6 C-3.35 4.02 -1.7 2.04 0 0 Z " fill="#DCF2F9" transform="translate(416,544)"/>
<path d="M0 0 C0.33 0.66 0.66 1.32 1 2 C-1.3125 4.5 -1.3125 4.5 -4 7 C-4.99 7 -5.98 7 -7 7 C-4.69 4.69 -2.38 2.38 0 0 Z " fill="#12669A" transform="translate(879,516)"/>
<path d="M0 0 C0.33 0 0.66 0 1 0 C0.67 2.64 0.34 5.28 0 8 C-1.32 7.67 -2.64 7.34 -4 7 C-2.68 4.69 -1.36 2.38 0 0 Z " fill="#FADFD7" transform="translate(479,502)"/>
<path d="M0 0 C2.0625 0.4375 2.0625 0.4375 4 1 C2.35 2.65 0.7 4.3 -1 6 C-1.042721 4.33388095 -1.04063832 2.66617115 -1 1 C-0.67 0.67 -0.34 0.34 0 0 Z " fill="#FCDDE5" transform="translate(486,454)"/>
</svg>
