<?xml version="1.0" standalone="no"?>
<!DOCTYPE svg PUBLIC "-//W3C//DTD SVG 20010904//EN"
 "http://www.w3.org/TR/2001/REC-SVG-20010904/DTD/svg10.dtd">
<svg version="1.0" xmlns="http://www.w3.org/2000/svg"
 width="2731.000000pt" height="1317.000000pt" viewBox="0 0 2731.000000 1317.000000"
 preserveAspectRatio="xMidYMid meet">
<metadata>
Created by potrace 1.16, written by Peter Selinger 2001-2019
</metadata>
<g transform="translate(0.000000,1317.000000) scale(0.100000,-0.100000)"
fill="#000000" stroke="none">
<path d="M39 4778 c0 -35 -2 -81 -5 -103 -2 -22 -6 -242 -7 -490 -2 -247 -6
-655 -9 -905 -5 -337 -11 -2758 -8 -3227 l0 -53 13646 0 13647 0 -7 548 c-8
622 -10 3067 -3 3079 2 4 6 278 8 608 l4 600 -13632 3 -13633 2 -1 -62z
m27138 -675 c-4 -335 -10 -818 -14 -1075 l-6 -468 -13510 0 -13510 0 7 743 c3
408 9 892 13 1075 l6 332 13510 0 13510 0 -6 -607z m-25660 -2462 c78 -12 172
-53 212 -95 l31 -32 -45 -44 -45 -44 -27 26 c-56 51 -91 63 -193 63 -109 0
-149 -15 -211 -82 -64 -67 -74 -95 -74 -213 0 -118 10 -146 74 -213 53 -56
104 -79 188 -85 131 -8 219 34 267 129 45 91 47 89 -114 89 l-140 0 0 60 0 60
203 -2 202 -3 0 -90 c-1 -76 -5 -99 -27 -147 -74 -160 -246 -247 -432 -218
-139 21 -259 111 -320 239 -29 62 -31 73 -31 181 0 108 2 119 31 181 58 121
180 217 304 238 74 12 76 12 147 2z m5918 -14 c143 -41 260 -178 287 -337 51
-296 -208 -547 -501 -486 -198 42 -331 208 -331 416 0 124 39 219 124 304 111
110 265 148 421 103z m1778 -2 c43 -13 95 -43 146 -83 28 -22 20 -44 -30 -86
l-31 -26 -46 33 c-62 45 -101 57 -182 57 -55 0 -78 -6 -129 -31 -215 -108
-213 -437 4 -544 59 -29 214 -28 270 2 65 35 112 95 129 165 l6 27 -142 3
-143 3 0 55 0 55 199 3 c153 2 201 -1 208 -10 11 -18 10 -88 -3 -150 -34 -160
-156 -273 -325 -298 -290 -44 -535 203 -486 492 30 173 171 318 340 348 57 10
154 4 215 -15z m1352 15 c227 -37 382 -255 345 -488 -30 -187 -166 -323 -352
-353 -179 -29 -353 62 -435 229 -37 75 -38 78 -38 192 0 114 1 117 38 192 70
142 201 228 362 237 11 0 47 -4 80 -9z m4374 -27 c57 -29 121 -99 121 -132 0
-12 -16 -24 -47 -37 -27 -11 -51 -20 -55 -22 -4 -2 -14 11 -23 28 -23 44 -70
70 -128 70 -82 0 -127 -35 -127 -100 0 -43 36 -73 134 -111 176 -68 235 -113
261 -201 18 -61 18 -63 4 -127 -14 -66 -71 -130 -141 -162 -80 -35 -184 -33
-260 4 -62 30 -117 89 -143 150 -21 51 -20 55 22 72 73 31 78 30 98 -15 21
-47 73 -97 111 -106 14 -4 48 -4 75 -2 87 9 136 78 106 150 -18 42 -52 64
-176 114 -168 67 -224 130 -219 244 3 54 9 73 33 107 79 109 226 141 354 76z
m2250 0 c57 -30 106 -81 116 -124 6 -23 2 -27 -42 -45 -26 -10 -51 -20 -55
-22 -4 -2 -14 11 -23 28 -23 44 -70 70 -128 70 -82 0 -127 -35 -127 -100 0
-43 34 -71 133 -111 193 -76 244 -119 267 -223 25 -111 -33 -218 -142 -267
-80 -35 -184 -33 -260 4 -62 30 -117 89 -143 150 -21 51 -20 55 22 72 70 30
80 29 91 -3 14 -40 66 -97 102 -112 18 -7 53 -11 86 -8 73 6 119 47 119 106 0
73 -29 95 -219 173 -138 56 -191 124 -184 235 3 48 10 71 32 103 74 106 229
138 355 74z m604 6 c55 -28 94 -65 118 -112 l20 -38 -56 -24 c-31 -14 -58 -25
-60 -25 -2 0 -12 14 -20 30 -23 45 -70 70 -132 70 -45 0 -56 -4 -87 -34 -74
-69 -34 -126 134 -190 127 -49 184 -91 216 -160 60 -128 5 -263 -131 -321 -55
-24 -186 -24 -238 -1 -73 32 -147 116 -171 192 -6 19 1 24 48 44 55 22 76 21
76 -4 0 -22 58 -95 89 -111 42 -21 129 -19 167 4 65 40 70 129 10 177 -19 15
-81 46 -139 69 -123 49 -169 81 -197 136 -55 106 -28 209 73 281 71 51 197 58
280 17z m1009 1 c101 -38 185 -119 236 -227 24 -53 27 -69 27 -173 0 -109 -2
-119 -32 -183 -178 -376 -730 -295 -794 117 -36 227 118 448 338 486 64 11
167 2 225 -20z m2124 5 c60 -17 156 -85 197 -138 16 -21 40 -63 55 -95 24 -51
27 -68 27 -172 0 -109 -2 -119 -32 -183 -178 -376 -730 -295 -794 117 -29 184
66 371 228 448 104 49 200 56 319 23z m5179 1 c56 -24 101 -63 126 -111 13
-24 21 -46 19 -49 -3 -2 -29 -14 -58 -25 l-53 -21 -21 35 c-26 45 -64 65 -123
65 -79 0 -125 -36 -125 -97 0 -45 24 -69 107 -103 196 -80 235 -106 275 -185
23 -44 28 -141 9 -187 -17 -46 -79 -104 -134 -129 -39 -17 -71 -23 -127 -23
-85 0 -143 21 -202 73 -35 30 -88 120 -88 148 0 12 49 37 96 49 18 5 24 0 34
-30 13 -40 77 -102 115 -112 14 -4 49 -4 76 -2 78 8 116 54 111 135 -3 40 -57
79 -173 124 -168 66 -229 130 -229 240 0 100 56 173 163 211 59 21 143 18 202
-6z m-23629 -401 c83 -220 150 -403 147 -407 -2 -5 -33 -8 -67 -8 l-63 0 -39
108 -39 107 -157 3 -156 2 -16 -42 c-9 -24 -27 -72 -40 -108 l-24 -65 -66 -3
c-48 -2 -66 1 -66 10 0 7 64 181 141 388 78 206 146 385 150 398 8 21 14 23
76 20 l68 -3 151 -400z m664 345 l0 -60 -110 0 -110 0 -2 -347 -3 -348 -60 0
-60 0 -3 348 -2 347 -110 0 -110 0 0 60 0 60 285 0 285 0 0 -60z m570 0 l0
-60 -180 0 -180 0 0 -115 0 -115 163 -2 162 -3 0 -55 0 -55 -162 -3 -163 -2 0
-115 0 -115 180 0 180 0 0 -60 0 -60 -242 2 -243 3 -3 395 c-1 217 0 401 3
407 3 10 61 13 245 13 l240 0 0 -60z m190 23 c5 -21 40 -150 77 -288 36 -137
69 -253 72 -257 4 -4 42 100 86 233 l80 240 59 -3 59 -3 72 -220 c39 -121 75
-229 79 -240 6 -15 29 61 85 275 l76 295 63 3 c51 2 62 0 62 -13 0 -12 -180
-701 -206 -788 -5 -15 -15 -17 -67 -15 l-62 3 -80 245 c-45 134 -84 240 -87
235 -3 -6 -40 -117 -82 -247 l-77 -238 -59 0 c-32 0 -61 4 -64 9 -12 19 -224
796 -220 803 3 4 32 8 64 8 l59 0 11 -37z m1418 -365 c84 -222 152 -407 152
-411 0 -4 -30 -7 -67 -5 l-68 3 -39 108 -39 107 -154 0 -153 0 -15 -32 c-8
-18 -27 -67 -42 -108 l-28 -75 -68 -3 c-37 -2 -67 1 -67 5 0 4 68 189 152 410
l152 403 66 0 67 0 151 -402z m304 247 c51 -85 95 -155 98 -155 3 0 46 70 95
155 l90 155 67 0 c37 0 69 -3 71 -7 2 -5 -56 -105 -129 -223 l-133 -215 -1
-187 0 -188 -60 0 -60 0 0 186 0 186 -135 215 c-74 117 -135 218 -135 223 0 6
31 10 69 10 l70 0 93 -155z m1226 93 l3 -58 -181 0 -180 0 0 -120 0 -120 160
0 160 0 0 -60 0 -60 -160 0 -160 0 -2 -167 -3 -168 -62 -3 -63 -3 0 411 0 410
243 -2 242 -3 3 -57z m1378 35 c47 -25 99 -76 121 -117 27 -52 28 -135 3 -194
-24 -56 -95 -128 -137 -138 -13 -4 -22 -12 -20 -18 3 -6 50 -77 106 -157 55
-81 101 -152 101 -158 0 -7 -25 -11 -70 -11 l-70 0 -107 160 -106 160 -49 0
-48 0 0 -160 0 -160 -60 0 -60 0 0 411 0 411 178 -4 c159 -3 181 -5 218 -25z
m1482 -325 l2 -348 170 0 170 0 0 -60 0 -60 -235 0 -235 0 0 410 0 411 63 -3
62 -3 3 -347z m1673 342 c163 -45 230 -252 115 -357 -20 -18 -32 -33 -27 -33
20 0 75 -56 92 -95 50 -108 0 -236 -116 -298 -37 -20 -54 -22 -235 -22 l-195
0 -3 395 c-1 217 0 401 3 407 6 16 311 18 366 3z m800 -388 c82 -217 149 -400
149 -408 0 -12 -14 -14 -66 -12 l-66 3 -38 105 -37 105 -157 0 -158 0 -24 -65
c-13 -36 -31 -84 -40 -107 l-16 -43 -64 0 c-49 0 -64 3 -64 14 0 11 216 594
289 779 11 27 13 28 77 25 l67 -3 148 -393z m349 48 l0 -350 170 0 170 0 0
-60 0 -60 -232 2 -233 3 -3 395 c-1 217 0 401 3 407 3 9 26 13 65 13 l60 0 0
-350z m1096 315 c72 -45 107 -101 112 -180 4 -56 1 -70 -22 -109 -15 -25 -36
-51 -47 -57 -20 -10 -19 -12 20 -46 56 -47 74 -86 75 -158 1 -74 -29 -134 -92
-182 -61 -47 -96 -53 -294 -53 l-178 0 0 411 0 411 188 -4 189 -3 49 -30z
m344 -265 c5 -275 6 -297 26 -330 32 -56 77 -80 146 -80 80 0 122 21 156 79
l27 46 3 293 3 292 60 0 59 0 0 -294 c0 -334 -5 -365 -73 -442 -72 -81 -178
-115 -293 -94 -100 19 -171 77 -217 177 -21 45 -22 63 -25 336 -2 159 -1 295
2 303 4 11 20 14 63 12 l58 -3 5 -295z m1340 -110 l0 -410 -59 0 c-44 0 -60 4
-65 16 -3 9 -6 186 -6 394 0 208 3 385 6 394 5 12 21 16 65 16 l59 0 0 -410z
m465 116 l180 -288 3 291 2 292 63 -3 62 -3 0 -405 0 -405 -65 0 -64 0 -193
310 -193 310 0 -313 0 -312 -60 0 -60 0 0 410 0 411 72 -3 72 -3 181 -289z
m933 232 l3 -58 -181 0 -180 0 0 -115 0 -115 160 0 160 0 0 -60 0 -60 -160 0
-160 0 0 -115 0 -115 180 0 181 0 -3 -57 -3 -58 -242 -3 -243 -2 0 410 0 410
243 -2 242 -3 3 -57z m2832 47 c61 -21 121 -74 149 -130 20 -40 23 -58 19
-120 -6 -90 -39 -145 -116 -191 -60 -36 -96 -44 -209 -44 l-82 0 -3 -157 -3
-158 -62 -3 -63 -3 0 411 0 410 164 0 c120 0 175 -4 206 -15z m656 -12 c54
-29 117 -101 132 -151 27 -91 7 -166 -63 -239 -63 -64 -120 -83 -252 -83 l-93
0 0 -160 0 -160 -60 0 -60 0 0 411 0 411 178 -4 c160 -3 181 -5 218 -25z
m1486 11 c144 -49 210 -207 142 -343 -27 -53 -85 -106 -131 -117 -13 -4 -23
-8 -23 -9 0 -2 49 -75 109 -161 61 -87 107 -162 105 -166 -3 -4 -36 -8 -73 -8
l-68 0 -104 160 -104 160 -47 0 -47 0 -3 -157 -3 -158 -62 -3 -63 -3 0 411 0
410 163 0 c122 0 175 -4 209 -16z m786 -46 l3 -58 -110 0 -111 0 -2 -347 -3
-348 -62 -3 -63 -3 0 351 0 350 -110 0 -110 0 0 60 0 60 283 -2 282 -3 3 -57z
m194 -235 c3 -277 4 -300 23 -332 36 -61 67 -76 155 -76 91 0 120 15 154 81
20 36 21 58 24 332 l3 293 62 -3 62 -3 0 -290 c-1 -312 -4 -341 -53 -414 -101
-150 -332 -172 -465 -43 -49 47 -72 92 -86 167 -12 63 -15 567 -4 578 3 4 32
7 64 7 l58 0 3 -297z m924 10 c98 -157 181 -290 184 -294 3 -4 5 124 5 284 l0
292 63 3 62 3 0 -411 0 -410 -63 0 -62 0 -190 304 -190 304 -3 -304 -2 -305
-63 3 -62 3 -3 395 c-1 217 0 401 3 407 3 9 27 13 73 13 l69 0 179 -287z m574
-123 l0 -410 -60 0 -60 0 0 410 0 410 60 0 60 0 0 -410z m655 350 l0 -55 -112
-3 -113 -3 0 -349 0 -350 -60 0 -60 0 0 350 0 349 -112 3 -113 3 -3 44 c-6 76
-25 72 290 69 l283 -3 0 -55z m205 -350 l0 -410 -60 0 -60 0 0 410 0 410 60 0
60 0 0 -410z m628 348 l3 -58 -181 0 -180 0 0 -115 0 -115 160 0 160 0 0 -60
0 -60 -160 0 -160 0 0 -115 0 -115 180 0 181 0 -3 -57 -3 -58 -242 -3 -243 -2
0 410 0 410 243 -2 242 -3 3 -57z"/>
<path d="M16911 4250 c-57 -26 -97 -68 -127 -134 -52 -114 -50 -274 5 -392 36
-76 95 -126 207 -174 152 -65 174 -88 174 -176 0 -92 -49 -154 -127 -161 -36
-3 -56 1 -81 17 -38 24 -77 100 -87 171 l-7 46 -69 -12 c-38 -7 -72 -15 -76
-19 -11 -11 14 -156 37 -217 29 -74 86 -148 135 -173 28 -14 64 -22 118 -25
91 -4 149 14 204 62 94 82 137 287 97 457 -29 126 -85 189 -224 252 -179 83
-190 92 -190 170 0 58 20 93 62 107 98 34 164 -11 183 -126 l6 -41 77 5 c42 3
79 7 81 9 2 2 -2 38 -8 81 -20 141 -98 257 -188 282 -61 17 -153 13 -202 -9z"/>
<path d="M20665 4258 c-84 -29 -145 -110 -171 -226 -32 -142 -1 -287 79 -378
34 -39 66 -59 173 -109 114 -55 133 -67 147 -98 22 -46 21 -102 -2 -154 -23
-50 -57 -74 -114 -80 -78 -8 -136 50 -157 157 -16 82 -14 79 -57 70 -21 -4
-54 -11 -75 -14 -36 -6 -36 -7 -31 -49 18 -147 63 -258 131 -318 52 -45 93
-59 181 -59 90 0 136 17 191 70 142 138 142 496 -1 625 -21 18 -77 52 -126 75
-145 67 -156 74 -180 109 -27 40 -29 71 -7 117 20 41 59 64 109 64 72 0 111
-43 129 -144 7 -36 9 -38 38 -32 17 3 52 6 78 6 l48 0 -5 48 c-17 171 -87 289
-192 321 -47 14 -145 13 -186 -1z"/>
<path d="M21362 4259 c-52 -15 -126 -95 -152 -164 -44 -116 -37 -272 16 -375
43 -84 88 -119 237 -185 50 -22 99 -51 112 -67 34 -40 40 -93 18 -158 -24 -71
-57 -95 -128 -95 -47 0 -58 4 -88 33 -32 31 -67 110 -67 152 0 40 -9 48 -48
40 -20 -4 -54 -11 -76 -15 l-38 -6 6 -47 c26 -187 90 -306 191 -353 56 -26
184 -26 242 0 112 51 173 180 173 365 0 109 -16 186 -49 239 -46 74 -90 108
-222 166 -139 62 -169 96 -156 179 9 53 45 84 106 90 79 7 123 -33 139 -131 6
-35 11 -42 30 -41 12 0 47 1 78 2 l57 2 -6 68 c-11 137 -77 252 -166 290 -54
24 -148 28 -209 11z"/>
<path d="M22113 4252 c-117 -47 -212 -208 -244 -413 -17 -112 -6 -415 19 -505
39 -144 101 -240 189 -298 39 -25 57 -30 129 -34 75 -4 89 -2 138 22 94 46
172 157 210 301 29 108 41 301 28 432 -15 147 -32 218 -79 313 -44 91 -113
161 -179 184 -61 21 -157 20 -211 -2z m208 -238 c74 -70 103 -176 102 -379 0
-199 -30 -311 -100 -378 -76 -71 -180 -48 -240 53 -40 67 -55 139 -60 290 -6
164 9 257 53 347 37 77 82 105 157 101 47 -4 63 -10 88 -34z"/>
<path d="M22923 4251 c-135 -63 -219 -234 -243 -494 -26 -282 29 -536 143
-663 126 -140 312 -125 416 33 30 45 72 159 86 235 l7 36 -76 39 -75 40 -12
-56 c-16 -80 -47 -148 -81 -176 -42 -35 -105 -34 -148 1 -78 66 -105 186 -98
440 6 195 23 261 88 327 32 31 44 37 81 37 26 0 57 -8 75 -19 34 -21 72 -88
81 -145 6 -41 2 -41 98 -3 56 22 60 26 57 53 -5 58 -45 165 -81 216 -53 77
-116 112 -205 116 -54 2 -81 -2 -113 -17z"/>
<path d="M25587 4256 c-81 -29 -135 -88 -191 -206 -44 -95 -66 -201 -73 -360
-15 -330 80 -591 242 -666 71 -34 177 -33 243 0 100 51 171 156 213 313 27 99
38 375 19 491 -44 285 -169 442 -350 441 -36 0 -82 -6 -103 -13z m183 -228
c85 -59 126 -208 117 -433 -9 -251 -75 -378 -197 -378 -109 0 -178 107 -201
313 -14 122 0 289 30 371 23 60 73 126 105 139 42 17 111 11 146 -12z"/>
<path d="M840 4244 c0 -4 -59 -255 -131 -558 -72 -303 -136 -577 -144 -608
l-13 -58 83 0 83 0 16 70 c9 39 23 102 32 140 l16 71 146 -3 147 -3 26 -110
c14 -60 29 -122 32 -137 7 -28 8 -28 93 -28 77 0 85 2 80 18 -6 20 -296 1203
-296 1208 0 2 -38 4 -85 4 -47 0 -85 -3 -85 -6z m135 -516 c25 -108 45 -201
45 -207 0 -7 -34 -11 -96 -11 -95 0 -96 0 -91 23 3 12 25 109 48 216 24 107
44 190 46 185 1 -5 23 -97 48 -206z"/>
<path d="M1390 3635 l0 -615 75 0 75 0 0 184 0 185 57 95 c32 53 60 96 63 96
3 0 50 -126 104 -280 l100 -280 103 0 c96 0 103 1 95 18 -5 9 -73 178 -151
374 l-142 358 129 217 c71 120 134 228 141 241 l12 22 -104 0 -104 0 -149
-266 -149 -266 -3 266 -2 266 -75 0 -75 0 0 -615z"/>
<path d="M2140 3635 l0 -615 80 0 80 0 0 265 0 265 140 0 140 0 0 -265 0 -265
80 0 80 0 0 615 0 615 -80 0 -80 0 0 -240 0 -240 -140 0 -140 0 0 240 0 240
-80 0 -80 0 0 -615z"/>
<path d="M2890 3635 l0 -615 80 0 80 0 0 615 0 615 -80 0 -80 0 0 -615z"/>
<path d="M4090 3635 l0 -615 80 0 80 0 0 256 0 257 50 -5 c81 -8 79 -5 205
-308 l81 -195 176 -3 176 -2 22 97 c12 54 27 116 33 138 l12 40 145 0 145 0
23 -100 c13 -55 28 -117 33 -137 l10 -38 85 0 c77 0 85 2 80 18 -4 13 -267
1088 -291 1190 -5 21 -11 22 -88 22 l-83 0 -88 -367 c-48 -203 -112 -477 -144
-610 -31 -133 -60 -239 -63 -235 -3 4 -34 81 -69 172 -73 192 -108 266 -150
313 l-30 34 48 25 c52 27 104 93 124 161 8 25 13 93 12 167 0 146 -21 215 -82
279 -50 52 -99 61 -337 61 l-195 0 0 -615z m383 394 c48 -13 68 -44 74 -119 7
-70 -16 -143 -50 -162 -12 -6 -73 -14 -134 -16 l-113 -5 0 150 c0 82 3 153 7
156 10 11 174 8 216 -4z m721 -295 c25 -111 46 -206 46 -213 0 -7 -30 -11 -96
-11 -95 0 -96 0 -91 23 3 12 24 109 48 214 23 106 43 192 45 190 1 -1 23 -92
48 -203z"/>
<path d="M5868 3767 c-3 -446 -4 -485 -21 -510 -60 -92 -145 -28 -146 110 -1
28 -5 54 -9 57 -7 4 -40 -1 -121 -20 -24 -5 -24 -6 -18 -97 6 -106 31 -184 79
-241 40 -48 81 -66 155 -66 100 0 174 65 215 189 21 64 22 82 26 564 l3 497
-80 0 -80 0 -3 -483z"/>
<path d="M6110 4246 c0 -3 61 -163 135 -356 l135 -350 0 -260 0 -260 80 0 80
0 0 259 0 259 131 338 c72 187 134 347 136 357 5 15 -4 17 -84 17 l-89 0 -85
-240 -85 -240 -86 238 -86 237 -91 3 c-50 1 -91 0 -91 -2z"/>
<path d="M6987 4188 c-9 -35 -73 -304 -142 -598 -69 -294 -128 -543 -131 -552
-5 -16 3 -18 79 -18 l84 0 22 103 c12 56 27 119 32 140 l10 38 147 -3 146 -3
31 -135 31 -135 87 -3 c67 -2 86 0 82 10 -5 15 -271 1101 -286 1171 l-11 47
-83 0 -83 0 -15 -62z m188 -645 l6 -33 -96 0 c-59 0 -95 4 -95 10 0 6 20 101
45 212 25 111 45 204 46 207 1 7 84 -346 94 -396z"/>
<path d="M7740 4145 l0 -105 110 0 110 0 0 -510 0 -510 80 0 80 0 0 510 0 510
110 0 110 0 0 105 0 105 -300 0 -300 0 0 -105z"/>
<path d="M8430 3636 l0 -616 80 0 80 0 0 255 0 255 34 0 c87 0 99 -18 217
-306 l84 -204 176 0 176 0 22 103 c12 56 27 119 32 140 l10 38 147 -3 146 -3
31 -135 31 -135 87 -3 c67 -2 86 0 82 10 -5 16 -271 1103 -286 1171 l-11 47
-83 0 -83 0 -45 -187 c-25 -104 -89 -376 -144 -605 -54 -230 -101 -418 -104
-418 -3 0 -32 69 -64 153 -67 178 -126 301 -162 339 l-26 27 26 10 c15 6 47
29 72 52 57 52 85 125 92 240 11 167 -35 300 -122 354 l-48 30 -224 3 -223 4
0 -616z m389 393 c78 -27 95 -204 26 -269 -23 -21 -36 -24 -140 -28 l-115 -5
0 157 0 156 99 0 c54 0 112 -5 130 -11z m756 -486 l6 -33 -96 0 c-59 0 -95 4
-95 10 0 6 20 101 45 212 25 111 45 204 46 207 1 7 84 -346 94 -396z"/>
<path d="M9940 3635 l0 -615 183 1 c112 0 194 5 214 12 89 33 163 135 203 282
31 112 40 416 16 553 -25 142 -69 246 -130 307 -67 67 -100 75 -315 75 l-171
0 0 -615z m320 396 c31 -7 54 -19 77 -44 49 -54 64 -119 70 -297 9 -249 -19
-383 -90 -434 -23 -17 -47 -22 -123 -24 l-94 -4 0 406 0 406 58 0 c31 -1 77
-5 102 -9z"/>
<path d="M10700 3635 l0 -615 285 0 285 0 0 105 0 105 -207 2 -208 3 0 160 0
160 188 3 187 2 0 105 0 105 -187 2 -188 3 0 130 0 130 203 3 202 2 0 105 0
105 -280 0 -280 0 0 -615z"/>
<path d="M11856 4233 c-3 -10 -66 -274 -140 -588 -74 -313 -137 -582 -141
-597 l-7 -28 84 0 84 0 30 138 30 137 147 3 146 3 7 -28 c4 -16 19 -77 33
-138 l26 -110 86 -3 86 -3 -43 173 c-23 95 -91 372 -150 616 l-108 442 -82 0
c-70 0 -83 -3 -88 -17z m139 -516 c25 -109 45 -200 45 -203 0 -2 -43 -4 -95
-4 -69 0 -95 3 -95 13 0 14 79 375 87 397 7 19 5 27 58 -203z"/>
<path d="M12400 3635 l0 -615 75 0 75 0 0 388 1 387 146 -387 147 -388 78 0
78 0 0 615 0 615 -75 0 -75 0 -2 -390 -3 -390 -145 387 -146 388 -77 3 -77 3
0 -616z"/>
<path d="M13150 3635 l0 -617 198 4 c219 3 230 6 297 75 50 53 91 142 117 253
17 77 21 128 22 270 0 191 -12 284 -52 395 -36 102 -82 168 -139 202 -48 28
-49 28 -245 31 l-198 4 0 -617z m370 380 c73 -38 102 -147 102 -385 -1 -249
-33 -359 -112 -387 -19 -7 -72 -12 -117 -12 l-83 -1 0 398 c0 219 3 402 8 406
12 13 169 -2 202 -19z"/>
<path d="M14200 3635 l0 -615 75 0 75 0 0 615 0 615 -75 0 -75 0 0 -615z"/>
<path d="M14490 3635 l0 -615 75 0 75 0 2 385 3 386 144 -386 144 -385 79 0
78 0 0 615 0 615 -70 0 -70 0 -2 -402 -3 -403 -150 400 -151 400 -77 3 -77 3
0 -616z"/>
<path d="M15250 3636 l0 -616 183 0 c207 0 233 7 300 76 77 78 120 203 139
402 13 137 0 350 -28 457 -34 129 -99 231 -174 271 -30 16 -62 19 -227 22
l-193 4 0 -616z m363 377 c70 -40 100 -154 100 -383 0 -167 -13 -261 -44 -322
-31 -61 -59 -73 -169 -73 l-95 0 -3 390 c-1 214 0 396 3 404 8 20 166 8 208
-16z"/>
<path d="M16003 3778 c3 -285 9 -492 16 -520 25 -110 90 -206 165 -242 45 -21
183 -22 234 0 70 29 129 105 160 206 13 44 16 133 19 541 l4 487 -80 0 -80 0
-3 -462 c-3 -431 -4 -466 -22 -501 -25 -50 -57 -70 -110 -70 -56 0 -98 29
-122 85 -17 40 -19 80 -22 496 l-3 452 -80 0 -81 0 5 -472z"/>
<path d="M17400 4145 l0 -105 110 0 110 0 0 -510 0 -510 80 0 80 0 0 510 0
510 110 0 110 0 0 105 0 105 -300 0 -300 0 0 -105z"/>
<path d="M18090 3636 l0 -616 80 0 80 0 0 256 0 257 52 -5 c42 -4 56 -11 75
-34 21 -27 112 -231 178 -401 l28 -73 94 0 c51 0 93 1 93 3 0 2 -34 90 -74
195 -77 198 -111 268 -154 314 l-25 27 26 10 c15 6 47 29 72 52 57 52 85 125
92 240 11 167 -35 300 -122 354 l-48 30 -224 3 -223 4 0 -616z m389 393 c46
-16 65 -59 66 -144 0 -73 -21 -127 -54 -141 -9 -4 -67 -9 -128 -12 l-113 -5 0
157 0 156 99 0 c54 0 112 -5 130 -11z"/>
<path d="M18733 4238 c3 -7 64 -165 136 -352 l131 -338 0 -264 0 -264 80 0 80
0 0 255 0 254 139 361 139 361 -92 -3 -91 -3 -80 -227 c-44 -125 -83 -229 -86
-232 -3 -4 -44 99 -90 226 l-84 233 -94 3 c-73 2 -92 0 -88 -10z"/>
<path d="M19950 4245 c0 -7 -279 -1185 -286 -1207 -5 -16 3 -18 80 -18 47 0
86 3 86 6 0 4 40 187 55 252 5 22 7 23 153 20 l146 -3 32 -133 c17 -73 34
-135 36 -138 3 -3 42 -4 86 -2 l80 3 -58 235 c-32 129 -99 405 -150 613 l-92
377 -84 0 c-46 0 -84 -2 -84 -5z m135 -518 c25 -109 45 -203 45 -208 0 -5 -43
-9 -95 -9 -52 0 -95 4 -95 8 0 5 20 99 45 210 25 111 45 205 46 209 1 16 10
-16 54 -210z"/>
<path d="M23450 3635 l0 -615 80 0 80 0 0 615 0 615 -80 0 -80 0 0 -615z"/>
<path d="M23955 4228 c-4 -18 -88 -373 -280 -1185 -5 -22 -3 -23 78 -23 l84 0
22 104 c12 57 27 120 32 140 l10 37 146 -3 146 -3 31 -135 31 -135 86 -3 86
-3 -151 616 -150 615 -83 0 c-77 0 -83 -1 -88 -22z m140 -510 c25 -108 45
-199 45 -202 0 -3 -43 -6 -95 -6 -75 0 -95 3 -95 14 0 14 76 354 87 391 8 25
4 37 58 -197z"/>
<path d="M24370 4145 l0 -105 110 0 110 0 0 -510 0 -510 80 0 80 0 0 510 0
510 110 0 110 0 0 105 0 105 -300 0 -300 0 0 -105z"/>
<path d="M25060 3635 l0 -615 75 0 75 0 0 615 0 615 -75 0 -75 0 0 -615z"/>
<path d="M26170 3635 l0 -615 70 0 70 0 2 391 3 390 146 -388 146 -388 82 -3
81 -3 0 616 0 615 -75 0 -75 0 -2 -397 -3 -397 -149 397 -148 397 -74 0 -74 0
0 -615z"/>
<path d="M3190 3630 l0 -610 265 0 265 0 0 105 0 105 -185 0 -185 0 0 505 0
505 -80 0 -80 0 0 -610z"/>
<path d="M7220 1511 c-74 -24 -131 -74 -171 -151 -20 -38 -24 -60 -24 -140 0
-84 3 -101 27 -146 33 -63 91 -116 151 -139 72 -27 191 -18 254 21 190 118
190 411 0 528 -42 25 -60 30 -130 33 -45 1 -93 -1 -107 -6z"/>
<path d="M10375 1497 c-59 -29 -108 -76 -138 -131 -19 -35 -22 -57 -22 -146 0
-117 14 -158 77 -220 70 -71 203 -101 299 -68 204 69 262 357 103 512 -54 53
-98 70 -189 74 -68 2 -87 -1 -130 -21z"/>
<path d="M18548 1505 c-245 -90 -245 -484 -1 -571 59 -21 170 -17 223 7 108
48 170 151 170 279 0 128 -62 231 -170 279 -53 24 -164 27 -222 6z"/>
<path d="M20688 1505 c-90 -33 -158 -115 -177 -216 -28 -140 25 -271 136 -336
62 -36 181 -44 250 -18 113 44 183 152 183 285 0 128 -62 231 -170 279 -53 24
-164 27 -222 6z"/>
<path d="M2201 1309 c-29 -82 -51 -152 -49 -155 3 -2 53 -3 110 -2 l105 3 -54
150 c-30 82 -55 151 -56 152 -1 1 -26 -66 -56 -148z"/>
<path d="M5046 1312 c-27 -75 -51 -143 -54 -149 -3 -10 23 -13 108 -13 85 0
111 3 108 13 -3 6 -27 74 -54 149 -27 76 -51 138 -54 138 -3 0 -27 -62 -54
-138z"/>
<path d="M7950 1381 l0 -131 88 0 c104 0 162 22 186 69 31 59 13 130 -41 167
-21 14 -52 19 -130 22 l-103 4 0 -131z"/>
<path d="M11140 1400 l0 -110 100 0 c117 0 149 12 174 63 27 59 0 124 -61 148
-13 5 -67 9 -119 9 l-94 0 0 -110z"/>
<path d="M11140 1049 l0 -121 118 4 c77 2 124 8 138 17 52 34 69 108 37 162
-28 46 -67 59 -187 59 l-106 0 0 -121z"/>
<path d="M11931 1368 c-18 -51 -44 -121 -57 -155 l-23 -63 113 0 114 0 -53
143 c-28 78 -54 148 -56 155 -2 7 -19 -29 -38 -80z"/>
<path d="M13330 1400 l0 -110 106 0 106 0 34 34 c27 27 34 42 34 73 0 82 -52
113 -190 113 l-90 0 0 -110z"/>
<path d="M13330 1050 l0 -120 100 0 c65 0 113 5 135 14 39 16 75 68 75 106 0
38 -36 90 -75 106 -22 9 -70 14 -135 14 l-100 0 0 -120z"/>
<path d="M19300 1380 l0 -130 68 0 c155 1 212 36 212 129 0 94 -57 131 -202
131 l-78 0 0 -130z"/>
<path d="M19922 1384 l3 -129 95 1 c111 1 149 15 174 68 21 45 20 84 -3 119
-34 52 -58 61 -169 65 l-103 4 3 -128z"/>
<path d="M21440 1380 l0 -130 78 0 c144 0 202 37 202 130 0 93 -58 130 -202
130 l-78 0 0 -130z"/>
</g>
</svg>
