<?xml version="1.0" standalone="no"?>
<!DOCTYPE svg PUBLIC "-//W3C//DTD SVG 20010904//EN"
 "http://www.w3.org/TR/2001/REC-SVG-20010904/DTD/svg10.dtd">
<svg version="1.0" xmlns="http://www.w3.org/2000/svg"
 width="20000.000000pt" height="11250.000000pt" viewBox="0 0 20000.000000 11250.000000"
 preserveAspectRatio="xMidYMid meet">
<metadata>
Created by potrace 1.16, written by Peter Selinger 2001-2019
</metadata>
<g transform="translate(0.000000,11250.000000) scale(0.100000,-0.100000)"
fill="#000000" stroke="none">
<path d="M126660 93080 l0 -5080 29045 0 29045 0 0 -22370 0 -22370 5105 0
5105 0 0 23098 c0 12704 -3 25057 -7 27450 l-6 4352 -34144 0 -34143 0 0
-5080z"/>
<path d="M5870 44700 l0 -29100 34150 0 34150 0 0 5080 0 5080 -29045 0
-29045 0 0 24020 0 24020 -5105 0 -5105 0 0 -29100z"/>
</g>
</svg>
